<?xml version="1.0" encoding="UTF-8"?>
<!DOCTYPE svg PUBLIC "-//W3C//DTD SVG 1.0//EN" "http://www.w3.org/TR/2001/REC-SVG-20010904/DTD/svg10.dtd">
<!-- Creator: CorelDRAW X8 -->
<svg xmlns="http://www.w3.org/2000/svg" xml:space="preserve" width="176.191mm" height="91.44mm" version="1.0" style="shape-rendering:geometricPrecision; text-rendering:geometricPrecision; image-rendering:optimizeQuality; fill-rule:evenodd; clip-rule:evenodd"
viewBox="0 0 17621 9145"
 xmlns:xlink="http://www.w3.org/1999/xlink">
 <defs>
  <style type="text/css">
   <![CDATA[
    .str5 {stroke:black;stroke-width:8.47112;stroke-linecap:round}
    .str4 {stroke:#2B2A29;stroke-width:8.47112;stroke-linecap:round;stroke-linejoin:round}
    .str3 {stroke:black;stroke-width:8.47112;stroke-linecap:round;stroke-linejoin:round}
    .str1 {stroke:#B2B3B3;stroke-width:8.47112;stroke-linecap:round;stroke-linejoin:round}
    .str2 {stroke:#D9DADA;stroke-width:8.47112;stroke-linecap:round;stroke-linejoin:round}
    .str0 {stroke:#B2B3B3;stroke-width:8.47112;stroke-linecap:round;stroke-linejoin:round;stroke-dasharray:42.355601 25.413361}
    .fil1 {fill:none}
    .fil0 {fill:#FEFEFE}
    .fil4 {fill:black}
    .fil2 {fill:#898989}
    .fil3 {fill:#D03730}
    .fil5 {fill:white}
   ]]>
  </style>
 </defs>
 <g id="Слой_x0020_1">
  <metadata id="CorelCorpID_0Corel-Layer"/>
  <rect class="fil0" width="17621" height="9145"/>
  <path class="fil1 str0" d="M2311 2594l0 -756 2310 0m9759 4132l842 0 0 -1879m-4073 -1369l0 3384m-2980 -4106l0 -912 2242 0m-4548 2100l0 1611 1168 0"/>
  <path class="fil1 str1" d="M2812 4967l-1007 0c-113,0 -216,-60 -272,-157l-504 -872c-56,-97 -56,-217 0,-314l504 -871c56,-98 159,-157 272,-157l1007 0c112,0 215,59 272,157l503 871c56,97 56,217 0,314l-503 872c-57,97 -160,157 -272,157z"/>
  <path class="fil1 str1" d="M1176 2742l-178 0c-20,0 -38,-11 -48,-28l-89 -158c-10,-18 -10,-40 0,-57l89 -158c10,-18 28,-29 48,-29l178 0c20,0 38,11 48,29l89 158c10,17 10,39 0,57l-89 158c-10,17 -28,28 -48,28z"/>
  <path class="fil1 str1" d="M16537 4019l-319 0c-36,0 -69,-19 -87,-51l-159 -283c-18,-31 -18,-70 0,-102l159 -283c18,-31 51,-51 87,-51l319 0c35,0 68,20 86,51l160 283c17,32 17,71 0,102l-160 283c-18,32 -51,51 -86,51z"/>
  <path class="fil1 str2" d="M7761 902l-197 0c-22,0 -42,-12 -53,-31l-99 -175c-11,-19 -11,-43 0,-63l99 -174c11,-20 31,-32 53,-32l197 0c22,0 42,12 53,32l99 174c11,20 11,44 0,63l-99 175c-11,19 -31,31 -53,31z"/>
  <path class="fil1 str1" d="M15723 1851l-155 0c-18,0 -34,-9 -42,-24l-78 -137c-8,-16 -8,-34 0,-50l78 -137c8,-15 24,-24 42,-24l155 0c17,0 33,9 41,24l78 137c9,16 9,34 0,50l-78 137c-8,15 -24,24 -41,24z"/>
  <path class="fil1 str1" d="M15273 4090l-849 0c-95,0 -182,-50 -230,-132l-424 -738c-47,-82 -47,-184 0,-266l424 -738c48,-82 135,-132 230,-132l849 0c94,0 182,50 229,132l424 738c47,82 47,184 0,266l-424 738c-47,82 -135,132 -229,132z"/>
  <path class="fil1 str1" d="M6642 3188l-1117 0c-124,0 -239,-66 -301,-174l-558 -969c-62,-108 -62,-241 0,-349l558 -969c62,-108 177,-174 301,-174l1117 0c124,0 239,66 301,174l558 969c63,108 63,241 0,349l-558 969c-62,108 -177,174 -301,174z"/>
  <path class="fil1 str1" d="M6563 3003l-959 0c-107,0 -206,-57 -259,-150l-480 -833c-53,-92 -53,-207 0,-300l480 -832c53,-93 152,-150 259,-150l959 0c107,0 206,57 259,150l480 832c53,93 53,208 0,300l-480 833c-53,93 -152,150 -259,150z"/>
  <path class="fil1 str1" d="M6869 1858c-248,-3 -519,183 -639,390 -106,-259 -213,-519 -319,-778 179,-314 445,-385 790,-387 130,303 259,607 389,910 -274,-40 -516,61 -713,253 -47,103 -114,149 -228,108 -257,-59 -536,148 -682,304 -130,-303 -260,-605 -390,-907 174,-192 388,-305 656,-318m546 305c149,-108 234,-139 418,-154m-470 30c150,-108 234,-139 418,-154m-470 30c150,-108 234,-139 418,-154m-1150 733c150,-108 234,-139 418,-154m-470 30c150,-108 234,-139 418,-154m-469 30c149,-108 233,-139 418,-154"/>
  <path class="fil1 str1" d="M3115 4063c-1,-127 -2,-254 -3,-381 72,-37 143,-74 215,-112 -339,-175 -678,-351 -1018,-527 -340,177 -680,355 -1020,532 339,175 679,350 1018,525 208,-108 417,-216 625,-324 2,170 3,340 4,510 -362,292 -907,329 -1258,2 2,-115 4,-229 6,-344m89 251c348,255 713,240 1064,5"/>
  <path class="fil1 str1" d="M7761 902l-197 0c-22,0 -42,-12 -53,-31l-99 -175c-11,-19 -11,-43 0,-63l99 -174c11,-20 31,-32 53,-32l197 0c22,0 42,12 53,32l99 174c11,20 11,44 0,63l-99 175c-11,19 -31,31 -53,31z"/>
  <path class="fil1 str1" d="M14978 3304c-69,55 -155,88 -249,88 -225,0 -406,-188 -406,-420 0,-233 181,-421 406,-421 224,0 406,188 406,421 0,87 -25,168 -69,235 148,145 296,290 444,435 -33,34 -65,68 -97,103 -115,-117 -230,-234 -345,-350 -93,74 -211,119 -339,119 -300,0 -542,-243 -542,-542 0,-300 242,-543 542,-543 299,0 542,243 542,543 0,122 -41,236 -110,327"/>
  <path class="fil2" d="M3508 7944c-24,26 -69,72 -143,99 -73,26 -174,34 -259,16 -85,-18 -154,-63 -198,-148 -44,-85 -63,-210 -47,-377 17,-167 68,-376 151,-617 83,-241 198,-513 292,-691 95,-178 168,-261 245,-327 78,-66 159,-115 289,-176 130,-61 308,-134 419,-178 111,-45 156,-60 175,-51 19,8 12,41 13,81 0,40 7,87 29,145 23,58 62,128 83,166 22,39 26,45 50,29 23,-17 66,-56 125,-72 59,-15 134,-6 175,-5 41,0 49,-9 91,-56 43,-47 120,-133 171,-201 51,-68 75,-119 95,-140 21,-22 39,-14 73,30 35,44 86,124 133,168 46,43 87,51 136,56 48,5 104,7 163,20 60,12 122,35 191,81 69,47 145,118 208,294 63,177 112,458 142,728 29,271 39,530 22,719 -18,188 -63,307 -122,375 -60,68 -135,85 -174,94 -38,9 -41,9 -53,90 -13,82 -35,245 -54,408 -20,162 -36,324 -45,410 -8,86 -10,96 -67,101 -58,5 -173,5 -359,-2 -185,-7 -442,-20 -697,-20 -255,0 -507,13 -735,20 -228,7 -432,7 -538,4 -107,-3 -117,-9 -109,-52 7,-42 32,-121 58,-251 25,-130 52,-312 71,-439 19,-127 32,-199 37,-251 6,-52 4,-82 2,-99 -2,-16 -5,-19 -8,-16 -3,2 -6,9 -31,35z"/>
  <path class="fil3" d="M4274 7740c-169,5 -424,10 -625,16 3,-7 6,-16 9,-25 5,-15 10,-32 14,-48 4,-17 8,-32 12,-51 3,-19 7,-41 9,-53 2,-11 3,-13 7,-16 4,-2 12,-6 22,-8 10,-2 24,-2 49,-2 26,1 63,2 93,2 30,0 54,-1 73,-3 19,-2 34,-5 45,-9 10,-3 17,-6 25,-10 7,-5 16,-10 29,-22 11,-10 24,-24 37,-40l201 269zm-1103 -419c-286,-361 -629,-795 -812,-1026 282,3 564,6 847,9l574 772 -5 3c-8,7 -22,17 -32,25 -10,7 -17,13 -21,16 -4,2 -4,2 -11,-3 -6,-5 -18,-14 -30,-23 -11,-8 -21,-17 -29,-28 -8,-11 -14,-24 -19,-38 -5,-15 -9,-31 -14,-52 -4,-20 -9,-45 -16,-67 -7,-22 -16,-40 -24,-53 -8,-14 -15,-24 -24,-33 -8,-9 -18,-18 -26,-24 -7,-5 -12,-8 -17,-8 -5,-1 -10,0 -14,2 -4,2 -6,6 -9,13 -3,7 -5,18 -6,36 -2,19 -1,46 -2,77 0,31 -1,67 -2,93 -1,25 -1,42 -3,63 -1,22 -4,48 -6,68 -2,20 -3,33 -4,44 -2,10 -3,18 -4,24 -2,7 -4,13 -9,20 -6,7 -16,16 -26,23 -11,7 -22,12 -34,18 -11,5 -21,11 -36,16 -14,6 -32,11 -51,15 -19,4 -39,6 -58,9 -19,2 -37,4 -50,5 -12,2 -19,3 -25,4l-2 0z"/>
  <path class="fil3" d="M7943 4109c-76,17 -154,36 -243,59 -185,49 -419,114 -580,231 -162,117 -251,285 -331,565 -81,280 -153,671 -180,992 -26,322 -6,573 48,751 53,179 141,283 220,341 80,57 152,67 192,72 40,5 48,5 4,183 -44,178 -138,534 -214,850 -76,316 -134,592 -161,739 -27,147 -25,165 71,165 96,0 285,-18 470,-17 184,1 363,22 512,22 56,0 107,-3 155,-7 0,-190 204,-1612 276,-1676 19,3 57,10 137,22 175,27 350,53 526,72 58,6 99,10 123,12 23,2 27,2 37,26 97,234 61,1215 53,1523 60,-5 123,-11 196,-18 152,-15 349,-33 513,-24 163,9 292,46 366,45 73,-1 91,-41 83,-218 -7,-177 -40,-491 -83,-806 -44,-315 -99,-632 -126,-790 -27,-158 -27,-158 88,-179 116,-21 348,-64 486,-105 139,-41 183,-81 210,-189 26,-109 33,-286 -28,-502 -61,-217 -190,-474 -314,-768 -123,-294 -240,-625 -393,-847 -154,-222 -343,-334 -560,-420 -104,-41 -215,-77 -327,-105 -10,-56 -25,-106 -42,-140 -34,-71 -73,-73 -106,19 -33,92 -58,279 -123,406 -27,53 -62,95 -100,129 78,-9 146,-31 190,-66 -4,68 -102,175 -132,265 -25,75 -40,173 -44,266 -14,357 108,777 99,1221 -2,72 -2,72 -11,72 -9,0 -27,0 -70,1 -43,0 -110,0 -186,-1 -76,-2 -160,-5 -204,-6 -45,-2 -48,-2 -51,-2 -2,0 -2,0 -3,-2 0,-2 0,-6 1,-19 0,-14 1,-37 4,-112 2,-74 7,-199 8,-326 4,-322 10,-1179 -110,-1408 -20,-22 -35,-48 -56,-79 -37,-54 -92,-123 -183,-171 -32,-18 -69,-33 -107,-46z"/>
  <path class="fil2" d="M7906 9055c81,-7 152,-18 219,-24 107,-11 201,-11 326,-5 206,8 401,23 607,8 8,-308 44,-1289 -53,-1523 -10,-24 -14,-24 -37,-26 -24,-2 -65,-6 -123,-12 -176,-19 -351,-45 -526,-72 -80,-12 -118,-19 -137,-22 -72,64 -276,1486 -276,1676zm1082 -4599c-150,122 -591,73 -699,-51 139,265 115,1363 102,1734 -3,75 -4,98 -4,112 -1,13 -1,17 -1,19 1,2 1,2 3,2 168,8 343,12 511,8 9,0 9,0 11,-72 9,-444 -113,-864 -99,-1221 4,-93 19,-191 44,-266 30,-90 128,-197 132,-265z"/>
  <path class="fil4" d="M8016 3219c10,33 27,98 42,166 15,68 28,139 42,241 13,103 26,236 23,355 -2,119 -20,222 -53,296 -32,75 -80,120 -82,171 -1,51 42,108 100,141 58,33 130,42 150,88 19,46 -15,129 -94,194 -80,64 -206,111 -372,90 -167,-21 -374,-110 -476,-232 -103,-123 -102,-280 -27,-375 74,-96 223,-129 308,-184 86,-55 108,-131 106,-327 -3,-195 -30,-510 -22,-767 9,-257 54,-455 130,-628 76,-173 183,-321 297,-409 115,-88 237,-115 308,-126 71,-11 91,-4 121,-19 30,-14 70,-49 166,-41 96,8 248,59 384,173 136,115 257,293 373,575 116,282 227,667 296,958 68,291 94,487 101,609 7,121 -5,167 10,212 15,44 58,87 113,143 56,55 124,123 165,240 41,117 54,283 19,416 -34,133 -118,234 -218,278 -99,45 -215,32 -324,-49 -109,-81 -211,-230 -260,-375 -49,-144 -44,-283 -59,-406 -15,-122 -49,-229 -105,-308 -55,-79 -132,-131 -174,-243 -42,-112 -50,-285 -54,-372 -4,-86 -3,-87 1,-95 5,-7 13,-21 18,-30 6,-9 8,-13 14,-24 5,-11 14,-28 23,-48 8,-19 17,-39 25,-63 9,-24 18,-51 26,-78 8,-28 16,-56 23,-86 7,-29 13,-60 17,-75 3,-15 3,-15 9,-18 6,-2 18,-7 30,-13 12,-6 24,-13 37,-22 13,-8 27,-19 38,-29 11,-11 19,-20 27,-32 9,-12 17,-25 23,-40 6,-15 11,-31 14,-45 4,-14 5,-26 4,-39 -2,-13 -6,-28 -12,-41 -5,-13 -12,-24 -21,-33 -10,-9 -21,-15 -35,-20 -13,-5 -30,-10 -42,-14 -13,-5 -22,-8 -26,-65 -5,-56 -6,-164 -34,-273 -28,-110 -83,-220 -163,-292 -79,-72 -183,-105 -256,-106 -72,-1 -113,30 -166,37 -53,6 -119,-13 -198,7 -78,19 -169,76 -234,155 -64,78 -101,178 -122,266 -21,88 -25,165 -27,210 -2,45 -1,58 -1,64 0,6 0,6 -14,4 -14,-3 -42,-8 -65,4 -24,12 -42,41 -43,79 0,38 17,84 35,117 19,32 37,50 54,63 16,14 30,23 43,31 13,7 26,14 34,18 9,4 14,6 17,7 3,1 4,2 13,34z"/>
  <path class="fil1 str3" d="M9161 2855c24,6 61,16 81,34 45,39 44,106 23,158 -9,23 -27,48 -43,66 -33,36 -73,58 -122,77m35 -151c25,-41 41,-63 90,-72m-1278 -97c-25,-7 -44,-10 -70,-3 -89,22 -54,151 -17,210 33,52 92,88 153,112m1104 -89c-49,264 -96,484 -307,675 -178,161 -329,161 -507,0 -211,-190 -257,-408 -307,-675m-22 -63c-18,-30 -26,-39 -57,-57"/>
  <path class="fil5" d="M9373 7423c9,3 29,6 50,9 21,3 43,5 66,6 23,1 46,0 70,-3 23,-2 46,-6 70,-13 25,-7 51,-18 74,-30 22,-13 40,-26 57,-40 16,-14 30,-28 43,-42 12,-14 22,-27 32,-43 11,-17 23,-35 33,-58 11,-22 21,-48 29,-72 8,-24 14,-47 17,-59 3,-11 3,-11 -3,-12 -6,0 -19,0 -38,-1 -20,-1 -46,-3 -82,-6 -35,-3 -80,-8 -130,-14 -50,-7 -105,-15 -150,-22 -44,-7 -78,-13 -95,-16 -17,-3 -17,-3 -17,1 0,3 0,11 -1,32 -1,21 -2,55 -4,85 -1,31 -3,57 -4,80 -2,23 -4,41 -6,63 -3,21 -5,46 -8,72 -4,25 -8,50 -10,64 -2,13 -3,16 7,19z"/>
  <path class="fil5" d="M9861 6183c30,-4 93,-13 124,-19 31,-5 32,-6 34,-11 2,-6 5,-14 10,-28 5,-14 12,-32 16,-48 4,-16 5,-29 3,-39 -2,-9 -6,-16 -11,-20 -5,-4 -12,-5 -20,-5 -8,1 -17,3 -22,4 -5,1 -4,0 -3,-5 1,-5 2,-14 3,-22 1,-8 1,-15 -2,-20 -2,-5 -6,-8 -11,-9 -4,-2 -7,-1 -13,1 -7,2 -16,6 -26,16 -11,9 -23,24 -36,47 -13,23 -28,55 -39,78 -10,23 -17,38 -23,51 -6,12 -10,22 -12,27 -3,6 -3,7 28,2z"/>
  <path class="fil5" d="M8247 6690c1,-2 3,-6 7,-16 3,-10 8,-26 12,-43 4,-17 8,-35 10,-52 2,-18 3,-34 3,-50 0,-16 0,-31 -3,-54 -2,-23 -6,-55 -10,-80 -4,-25 -8,-45 -11,-55 -2,-10 -3,-12 -5,-14 -2,-2 -5,-6 -26,-23 -21,-16 -60,-46 -88,-68 -29,-22 -48,-37 -68,-55 -21,-18 -43,-39 -61,-56 -17,-17 -30,-30 -45,-46 -14,-15 -30,-33 -48,-54 -18,-21 -38,-44 -51,-61 -14,-17 -21,-27 -28,-34 -7,-8 -14,-13 -22,-17 -8,-3 -19,-7 -34,-9 -15,-3 -35,-4 -57,-6 -22,-2 -46,-5 -72,-6 -27,-2 -56,-4 -82,-6 -26,-2 -49,-6 -75,-10 -25,-5 -52,-11 -76,-16 -23,-4 -42,-8 -55,-10 -13,-2 -20,-2 -37,-1 -16,2 -42,5 -76,8 -34,4 -77,7 -118,10 -41,4 -80,7 -110,10 -30,4 -51,8 -66,13 -15,4 -24,9 -30,13 -7,5 -10,10 -11,15 0,5 1,10 4,16 4,6 11,13 21,20 10,8 24,15 40,20 17,4 36,5 59,6 23,0 49,1 62,1 13,0 12,0 -2,4 -15,5 -44,13 -65,18 -22,6 -37,9 -57,11 -19,2 -44,4 -67,6 -23,2 -45,4 -60,7 -16,4 -25,8 -31,14 -7,6 -10,14 -12,21 -2,8 -2,15 0,23 1,8 5,17 10,25 6,8 14,14 22,19 7,5 15,9 19,10 5,2 6,1 9,4 3,4 7,11 14,18 7,6 17,12 29,16 12,4 27,6 48,6 21,0 49,-2 97,-8 47,-6 115,-16 156,-22 42,-6 57,-8 65,-9 7,-1 7,0 1,3 -6,3 -16,10 -29,16 -13,7 -28,13 -45,18 -16,6 -33,11 -53,17 -20,5 -44,11 -61,16 -18,4 -30,8 -39,12 -9,4 -15,9 -17,15 -3,5 -2,10 2,15 5,4 12,9 24,14 11,5 27,10 40,13 13,4 25,6 42,7 18,2 42,3 62,3 21,-1 38,-3 55,-6 18,-3 35,-7 57,-15 22,-9 49,-22 68,-32 20,-10 34,-17 42,-22 9,-4 12,-5 20,-7 7,-1 17,-3 31,-4 14,-1 31,-2 48,-2 18,1 35,2 52,5 16,3 31,8 45,13 15,6 28,12 42,20 13,7 25,17 35,25 11,8 18,15 38,40 20,25 51,68 76,102 25,34 44,59 62,80 17,22 33,39 47,54 14,14 27,25 42,37 15,11 33,23 54,35 20,11 42,21 66,31 24,9 49,17 76,25 28,7 58,15 73,18 15,4 16,4 16,1z"/>
  <path class="fil1 str4" d="M9829 6189c29,-63 57,-126 78,-164 51,-94 128,-91 66,37 -15,30 -36,72 -57,114m-553 1247c357,73 499,-124 554,-356m76 -1048c99,-30 42,89 23,141"/>
  <path class="fil1 str3" d="M7171 7140c241,66 483,132 744,187 261,56 541,100 783,130 242,29 445,43 648,56 15,-77 30,-154 39,-244 8,-81 11,-173 14,-265"/>
  <path class="fil1 str4" d="M8245 6693c-251,-56 -310,-105 -456,-316 -45,-64 -70,-99 -107,-125 -37,-25 -85,-41 -128,-47 -43,-5 -81,1 -99,3 -19,3 -19,2 -50,19 -30,17 -91,51 -159,62 -68,11 -143,0 -183,-16 -39,-16 -44,-35 -11,-49 33,-15 104,-24 164,-48 60,-24 109,-62 136,-83 26,-20 30,-22 74,-30 44,-9 129,-24 214,-39m-526 -44c-42,1 -85,3 -119,-3 -33,-6 -58,-20 -72,-35 -14,-16 -17,-33 7,-46 25,-12 76,-20 135,-25 59,-5 126,-8 173,-13 47,-4 74,-10 97,-12 22,-1 39,3 76,12 38,9 95,22 165,29 70,7 152,7 199,15 47,8 60,24 88,60 29,36 73,92 126,145 54,54 116,104 161,140 43,35 71,57 98,78m-1384 -184c-71,-19 -84,-103 -19,-114 87,-16 118,-1 224,-34 42,-13 89,-26 129,-36 40,-10 72,-15 107,-20 35,-5 74,-9 112,-13m-130 216c-74,13 -147,26 -209,33 -61,8 -111,11 -144,8 -73,-7 -108,-71 -11,-95 20,-5 43,-9 65,-13 43,-9 81,-19 136,-38 54,-19 125,-47 184,-63 58,-15 104,-19 156,-23 53,-3 111,-7 169,-11"/>
  <path class="fil1 str4" d="M10626 6181c-201,-91 -367,-58 -575,-26 -141,21 -301,49 -461,70 -269,36 -535,53 -761,56 -226,3 -413,-7 -599,-18 46,132 80,314 10,443 486,140 1233,361 1711,361"/>
  <path class="fil1 str3" d="M12184 4962c9,-16 19,-33 28,-55 35,-92 32,-219 15,-319"/>
  <path class="fil1 str3" d="M13101 4795c-14,-11 -29,-23 -45,-42 -16,-18 -33,-42 -49,-70 -15,-29 -30,-61 -42,-95 -12,-35 -22,-72 -29,-103 -6,-31 -9,-56 -12,-81"/>
  <path class="fil1 str3" d="M13006 3806c80,-5 122,45 116,118 -3,34 -14,59 -33,87 -25,37 -60,63 -103,88m2 -39c-8,193 -36,361 -179,531 -141,167 -281,192 -470,83 -230,-132 -381,-479 -422,-741m1075 43c8,-36 43,-80 80,-89"/>
  <path class="fil2" d="M11447 7926c12,90 -2,285 -5,453 -3,139 -7,390 32,526 22,77 61,106 155,115 94,9 243,-1 434,2 190,2 422,17 628,16 205,-1 385,-19 587,-21 203,-3 428,10 553,4 178,-8 167,-82 175,-235 15,-285 -24,-760 -40,-966 -8,-105 -8,-111 40,-126 48,-14 144,-36 301,-91 157,-54 375,-140 517,-225 141,-84 206,-168 178,-356 -27,-188 -147,-481 -256,-752 -108,-271 -205,-520 -296,-718 -92,-198 -178,-345 -252,-445 -74,-99 -136,-152 -245,-188 -108,-37 -263,-58 -397,-84 -133,-26 -247,-55 -334,-95 -87,-40 -148,-90 -190,-101 -22,-6 -38,-2 -55,10 -49,35 -138,135 -185,182 -40,38 -61,61 -101,123 -41,62 -101,164 -135,217 -34,52 -43,55 -75,9 -33,-45 -89,-139 -133,-218 -44,-79 -76,-144 -92,-176 -16,-32 -16,-32 -28,-8 -12,24 -36,73 -67,119 -32,46 -70,89 -203,162 -133,72 -359,173 -479,228 -268,124 -339,489 -407,749 -94,357 -196,913 -215,1252 -18,338 46,461 144,520 98,60 229,58 313,50 84,-9 121,-22 133,68zm2464 -963c50,-24 138,-64 182,-89 45,-25 47,-36 41,-56 -5,-21 -18,-51 -48,-119 -31,-68 -79,-173 -103,-226 -18,-37 -23,-48 -27,-32 -5,37 -12,81 -18,117 -26,141 -71,349 -85,412 1,20 17,12 58,-7z"/>
  <path class="fil1 str3" d="M12042 5133c99,-35 151,-75 197,-134 71,112 133,192 229,254m1477 1156c-120,-215 -175,-381 -198,-571m-1241 -533c-122,635 -157,1447 -202,2104 -39,563 -11,899 55,1465m208 -3623c103,-95 223,-242 289,-383 41,94 59,165 76,236 112,-107 178,-204 264,-332"/>
  <path class="fil3" d="M13139 7887c-503,4 -1006,8 -1510,12 -205,-480 -411,-959 -616,-1438 530,-16 1060,-33 1590,-50 179,492 358,984 536,1476z"/>
  <path class="fil4" d="M11885 3899c-21,-33 -52,-93 -66,-153 -14,-60 -11,-120 2,-170 12,-49 32,-89 35,-133 2,-43 -13,-90 3,-139 17,-49 67,-101 135,-134 69,-33 158,-48 247,-76 89,-28 179,-68 268,-72 89,-3 178,30 271,96 92,65 187,161 238,245 50,85 56,156 54,213 -2,56 -11,97 -12,135 -1,38 7,73 11,91 4,18 4,18 0,16 -3,-1 -10,-4 -17,-6 -6,-2 -11,-3 -18,-4 -8,-1 -16,-1 -23,0 -8,1 -13,3 -20,-8 -6,-11 -15,-36 -32,-66 -18,-29 -45,-63 -60,-104 -15,-41 -17,-89 -45,-140 -28,-51 -81,-106 -141,-126 -61,-19 -128,-5 -207,-4 -78,1 -167,-12 -243,-9 -76,4 -139,25 -184,59 -45,35 -72,83 -84,127 -13,44 -12,84 -16,114 -4,30 -14,51 -26,79 -13,28 -28,62 -34,99 -5,36 -1,75 -3,92 -3,17 -12,11 -33,-22z"/>
  <path class="fil5" d="M11139 7328c9,-12 18,-23 29,-35 11,-11 23,-23 39,-35 16,-12 35,-23 54,-33 19,-10 38,-18 57,-25 19,-7 38,-12 64,-16 26,-4 60,-7 98,-10 39,-2 83,-5 125,-8 42,-2 82,-4 119,-5 36,-1 69,-1 97,-1 28,1 52,3 69,5 16,2 24,6 30,11 6,5 9,12 11,19 2,6 3,11 2,16 0,6 -2,12 -4,16 -2,5 -3,7 -4,8 0,1 0,1 5,1 4,-1 12,-3 22,-3 10,0 22,1 34,4 12,2 23,6 33,11 10,4 17,9 23,14 5,4 9,8 11,13 3,5 4,10 5,15 0,4 -1,7 -3,12 -2,5 -6,12 -13,19 -7,7 -17,15 -28,22 -12,8 -26,15 -43,22 -17,8 -37,15 -49,19 -11,5 -14,7 -11,7 4,0 14,-1 25,-3 11,-2 23,-4 35,-5 11,-2 21,-3 31,-2 11,1 21,2 28,5 8,2 13,4 17,9 3,4 5,11 6,16 1,6 1,12 -2,18 -4,6 -9,13 -17,20 -8,7 -19,15 -31,23 -13,7 -28,15 -35,18 -7,4 -7,4 -7,6 0,2 0,5 -1,11 -2,5 -4,12 -12,22 -7,10 -20,22 -31,32 -12,11 -23,19 -43,33 -20,14 -50,32 -78,48 -29,17 -56,31 -91,49 -35,17 -78,38 -112,53 -34,15 -60,25 -84,33 -25,9 -48,15 -68,20 -20,4 -38,7 -54,8 -16,2 -30,2 -44,1 -14,-1 -27,-3 -44,-8 -17,-5 -37,-14 -56,-24 -19,-10 -36,-20 -50,-30 -14,-10 -24,-19 -35,-30 -11,-11 -22,-24 -31,-36 -9,-13 -16,-25 -23,-39 -7,-13 -13,-28 -18,-46 -5,-17 -8,-37 -9,-56 -1,-19 0,-36 2,-52 1,-15 4,-28 7,-42 4,-13 9,-28 13,-40 5,-13 10,-24 17,-36 6,-12 15,-27 23,-39z"/>
  <path class="fil5" d="M13452 7596c-18,3 -53,7 -87,12 -106,15 -191,40 -292,73 -37,11 -72,23 -99,30 -27,8 -46,13 -61,16 -15,3 -26,4 -34,4 -9,-1 -15,-3 -32,-11 -67,-28 -155,-60 -216,-99 -15,-9 -28,-19 -38,-28 -10,-10 -17,-19 -20,-24 -4,-5 -5,-6 -10,-7 -5,-1 -15,-2 -23,-4 -8,-3 -16,-7 -30,-18 -63,-49 -152,-127 -203,-189 -20,-24 -34,-39 -25,-70 2,-4 1,-4 -1,-6 -2,-2 -7,-5 -13,-13 -6,-7 -15,-18 -21,-28 -22,-31 -38,-66 7,-82 4,-1 5,-2 5,-3 1,0 -1,-1 -2,-4 -16,-35 21,-47 48,-54 52,-11 128,-3 181,2 112,11 227,24 340,21 25,0 43,-2 58,-4 21,-3 56,-8 21,-25 -10,-5 -25,-12 -41,-18 -9,-3 -18,-6 -26,-8l-47 -132c5,0 14,-1 26,-2 19,-1 48,-3 74,-5 26,-2 49,-2 63,-2 14,0 20,1 27,4 7,3 16,9 30,19 49,35 94,75 142,112 51,38 114,81 177,94 8,1 9,1 10,1 2,1 3,1 8,8 78,107 130,294 122,425 0,7 0,8 0,10 0,1 0,3 -18,5z"/>
  <path class="fil1 str4" d="M11433 7362c73,-18 147,-37 219,-55 34,-8 258,-55 272,-70 19,-20 12,-59 -18,-69 -17,-5 -47,-8 -103,-8 -103,-1 -293,10 -402,21 -352,36 -467,500 -99,618 141,46 403,-104 527,-177 71,-41 103,-71 118,-90 16,-19 15,-29 14,-38m-98 -90c34,-8 67,-16 95,-20 46,-8 108,-3 95,42 -22,77 -491,208 -569,234m440 -423c77,-13 161,27 127,76 -22,31 -81,53 -114,66 -99,36 -278,88 -458,139"/>
  <path class="fil1 str4" d="M12843 7059c26,9 51,18 66,27 16,10 21,20 -21,25 -42,6 -130,7 -234,-1 -105,-9 -227,-27 -299,-25 -85,1 -157,41 -50,96 43,22 116,51 152,67 36,16 37,18 93,24 56,6 166,15 277,25m-258 267c16,21 32,42 82,70 50,28 135,62 178,80 43,17 44,18 59,16 15,-1 45,-4 105,-23 61,-19 153,-54 241,-75 81,-20 157,-30 234,-36m-1184 -319c-6,15 -12,31 13,64 24,32 78,83 123,123 45,40 82,69 101,83 19,13 22,11 67,21 46,10 134,32 223,54m-551 -471c-76,13 -11,98 26,127 36,30 96,73 127,95 31,22 32,23 85,38 53,15 157,43 262,71m34 -555c53,-4 109,-8 161,-9 13,0 25,2 33,7 120,77 211,197 354,225"/>
  <path class="fil1 str4" d="M13956 7719c-168,19 -342,34 -514,39 83,-281 -33,-559 -144,-656 187,-20 373,-61 549,-113"/>
  <path class="fil4" d="M5396 4867c1,43 3,130 33,241 30,111 89,247 120,343 31,95 36,152 38,185 2,34 1,44 -11,58 -12,15 -36,34 -70,44 -34,10 -78,10 -131,-10 -54,-19 -116,-58 -151,-107 -35,-50 -42,-111 -46,-166 -5,-56 -5,-105 -1,-174 4,-69 13,-156 24,-211 10,-55 22,-77 30,-89 8,-11 13,-12 19,-15 7,-3 16,-8 27,-14 11,-7 24,-15 36,-24 13,-9 25,-20 34,-30 10,-11 17,-21 24,-30 6,-9 10,-17 14,-23 4,-7 6,-13 8,-16 2,-4 2,-5 3,38z"/>
  <path class="fil1 str5" d="M5243 4683c30,-14 59,-28 88,-25 28,3 56,24 69,53 13,29 10,66 1,98 -25,79 -90,127 -160,164m-22 -122c16,-51 44,-88 79,-105"/>
  <path class="fil1 str3" d="M4628 5964c31,-28 62,-57 106,-62 44,-5 101,14 146,14 46,0 79,-18 113,-39 34,-20 69,-42 87,-51 18,-9 20,-4 65,27 45,32 133,89 221,147 60,-127 83,-196 100,-335m-918 317c-34,-40 -53,-76 -69,-114 -59,-143 -68,-137 -204,-225 -93,50 -113,108 -123,179"/>
  <path class="fil1 str3" d="M6195 7353c-309,-68 -359,-55 -662,-8 -130,20 -298,37 -465,53 101,204 90,432 11,643 368,96 790,33 894,-16m-1536 -675c5,-408 51,-837 135,-1327m-229 2937c8,-84 16,-168 11,-258 -13,-285 -19,-397 28,-688m999 -616c63,191 77,369 53,558m271 -639c12,-216 36,-429 60,-644"/>
  <path class="fil4" d="M4474 5164c3,38 8,112 3,186 -5,74 -21,148 -62,233 -41,85 -107,181 -135,248 -28,67 -19,104 2,130 20,25 51,38 45,57 -6,18 -47,43 -128,61 -81,18 -202,30 -299,-13 -98,-43 -174,-140 -212,-192 -38,-52 -39,-59 -19,-76 21,-17 63,-44 103,-94 40,-49 78,-120 110,-270 31,-150 56,-378 98,-549 42,-170 101,-282 144,-408 42,-125 69,-264 129,-372 59,-108 152,-185 267,-221 115,-37 252,-32 326,-16 75,16 88,42 111,61 23,19 56,31 101,48 44,18 100,42 155,120 55,79 110,212 136,318 27,105 25,183 24,222 -1,39 -1,39 -4,37 -3,-2 -9,-6 -15,-8 -7,-3 -15,-6 -23,-7 -7,-1 -15,-1 -23,1 -8,1 -16,3 -25,6 -8,4 -17,8 -24,11 -7,4 -13,6 -16,8 -2,1 -2,1 -5,-6 -2,-7 -6,-21 -12,-66 -6,-45 -14,-121 -22,-180 -7,-58 -15,-99 -35,-146 -19,-47 -50,-100 -92,-143 -43,-43 -97,-76 -149,-101 -52,-25 -102,-42 -160,-39 -59,4 -124,29 -166,46 -41,17 -58,27 -70,35 -13,8 -21,16 -34,27 -13,12 -30,27 -44,41 -13,13 -23,23 -31,33 -9,10 -16,18 -23,29 -7,10 -15,23 -22,36 -7,12 -14,26 -19,39 -5,12 -9,24 -13,37 -4,13 -8,28 -12,45 -4,17 -7,36 -9,55 -2,18 -4,35 -4,49 -1,14 -1,25 0,39 0,13 1,28 3,45 1,16 4,33 6,46 2,13 2,21 3,32 0,11 1,25 1,41 1,16 1,34 1,50 0,15 1,28 1,41 1,14 2,29 4,46 2,18 6,38 10,55 5,17 9,32 13,45 4,13 9,26 14,38 5,12 10,24 18,40 8,17 20,39 30,57 11,19 20,35 27,46 7,11 12,18 15,23 3,4 4,6 7,44z"/>
  <path class="fil1 str5" d="M4527 4086c-58,50 -116,100 -153,169 -37,70 -52,159 -54,222 -2,63 9,100 13,152 3,51 0,117 6,180 7,64 24,123 60,195 36,72 90,155 136,208 46,53 83,76 139,74 57,-2 132,-28 203,-62 70,-33 137,-74 187,-113 49,-40 83,-78 117,-116"/>
  <path class="fil1 str3" d="M5158 4568c-2,105 -96,189 -209,186 -114,-3 -203,-90 -201,-195 0,-3 0,-6 0,-8 -33,-41 -97,-35 -133,-1 8,37 2,78 -15,112 -33,67 -107,113 -191,111 -113,-2 -203,-90 -201,-195"/>
  <path class="fil5" d="M5094 7907c-23,-5 -67,-17 -112,-28 -44,-11 -88,-22 -124,-29 -36,-8 -64,-12 -82,-14 -18,-3 -26,-4 -37,-3 -12,2 -26,5 -47,12 -22,6 -49,15 -82,27 -32,12 -69,26 -105,39 -35,13 -68,24 -89,32 -22,7 -32,10 -41,12 -9,3 -17,4 -26,6 -10,1 -21,3 -32,4 -11,0 -21,1 -33,0 -12,-1 -26,-3 -38,-5 -12,-3 -21,-5 -32,-9 -12,-4 -26,-10 -44,-21 -19,-10 -43,-26 -67,-44 -24,-18 -48,-37 -70,-57 -23,-19 -43,-38 -60,-55 -18,-17 -34,-32 -42,-40 -8,-8 -9,-8 -15,-12 -6,-4 -17,-11 -26,-18 -9,-7 -16,-13 -22,-20 -6,-8 -12,-16 -15,-23 -4,-8 -6,-15 -8,-23 -2,-8 -3,-17 -4,-22 0,-5 0,-5 -3,-6 -3,-2 -8,-5 -14,-10 -5,-5 -11,-11 -15,-17 -3,-7 -6,-13 -7,-18 -2,-5 -2,-8 -3,-10 0,-1 0,-1 4,-1 4,0 12,1 27,1 15,1 36,1 54,1 18,0 32,0 46,-2 14,-1 27,-3 39,-6 12,-3 22,-6 33,-12 11,-5 21,-13 33,-24 13,-11 26,-25 33,-33 7,-7 8,-7 19,-9 11,-1 33,-5 60,-9 26,-4 58,-9 98,-13 41,-5 90,-9 129,-12 39,-2 68,-3 100,-3 32,1 69,3 105,6 36,3 73,7 106,10 34,3 64,7 91,9 28,3 52,5 87,6 35,2 81,3 122,5 42,1 78,1 96,2 18,0 18,0 20,2 1,2 2,6 6,20 5,13 11,36 16,59 5,22 8,44 11,63 2,19 3,34 5,49 1,14 2,29 2,43 1,14 1,28 0,45 -1,16 -3,36 -5,50 -2,15 -3,25 -5,37 -1,11 -4,24 -6,35 -2,11 -3,20 -5,26 -1,6 -1,9 -2,11 -1,1 -1,2 -24,-4z"/>
  <path class="fil5" d="M3432 7255c10,-9 18,-18 23,-27 5,-9 7,-19 9,-35 2,-15 4,-36 6,-57 2,-21 2,-42 4,-63 1,-20 3,-41 4,-60 1,-19 2,-37 2,-62 1,-25 2,-58 3,-82 1,-24 2,-38 3,-49 2,-11 3,-17 7,-22 3,-5 8,-8 13,-8 5,-1 10,1 16,4 6,4 13,9 21,16 7,7 16,16 24,27 8,11 15,23 22,36 6,13 12,28 16,44 5,16 8,34 11,48 3,14 5,24 8,36 3,13 7,26 13,39 6,12 14,23 21,32 8,9 16,17 26,25 10,8 23,17 29,21 6,5 6,5 11,0 6,-4 17,-12 30,-23 14,-10 30,-23 50,-37 19,-14 43,-29 62,-40 19,-11 33,-18 45,-23 12,-5 22,-8 33,-10 10,-1 22,0 32,2 10,1 19,4 26,9 8,5 13,12 15,19 3,6 2,12 2,16 0,4 1,5 5,7 4,2 12,6 20,11 9,5 18,12 24,19 6,7 8,14 10,21 1,8 1,16 -1,24 -2,9 -7,18 -9,23 -3,5 -3,6 -1,7 1,2 4,3 12,6 7,4 18,9 27,15 8,6 13,12 16,20 3,8 5,17 5,26 0,8 -1,15 -4,26 -3,10 -9,23 -13,31 -3,8 -6,12 -6,15 -1,2 -1,2 4,4 5,3 15,8 22,14 8,5 14,12 17,17 4,6 5,10 4,16 0,7 -2,15 -5,24 -2,8 -6,18 -12,29 -6,11 -14,25 -23,38 -9,12 -19,24 -25,32 -5,8 -7,12 -14,20 -7,7 -19,19 -27,27 -9,8 -15,13 -21,17 -6,5 -12,9 -19,13 -7,4 -13,7 -23,10 -10,3 -23,6 -35,8 -12,2 -25,3 -50,3 -26,0 -65,0 -95,-1 -29,0 -50,-1 -65,0 -16,1 -26,4 -34,8 -9,5 -15,11 -20,18 -6,8 -11,15 -15,26 -5,10 -9,23 -14,39 -5,15 -12,33 -21,52 -8,19 -19,40 -30,59 -11,18 -23,35 -37,50 -13,15 -27,28 -40,38 -13,10 -24,17 -36,23 -12,5 -25,11 -37,14 -13,3 -26,4 -39,3 -14,-2 -29,-5 -43,-11 -14,-6 -26,-14 -37,-24 -12,-9 -21,-20 -30,-32 -10,-13 -18,-28 -25,-42 -7,-15 -12,-29 -17,-44 -4,-16 -7,-33 -10,-51 -2,-18 -3,-37 -4,-54 0,-17 1,-33 2,-49 2,-16 4,-33 8,-51 4,-18 10,-37 17,-56 8,-19 16,-37 23,-52 8,-16 15,-28 24,-43 10,-14 23,-31 36,-46 14,-15 28,-29 41,-41 12,-12 23,-22 33,-32z"/>
  <path class="fil1 str3" d="M3578 7875c71,-95 84,-140 109,-255m-730 -107c28,-80 95,-159 219,-190 116,-28 144,-8 266,-78"/>
  <path class="fil1 str3" d="M3719 7123c-33,-23 -65,-45 -83,-83 -17,-39 -20,-94 -35,-138 -14,-45 -40,-79 -63,-98 -22,-19 -41,-23 -50,1 -8,23 -5,75 -7,145 -2,70 -8,159 -12,210 -5,51 -7,64 -27,85 -20,21 -57,50 -98,101 -195,240 -67,635 158,515 42,-23 79,-66 106,-112 14,-23 24,-47 34,-71 16,-41 26,-108 71,-121 27,-7 71,-4 119,-2 48,2 100,3 139,-7 39,-10 65,-30 95,-65 30,-35 63,-85 77,-116 14,-32 9,-46 0,-56 -9,-11 -22,-18 -36,-26m-42 -142c18,8 36,15 47,26 12,11 18,26 16,46 -2,20 -11,45 -33,82 -22,36 -57,84 -92,132m17 -392c77,37 72,60 30,133 -27,46 -73,113 -119,180m-212 -227c54,-43 109,-85 151,-109 27,-16 48,-24 66,-28 33,-7 90,2 83,47 -2,12 -9,26 -19,41 -28,40 -87,110 -146,179"/>
  <path class="fil1 str3" d="M5098 7471c-97,-2 -194,-3 -284,-9 -90,-6 -172,-17 -240,-24 -173,-17 -328,10 -499,34m-151 255c53,52 106,105 160,146 113,87 188,117 325,73 75,-25 185,-70 252,-93 67,-22 90,-22 136,-14 106,18 215,47 319,74m-1275 -302c2,28 5,55 34,82 57,52 232,119 310,152m-185 -307c34,-2 68,-3 110,-12 42,-9 92,-26 142,-43m-451 71c-1,17 6,36 28,51 42,28 251,75 312,91"/>
  <g id="_1870866459952">
   <path class="fil1 str1" d="M11549 1170c32,88 64,175 95,264l-406 944c-6,13 -22,20 -36,14l-792 -341c-14,-6 -20,-22 -14,-36l476 -1107c6,-14 23,-20 36,-14l641 276m-478 -38c107,47 215,92 322,139m-297 648c60,27 123,53 183,79m-296 -324c122,53 243,105 366,158m-92 -231c54,23 109,47 163,70m-630 -271c113,49 224,96 338,146m-264 -311c206,91 418,177 624,268m156 -69l-151 -65c-13,-6 -20,-23 -14,-36l70 -163"/>
   <path class="fil1 str1" d="M10555 2114l580 468c11,10 29,8 38,-4l758 -937c9,-11 7,-29 -4,-38l-312 -252"/>
  </g>
  <path class="fil1 str1" d="M11580 2722l-829 0c-93,0 -178,-49 -224,-130l-415 -722c-46,-80 -46,-179 0,-260l415 -722c46,-81 131,-130 224,-130l829 0c92,0 178,49 224,130l415 722c46,81 46,180 0,260l-415 722c-46,81 -132,130 -224,130z"/>
  <path class="fil1 str1" d="M10695 3532l-254 0c-28,0 -54,-16 -68,-41l-127 -224c-14,-25 -14,-56 0,-81l127 -225c14,-25 40,-40 68,-40l254 0c28,0 54,15 68,40l127 225c14,25 14,56 0,81l-127 224c-14,25 -40,41 -68,41z"/>
 </g>
</svg>
