<?xml version="1.0" encoding="UTF-8"?>
<!DOCTYPE svg PUBLIC "-//W3C//DTD SVG 1.0//EN" "http://www.w3.org/TR/2001/REC-SVG-20010904/DTD/svg10.dtd">
<!-- Creator: CorelDRAW X8 -->
<svg xmlns="http://www.w3.org/2000/svg" xml:space="preserve" width="176.191mm" height="91.44mm" version="1.0" style="shape-rendering:geometricPrecision; text-rendering:geometricPrecision; image-rendering:optimizeQuality; fill-rule:evenodd; clip-rule:evenodd"
viewBox="0 0 17621 9145"
 xmlns:xlink="http://www.w3.org/1999/xlink">
 <defs>
  <style type="text/css">
   <![CDATA[
    .str1 {stroke:black;stroke-width:8.47112;stroke-linecap:round;stroke-linejoin:round}
    .str0 {stroke:#B2B3B3;stroke-width:8.47112;stroke-linecap:round;stroke-linejoin:round}
    .str2 {stroke:black;stroke-width:7.62101;stroke-linecap:round;stroke-linejoin:round}
    .str3 {stroke:#B2B3B3;stroke-width:8.47112;stroke-linecap:round;stroke-linejoin:round;stroke-dasharray:42.355601 25.413361}
    .fil2 {fill:none}
    .fil0 {fill:#FEFEFE}
    .fil3 {fill:black}
    .fil4 {fill:#898989}
    .fil6 {fill:#B2B3B3}
    .fil5 {fill:#D03730}
    .fil1 {fill:white}
   ]]>
  </style>
 </defs>
 <g id="Слой_x0020_1">
  <metadata id="CorelCorpID_0Corel-Layer"/>
  <rect class="fil0" width="17621" height="9145"/>
  <g id="_1871568067584">
   <path id="mapPoint-_122_" class="fil1 str0" d="M678 5455l46 4 22 17 28 6 2 -17 25 -2 13 26 64 6 2 -15 12 2 10 -3 -1 43 25 27 -19 37 29 34 -5 55 6 22 -12 24 -17 20 21 25 8 24 38 15 40 9 41 85 -29 1 -27 23 -49 -21 -35 -38 -6 -22 -3 -19 -23 -20 -51 8 -32 -20 -38 -27 -59 5 -42 -11 -16 -34 -9 -51 31 0 40 -41 13 -45 -2 -24 3 -33 -17 -32 -29 -26 2 -17 0 0z"/>
   <path id="mapPoint-_121_" class="fil1 str0" d="M4095 2543l-9 44 -17 35 25 29 41 -6 24 18 31 0 -5 -54 25 -22 18 -41 32 38 -31 26 -16 55 33 18 10 92 27 57 13 49 17 54 43 50 -6 65 41 48 68 46 63 31 77 -9 67 5 71 -60 48 -72 17 -88 6 -53 -38 -46 4 -75 -13 -36 17 -61 5 -71 -13 -71 -37 -44 4 -55 -33 -21 4 -52 -28 -33 -41 -25 4 -46 -8 -47 27 -23 27 31 26 20 -8 -45 3 -39 -58 -7 -43 3 14 -51 -45 25 -31 -37 -43 -4 -69 -33 -106 44 -82 32 -11 131 -44 64 -125 -10 -81 69 0 42 109 116 0 0z"/>
   <path id="mapPoint-_120_" class="fil1 str0" d="M2222 3933l29 43 19 -41 35 3 17 -24 16 -28 10 -51 23 -20 7 -30 41 -28 -20 -23 21 -18 22 -10 3 -34 22 -10 27 -23 34 -13 15 -33 -24 -22 -6 -19 19 -17 2 -30 21 -18 41 -1 -6 -48 17 -44 -12 -36 1 -34 -29 -34 18 -31 -26 -37 -55 -7 -47 53 -54 15 -5 36 -29 29 -62 -3 -32 30 -4 52 -61 32 -39 6 8 45 -31 46 -50 43 -10 34 17 50 32 37 -15 38 -18 35 45 16 39 41 -2 83 36 0 0 0z"/>
   <path id="mapPoint-_119_" class="fil1 str0" d="M2140 3968l-20 35 -49 12 -24 52 -32 61 -20 57 -2 43 -26 15 34 39 -21 53 -15 47 35 22 -3 43 25 -21 28 -39 30 5 39 -17 33 -5 38 -31 34 2 23 28 6 29 34 7 12 -11 19 7 33 30 28 -19 35 3 45 -6 20 -26 35 -30 46 -13 10 -38 -13 -28 -26 -24 -16 -38 -18 -20 3 -26 -42 -15 -39 9 -47 -16 -21 -25 -32 -21 -28 -34 -6 -51 -31 -22 -3 -15 -29 -43 -36 0 -46 35 0 0z"/>
   <path id="mapPoint-_118_" class="fil1 str0" d="M1920 4392l-47 -21 -12 -38 -25 -31 -37 -1 -15 43 -34 34 -50 43 -24 36 18 39 23 27 35 -26 19 32 25 31 36 9 24 29 16 50 -9 38 -23 64 27 4 21 -26 35 -9 20 17 31 3 28 -22 25 2 8 -21 -7 -22 24 -6 27 3 18 20 14 -12 11 -30 16 -14 -3 -35 -21 -25 2 -29 21 -18 3 -37 13 -36 -18 -20 4 -23 -20 -39 -39 17 -30 -5 -28 39 -25 21 3 -43 -35 -22 -45 10 0 0z"/>
   <path id="mapPoint-_117_" class="fil1 str0" d="M1787 4962l5 -52 -24 -51 -23 -44 27 -17 18 -36 29 3 21 -15 27 4 21 -26 35 -9 20 17 31 3 12 22 24 12 18 17 -3 40 28 10 6 24 24 13 3 55 24 47 3 56 26 8 18 21 -4 42 31 9 33 23 -31 27 -36 -17 -25 22 -3 36 -26 10 -8 -37 -34 -40 -53 -39 -35 5 -66 -19 2 -27 -32 -39 -19 16 -42 -4 -49 -16 27 -54 0 0z"/>
   <path id="mapPoint-_116_" class="fil1 str0" d="M1946 5516l-11 -57 -35 -24 -35 -48 20 -50 -9 -77 -44 -38 -50 -47 -13 -57 -34 -32 -9 -36 34 -34 49 16 42 4 19 -16 32 39 -2 27 66 19 35 -5 53 39 34 40 9 37 6 34 -22 16 28 33 -22 35 -25 -2 -4 48 5 37 -38 16 -4 43 -29 -1 5 32 -44 19 -7 -10 0 0z"/>
   <path id="mapPoint-voronezh_1_" class="fil1 str0" d="M1953 5526l44 -19 -5 -32 29 1 4 -43 38 -16 -5 -37 4 -48 25 2 22 -35 -28 -33 22 -16 -7 -34 26 -10 3 -36 25 -22 36 17 31 -27 41 12 17 38 43 19 -14 43 27 32 36 6 35 56 19 22 -14 36 26 31 45 23 13 32 26 32 8 50 18 45 -18 16 -50 1 -35 -24 -5 -28 -36 -10 -37 28 -70 -6 -22 56 -62 53 -64 -5 -22 20 -35 -3 -16 -25 -42 -3 2 -27 -13 -27 -45 -23 5 -52 -25 -30 0 0z"/>
   <path id="mapPoint-_115_" class="fil1 str0" d="M1298 6839l-35 -20 -51 -41 -13 -59 -32 -59 -6 -49 31 -27 35 -3 28 -23 25 2 11 30 18 33 48 4 41 -43 27 12 -4 38 26 21 3 32 12 20 -42 -3 -13 20 17 21 10 26 -14 26 -36 10 -23 -3 -31 26 -32 9 0 0z"/>
   <path id="mapPoint-_114_" class="fil1 str0" d="M1372 7020l6 76 32 37 53 12 29 33 5 26 27 -36 36 2 6 -24 -7 -41 16 -57 32 -13 48 12 -6 -44 -41 -48 -20 14 -3 29 -18 16 -45 -2 -16 14 -22 -21 -33 -2 -24 13 -21 -5 -34 9 0 0z"/>
   <path id="mapPoint-_113_" class="fil1 str0" d="M1645 7139l-27 48 -33 44 -38 24 -7 -43 -43 -8 27 -36 36 2 6 -24 -7 -41 16 -57 32 -13 15 34 36 34 -13 36 0 0z"/>
   <path id="mapPoint-_112_" class="fil1 str0" d="M2006 7055l-27 24 -3 40 23 27 11 47 -15 46 -15 41 -31 27 -2 17 -25 21 -61 84 -5 68 8 84 -14 62 -1 80 -60 22 -37 -20 -58 14 -53 -16 -3 -46 -21 -84 -1 -58 -36 -30 2 -33 -15 -53 -31 -47 24 -35 43 -2 29 -19 40 7 27 -17 38 26 20 -56 47 -49 46 -22 26 -5 1 -56 -50 -8 -24 -39 -30 -39 18 -37 -24 -14 2 -21 31 2 18 -13 -10 -20 21 -18 30 14 38 -9 36 -24 34 26 15 26 26 12 9 32 -11 41 0 0z"/>
   <path id="mapPoint-_111_" class="fil1 str0" d="M2035 7067l53 -11 46 4 46 -45 36 -12 3 -35 -25 -22 -33 -2 -6 -20 84 -50 1 -23 -14 -17 3 -28 -16 -25 21 -18 26 14 2 20 18 1 6 -30 52 8 18 -38 -23 -26 23 -61 30 -13 18 -58 -54 -7 -20 -32 0 -47 21 -76 -27 -21 -13 -49 -44 -13 -23 -27 3 -31 -23 -10 -21 47 -26 7 -23 -26 -30 9 -24 -29 -48 36 -4 52 30 4 39 -16 -3 37 -28 48 -53 33 -52 -5 -56 50 -28 -10 -13 11 -26 -12 -18 -21 -11 -74 -34 -12 -21 -25 2 -32 -10 -36 -29 -2 -2 23 -19 16 -42 -4 -22 -19 -33 23 26 15 9 34 25 2 20 -6 7 32 18 20 45 -4 26 14 3 35 21 29 5 31 21 25 12 46 -20 31 16 36 23 28 17 26 -2 29 25 29 2 37 19 33 -4 56 34 26 15 26 26 12 9 32 -11 41 29 12z"/>
   <path id="mapPoint-_110_" class="fil1 str0" d="M4466 6930l32 38 22 25 6 43 32 37 -39 44 -33 28 -54 -4 -56 -1 -27 -31 -16 -42 -25 -2 -29 24 -42 -3 -44 -52 -8 -28 -33 -39 5 -62 -29 -33 -55 -5 -48 13 -14 -37 -44 -41 -40 -24 -58 22 -53 4 -42 -16 -24 -58 -39 -40 -33 46 -31 -2 3 -39 32 -27 -16 -43 -20 -66 -4 -66 -33 -47 -56 -26 -14 -44 -28 -34 -59 5 -35 -2 4 -47 -7 -44 4 -27 -3 -5 83 7 29 -48 50 -29 26 10 18 -32 68 -5 39 -75 58 -26 46 -39 21 -67 41 4 37 44 -31 26 23 25 13 29 -7 63 18 21 -19 66 25 20 30 35 17 56 -5 54 13 34 -16 31 -4 46 -11 23 27 18 28 -23 42 3 13 28 -18 36 -42 12 8 20 25 8 -12 47 -17 14 5 39 23 2 4 22 27 31 30 -11 23 -19 23 15 8 26 25 21 31 11 32 -21 25 -46 41 3 46 4 30 -9 39 20 25 2 15 32 -14 30 -49 20 2 31 25 2 19 67 0 0z"/>
   <path id="mapPoint-chelyabinsk_1_" class="fil1 str0" d="M4994 6645l-55 -20 -45 7 -36 -37 -54 -34 -52 -4 -21 52 14 38 -37 32 25 20 25 29 30 35 -34 29 -34 -3 -39 -46 -64 -3 -43 14 12 63 -21 42 -43 8 -48 -15 -16 50 -11 -39 -25 -2 -2 -31 49 -20 14 -30 -15 -32 -25 -2 -39 -20 -30 9 -87 -7 17 -23 40 -15 9 -36 38 -57 25 2 3 -42 36 -40 2 -27 55 -46 39 -10 2 -17 40 -1 16 25 29 2 3 -46 -12 -55 -59 -25 -26 16 -59 -11 -27 -53 -2 -66 -22 -25 -6 -47 58 -36 35 15 39 23 25 29 -3 32 49 23 35 -29 57 -9 2 -29 34 -52 14 -35 -9 -40 34 -11 38 30 11 26 44 19 6 20 32 6 30 36 33 -28 34 22 47 56 1 53 7 61 -26 35 -43 -3 -27 22 10 48 -25 21 -33 -2 -12 31 27 32 30 4 4 24 48 4 16 49 -40 34 -16 33z"/>
   <path id="mapPoint-omsk_1_" class="fil1 str0" d="M6420 7213l-44 37 -69 14 -60 26 -24 -41 -54 21 -43 -4 21 -64 60 -22 3 -35 -48 -4 -42 -30 -29 24 -47 -19 20 -57 -32 -37 -50 25 -53 -20 -10 -43 33 -29 4 -46 15 -33 -15 -64 -33 -20 2 -29 16 -27 27 -23 3 -33 19 -2 27 -23 12 -25 3 -42 67 -56 47 -4 19 -16 2 -33 -35 -22 -9 -30 -21 -25 -31 -20 2 -27 40 -16 -13 -51 7 -39 31 -26 24 -35 39 -22 35 42 -25 21 -2 29 73 30 26 16 29 22 50 4 19 -22 41 25 36 14 57 5 50 -19 74 -58 -2 17 -35 62 -4 50 27 31 -13 61 23 58 12 43 -5 62 -5 56 -42 35 6 28 -3 36 -21 18 -34 -16 -32 11 -50 50 -33 65 5 88 -4 50 23 27 -2 29 -30 24 -25 53 0 0z"/>
   <path class="fil1 str0" d="M7608 7391l-85 40 -48 -5 -35 23 -31 -22 -36 30 -26 -31 -50 42c-9,18 -17,36 -26,54l0 0 -34 13 -29 -51 -27 -2 -18 -35 3 -34 -41 -48 -21 -25 -50 -2 -73 17 -76 48 -79 -6 -87 25 -25 -29 -19 22 -9 5 -12 7 -18 10 -2 -2 -23 -27 -24 -62 -28 -33 -41 -21 4 -45 34 3 32 -36 -8 -35 -45 -4 -39 34 -53 -3 -43 7 25 -53 30 -24 2 -29 -23 -27 4 -50 -4 -88 32 -65 50 -50 32 -11 34 16 21 -18 3 -36 -6 -28 42 -35 10 -118 52 8 33 30 59 5 65 15 54 33 62 33 68 79 42 71 106 9 38 61 50 4 59 -11 38 -31 29 18 4 62 -3 46 17 21 -24 21 24 29 69 -62 62 9 1 82 14 36 8 74 -18 103 27 49 0 0z"/>
   <path class="fil1 str0" d="M7604 7393l-81 38 -48 -5 -35 23 -31 -22 -36 30 -26 -31c-16,13 -33,28 -50,42l-26 54 -34 13 -29 -51 -27 -2 -18 -35 3 -34 -62 -73 -50 -2 -73 17 -76 48 -79 -6 -87 25 -25 -29 -19 22 -39 22 35 44 21 100 -7 81 36 40 -5 58 37 76 6 65 13 57 26 66 54 -5 32 -54 39 -8 25 33 -4 36 25 30 27 31 55 -6 22 28 63 -5 33 -28 62 5 28 33 45 23 32 36 48 0 4 -43 -23 -26 -27 -32 25 -21 119 -31 42 3 63 -55 3 -40 32 -27 43 33 26 -29 25 2 22 -27 -25 -29 24 -37 38 -16 -12 -42 3 -37 -21 -48 38 -14 1 -33 -2 0 0 -2 -37 -3 -35 -25 -5 -46 -25 -30 -26 -62 -1 0 -1 -2 -43 -3 -25 -58 0 0z"/>
   <path class="fil2 str0" d="M7781 7709l-6 -16"/>
   <path id="mapPoint-_109_" class="fil1 str0" d="M9305 8016l-47 36 -35 59 -36 30 -15 63 28 39 -4 54 39 46 -5 58 -61 34 -60 51 -47 -4 -71 -6 -64 -23 -68 7 -47 -20 -69 -30 -36 -42 -42 -50 -54 -22 -68 22 -39 -46 -50 -28 -46 39 -54 -4 -21 50 -64 -5 -85 46 -52 44 -48 -4 -1 47 -22 -37 3 -40 -34 -40 21 -18 41 -6 15 -34 -92 -106 -12 -49 -12 -58 24 -19 41 14 48 8 50 -42 4 -54 54 -23 39 46 54 24 56 4 48 29 39 4 53 -17 77 -56 53 -11 5 -62 39 -33 3 -41 58 -11 22 -87 25 -21 63 16 50 -42 53 6 24 -19 26 12 16 -30 44 2 34 30 56 12 42 48 30 18 53 4 24 -19 42 50 -30 25 -3 42 -29 25 6 43 21 25 0 47 0 0z"/>
   <path id="mapPoint-_108_" class="fil1 str0" d="M13547 7505l-31 26 -54 -20 -46 -15 -72 4 -65 -6 -30 25 -75 21 -72 -21 -26 -62 -32 -38c0,0 -40,-28 -39,-38 1,-10 -42,-50 -42,-50l-57 -14 -21 -60 -52 -49 -35 -42 -53 -19 -15 -54 -46 -25 -27 -31 -97 -18 -52 -4 -60 26 -73 -18 -57 15 -62 -5 -87 55 -42 35 -43 -96 -42 -4 -7 -53 -19 -32 38 -18 2 -18 -20 -1 -30 -38 -26 -6 11 -61 -14 -30 -13 -49 -37 -23 -32 36 -28 -14 2 -42 -18 -21 -28 -10 -34 28 -18 36 -49 -18 -13 -32 32 -34 -15 -31 -33 9 -42 -15 -26 -31 2 -29 46 -39 51 -36 48 3 24 -19 24 29 36 11 19 -16 48 4 17 26c0,0 28,3 31,3 1,-4 13,-36 13,-36l60 17 23 -20 45 -6 39 23 48 56 42 -14 45 -8 21 -25 32 17 27 -22 27 2 23 27 104 -89 52 12 2 -32 68 -20 47 14c0,0 48,-26 51,-27 0,-4 0,-51 0,-51l83 -41 80 -56 4 16 33 -13 29 -32 39 -3 38 -32 44 -4 43 29 -21 41c0,0 -1,32 -1,33 -1,2 -34,40 -34,40l-6 75 -17 -4 -3 29 23 47 -2 33 -31 15 -20 39 28 39 59 12 23 -17 39 -9 60 98 31 -24 30 4 50 -62 48 -13 16 -14 -6 -47 15 -38 49 -5 27 -24 31 -43 46 -1 39 46 6 74 42 35 -22 58 -82 22 -42 -5 -22 26 46 54 0 33 -48 44 -12 71 -45 35 -5 32 -36 38 25 47 -26 40 1 99 25 29 25 2 24 45 22 -19 54 10 6 39 44 36 1 36 20 7 26 23 -3 58 -24 8 9 39 -14 29 1 54 -55 -18 0 0z"/>
   <path id="mapPoint-_107_" class="fil1 str0" d="M14104 7336l-60 26 -19 47 -44 61 -49 52 14 63 -55 38 -54 25 -46 12 -15 43 -46 -4 -44 -31 -34 -14 4 -56 -35 -38 -19 -37 -1 -54 14 -29 -9 -39 24 -8 15 12 28 -38 25 -21 -1 -54 41 -3 41 11 58 -20 39 23 44 61 34 -40c0,0 63,-9 68,-10 4,-5 29,-44 29,-44l51 -2 44 -13 -8 40 15 16 -9 29 -40 -4 0 0 0 0z"/>
   <path id="mapPoint-_106_" class="fil1 str0" d="M14731 7225l22 73 12 81 10 72 8 96 -8 92 -19 47 -8 95 -10 117 -22 87 8 92 -16 117 -4 56 -55 77 -36 65 -42 64 -31 -2 -64 20 -54 24 -33 -18 2 -33 -17 -20 -23 40 -4 44 -19 -22 -28 -34 -2 25 -15 61 6 43 -17 48 -23 19 -2 25 -3 38 -46 -5 -18 -21 22 -55 33 -55 4 -48 -20 -60 -48 -56 -25 -29 -16 -58 -43 -50 -43 -19 2 -48 34 -29 29 -24 4 -48 37 -32 40 -16 40 16 37 -31 25 -43 -34 -65 24 -50 -21 -56 -1 -56 -31 -49 13 -38 -23 -49 48 -1 2 -21 -25 -30 10 -45 47 -55 34 13 9 10 32 1 13 -17 50 12 5 -15 51 -3 42 -46 6 -69 -28 -10 10 -40 60 -16 18 -33 10 -48 -16 -48 -18 -7 -18 29 -41 1 -9 -36 -44 -9 -5 -34 52 -36 23 -66 29 -2 32 30 25 29 35 1 13 32 -14 24 40 35 43 -31 -9 86 0 0z"/>
   <path id="mapPoint-_105_" class="fil1 str0" d="M14666 3012l28 34 -6 79 20 60 -1 92 -22 55 -16 -50 -42 -25 -5 62 -34 -40 -23 -27 -16 -44 -62 -69 15 56 -24 56 -66 -5 -3 38 -27 79 -30 29 -7 108 42 32 -13 67 39 71 -6 73 5 97 38 44 -4 45 32 37 31 -3 31 -23 23 -19 37 3 -6 46 -40 8 -5 66 -74 5 10 86 -10 36 -48 16 -4 52 -22 44c0,0 -58,9 -46,-1 13,-11 -19,-23 -19,-23l2 -31 12 -30 42 -10 -18 -21 -45 14 -47 4 -2 21 -76 28 -38 40 -39 7 -34 28 -14 35 8 47 24 30 -33 32 -51 -24 11 53 -41 36 -37 28 -9 -39 -49 -59 -29 -2 -23 17 -28 -18 -42 -5 -40 42 -33 -1 -24 -43 5 -52 48 -21 -33 -53 3 -37 -32 -14 -52 -39 -32 -20 -92 -13 -54 53 -37 -5 12 -46 -34 -39 -7 -30 -30 -35 -56 -34 -12 -36 -36 -57 2 -29 -18 -11 13 -48 17 -14 -25 -29 11 -42 66 -19 2 -24 48 6 0 -54 -36 -15 -22 -34 33 -27 31 3 4 -39 32 -18 2 -27 39 -7 21 29 33 -1 20 -33 -9 -32 37 -51 15 -34 33 -3 3 -31 -14 -46 -39 -26 -35 -42 4 -44 0 -49 -35 -22 -23 -37 4 -40 29 -3 -10 -42 -40 -15 11 -36 44 -14 3 -42 21 -17 48 3 8 -49 62 5 27 -23 -11 -52 24 -38 -25 -51 55 -17 24 27 25 45 40 3 50 -15 18 -30 49 16 58 -1 58 -67 76 18 37 -32 52 -56 59 8 0 25 15 16 -15 34 56 30 5 37 58 -7 16 46 39 21 -1 33 29 33 37 -7 42 4 6 29 26 3 18 24 -20 53 21 2 20 -24 16 19 -3 32 51 14 0 0z"/>
   <path class="fil1 str0" d="M6156 3235l-25 -2 -24 -43 -16 9 -43 -48 -31 -41 17 -40 35 -9 15 -20 -23 -21 6 -54 -15 -5 -12 -42 -32 -4 -24 -41 13 -47 39 -46 42 8 12 16 15 7 8 -28 51 -12 45 -38 -25 -32 36 -20 39 19 15 -32 2 -33 50 4 23 28 27 -24 8 -22 57 -7 -18 -21 -47 -21 2 -18 57 -10 59 -11 31 -27 39 3 2 -26 54 2 -27 -31 47 2 16 19 2 -45 25 -21 -23 -31 17 -24 25 29 33 3 3 -33 46 22 27 -25 28 -27 31 2 56 -21 37 17 56 5 39 -34 42 8 17 30 47 4 21 23 41 -8 56 4 40 -33 44 -20 60 -19 54 5 26 51 -4 53 -50 39 -45 37 -56 -1 -69 26 -57 -26 -32 26 -69 -8 -90 -7 -36 32 -69 -5 -53 24 13 36 -36 11 -42 -7 -38 -4 -6 25 -40 -15 -3 41 -43 25 -34 23 3 -39 -29 23 2 45 -27 -3 -18 -20 -2 21 -2 33 -18 -21 -27 23 -23 19 -29 -2 -23 27 -33 46 -46 -4 -41 28 -4 42 -40 12 -17 43 -33 29 -5 56 -18 39 14 59 -22 57 22 40 8 41 -14 13 -40 14 2 -29 -31 -20 0 0z"/>
   <path class="fil1 str0" d="M4809 3385l-46 39 -34 36 5 -54 37 -31 -37 -67 -26 -31 -45 -4 -67 16 -55 -36 -74 21 -74 -18 -9 85 -45 32 14 43 -23 19 -67 -26 -23 -58 -39 -46 -7 -72 -7 -111 -42 -4 -46 41 -4 42 -10 54 29 33 -17 61 -65 39 -50 -58 -47 -56 -13 16 -22 26 -23 -19 -13 10 -17 -26 -17 16 -1 38 -18 34 -33 12 -13 27 -11 61 42 50 -23 48 -41 9 3 33 -11 38 -52 44 -18 2 -21 20 -42 72 3 23 -20 18 8 68 27 20 -2 31 37 23 7 25 15 11 21 25 25 2 20 23 7 28 48 6 36 12 16 19 30 10 9 32 26 31 19 15 -3 25 21 10 42 3 2 -15 18 7 27 2 -2 31 14 19 15 1 -1 19 27 18 18 21 27 -23 9 -21 27 14 16 32 -23 20 28 18 -1 15 21 2 26 14 -13 10 28 41 28 -20 19 8 12 22 9 11 21 25 -10 26 20 13 32 -5 -1 -18 21 8 39 3 4 20 24 8 23 -24 27 -17 24 -33 -25 -29 21 -18 31 -17 5 -20 41 -20 35 -30 22 -8 33 -29 -19 -23 -8 -39 -26 10 -15 -17 -21 -2 -31 3 -16 30 -15 -7 -24 29 -19 -23 -23 -9 -24 -14 0 -43 30 -13 -3 -27 12 -11 12 -22 29 -5 34 10 8 -22 -3 -39 -16 -19 13 -36 34 -18 3 -35 12 -34 -22 -27 -23 -39 3 -28 -3 -34 31 3 32 28 28 12 20 22 42 12 32 24 36 41 4 39 30 -13 34 -8 24 17 30 10 29 28 21 1 14 17 23 -19 24 -37 -17 -21 -5 -33 18 -32 -10 -24 -25 -29 -8 -22 23 -19 19 -16 1 -17 19 -17 17 -35 29 -25 -18 -21 -44 -25 -7 15 -44 12 -23 -9 -26 -37 -19 -23 -6 -43 -35 -42 -19 -30 -9 -54 -16 -42 -20 -25 0 0z"/>
   <path class="fil1 str0" d="M14291 5713l-17 3 -11 -38 3 -31 53 20 26 16 12 35 26 32 52 14 11 35 56 44 31 2 22 39 16 59 30 36 57 68 39 13 54 26 49 50 68 47 43 44 59 36 49 35 33 30 57 27 -9 27 -23 19 -42 11 -31 -3 5 45 -11 30 -2 25 32 59c0,0 32,41 23,46 -6,6 -3,66 -3,66l25 29 39 46 34 26 54 4 29 34 36 3 16 42 46 5 32 -26 47 33 26 41c0,0 7,26 -2,25 -10,-1 -65,-33 -65,-33l-27 23 -54 -4 -21 41 6 43 32 38 21 57 -38 24 -24 -36 -33 -40 -59 -65 3 -40 -38 -46 -38 -44 -24 -38 -29 -69 -39 -44 -42 -28 -41 -17 -31 -78 -70 -115 -58 -68 -48 -57 -41 -67 -25 -50 -78 -44 -61 -32 -38 -7 -45 -73 3 -31 -50 -60 -24 -57 -58 -24 19 -41 2 -31 47 20 11 -42 -26 -31 1 -15 -27 -32 -32 -16 0 0z"/>
   <path class="fil1 str0" d="M15986 6962l4 45 1 43 17 7 2 -35 16 -26 3 -38 -43 4 0 0z"/>
   <path class="fil1 str0" d="M16129 6999l-2 19 26 18 3 -31 -27 -6 0 0z"/>
   <path class="fil1 str0" d="M16056 6820l24 12 11 -34 -8 -68 25 -22 0 -48 -36 -13 -14 55 12 15 -14 39 0 64 0 0z"/>
   <path class="fil1 str0" d="M16143 6546l-11 9 5 37 19 -23 -13 -23 0 0z"/>
   <path class="fil1 str0" d="M16178 6419l14 -53 -13 -36 11 -36 31 -26 5 39 -9 40 4 47 -19 33 -24 -8 0 0z"/>
   <path class="fil1 str0" d="M16245 5952l-4 46 -3 39 29 2 -5 -37 2 -23 3 -27 -22 0z"/>
   <path class="fil1 str0" d="M15173 4357c0,0 17,50 26,61l62 49 64 43 101 39 48 13 42 33 24 39 88 55 78 42 82 45 40 48 48 4 33 37 42 27 71 6 24 39 4 -49 -6 -66 -17 -104 -3 -80 -43 -48 -58 -68 -41 -21 -18 -91 23 -43 4 -44 54 -3 2 -23 -70 -24 -12 -22 -41 -19 -42 -79 -9 -99 29 -52 45 -24 30 -17 -13 -45 -45 -43 -84 3 -32 -37 -43 -15 -45 -89 -11 -59 50 -12 23 -45 -44 -51 -41 -4 -27 23 -62 -18 -60 -50 -7 -57 -59 -69 -20 36 -25 21 -2 21 16 44 -67 -5 -37 -44 -65 -40 -3 -55 -4 -68 -43 -50 -32 -38 -26 -31 -32 -64 30 -25 4 -64 30 3 47 -41 -42 -25 3 -46 -21 -73 29 0 32 37 45 25 3 -38 -37 -67 3 -37 25 -65 -25 -30 58 -69 37 -70 63 -14 42 24 46 -33 -25 -29 -39 -49 -17 -101 6 -71 -43 -46 -19 -77 -5 -80 -20 -60 -7 -69 -30 38 -43 1 -28 -34 -37 9 -16 60 -23 61 -41 53c0,0 13,24 18,34 -5,12 -31,73 -31,73l-29 52 -43 22 -24 -29 -38 8 -36 30 -43 5 -40 47 -27 -32 -12 -41 -16 -40 -9 -51 -30 -13 -45 26 -27 23 -33 -19 -59 5 8 38 -21 27 -24 -10 -60 13 -3 42 -35 23 -15 45 -40 -7 -39 22 -13 11 16 18 -27 23 -42 18 -25 43 -3 42 16 21 59 8 0 25 15 16 -15 34 56 30 5 37 58 -7 16 46 39 21c0,1 0,25 -1,33 4,4 29,33 29,33l37 -7 42 4 6 29 26 3 18 24 -20 53 21 2 20 -24 15 19 -2 32 51 14 24 -35 21 4 9 -31 -49 -4 -37 -43 -38 -46 -27 -30 18 -37 4 -52 57 -24 41 -36 15 17 -50 40 -5 56 50 35 31 48 26 31 30 14 31 2 26 64 26 32 -3 42 -3 35 -22 56 -2 48 27 28 21 92 20 64 15 77 13 83 41 65 22 93 5 80 19 75 -21 18 -23 19 20 42 -20 35 -24 20 -1 21 43 13 38 62 3 56 32 37 -4 53 44 55 64 71 0 0z"/>
   <path class="fil1 str0" d="M15239 3127l-4 47 -7 42 24 19 15 23 -1 38 34 17 -5 -40 -13 -30 19 -46 5 -60 -39 -21 -28 11 0 0z"/>
   <path class="fil1 str0" d="M16041 3416l-29 7 12 32 51 4 50 4 33 -28 -40 -17 -41 14 -36 -16 0 0z"/>
   <path class="fil1 str0" d="M16061 4983l-17 38 -21 17 21 25 12 30 -8 39 -5 48 21 25 26 -12 4 -50 25 -21 -14 -44 -26 -31 5 -39 -23 -25 0 0z"/>
   <path class="fil1 str0" d="M16124 5320l-2 31 20 11 17 -18 -35 -24 0 0z"/>
   <path class="fil1 str0" d="M16229 3321l-28 17 14 16 21 -17 20 -18 -27 2 0 0z"/>
   <path class="fil1 str0" d="M15240 1930l8 -88 -11 -81 -37 -67 20 -17 -54 -43 17 -21 52 5 36 -65 50 -15 4 -52 -32 -38 -15 -44 -41 26 -26 -24 -31 4 -27 23 -44 -4 -14 22 -44 -3 3 -35 -54 -2 -29 3 -37 -5 -17 24 -34 28 -52 -2 -31 19 -3 46 -32 9 -23 -27 42 -43 -27 -3 -43 14 20 -37 54 -17 36 3 44 -60 -5 -57 -13 -73 -37 -43 -36 -42 -23 19 2 -46 -37 -3 -55 11 -30 -35 3 -33 -42 -11 17 -14 22 -8 -18 -21 6 -23 24 18 25 23 46 4 33 -23 29 28 43 -37 5 -62 -16 -38 48 -58 46 4 35 18 53 -13 32 -56 57 -51 56 -1 26 -62 -41 -15 2 -20 51 5 -14 -40 3 -31 -28 33 -28 5 -26 -51 -41 -48 -2 25 -56 -25 -29 25 -44 -12 59 -32 4 -54c0,0 19,-43 2,-29 -16,14 -53,11 -53,11l32 -53 -23 -27 -29 -30c0,0 20,-54 4,-42 -17,12 -60,22 -60,22l-50 58 -17 -1 -59 16 -38 32 -28 33 -9 43 -27 -4 -2 22 38 12 -49 27 -19 43 44 15 66 12 59 -7 -2 29 -60 26 -36 30 -47 -43 -57 13 -35 -41 -36 16 -57 21 -47 42 -85 19 -50 59 -64 20 -54 46 -52 45 -54 26 -76 25 -41 35 -90 76 -81 65 -25 70 -47 58 -19 43 12 44 -28 -2 -40 18 -10 51 -46 18 -15 45 -2 27 48 4 12 36 63 -5 80 44 26 7 13 40 -15 38 -49 8 -56 20 -40 12 -56 -4 -34 -40 38 -32 -43 -50 -27 24 -31 46 31 50 -12 29 23 26 -20 57 -65 39 -4 49 -33 28 -37 -3 -25 40 -9 80 21 28 56 24 48 10 9 32 42 21 34 66 -54 35 -27 56 -4 48 -35 20 -4 50 -33 44 16 50 36 24 -4 56 47 12 45 23 51 -14 41 4 27 31 20 54 27 2 55 -17 23 27 26 45 40 3 50 -15 18 -30 49 16 58 -1 58 -67 76 18 38 -32 51 -56 -16 -21 3 -42 25 -43 42 -18 27 -23 -16 -18 13 -11 39 -22 40 7 15 -45 35 -22 3 -43 59 -13 25 10 21 -27 -8 -38 58 -5 34 19 27 -23 45 -26 30 13 9 51 16 40 12 41 27 31 40 -46 43 -5 36 -30 37 -8 25 29 43 -22 29 -52 31 -73 -18 -34 41 -53 22 -60 17 -61 37 -9 29 34 42 -1 30 -38 0 0z"/>
   <path id="mapPoint-_100_" class="fil1 str0" d="M1272 2916l38 11 34 -7 13 -22 29 6 25 29 -2 39 23 9 2 29 33 9 10 -26 -17 -21 16 -14 9 10 31 30 -4 42 -7 37 17 32 18 15 4 49 -20 35 -84 34 -111 -157 -57 -169 0 0z"/>
   <path id="mapPoint-_99_" class="fil1 str0" d="M2139 4414l-20 -39 33 -5 38 -31 34 2 23 28 6 29 34 7 12 -11 19 7 33 30 28 -19 35 3 45 -6 34 13 17 36 21 25 40 3 26 59 -19 23 -15 24 -3 36 -39 23 -33 -26 -15 12 -2 27 -33 3 -26 -31 -24 -16 -44 8 -22 20 -21 -10 -38 44 -53 -26 -38 -3 -34 -16 -3 -35 -21 -25 2 -29 21 -18 3 -37 13 -36 -18 -20 4 -23 0 0z"/>
   <path id="mapPoint-_98_" class="fil1 str0" d="M3051 4012l19 -16 9 -36 -27 -53 -34 -16 12 -18 18 -30 -14 -75 -17 -20 -28 -12 17 -30 3 -29 -30 -16 -2 -29 -34 -5 -23 20 -24 -35 13 -63 -21 -8 -23 -27 -25 17 -25 4 -38 -18 -38 -7 -55 -5 -15 -36 -22 8 -19 16 -32 -7 -41 1 -21 18 -2 30 -19 17 6 19 24 22 -15 33 -34 13 -27 23 -22 10 -3 34 -22 10 -21 18 20 23 13 32 19 23 46 4 20 23 37 1 27 19 52 5 25 29 34 6 23 -19 41 3 29 -25 32 3 26 16 18 21 7 35 34 3 21 31 31 2 7 -21 20 23 31 19 39 22 0 0z"/>
   <path id="mapPoint-_97_" class="fil1 str0" d="M2677 4243l-2 31 13 3 2 27 36 3 50 35 38 3 23 27 41 4 31 22 30 12 31 -25 51 -27 -15 -40 2 -23 30 -25 -9 -43 16 -30 35 3 20 -48 51 -16 4 -47 17 -40 -34 -14 -39 4c-38,-20 -80,-45 -118,-68l-20 -23 -7 21 -31 -2 -21 -31 -34 -3c0,0 -6,-28 -7,-35 -4,-4 -18,-21 -18,-21l-26 -16 -32 -3 -29 25 -41 -3 -23 19 -34 -6 -25 -30 -52 -4 -27 -19 -37 -1 -20 -23 -46 -4 -19 -23 -13 -32 -41 28 -7 30 -23 20 -10 51 -16 28 -17 24 -35 -3 -19 41 3 15 31 22 6 51 28 33 31 22 21 25 47 16 40 -9 41 15 -1 25 17 21 16 38 25 24 14 28 17 -18 29 2 21 -25 40 -18 0 0z"/>
   <path id="mapPoint-moskva_1_" class="fil1 str0" d="M2874 4670l-10 -24 3 -30 -23 -12 -9 -34 29 -19 1 -33 21 -17 12 -31 27 -10c0,0 -4,-25 -5,-30 3,-3 19,-20 19,-20l-30 -12 -31 -23 -41 -3 -23 -27 -38 -3 -49 -35 -37 -3 -2 -27 -13 -3 2 -31 -40 18 -21 25 -29 -2 -17 18 -10 38 -46 13 -35 30 -20 26 34 13 17 36 21 25 40 3 26 59 -19 23 -16 24 -2 36 13 35 30 8 -2 27 -12 30 7 32 -15 39 1 33 37 -3 8 -24 31 -3 9 10 44 2 15 -13 38 11 22 10 26 -4 12 -11 29 5 25 2 2 -35 17 -6 9 -24 8 -46 -18 -21 -22 -12 0 0z"/>
   <path id="mapPoint-_96_" class="fil1 str0" d="M2744 4490l0 -4 -6 -16 1 -16 -22 4 -16 12 5 14 -18 22 -17 -3 -2 25 -2 21 -11 26 25 0 18 -15 9 10 9 10 33 3 -4 -26 17 -19 21 -16 -16 -19 -24 -13 0 0z"/>
   <path class="fil1 str0" d="M6582 3811l-22 27 -25 22 -17 14 22 25 4 20 19 7 -4 38 -3 45 -23 -2 -28 -18 -29 -3 -51 39 -43 -2 -23 45 -64 -17 -20 28 -31 26 -31 13 -55 15 -47 8 -53 -34 -30 4 -30 -32 -64 -30 -62 -48 -123 -60 -35 -42 -48 -9 -73 -57 -35 -42 -58 -31 -53 -55 -55 1 -44 22 -253 -19 -18 -20 -44 -26 -7 15 -44 12 -22 -9c0,0 -21,-30 -27,-37 -5,-7 -19,-23 -19,-23l-6 -44 -36 -41 -18 -30 -9 -54 -16 -42 -20 -25 62 -6 54 -68 5 -61 22 -41 66 -25 4 -39 64 -31 5 -62 -5 -59 43 4 11 32 51 60 37 67 -7 85 -19 43 -23 19 -33 -39 -51 -16 -82 20 -5 64 15 59 -4 48 55 20 51 30 64 -24 4 -44 65 -11 59 34 -7 -39 93 25 53 -5 92 19 53 4 24 50 25 3 3 -45 81 -18 42 3 13 65 -47 -4 -19 43 -37 9 52 56 38 4 76 -25 68 19 69 81 27 -23 52 4 67 -16 23 27 -10 34 -41 25 -4 42 44 42 7 -44 23 -19 47 15 3 -38 47 -4 14 -57 -1 -72 46 -18 39 -8 41 48 21 -18 45 66 52 62 43 50 8 24 0 0z"/>
   <path class="fil1 str0" d="M6481 4041l20 -9 14 -24 -8 -18 26 17 23 2 7 -83 -19 -7 -4 -20 -22 -25 43 -36 21 -27 26 44 53 62 33 65 38 59 -4 49 31 56 50 -25 4 -52 60 -47 -37 -15 -22 -66 15 -66 -44 -35 -21 -54 25 -21 51 -21 3 -38 16 -57 24 -27 3 -37 -31 -12 22 -47 30 -32 49 -14 54 -20 21 -18 46 -39 37 -69 29 -56 32 -55 48 -21 25 44 58 5 27 31 52 4 14 85 -27 23 -19 87 -75 64 -24 62 39 40 -22 82 -17 64 -54 70 -26 102 -34 90 -23 45 14 67 39 46 -11 38 -57 38 -17 89 -56 11 -69 59 -40 51 -37 16 -60 -16 -39 21 -38 -28 -23 -27 -36 -14 -4 46 32 59 36 20 45 39 42 1 26 45 44 3c0,0 22,-31 11,-41 -9,-11 27,-23 27,-23l31 2 17 -14 63 -12 50 -23 4 -52 23 -20 42 -35 33 -28 20 -57 -7 -53 -2 -47 36 -29 35 -31 52 5 56 -3 12 49 21 25 23 77 -42 36 -3 58 -3 36 45 52 54 16 3 -34 -48 -24 -20 -23 3 -28 -3 -45 40 -9 18 -29 -12 -48 21 -37 -21 -50 -29 -31 -18 -21 -58 -26 -31 -38 -32 27 -38 14 -17 -28 -44 -4 -4 -47 32 -26 -2 -80 39 -51 27 -62 52 -44 -13 -55 -12 -48 10 -49 -32 -38 42 -35 66 -57 52 5 33 -44 24 -51 -14 -44 20 -35 38 3 -15 51 -6 72 -15 62 -48 41 -5 62 -4 44 49 43 27 27 41 -20 35 42 39 42 2 -29 -12 -40 -26 -31 -43 -25 2 -19 -34 -40 -13 -55 55 -31 23 28 35 41 31 -24 -4 -37 -2 -30 32 -26 -1 29 23 2 8 27 17 21 32 11 34 22 5 31 -25 21 3 26 -46 4 -23 19 -15 13 13 34 12 -11 11 30 50 33 -10 57 -8 85 -46 -4 -21 28 -40 33 -47 29 -1 45 19 23 4 27 28 33 46 12 3 31 14 17 31 -23 14 17 31 -27 -6 48 38 11 -3 39 19 57 -17 34 -19 -2 16 38 -19 46 -29 24 -12 30 -34 -10 -5 38 21 25 4 45 -24 35 19 23 -2 34 51 35 18 45 -36 28 -2 25 15 30 -3 44 -23 16 23 50 29 3 26 31 18 46 1 56 -27 23 7 53 55 16 27 31 31 -26 5 59 -14 51 14 40 -35 30 -38 41 -29 44 32 55 -5 62 -37 32 -9 55 -22 20 -63 53 -47 -68 -35 -3 -37 9 -31 -65 -70 -27 -25 21 -45 -69 -15 -54 -55 31 -46 21 -22 33 -85 -7 -90 -7 -35 -42 -50 -31 21 -45 -63 -32 -25 21 -36 -41 -58 -21 -43 6 -44 -55 -43 -4 -32 -61 -42 -3 -85 2 -14 -49 16 -47 -52 -61 4 -42 -8 -67 -53 -62 -66 -5 -29 24 -34 -39 -37 32 -64 -17 -34 -46 46 -39 -52 -52 -53 -34 -54 17 -50 -25 -67 10 -44 -52 -39 -46 -21 -25 48 -41 24 -58 -5 -66 -4 -81 63 7 4 -54 83 -38 80 -10 83 6 22 -52 46 4 48 -41 60 -24 -35 -42 45 -16 3 -30 -46 -29 12 -44 0 0z"/>
   <path class="fil1 str0" d="M12903 6213l-22 -66 4 -48 -30 -35 31 -27 13 -62 -65 -35 -54 -4 -3 -33 39 -5 -16 -42 18 -74 -46 -12 -42 -52 41 -6 9 -57 -16 -19 -9 -32 18 -37 -28 -34 28 -32 -20 -23 5 -52 52 -21 34 -17 40 8 36 -30 45 -14 10 -42 -27 -31 19 -39 57 -7 80 -70 4 -85 55 -12 2 -27 -47 -57 -9 -37 -53 -63 -36 -10 -4 -49 15 -55 -27 -31 49 -54 4 -52 9 -64 -21 -25 -8 -47 -19 -23 2 -56 44 -6 35 13 46 29 51 -21 39 -9 42 -35 30 -46 37 5 22 -12 14 17 22 -6 4 -41 1 -67 37 5 54 -53 92 13 32 20 53 39 31 14 -3 37 33 53 -49 21 -4 52 24 43 33 1 40 -42 42 6 28 17 23 -17 29 2 49 59 9 39 -33 -2 -31 25 16 33 15 16 -45 24 -56 -5 -60 49 -38 32 -43 63 -46 39 -49 79 -15 80 32 82 -39 34 -18 78 16 57 32 38 -33 46 -5 65 -7 89 -21 60 -6 83 23 29 -5 58 -6 65 -27 81 -6 68 -42 58 -5 62 -23 52 17 52 36 3 32 -27 40 4 33 -29 38 -32 23 28 28 17 -3 31 20 44 26 32 27 -24 3 -38 -33 -18 3 -37 29 -26 -2 25 27 23 16 -4 14 16 -3 45 -3 31 50 -16 2 -25 30 -34 18 -14 26 21 9 -40 -21 -25 -18 -44 -23 -50 46 -22 30 -24 54 -7 64 5 51 10 22 25c0,0 56,-6 68,-5 11,2 47,-11 47,-11l29 33 -25 21 -19 16 -18 26 43 3 44 4 7 32 34 39 44 -2 22 25 21 48 0 93 23 101 44 76 57 66 23 27 8 44 44 51 30 61 9 36 38 73 36 41 -9 102 -22 88 19 91 -43 31 -40 -35 14 -24 -13 -32 -35 -1 -25 -29 -32 -30 -29 2 -23 66 -52 36 5 34 44 9 9 36 41 -1 18 -29 18 7 16 48 -10 48 -18 33 -60 16 -10 40 28 10 -6 69 -42 46 -51 3 -5 15 -50 -12 -13 17 -32 -1 -9 -10 -34 -13 -47 55 -10 45 25 30 -2 21 -48 1 -7 -54 -44 -56 39 -34 5 -54 -29 -33 -32 -38 -7 -31 9 -29 -15 -16 7 -40 -43 13 -51 2 -29 44 -68 10 -34 40 -44 -62 -39 -22 -58 20 -41 -11 -41 3 1 54c0,0 -17,14 -25,21 -3,5 -28,38 -28,38l-15 -12 3 -58 -26 -23 -20 -7 -1 -36 -44 -36 -6 -39 -54 -10 -22 19 -24 -45 -25 -2 -25 -29 -1 -99 26 -40 -25 -47 36 -38 5 -32 45 -35 12 -71c0,0 44,-41 48,-44 0,-7 0,-33 0,-33l-45 -54 21 -26 42 5 82 -22 22 -58 -42 -35 -6 -74 -39 -46 -46 1 -31 43 -27 24 -49 5 -15 38 6 47 -16 14 -48 13 -50 62c0,0 -23,-3 -30,-4 -5,4 -31,24 -31,24l-60 -98 -39 9 -23 17 -59 -12 -28 -39 20 -39 31 -15 2 -33 -23 -47 3 -29 17 4 6 -75 34 -40 1 -33 21 -41 -43 -29 -44 4 -38 32 -39 3 -29 32 -33 13 -4 -16 0 0z"/>
   <path class="fil1 str0" d="M13689 5883l-23 21 -3 29 -2 31 38 -12 17 20 23 -19 11 -42 -20 -36 -41 8 0 0z"/>
   <path id="mapPoint-krasnodar_1_" class="fil1 str0" d="M1604 6246l-17 -27 -26 -14 -24 -44 -18 -21 35 -24 -4 -40 27 -5 -77 -96 -29 16 -24 -29 17 -53 -33 -18 -23 19 -27 -29 -25 -22 -28 -8 -12 30 16 38 -13 61 -35 -14 -85 -5 -44 14 -21 35 -35 -15 -35 -51 -29 3 -29 25 7 49 -19 43 16 40 27 30 -12 72 22 39 16 44 3 83 -17 112 15 59 31 -4 22 37 17 27 27 8 31 -27 35 -3 28 -23 25 2 11 30 18 33 48 4 41 -43 15 -26 -6 -36 25 -5 43 -28 -21 -25 22 -31 -13 -30 -18 -17 22 -27 2 -29 21 -20 19 7 12 21 34 -1 24 -20 0 -50 25 -21 0 0z"/>
   <path id="mapPoint-_92_" class="fil1 str0" d="M1608 6955l11 -18 -25 -21 -18 -21 -35 5 -41 -48 -7 -30 -36 -11 -37 -14 14 -26 -10 -26 -17 -21 13 -20 42 3 -12 -20 -3 -32 -26 -21 4 -38 -27 -12 15 -26 -6 -36 25 -5 43 -28 -21 -25 22 -31 -13 -30 -18 -17 22 -27 2 -29 21 -20 19 7 12 21 34 -1 24 -20 25 3 15 20 26 15 9 34 25 2 20 -6 7 32 18 20 45 -4 26 14 3 35 21 29 5 31 21 25 12 46 -20 31 16 36 23 28 17 26 -2 29 25 29 2 37 19 33 -4 56 -36 24 -38 9 -30 -14 -21 18 10 20 -18 13 -31 -2 -2 21 24 14 -18 37 -41 -3 -17 -21 1 -13 -18 0 -21 23 -22 3 -6 -44 -41 -48 0 0z"/>
   <path id="mapPoint-_91_" class="fil1 str0" d="M1803 7097l24 39 50 8 -1 56 -26 5 -46 22 -47 49 -20 56 -38 -27 -27 18 -40 -7 -29 19 -43 2 20 -40 -33 -42 38 -24 33 -44 27 -48 13 -36 -36 -34 -15 -34 48 12 22 -3 21 -23 18 0 -1 13 17 21 41 3 30 39 0 0z"/>
   <path id="mapPoint-_90_" class="fil1 str0" d="M1298 6839l32 -9 31 -26 23 3 36 -10 37 14 36 11 7 30 41 48 35 -5 18 21 25 21 -11 18 -20 14 -3 29 -18 16 -45 -2 -16 14 -22 -21 -33 -2 -24 13 -21 -5 -34 9 -32 -34 14 -48 -40 -37 -16 -62 0 0z"/>
   <path id="mapPoint-_89_" class="fil1 str0" d="M2525 5631l-7 42 10 59 53 12 32 20 -3 29 50 2 54 61 2 68 -48 38 30 34 19 -16 34 16 5 51 21 25 35 3 5 37 27 31 -3 49 -21 37 -32 20 -48 -4 -42 36 -33 28 -4 44 -44 14 -44 -5 -29 27 -13 -51 -27 -31 -37 20 -49 -6 -24 -27 -59 11 -24 43 -44 -13 -23 -27 3 -31 -23 -10 -21 47 -26 7 -23 -26 -30 9 -24 -29 -48 36 -48 -54 -8 -45 19 -39 3 -45 -50 -43 33 -28 3 -31 41 -13 31 35 50 -4 40 -62 -14 -89 62 -53 26 -50 -30 -55 -2 -34 62 -53 22 -56 70 6 37 -28 36 10 5 28 35 24 50 -1 0 0z"/>
   <path id="mapPoint-_88_" class="fil1 str0" d="M3151 4136l4 -48 17 -39 -34 -14 -39 4 -48 -27 19 -16 9 -36 -27 -52 -34 -17 30 -48 28 -24 46 11 18 -26 31 -1 34 -38 40 -72 59 -27 40 -48 26 17 47 -21 41 -11 40 12 34 18 41 -5 29 22 0 21 31 42 -42 72 3 23 -20 18 8 68 27 20 -2 31 37 23 7 25 15 11 21 25 25 2 20 23 7 28 48 6 36 12 16 19 30 10 9 32 26 31 19 15 -3 25 21 10 42 3 2 -15 18 7 27 2 -2 31 14 19 15 1 -1 19 27 18 18 21 27 -23 9 -21 27 14 16 32 -23 20 28 18 -1 15 21 2 26 14 -12 10 27 41 -58 50 -35 30 -45 -25 -27 21 49 60 -36 14 -3 45 -17 14 -52 -55 -34 44 -53 -18 -25 21 -29 -50 -87 -54 -13 -48 -45 -52 -62 -16 -27 -72 -52 19 -52 -28 -61 11 -56 18 -53 -62 4 -52 4 -44 -42 -50 -25 21 -58 -47 -24 -28 -81 -1 0 0z"/>
   <path id="mapPoint-rostov-na-donu_1_" class="fil1 str0" d="M2048 6363l4 -52 -48 -54 -8 -45 19 -39 3 -45 -50 -43 33 -28 3 -31 41 -13 31 35 50 -4 40 -62 -14 -89 62 -53 26 -50 -30 -55 -2 -34 -64 -5 -22 20 -35 -3 -16 -25 -42 -3 2 -27 -13 -27 -23 23 -21 41 -91 4 0 40 -34 -9 -39 31 5 54 -38 18 -58 50 -53 -68 -32 -43 -38 12 -46 -23 -56 20 -41 38 22 9 26 31 42 13 27 24 -13 44 -41 -21 -52 -10 -10 30 -7 23 25 29 28 -16 77 96 -27 5 4 40 -35 24 18 21 24 44 26 14 17 27 -25 21 0 50 25 3 15 20 33 -23 22 19 42 4 19 -16 2 -23 29 2 10 36 -2 32 21 25 34 12 11 74 18 21 26 12 13 -11 28 10 56 -50 52 5 53 -33 28 -48 3 -37 -39 16 -30 -4 0 0z"/>
   <path id="mapPoint-_87_" class="fil1 str0" d="M2544 6389l-13 -51 -27 -31 -37 20 -49 -6 -24 -27 -59 11 -24 43 13 49 28 21 -22 76 0 47 20 32 54 7 -18 58 -30 13 -23 61 23 26 -18 38 -52 -8 -6 30 -18 -1 -2 -20 -26 -14 -21 18 16 25 -3 28 14 17 -1 23 -84 50 6 20 33 2 25 22 44 11 16 19 36 12c0,0 -8,19 17,21 25,2 53,1 53,1l21 1 27 3 35 3 42 -3 27 -23 -28 -33 -18 -44 -2 -45 36 9 23 29 27 -23 6 -68 -7 -83 17 -63 -27 -31 -42 -48 -30 -22 34 -28 20 -63 -32 -37 -11 -50 41 -24 0 0z"/>
   <path id="mapPoint-_86_" class="fil1 str0" d="M2027 4719l-25 -3 -28 23 12 22 24 12 18 17 -3 40 28 10 6 24 24 13 3 55 24 47 3 56 26 8 18 21 31 -21 32 3 23 -20 -11 -28 50 -24 17 -34 34 -9 -11 -50 19 -22 -43 -27 -26 -64 -9 -86 -53 -26 -38 -3 -34 -16 -16 14 -11 30 -14 12 -18 -20 -27 -3 -24 6 6 22 -7 21z"/>
   <path id="mapPoint-_85_" class="fil1 str0" d="M2502 4946l-31 -4 -13 21 -37 -4 -20 35 -29 -3 -22 -36 -15 -19 -2 -5 -34 9 -17 34 -50 24 11 28 -23 20 -32 -3 -31 21 -4 42 31 9 33 23 41 12 17 38 43 19 -14 43 27 32 36 6 35 56 30 -21 27 2 11 -38 -25 -29 9 -34 -14 -21 10 -24 33 -9 44 -37 51 -34 -4 -66 -30 -35 -33 19 -13 -27 14 -24 -10 -20 0 0z"/>
   <path id="mapPoint-_84_" class="fil1 str0" d="M2582 4832l-21 32 -3 29 -26 17 -30 36 -31 -4 -13 21 -37 -4 -20 35 -29 -3 -22 -36 -15 -19 -13 -55 19 -22 -43 -27 -26 -64 -9 -86 38 -44 21 10 22 -20 44 -8 24 16 26 31 33 -3 2 -27 15 -12 33 26 39 -23 13 35 30 8 -2 27 -12 30 7 32 -15 39 1 33 0 0z"/>
   <path id="mapPoint-_83_" class="fil1 str0" d="M2578 5099l-4 -66 -30 -35 -33 19 -13 -27 14 -24 -10 -20 30 -36 26 -17 3 -29 21 -32 37 -3 8 -24 31 -3 9 10 44 2 15 -13 38 11 22 10 26 -4 12 -11 29 4 30 3 21 22 -12 28 36 14 3 33 24 10 27 53 -4 44 22 17 15 17 -2 23 6 24 -25 21 -30 5 -17 14 -25 22 -27 -3 -1 20 -23 19 -29 17 -22 -13 -27 -31 -23 0 -26 -30 -30 29 -44 -10 -12 -41 -43 -17 -37 -2 0 0z"/>
   <path id="mapPoint-_82_" class="fil1 str0" d="M2525 5568l36 -12 23 0 27 -23 95 -45 15 -24 41 4 12 -77 -17 -38 15 -63 -6 -39 54 -50 -27 -31 -23 0 -26 -30 -30 29 -44 -10 -12 -41 -43 -17 -37 -2 -51 34 -44 37 -33 9 -10 24 14 21 -9 34 25 29 -11 38 -27 -2 -30 21 19 22 -14 36 26 31 45 23 13 32 26 32 8 48 0 0z"/>
   <path id="mapPoint-saransk_1_" class="fil1 str0" d="M3018 5099l33 29 44 4 9 35 21 25 -4 46 28 34 9 41 39 15 22 -28 58 3 12 -10 41 1 -8 28 16 19 25 2 11 30 -28 35 9 26 -23 19 -10 34 -64 3 -22 -27 -39 21 -35 -6 -29 -34 -27 -33 -50 -4 -15 12 -46 -48 3 -46 -35 -42 -29 -2 -41 -21 -21 -25 -28 7 -2 -28 29 -17 23 -19 1 -20 27 3 42 -36 30 -5 24 -21 0 0z"/>
   <path id="mapPoint-penza_1_" class="fil1 str0" d="M2820 5201l22 13 2 28 28 -7 21 25 41 21 29 2 35 41 -3 47 46 48 15 -12 50 4 56 67 35 6 20 39 -5 59 -27 23 -3 33 18 21 -12 26 -20 6 -26 41 -33 40 -26 -37 -37 6 -31 -2 -48 -31 -54 -28 -31 -26 -8 -43 -52 -2 -34 -38 -26 -12 -19 -23 -2 -29 -35 -19 15 -24 41 4 12 -77 -17 -38 15 -63 -6 -39 54 -50 0 0z"/>
   <path id="mapPoint-saratov_1_" class="fil1 str0" d="M3109 5772l17 39 28 33 85 7 26 31 24 50 -3 44 48 20 10 66 41 48 -14 51 32 38 15 28 -4 27 -59 -16 -33 28 -57 14 -46 -30 -53 -5 -27 35 -53 -5 -55 -4 -14 26 -33 28 -10 46 -59 -16 -32 -38 4 -48 20 -47 -23 -27 -43 -3 2 -49 -26 -31 -5 -37 -35 -3 -21 -25 -5 -51 -34 -16 -19 16 -30 -34 48 -38 -2 -68 -54 -61 -50 -2 3 -29 -32 -20 -53 -12 -10 -59 7 -42 18 -16 -18 -45 0 -2 35 -12 24 0 27 -23 95 -45 35 19 2 29 19 23 26 12 34 38 52 2 8 43 31 26 54 28 48 31 31 2 37 -6 26 37 0 0z"/>
   <path id="mapPoint-ulyanovsk_1_" class="fil1 str0" d="M3355 5434l64 42 -4 42 51 -7 36 20 65 73 38 -12 18 20 9 59 31 38 9 32 -37 49 -48 17 -22 20 -33 -53 -50 -26 -25 22 -41 -52 -33 28 -42 -13 -35 30 -4 56 19 23 -11 38 -45 2 -26 -31 -85 -7 -28 -34 -17 -38 33 -40 26 -41 20 -6 12 -26 -18 -21 3 -33 27 -23 5 -59 -20 -39 40 -21 21 27 64 -3 10 -33 23 -20 0 0z"/>
   <path id="mapPoint-_81_" class="fil1 str0" d="M3853 5918l-13 -42 13 -30 -55 -57 -38 -3 -32 26 -56 -71 -37 49 -48 17 -22 20 -33 -53 -50 -26 -25 22 -41 -52 -33 28 -42 -13 -35 30 -4 56 19 23 -11 38 -45 2 24 50 -4 44 49 20 10 66 41 48 -14 51 32 38 12 23 83 7 29 -48 50 -29 26 10 18 -32 68 -5 39 -75 58 -26 46 -39 21 -67 0 0z"/>
   <path id="mapPoint-_80_" class="fil1 str0" d="M5073 6199l67 -37 37 20 33 3 36 18 25 -7 29 58 61 -39 52 4 33 22 -45 51 38 64 28 11 -4 57 37 10 27 30 42 3 13 34 32 8 -11 46 91 68 2 73 -33 39 -62 -5 -55 11 -42 -29 -55 5 -65 -5 -61 -38 -25 -2 -31 27 -49 6 -44 -29 -43 -4 -54 -22 -83 -5 16 -33 40 -34 -16 -49 -48 -4 -4 -24 -30 -4 -27 -32 12 -31 33 2 25 -21 -10 -48 27 -22 43 3 26 -35 -7 -61 -1 -53z"/>
   <path id="mapPoint-ufa_1_" class="fil1 str0" d="M4764 6022l-33 29 -26 -45 -35 -3 -52 -45 -24 -35 -28 9 -29 -14 -14 -67 -40 -11 -18 -46 -50 -4 -47 -44 3 -29 -30 -14 -25 26 -97 19 -21 -7 18 39 -3 32 -53 35 -37 -3 -30 11 -14 -17 -26 12 5 33 -2 21 14 17 -21 18 -33 28 -31 -3 -9 25 -20 25 -30 10 10 22 -7 63 18 21 -19 66 25 20 30 35 17 56 -5 54 13 34 -16 31 -4 46 -11 23 27 18 28 -23 42 3 13 28 -18 36 -42 12 8 20 25 8 -12 47 -17 14 5 39 23 2 4 22 27 31 30 -11 22 -19 24 15 8 26 25 21 31 11 32 -21 25 -46 17 -23 40 -15 9 -36 38 -57 25 2 3 -42 36 -40 3 -27 54 -46 39 -10 2 -17 40 -1 16 25 29 2 3 -46 -12 -55 -59 -25 -26 16 -59 -11 -27 -53 -2 -66 -22 -25 -5 -47 57 -36 35 15 39 22 25 30 -2 32 48 23 35 -29 57 -9 2 -29 34 -52 14 -35 -9 -41 0 0z"/>
   <path id="mapPoint-_79_" class="fil1 str0" d="M3100 4151l51 -15 81 1 19 20 63 55 25 -21 42 49 -8 97 47 55 -4 42 -64 -4 -18 34 -32 -3 -51 46 -31 -2 -16 33 -47 -15 -21 -25 -56 -5 -37 32 -41 -3 -23 19 -26 -31 -26 -23 -1 -26 -6 -31 19 -20 31 -25 51 -27 -15 -40 2 -23 30 -25 -9 -43 16 -30 35 3 20 -49 0 0z"/>
   <path id="mapPoint-_78_" class="fil1 str0" d="M4042 4709l32 -30 -52 -55 -34 44 -53 -18 -25 22 -29 -51 -87 -54 -13 -47 -44 -53 -63 -16 -27 -72 -52 19 -52 -28 -61 11 -56 18 -6 -7 -4 42 -64 -4 -18 34 -32 -3 -51 46 -31 -2 -16 33 30 36 43 3 19 23 37 -32 19 6 12 45 51 39 33 3 -5 56 45 27 -4 43 63 19 70 -13 30 -25 42 4 14 42 25 29 46 4 27 22 39 -33 61 -16 23 27 32 -29 69 6 17 -115 0 0z"/>
   <path id="mapPoint-_77_" class="fil1 str0" d="M3043 4525l37 -32 56 5 21 25 47 15 30 36 43 3 19 23 37 -32 19 6 12 45 51 39 33 3 -5 56 45 27 -4 43 -49 -2 -23 48 -50 -4 -32 -37 -29 24 -18 51 -33 29 -64 2 -56 13 28 -75 30 -62 -58 -68 -34 -40 -60 -26 3 -35 24 -37 -20 -43 0 0z"/>
   <path id="mapPoint-_76_" class="fil1 str0" d="M2979 4541l23 -19 41 3 20 43 -24 37 -3 35 60 26 92 108 -30 62 -27 75 -46 3 -34 28 -41 5 -29 24 -25 -50 -25 -10 -3 -33 -36 -14 12 -28 -21 -22 -5 0 2 -35 17 -6 9 -24 8 -46 -18 -21 -22 -12 -10 -24 3 -30 -23 -12 -9 -34 29 -19 1 -33 21 -17 12 -31 27 -10 1 1 1 26 26 23 26 31 0 0z"/>
   <path id="mapPoint-nizhniy-novgorod_1_" class="fil1 str0" d="M2978 5018l3 -47 29 -24 41 -5 34 -28 45 -3 56 -13 64 -2 33 -29 18 -51 29 -24 32 37 50 4 23 -48 49 2 63 19 70 -13 30 -24 42 3 14 42 25 29 46 3 27 23 46 45 59 69 -76 64 -49 -35 -41 4 -31 26 -39 48 -68 -53 -33 28 -50 -8 0 55 -28 23 20 44 -75 36 -4 60 -49 35 -20 33 -25 -2 -16 -19 8 -28 -41 -1 -12 10 -58 -3 -22 28 -39 -15 -9 -41 -28 -34 4 -46 -21 -25 -9 -35 -44 -4 -33 -29 -5 -24 2 -23 -15 -17 -22 -17 0 0z"/>
   <path id="mapPoint-_75_" class="fil1 str0" d="M3374 5373l-11 -30 20 -33 49 -35 4 -60 75 -36 41 24 90 8 2 45 25 29 -16 37 22 54 -61 13 -58 28 -5 59 -48 14 -41 -21 -43 7 -64 -42 -9 -26 28 -35 0 0z"/>
   <path id="mapPoint-_74_" class="fil1 str0" d="M3670 5090l39 -48 31 -26 41 -4 50 35 75 -64 -59 -69 -46 -45 39 -33 61 -16 23 27 32 -29 69 6 17 -115 32 -30 17 -14 3 -45 36 -14 -49 -60 27 -21 45 25 93 -80 28 -20 19 8 12 22 30 35 -10 27 20 13 1 37 -33 28 -4 51 -47 7 -3 33 -35 30 -3 37 23 27 -3 37 8 39 -18 33 16 19 30 -32 21 -49 43 -8 43 25 24 29 42 -34 20 23 9 28 37 -1 25 -21 40 3 22 26 42 24 30 36 25 25 -9 42 -43 31 -40 13 -48 40 -3 41 23 27 -17 37 -3 41 -57 30 -42 -4 2 -50 -50 -2 -54 -61 -47 30 -30 44 -17 41 -33 28 -43 -3 -21 -25 -48 42 -6 71 -44 38 -33 28 -27 48 -37 -49 -8 -61 3 -38 -11 -38 7 -77 -39 -27 -13 -59 -53 -16 -38 -26 -20 29 -25 -29 -46 19 -36 -28 -24 -44z"/>
   <path id="mapPoint-_73_" class="fil1 str0" d="M3569 5065l33 -28 68 53 24 44 36 28 46 -19 25 29 20 -29 38 26 53 16 13 59 39 27 -7 77 11 38 -50 10 -28 -33 -54 -5 -22 -25 -58 29 -81 14 -22 -54 16 -37 -25 -30 -2 -44 -90 -8 -41 -24 -20 -44 28 -23 0 -55 50 8 0 0z"/>
   <path id="mapPoint-kazan_1_" class="fil1 str0" d="M4198 5741l18 39 -3 32 -53 35 -37 -3 -30 11 -14 -17 -26 12 5 33 -2 21 14 17 -54 46 -31 -3 -9 25 -20 25 -30 10 -3 -7 -23 -25 31 -26 -37 -44 -41 -4 -13 -42 13 -30 -55 -57 -38 -3 -32 26 -56 -71 -9 -32 -31 -38 -9 -59 -18 -20 -38 12 -65 -73 -36 -20 -51 7 4 -42 43 -7 41 21 48 -14 5 -59c20,-9 39,-19 58,-28 49,-11 93,-19 142,-27l58 -29 22 25 54 5 28 33 50 -10 -3 38 8 61 37 49 44 3 21 35 42 15 15 25 29 2 2 44 31 28 -34 17 0 21 38 17 0 0z"/>
   <path id="mapPoint-izhevsk_1_" class="fil1 str0" d="M4037 5486l77 -66 6 -71 48 -42 21 25 43 3 33 -28 17 -41 30 -44 47 -30 54 61 50 2 -2 50 42 4 -24 53 -1 59 -35 52 -13 59 -31 59 -83 34 -2 27 27 51 -25 26 -97 19 -21 -7 -38 -17 0 -21 34 -17 -31 -28 -2 -44 -29 -2 -15 -25 -43 -15 -20 -35 -44 -3 27 -48 0 0z"/>
   <path id="mapPoint-_72_" class="fil1 str0" d="M6505 3989l-29 -3 -51 39 -43 -2 -23 45 -64 -17 -20 28 -31 26 -31 13 -55 15 -47 8 -53 -34 -30 4 -30 -32 -64 -30 -62 -48 -123 -60 -35 -42 -47 -9 -74 -57 -35 -41 -57 -32 -54 -55 -55 1 -44 22 -253 -19 -29 25 -17 35 -19 16 -1 18 -42 35 9 22 24 29 10 24 -18 32 5 33 17 21 -24 37 -23 19 -14 -16 -21 -2 -29 -28 -30 -10 -24 -17 -33 8 -31 13 -4 -39 -35 -41 -33 -24 -42 -11 -20 -23 -28 -12 -33 -28 -30 -3 3 33 -3 29 23 39 22 27 -12 34 -3 35 -34 18 -13 36 16 19 3 38 -8 23 -34 -10 -29 5 -12 22 -12 11 3 27 -30 13 0 43 24 14 23 9 19 23 24 -29 15 7 16 -30 31 -3 21 2 15 16 26 -9 8 39 19 23 -33 29 -22 8 -35 30 -41 20 -5 20 -31 17 -21 18 25 29 -24 33 -27 17 -23 24 -24 -8 -4 -20 -39 -3 -21 -8 1 18 -32 5 1 37 -33 28 -4 51 -47 7 -3 33 -35 30 -3 37 23 27 -3 36 8 40 -18 33 16 19 30 -32 21 -49 43 -8 43 25 25 29 41 -34 20 23 9 28 37 -1 25 -21 40 3 38 -12 2 -29 -22 -27 26 -42 48 31 19 -16 16 19 25 -22 29 14 12 21 -8 30 23 33 31 -9 52 27 32 38 40 -16 43 21 27 -23 25 9 15 19 26 -5 18 -30 25 2 53 43 53 33 60 28 96 17 16 -33 17 -14 7 -46 65 -54 2 -33 23 -37 -7 -43 38 -59 53 -27 9 -44 61 -32 -5 -54 24 -41 54 -46 40 -34 30 15 -3 38 43 -2 50 -43 48 -19 27 -27 36 -11 63 7 4 -54 83 -38 80 -10 83 6 22 -52 46 4 48 -41 60 -24 -35 -42 45 -16 3 -30 -46 -29 12 -44 20 -9 14 -24 -8 -18 -2 -1 0 0z"/>
   <path id="mapPoint-perm_1_" class="fil1 str0" d="M4560 5279l-57 30 -24 53 -1 59 -35 52 -13 59 -32 59 -82 34 -2 27 27 51 30 14 -3 29 47 44 50 4 18 46 40 11 14 67 29 14 28 -9 57 -50 3 -42 20 -31 14 16 48 4 42 -16 16 -45 28 -40 33 2 25 47 21 -18 29 -25 -18 -20 0 -24 47 -25 42 13 32 -22 34 -29 -25 -29 1 -17 28 -23 21 -54 -26 -53 5 -62 43 -31 42 4 36 -31 41 -52 53 -40 33 -65 4 -51 52 -20 10 -44 -96 -16 -60 -29 -53 -33 -53 -43 -25 -2 -18 30 -26 5 -15 -19 -25 -9 -27 23 -43 -21 -40 16 -32 -38 -52 -27 -31 9 -23 -33 8 -30 -12 -21 -29 -14 -25 22 -16 -19 -19 16 -48 -31 -26 42 22 27 -2 29 -38 12 22 26 42 24 30 36 25 25 -9 42 -44 31 -39 13 -48 40 -3 41 23 27 -17 37 -3 41 0 0z"/>
   <path id="mapPoint-_71_" class="fil1 str0" d="M10463 8298l-84 -18 -33 -24 -113 6 -71 -6 -63 53 -65 10 -63 13 -88 -15 -57 -30 -35 -42 -29 -78 -41 -48 -61 -30 -62 -5 -70 12 -45 -52 -94 -8 -52 -47 -32 27 0 -47 -21 -25 -6 -43 29 -25 3 -42 30 -25 112 -95 37 29 -14 26 45 25 24 28 59 24 24 29 30 20 31 37 81 -11 60 67 39 3 -3 35 23 47 70 5 9 46 59 -26 40 3 6 -72 60 -51 72 -73 40 -82 94 -80 108 -109 29 -172 44 -113 -52 -22 -33 -243 22 -33 27 -23 -40 -32 -39 -17 -10 -67 81 -49 39 3 4 -46 38 -15 52 24 57 -15 4 -48 41 -24 18 23 61 5 39 -22 21 25 74 22 33 -29 31 22 52 -44 37 3 8 -96 46 -18 26 -57 45 16 20 22 -58 46 -6 66 45 26 14 60 26 37 14 63 39 50 40 -13 52 32 33 39 12 40 -27 73 -57 13 -50 43 -39 53 -30 53 -44 38 -35 57 14 61 38 15 -3 28 27 32 -22 58 -100 83 -49 20 -35 30 -44 14 -17 69 -36 30 -38 12 -29 81 -38 -3 -48 -12 -69 59 -34 14 -26 -13 -27 -3 -29 25 -4 46 17 25 -32 11 -7 87 43 -3 27 32 -86 72 6 47 -86 -7c0,-1 0,-1 0,-2l0 0z"/>
   <path id="mapPoint-_70_" class="fil1 str0" d="M12039 7625l24 -103 23 -40 -13 -81 -32 -37 -28 -34 -41 28 -24 -37 23 -46 34 -79 41 -36 81 -37 -43 -96 -42 -4 -7 -53 -19 -32 38 -18 2 -18 -20 -1 -30 -38 -26 -6 11 -61 -13 -30 -14 -49 -37 -23 -32 36 -28 -14 2 -42 -18 -21 -28 -10 -34 28 -18 36 -49 -18 -13 -32 32 -34 -15 -31 -33 9 -42 -15 -26 -31 2 -29 -39 -15 3 -42 -36 -15 -34 -53 -52 -24 -7 -57 -23 -27 -33 21 -31 -3 -21 -25 -38 -5 -46 39 16 19 -23 41 20 22 -24 49 66 77 39 -14 -2 31 16 18 -14 48 -40 19 -25 41 -54 -20 -38 16 -44 -7 -6 66 45 26 14 60 26 37 14 63 39 50 40 -13 52 32 33 39 12 40 -27 73 -57 13 -50 43 -39 53 -30 53 -44 38 -35 57 14 61 38 15 -3 28 27 32 -22 58 -100 83 -49 20 -35 30 -44 14 -17 69 -36 30 -38 12 -29 81 -39 -3 -47 -12 -69 59 -34 14 -26 -13 -27 -3 -29 25 -4 46 17 25 -32 11 -7 87 43 -3 27 32 -86 72 6 47 23 37 16 39 64 26 74 -3 100 8 73 -16 79 7 33 -28 65 -55 81 -30 60 -34 45 -39 27 -70 96 -81 64 -22 45 21 49 31 71 -33 50 -25 65 17 90 15 83 -22 52 -44 39 -75 53 -11 6 -67 -20 -23 -30 -74 32 -65 5 -66 0 0z"/>
   <path id="mapPoint-irkutsk_1_" class="fil1 str0" d="M11385 6192l-15 -55 -30 -7 3 -34 -55 -69 -38 -3 -3 37 -38 31 -53 -12 3 -34 -22 -21 4 -45 -48 -9 -52 -30 -52 1 -52 -11 -31 32 -20 47 -37 32 9 49 -21 52 -50 43 -7 81 -67 39 -4 50 -24 -41 3 -42 -29 -35 -33 10 -10 40 -84 24 -38 -3 -19 45 -27 36 -53 0 -53 -62 4 -122 14 -72 5 -70 15 -61 5 -60 -71 -35 -1 -29 -11 -33 -25 -30 3 -32 21 -18 9 -44 -25 -29 -34 -3 -37 -20 3 -39 17 -14 -17 -19 -8 -55 -27 -56 -34 -28 -42 8 -41 1 4 -48 34 -8 2 -30 -29 -37 -16 26 -22 20 -29 -8 -35 29 -34 9 -23 43 -4 44 14 50 -17 39 -3 35 64 75 -14 34 -20 27 28 33 -33 29 -23 13 -5 66 -26 13 -13 44 -44 13 7 59 -21 18 -12 53 7 50 24 13 37 44 19 -16 38 18 -4 43 11 37 -27 -6 -21 31 -19 28 6 24 38 3 17 40 10 36 -23 19 -26 35 -2 31 -14 26 -37 -3 -28 -34 -42 -3 -13 -30 -37 -21 -6 -25 -30 -11 -45 24 -15 47 19 52 -37 46 -56 48 -41 48 -15 52 -24 42 32 38 -34 20 -46 -37 -18 -57 -37 -44 -39 16 -21 51 -64 18 -47 -12 -53 7 -8 74 -31 26 -6 69 32 38 18 58 -2 32 -38 16 -21 44 -35 -3 -13 45 -21 37 24 41 -1 39 -21 11 -4 58 7 34 -20 29 3 39 -72 -2 -3 31 -30 -8 -14 30 44 32 64 75 31 22 44 2 34 30 56 12 42 48 30 18 53 4 24 -19 42 50 112 -96 37 31 -14 25 45 25 24 28 59 24 24 29 30 20 31 37 81 -11 60 67 39 3 -3 35 23 47 70 5 9 46 59 -26 40 3 6 -71 60 -52 72 -73 40 -82 94 -80 108 -109 29 -173 44 -112 -52 -22 -33 -243 22 -33 27 -23 -40 -32 -39 -17 -10 -67 82 -49 38 3 4 -46 38 -15 52 24 57 -15 4 -48 41 -24 18 23 61 5 39 -22 21 25 74 22 33 -29 31 22 52 -44 37 3 8 -96 46 -18 26 -57 45 16 20 22 -58 46 44 8 38 -17 54 20 25 -41 40 -19 14 -48 -16 -18 2 -31 -39 14 -66 -77 24 -49 -20 -22 23 -41 -16 -19 46 -39 38 5 21 25 31 3 33 -21 10 -26 -64 -75 0 0z"/>
   <path id="mapPoint-tyumen_1_" class="fil1 str0" d="M5874 6790l-17 -46 -62 -5 -45 -32 -54 -11 -2 -73 -91 -68 11 -46 -32 -8 -13 -34 -42 -4 -27 -29 -37 -11 4 -55 -28 -12 -38 -64 45 -51 33 -20 -10 -46 21 -18 -6 -54 38 -34 32 11 34 -24 29 14 70 -28 3 -41 -9 -33 18 -46 29 40 52 4 39 -8 3 -33 21 -18 66 25 29 -25 75 6 23 -19 81 -23 21 -17 1 -39 27 2 58 48 31 35 36 3 47 18 36 41 51 109 -4 44 49 12 -3 42 23 27 39 17 22 25 44 4 28 29 41 4 -74 58 -50 19 -57 -5 -36 -14 -41 -25 -19 22 -50 -4 -29 -22 -26 -16 -73 -30 2 -29 25 -21 -35 -42 -39 22 -24 35 -31 26 -7 39 13 51 -40 16 -2 27 31 20 21 25 9 30 35 22 -2 33 -19 16 -47 4 -29 24 -37 32 -4 42 -12 25 -27 23 -19 2 -3 33 -27 23 -16 27 -2 29 -49 -2z"/>
   <path id="mapPoint-ekaterinburg_1_" class="fil1 str0" d="M5413 6219l-52 -4 -61 39 -29 -58 -25 7 -36 -18 -33 -3 -37 -20 -67 37 -23 -27 -25 -29 -33 -22 -33 28 -30 -36 -32 -6 -6 -20 -44 -19 -11 -26 -38 -30 -34 11 -33 28 -26 -45 -35 -3 -52 -45 -24 -35 56 -50 4 -42 20 -31 14 16 48 4 42 -16 16 -45 28 -40 33 2 25 47 50 -43 -18 -20 0 -24 47 -25 41 13 33 -22 34 -29 -25 -29 1 -17 28 -23 21 -54 -26 -53 5 -62 43 -31 42 4 35 -30 42 -53 53 -40 33 -65 4 -51 52 -20 10 -44 16 -33 17 -14 30 19 -2 31 37 38 33 38 50 60 31 68 27 31 -4 56 -28 31 7 76 -20 61 28 33 -4 48 -31 27 5 56 39 25 26 36 -1 39 29 3 26 31 -18 27 -4 56 25 29 -18 45 9 34 -3 41 -70 28 -29 -14 -34 24 -32 -11 -38 34 5 54 -20 18 10 46 -33 20 -33 -22z"/>
   <path id="mapPoint-khanty-mansiysk_1_" class="fil1 str0" d="M6013 4404l4 81 5 66 -24 58 -48 41 21 25 40 47 43 51 67 -10 50 25 54 -17 53 34 52 52 -46 39 33 46 65 17 37 -32 34 39 29 -24 66 5 53 62 8 67 -4 42 52 61 -16 47 14 49 85 -2 42 3 32 61 43 4 44 55 43 -6 58 21 36 41 25 -21 63 32 -21 45 50 31 35 42 90 7 85 7 22 -33 46 -21 55 -31 15 54 45 69 25 -21 70 27 31 65 37 -9 35 3 47 68 -7 75 59 46 67 36 -42 56 -90 32 -60 51 -85 -73 -100 33 -22 58 -63 -38 -47 8 -51 -60 -64 18 -78 -16 -18 -33 -85 -7 -56 -30 -80 6 -33 55 -35 69 -2 77 -83 17 -70 42 -12 52 -72 35 -41 -4 -28 -29 -44 -4 -22 -25 -39 -17 -23 -27 3 -42 -49 -12 4 -44 -52 -109 -35 -41 -47 -18 -36 -3 -31 -35 -58 -48 -27 -2 -1 39 -21 17 -81 23 -23 19 -75 -6 -29 25 -66 -25 -21 18 -3 33 -39 8 -52 -4 -29 -40 -25 -29 4 -56 18 -27 -26 -31 -29 -3 1 -39 -26 -36 -39 -25 -5 -56 31 -27c0,0 4,-39 4,-48 -7,-8 -28,-33 -28,-33l20 -61 -7 -76c0,0 17,-19 28,-31 1,-13 4,-56 4,-56l-27 -31 -31 -68 -53 -63 -30 -35 -37 -38 2 -31 -30 -19 7 -46 65 -54 2 -33 23 -37 -7 -43 38 -59 53 -27 9 -44 61 -32 -5 -54 24 -41 56 -47 38 -32 30 14 -3 38 43 -2 50 -43 48 -19 27 -27 36 -11 0 0z"/>
   <path class="fil1 str0" d="M10081 3743l0 1 0 49 -1 0 -19 -1 -12 34 -50 42 -43 24 -5 88 -38 11 -17 47 0 0 25 29c-1,14 -3,27 -4,40l-18 32 -49 -20 -37 9 -60 71 -54 15 1 1 2 18 26 78 40 32 -2 81 35 81 -2 33 12 158 -4 1 -33 7 -29 39 -25 21 10 41 13 -10 2 -2 45 23 -3 41 15 18 -18 14 -4 43 41 26 8 69 46 54 -21 47 -33 43 8 38 -2 33 -17 14 -4 48 24 13 38 4 0 0 3 0 20 -18 24 2 19 27 45 -14c11,6 21,12 32,18l27 -23 2 -1 36 4 0 29 -1 1 -1 3 -14 22 -23 20 -28 -8 -35 29 -34 9 -23 43 -4 44 14 50 -17 39 -3 35 39 46 25 29 -14 34 -20 27 28 33 -33 29 -23 13 -5 66 -26 13 -13 44 -44 13 7 59 -21 18 -12 53 7 47 0 3 24 13 37 44 19 -16 35 17 3 1 -4 43 11 37 -27 -6 -22 31 -18 28 5 21 0 0 1 3 37 3 1 0 0 0 17 40 10 36 -23 19 -26 35 -2 31 -14 26 -37 -3 -28 -34 -42 -3 -1 -3 0 0 -12 -27 -1 -1 -1 0 -35 -19 -1 -3 -5 -23 -2 -1 0 0 -28 -10 -45 24 -15 47 19 52 -37 46 -56 47 -41 49 -16 52 -22 42 -1 0 0 0 30 35 2 2 -34 21 -46 -37 0 -1 0 0 -18 -56 -2 -3 0 0 -35 -41 -39 16 -21 51 -64 18 -47 -12 -53 7 -8 74 -31 26 -6 69c11,13 21,25 32,38l18 58 -2 32 -38 16 -21 43 -35 -2 -13 45 -21 37 24 41 -1 39 -21 11 -4 58 7 34 -20 29 3 39 -72 -2 -3 31 -30 -8 -14 29 0 1 44 32 63 75 32 22 -12 22 0 1 -4 7 -26 -12 -24 20 -53 -7 -50 42 -63 -16 -21 18 -4 3 -21 81 -1 6 -54 11 -4 0 -3 37 0 4 -35 30 0 0 -4 3 -5 56 0 6 -53 11 -77 56 -53 17 -39 -3 -48 -30 -56 -4 -54 -24 -39 -46 4 -5 1 -1 14 -17 26 -53 5 -1 41 -14 43 -37 0 -1 -1 -50 7 -6 37 -31 0 0 19 -49 -10 -41 4 -47 -48 -56 -11 -59 -46 -54 21 -64 -13 -32 -48 11 -70 -13 -25 21 -47 -14 -42 -53 -24 -48 0 -1 8 -6 40 -34 3 -1 4 -4 23 -7 2 -67 -21 -52 -34 -15 -17 -18 -5 -39 16 -56 5 -69 36 -53 5 -2 51 -21 0 -3 3 -51 -64 -26 -43 -4 -8 -39 -32 -61 3 -7 25 -53 86 -78 -2 -3 -21 -24 -72 0 -10 -57 -43 -50 -25 -47 -57 -20 -78 -6 -67 12 -53 -22 -11 -50 5 -4 43 -36 -24 -102 61 -52 89 -31 42 -57 -67 -36 -59 -46 7 -75 85 -72 8 -56 38 -32 5 -62 -32 -54 29 -45 38 -41 35 -30 -14 -40 14 -51 -5 -59 -31 26 -26 -31 -55 -16 -8 -53 27 -23 -1 -56 -18 -46 -26 -31 -29 -3 -23 -50 23 -16 3 -44 -15 -30 2 -25 36 -28 -18 -44 -51 -36 2 -34 -19 -23 24 -35 -4 -45 -21 -25 5 -38 34 10 12 -30 29 -24 19 -46 -16 -38 19 2 17 -34 -19 -57 3 -39 -38 -11 6 -48c-10,9 -21,18 -31,27 -3,-4 -14,-17 -14,-17l-31 23 -14 -17 -3 -31 -46 -12 -29 -33 -3 -27 -19 -23 1 -45 47 -29 40 -33 21 -28 47 4 6 -84 11 -58 -50 -33 -11 -30 -12 11c-3,-8 -10,-27 -13,-34l38 -32 47 -4 -4 -26 25 -21 -5 -31 -34 -22 -32 -11 -17 -21 -8 -27 -23 -2 1 -29 30 16 41 -3 30 36 60 40 -21 46 14 17 39 46 66 5 12 -38 -24 -38 5 -35 -45 -21 -30 -59 -17 -21 20 -56 25 -46 -18 -21 -7 -63 52 -40 116 9 56 26 1 -15 94 7 66 -21 46 3 28 -22 -23 -39 -28 -12 -23 -27c0,0 11,-9 32,-27 20,-17 17,21 17,21l30 -5 -18 -23 16 -30 -19 -23 28 -32 37 -24 -35 -5 1 -37 67 8 32 -54 69 -20 27 -23 94 -6 25 -21 67 -14 17 -16 -43 -19 27 -23 65 -10 54 -3 14 -26 45 -4 -27 42 -3 35 34 -29 74 9 11 -38 49 -6 47 14 -18 -31 -28 -24 -13 -28 54 4 58 -12 17 1 -3 -43 -18 -17 5 -58 15 -37 44 -88 47 -27 42 -39 45 33 37 -3 8 51 -42 35 -34 40 77 10 16 -14 49 4 31 38 -33 28c0,0 -4,31 9,32 15,1 52,21 52,21l16 -41 -20 -23 56 -24 48 4 53 -31 27 31 40 -16 26 31 22 51 27 27 18 -18 23 27 30 36 -10 51 -47 -14 18 21 46 31 26 55 -31 26 -4 48 -28 33 -27 46 -31 27 -53 54 -2 25 -21 66 -40 33 -21 74 -59 11 -24 54 -43 37 -15 63 -16 43 46 -15 -7 -49 46 -24c0,0 40,-8 63,-6 21,2 32,-42 32,-42l45 -31 40 -13 27 -42 -18 -21 -29 -4 4 -19 1 -39 37 1 29 3 0 1 2 41 18 17 -8 23 -18 16 0 1 9 29 18 34 20 23c-4,16 -8,32 -12,48l15 38 48 23c-1,8 -1,17 -2,25l62 53 28 34c-2,20 -3,41 -5,61l29 67 39 3 0 0z"/>
   <path class="fil1 str0" d="M8165 6794l-56 23 -36 53 -5 69c-65,17 -124,33 -189,50l-32 -17 -51 -4 -89 66 -83 -6 -48 19 -62 -9 -69 62 -25 -29 25 -21 -17 -21 3 -46 -4 -62 -29 -18 -38 31 -59 11 -50 -4 -38 -61 -106 -9 -42 -71 -68 -79 -62 -33 -54 -33 -65 -15 -60 -5 -32 -30 -52 -7 -12 -44 -23 -58 13 -61 -27 -31 4 -50 35 -62 2 -17 72 -35 12 -52 70 -42 83 -17 2 -77 34 -68 34 -56 81 -6 56 31 83 6 19 33 79 16 63 -19 51 61 47 -8 63 38 22 -58 100 -32 85 72c7,29 18,80 24,103l-48 40 11 50 53 22 66 -12 80 6 56 20 25 47 43 50 10 57 72 0 23 27 -86 78 -28 60 32 61 8 39 43 3 64 27 -3 54 0 0z"/>
   <path class="fil2 str0" d="M8018 7261l13 50 21 50 -15 38 -3 38 -45 14c10,12 22,26 31,38l32 -27 42 11 0 0 -3 31 -17 14 -10 77 -45 56 23 27 20 33 -20 17 -8 27 13 32 19 25 -80 69 -3 41 -31 -3 2 -45 -23 -1 -41 -25c-17,-1 -30,-2 -47,-3 -15,-16 -31,-32 -46,-47l-1 0 -1 0 -12 -42 0 0 3 -37c-7,-16 -14,-32 -21,-48l38 -14 1 -33 -2 0 0 -2 -5 0 -32 -3 -34 -25 -1 0 -5 -47 -2 -1 -23 -28 -26 -62 -1 0 -1 -2 -40 -3 -3 0 -24 -56 -1 -2 4 -2 -27 -49"/>
   <path class="fil2 str0" d="M7581 7342l18 -103 -8 -74 -14 -36 -1 -82 48 -19 83 6 89 -66 52 4 31 17c63,-17 127,-34 189,-50l-16 55 5 40 7 8 10 10 34 15 21 52 0 0 -2 67 -23 7 -4 4 -3 0 -48 41 -31 23"/>
   <path class="fil1 str0" d="M7931 7873l23 1 -2 45 -2 2 -71 60 8 49 -25 21 46 54 38 3 27 -46 18 7 11 52 13 55 51 60 41 46 -15 34 -41 6 -21 18 34 40 -3 40 15 26 7 11 -59 8 -44 38 -73 -8 -64 29 -34 29 -70 -18 -18 -38 -23 -50 -10 -52 -41 36 -66 20 -56 -24 -64 -27 5 -57 -50 -36 -15 -45 -40 -31 -5 -58 48 0 4 -43 -2 -2 -20 -23 -28 -33 0 0 25 -21 119 -31 42 3 63 -55 3 -40 32 -27 43 33 26 -29 25 2 22 -27 -25 -29 24 -37 38 -16 1 0 1 0 5 5 41 42 47 3 41 25 0 0z"/>
   <path class="fil1 str0" d="M8408 7688l-19 49 -44 37 1 51 -43 37 -46 15 -26 53 -19 23 -54 23 -5 54 -50 43 -47 -9 -41 -14 -24 19 -18 -7 -27 46 -38 -3 -46 -54 25 -21 -8 -49 73 -62 31 3 3 -41 80 -69 -18 -23 -1 -2 -13 -32 8 -27 20 -17 -20 -33 -23 -27 45 -56 10 -77 17 -14 3 -31 -42 -11 0 0 -32 27 0 -1 -31 -37 45 -14 0 0 3 -38 15 -38 -21 -50 -13 -50 0 0 8 -6 23 -17 24 49 42 54 47 13 25 -21 70 13 48 -11 13 32 -21 64 46 54 11 59 48 56 -4 47 10 41 0 0z"/>
   <path id="mapPoint-_68_" class="fil1 str0" d="M1218 6239l-13 -24 -25 -27 -14 4 -2 24 10 22 46 56 26 2 9 -9 25 20 11 33 -16 15 -27 -5 -18 28 -23 -2 -3 41 8 24 -8 18 -56 -4 -18 -12 -23 20 33 49 11 26 13 -10 25 -2 2 -19 18 -15 29 -24 28 -35 23 -19 24 -8 7 34 16 -26 4 -54 3 -35 -16 -13 -14 -16 -14 -8 -5 -24 -30 -13 -14 4 -32 -16 0 0z"/>
   <path class="fil1 str0" d="M13290 2020l-50 42 -3 35 21 25 -48 -4 -47 31 -64 22 -62 -73 -30 -35 -68 -2 -82 5 -50 52 -56 48 -69 85 -6 71 -53 58 -50 42 -53 -2 -44 -29 -68 31c0,0 10,65 3,57 -7,-8 -42,-52 -42,-52l-38 36 -54 -5c0,0 -32,-14 -15,-28 16,-14 40,-42 40,-42l-42 -34 -75 25 -54 21 -27 60 -12 33 9 81 -4 46 -45 35 19 -93 -45 -19 -40 33 -44 16 23 -64c0,0 48,-14 49,-27 1,-16 -8,-26 -8,-26l-74 25 -93 27 -24 54 -70 30 -46 -4 -33 28 49 35 5 35 -58 44 -4 52 27 22 30 -62 16 17 -4 54 41 25 33 39 17 11 -40 34 -46 -6 -29 27 -23 19 56 30 -3 37 -53 -20 -46 -2 -65 10 -40 61 6 64 -61 -5 -55 11 -32 -37 -61 -13 -4 44 29 34 -3 34 12 38 19 83 -10 46 -53 -33 -23 19 -52 -14 -34 -28 -44 -52 -50 -2 3 -39c0,0 -19,-36 -20,-23 -1,14 -29,23 -29,23l-32 -37 21 -18 32 -7 4 -54 -23 -27 -48 25 3 -46 -26 -31 -29 -3 24 -58 -56 -24 -19 16 -50 -47c0,0 -8,23 -25,22 -17,-2 -19,43 -19,43l-21 13 -17 -22 -20 4 -12 28 -36 -30 -23 -27 -33 20 -27 -31 -10 29 -14 54 32 59 4 49c0,0 8,45 -4,44 -11,-1 -66,5 -66,5l-56 40 -53 15 -25 -49 -10 26 -4 20 -75 -7 -37 -43 19 -16 -17 -31 -75 16 -94 9 -64 26 -48 41 -25 21 33 34 -29 -3 -26 -44 4 -49 -23 -27 -34 40 -12 28 -47 -23 -41 -14 2 42 18 17 -8 23 -18 16 9 30 18 34 20 23 -12 48 15 38 48 23 -2 25 62 53 28 34 -5 61 29 67 39 3 0 50 -20 -1 -12 34 -50 42 -43 24 -5 88 -38 11 -17 47c8,10 16,19 25,29 -1,14 -3,27 -4,40l-18 32 -49 -20 -37 9 -60 71 -53 15 2 19 26 78 40 32 -2 81 35 81 -2 33 12 158 -37 8 -29 39 -25 21 10 41 15 -12 45 23 -3 41 15 18 -18 14 -4 43 41 26 8 69 46 54 -21 47 -33 43 8 38 -2 32 -17 15 -4 48 24 13 41 4 20 -18 24 2 19 27 45 -14c11,6 21,12 32,18l29 -25 36 5 0 29 29 37 -2 30 -34 8 -4 48 41 -1 42 -8 34 28 26 56 9 55 16 19 -16 14 -3 39 37 20 34 3 25 29 -9 44 -21 18 -3 32 25 30 11 33 1 30 71 34 -5 60 -15 62 -5 68 -14 73 -4 121 53 63 52 0 28 -36 19 -45 38 3 84 -24 10 -40 33 -10 29 35 -3 42 24 41 4 -50 67 -39 7 -81 50 -43 21 -52 -9 -49 37 -32 20 -47 31 -32 52 12 52 -2 52 30 48 9 -4 45 22 21 -3 34 53 12 38 -31 3 -37 38 3 55 69 -3 34 30 7 15 55 30 35 34 40 -10 26 23 27 7 57 52 24 34 53 36 15 -3 42 39 15 46 -39 51 -36 48 3 24 -19 24 29 36 11 19 -16 48 4 17 26 31 3 13 -36 60 17 23 -20 45 -6 39 23 48 56 42 -14 45 -8 21 -25 32 18 27 -23 27 2 23 27 27 -23 77 -66 52 12 2 -32 68 -20 47 14 51 -27 0 -51 83 -41 80 -56 -22 -66 4 -48 -30 -35 31 -26 13 -63 -65 -35 -54 -4 -3 -33 39 -5 -16 -42 18 -74 -46 -12 -42 -52 41 -6 9 -57 -16 -19 -9 -32 18 -37 -28 -34 28 -32 -20 -23 5 -52 52 -21 34 -17 40 8 36 -30 45 -14 10 -42 -27 -31 19 -39 56 -7 82 -69 3 -85 55 -13 2 -27 -47 -56 -9 -38 -53 -62 -36 -11 -4 -49 15 -55 -27 -31 49 -55 4 -51 9 -64 -21 -25 -8 -47 -19 -23 2 -56 44 -6 35 13 46 29 51 -21 39 -9 42 -35 30 -46 37 5 22 -12 14 17 22 -6 4 -41 1 -67 12 -46 -34 -39 -7 -30 -30 -36 -56 -33 -12 -36 -36 -57 2 -29 -18 -11 13 -48 17 -14 -25 -29 11 -42 66 -19 2 -24 48 6 0 -54 -36 -15 -22 -34 34 -27 30 3 3 -39 33 -18 2 -27 39 -7 21 29 33 -1 20 -33 -9 -32 37 -51 15 -34 33 -3 3 -31 -14 -46 -39 -26 -35 -42 4 -44 0 -49 -35 -22 -23 -37 4 -40 29 -3 -10 -42 -40 -15 11 -36 44 -14 3 -42 21 -17 48 3 8 -49 62 5 27 -23 -11 -52 24 -38 -25 -51 -27 -2 -21 -54 -26 -31 -40 -3 -52 13 -45 -23 -47 -12 4 -56 -36 -24 -16 -50 33 -44 4 -50 35 -20 4 -48 27 -56 54 -35 -34 -66 -42 -21 -10 -32 -47 -10 -56 -24 -21 -28 0 0z"/>
   <path id="mapPoint-sankt-peterburg_1_" class="fil1 str0" d="M2834 3033l223 19 -5 70 19 93 71 274 56 31 29 69 18 104 -40 72 -34 38 -31 1 -18 26 -46 -11 -28 24 -14 -75 -17 -20 -28 -13 17 -29 3 -29 -30 -16 -2 -29 -34 -5 -23 20 -24 -35 13 -63 -21 -8 -23 -27 -25 17 -25 4 -37 -18 -39 -7 -55 -5 -15 -36 -22 8 -19 16 -32 -7 -6 -48 17 -44 -12 -36 1 -34 -29 -34 18 -31 -26 -37 51 -25 64 21 12 -36 23 -19 41 22 32 40 52 21 16 46 -9 7 -1 14 -15 43 18 -2 20 17 10 -7 10 0 22 -7 1 -19 13 -13 1 -19 -5 -8 -19 17 0 -71 -41 -42 7 -83 39 -7 13 -10 -52 -26 -28 -43 0 0z"/>
   <path id="mapPoint-_66_" class="fil1 str0" d="M3057 3052l-5 70 19 93 71 274 56 31 29 69 18 104 59 -27 40 -48 26 17 47 -21 41 -11 40 11 34 19 41 -5 29 22 0 21 31 42 21 -20 18 -2 52 -44 11 -38 -3 -34 41 -8 23 -48 -42 -50 11 -61 14 -27 32 -12 18 -34 1 -38 17 -16 17 26 13 -10 23 19 35 -42 39 -59 -27 -118 48 -41 26 -85 53 -44 61 -14 40 -73 15 -53 -32 -37 29 -25 3 -62 -31 0 -24 -18 -41 6 -25 -29 17 -35 9 -44 -109 -116 -104 161 -41 -23 -90 61 -39 -2 -6 83 -46 14 -5 63 -62 42 -67 -6 -31 161 -5 63 -105 28 -328 -21 0 1z"/>
   <path id="mapPoint-_65_" class="fil1 str0" d="M957 5642c3,3 6,5 9,7l13 -18 7 -17 9 -9 14 -13 16 0 34 10 5 -19 8 -17 -3 -9 -10 -7 11 -38 -1 -10 18 -2 11 7 18 -3 3 -19 -1 -17 -1 -8 6 -19 6 -9 17 -12 6 -10 -9 -8 -2 -16 6 -11 8 -1 -12 -20 -13 -33 -10 -14 -3 -16 -10 -16 -20 -13 -1 -18 -25 4 -16 10 -21 20 -20 -6 -15 3 0 17 5 16 -18 3 -2 -16 -15 10 -8 2 -20 -16 -2 -23 -8 9 -12 -24 -19 -6 -9 -8 -15 2 -15 13 -12 -17 -17 13 -3 17 -7 17 -17 -7 -3 -16 -17 2 5 26 9 14 3 16 -27 -4 -5 -41 -3 -26 14 -18 -20 -13 -5 17 -4 44 4 24 11 14 13 24 4 26 20 21 3 25 10 25 2 -20 22 8 -17 -23 -14 -24 28 13 12 25 17 3 10 17 4 17 -3 25 24 4 10 -3 20 -8 13 15 3 15 -6 19 1 16 10 16 25 -3 22 22 -19 -7 -14 13 18 3 -7 19 15 -11 16 -10 1 8 -14 12 -7 17 -17 10 -4 10 -1 7 0 0z"/>
   <path id="mapPoint-_64_" class="fil1 str0" d="M1244 5716l10 -3 17 -2 8 -2 18 -2 16 0 1 -3 18 -4 6 -17 -2 -9 8 -19 22 -12 22 15 19 6 5 -19 -11 -7 -1 -8 7 -13 -11 -14 -2 -18 5 -17 9 -11 -2 -8 14 -22 -28 -12 -12 -16 7 -19 5 -19 7 -9 -11 -17 -2 -10 -1 -17 -10 3 -9 -7 -11 -8 -1 -10 -11 -5 -11 -16 -19 -17 -3 -16 -9 11 -5 9 -16 11 -9 11 -9 1 -4 19 -25 21 -14 12 -19 -7 -4 -18 8 -9 -9 -6 -13 -9 -17 -5 -18 2 -6 11 2 16 9 8 -6 10 -17 12 -6 9 -6 19 1 8 1 17 -3 19 -18 3 -11 -7 -18 2 1 10 -5 19 -6 19 10 7 3 9 -8 17 -5 19 9 9 18 -4 -17 12 -17 2 -18 3 -9 -7 -18 3 2 7 18 8 21 5 16 -3 16 -12 26 -3 9 -11 18 15 19 5 25 -2 11 5 20 17 1 8 -6 9 -18 3 -18 4 3 18 18 -5 17 -2 7 -9 18 -5 6 -9 11 9 4 25c-2,7 -5,13 -7,20l0 -1z"/>
   <path id="mapPoint-_63_" class="fil1 str0" d="M1596 5784l-46 -23 -56 20 -29 27 -14 -26 -8 9 -26 3 17 -10 -24 -23 -17 -5 -10 -9 -17 -7 -20 -4 -18 -7 -20 -15 6 -10 18 -4 6 -17 -2 -9 8 -19 22 -12 22 15 19 6 5 -19 -11 -7 -1 -8 7 -13 -11 -14 -2 -18 5 -17 9 -11 -2 -8 7 -11 7 -11 10 -1 16 -10 5 -12 12 17 3 18 16 -11 26 -13 5 -19 6 -19 16 -2 7 -19 -1 -10 15 -18 18 -4 -1 9 12 17 29 4 35 -7 8 1 8 -2 29 5 4 -12 15 17 18 34 11 16 -16 20 -16 11 10 16 -8 9 -6 19 -18 2 -9 -1 -9 11 -5 17 1 18 -6 19c-6,1 -12,1 -18,2l4 35 -10 1 11 25 -5 19 -1 7 72 -32 -17 49 -100 31 0 0z"/>
   <path id="mapPoint-_62_" class="fil1 str0" d="M1714 5704l-18 49 -62 19c29,39 58,76 85,111l58 -50c15,-7 20,-9 38,-18l-5 -54c11,-9 29,-23 39,-31l34 9 0 -40c30,-2 61,-3 91,-4 9,-17 14,-28 21,-41 6,-6 14,-14 23,-23l-45 -23 2 -23 2 -21 1 -8 -25 -30 -7 -10c-3,-15 -8,-40 -11,-57l-35 -24c-8,-12 -25,-35 -35,-48l-11 20 -16 10 -7 9 -18 3 -27 1 -15 20 -15 18 -9 11 -16 11 10 16 -15 20 -16 11 10 16 -8 9 -6 19 -18 2 -9 -1 -9 11 -5 17 1 18 -6 19 -17 2c1,14 1,24 3,35l-10 1 11 25 -5 19c0,2 0,5 -1,7 12,-5 52,-23 73,-32l0 0z"/>
  </g>
  <g id="_1871568098784">
   <path class="fil0" d="M1533 4310c49,60 144,172 268,228 125,57 278,59 417,30 138,-28 262,-87 328,-123 66,-35 75,-46 78,-57 3,-10 0,-19 -1,-37 -2,-18 -3,-46 -2,-82 1,-37 3,-82 5,-120 2,-38 5,-69 8,-101 4,-32 10,-64 12,-83 3,-19 4,-24 4,-26 1,-2 2,-2 9,-1 7,0 20,1 35,1 15,0 31,-1 49,-3 17,-2 35,-6 52,-11 18,-6 34,-13 49,-25 15,-11 30,-26 44,-44 15,-18 29,-38 45,-62 15,-24 31,-51 47,-84 16,-33 32,-71 45,-104 13,-32 23,-58 31,-85 9,-26 17,-52 24,-79 8,-27 15,-55 21,-88 6,-33 9,-70 12,-105 2,-34 3,-65 2,-99 -1,-34 -4,-71 -8,-101 -3,-31 -7,-55 -12,-83 -5,-29 -11,-63 -17,-93 -6,-30 -11,-57 -17,-84 -6,-27 -12,-55 -19,-88 -8,-34 -15,-72 -24,-112 -8,-39 -18,-79 -26,-111 -8,-32 -14,-56 -23,-80 -8,-25 -18,-51 -28,-77 -10,-25 -21,-51 -35,-75 -13,-24 -30,-48 -48,-70 -19,-22 -39,-44 -61,-62 -21,-17 -43,-31 -70,-43 -27,-13 -60,-24 -84,-31 -24,-7 -39,-10 -47,-13 -8,-4 -9,-7 -17,-20 -7,-14 -21,-37 -84,-66 -63,-29 -175,-63 -292,-48 -116,14 -238,79 -314,144 -76,65 -106,130 -134,222 -27,91 -52,209 -84,301 -32,92 -70,158 -115,220 -46,62 -98,120 -125,148 -28,29 -32,30 -56,32 -24,3 -68,8 -105,23 -36,15 -63,40 -82,78 -18,39 -27,90 -9,146 17,55 61,115 114,157 52,42 115,67 150,82 36,16 44,22 52,42 8,21 15,55 21,106 5,52 9,120 10,196 2,75 1,158 -5,228 -7,69 -19,125 -27,159 -8,34 -12,46 -12,55 -1,10 2,18 51,78z"/>
   <path class="fil3" d="M3019 3623c6,77 11,155 37,234 26,78 71,157 93,238 21,81 17,164 -24,299 -41,135 -119,322 -154,450 -38,143 -41,239 71,341 -67,-162 -36,-245 66,-387 63,-87 155,-189 216,-307 61,-119 91,-255 84,-386 -6,-130 -48,-255 -40,-360 8,-105 66,-190 87,-359 21,-170 5,-424 -92,-691 -98,-267 -278,-548 -482,-746 -204,-199 -431,-315 -677,-353 -245,-38 -508,3 -711,113 -202,110 -345,290 -427,489 -82,200 -104,419 -166,666 -207,816 -238,1137 -316,1973 -41,445 -123,971 -91,1317 31,346 175,513 318,679 155,-596 -128,-1130 239,-1880 115,-235 285,-478 455,-720 26,-107 98,-477 -2,-801 -17,-2 -34,-3 -50,-7 -117,-26 -221,-127 -249,-244 -22,-89 7,-173 102,-198 32,-9 82,-12 116,-10 344,-321 260,-367 382,-768 85,-282 454,-358 688,-252 48,22 73,48 97,74 209,36 303,153 374,348 12,35 19,61 26,87 6,25 13,50 21,85 8,34 16,79 24,116 7,36 13,65 19,93 6,28 12,55 18,86 7,32 14,67 20,99 23,125 32,238 15,365 -15,110 -46,215 -87,317z"/>
   <path class="fil4" d="M3968 8926c-18,39 -53,77 -221,79 -167,2 -467,-33 -863,-26 -396,7 -889,56 -1245,58 -356,2 -577,-44 -684,-73 -106,-29 -99,-42 -74,-163 26,-121 70,-350 59,-718 -12,-367 -79,-874 -139,-1328 -60,-454 -113,-857 -91,-1186 22,-329 119,-584 259,-820 139,-235 321,-451 460,-503 139,-52 236,59 327,140 91,80 176,129 280,138 104,9 228,-23 324,-49 96,-27 165,-48 219,-81 55,-34 96,-80 151,-64 56,16 126,94 206,227 79,133 167,322 302,501 135,179 317,348 443,481 126,134 197,231 230,369 34,139 30,319 10,486 -20,168 -57,323 -67,587 -10,263 8,636 34,959 27,322 62,596 80,752 17,156 17,195 0,234z"/>
   <path class="fil5" d="M5907 5771c338,-50 676,-100 1013,-151 -613,509 -1226,1018 -1839,1527 -77,10 -864,103 -942,113 414,-346 1355,-1143 1768,-1489z"/>
   <path class="fil2 str1" d="M2589 2027c47,9 94,18 147,47 53,29 112,78 158,151 45,74 78,172 101,261 23,89 36,168 58,270 22,102 52,227 61,351 8,123 -5,245 -45,378 -40,132 -106,273 -165,354 -59,80 -112,100 -203,101 -312,3 -607,-109 -859,-287m808 287c-23,151 -35,263 -29,414"/>
   <path class="fil2 str1" d="M1422 2973c-55,0 -109,0 -151,22 -43,23 -74,68 -75,124 -3,184 179,334 383,313"/>
   <path class="fil2 str1" d="M1526 3247c-14,-20 -28,-39 -47,-56 -19,-17 -42,-31 -63,-37 -22,-7 -41,-6 -60,-5"/>
   <path class="fil0" d="M3674 7739c25,-8 74,-26 120,-43 46,-17 88,-33 121,-44 33,-12 57,-18 75,-21 18,-2 31,-1 48,2 17,4 38,9 56,13 19,5 35,8 57,11 22,2 51,3 75,2 24,0 45,-2 72,-9 28,-7 63,-18 91,-27 27,-9 48,-16 66,-21 17,-5 32,-9 47,-12 15,-3 31,-4 44,-7 13,-2 23,-7 35,-15 12,-8 25,-19 45,-47 21,-28 49,-72 67,-103 18,-32 26,-50 33,-62 7,-13 12,-19 20,-29 8,-9 19,-22 34,-47 16,-25 36,-61 50,-85 14,-24 21,-36 36,-54 16,-19 40,-43 55,-62 15,-18 22,-30 26,-38 5,-8 7,-12 10,-16 3,-3 7,-6 21,-14 14,-8 37,-22 58,-35 20,-13 37,-24 49,-35 13,-11 21,-22 25,-31 3,-10 3,-19 0,-27 -4,-9 -11,-17 -19,-23 -8,-5 -16,-8 -23,-10 -7,-2 -12,-4 -14,-5 -3,-1 -2,-1 13,-10 15,-9 44,-27 77,-48 34,-21 71,-46 97,-66 25,-19 39,-33 47,-45 8,-11 11,-20 10,-29 0,-8 -4,-15 -10,-21 -5,-6 -12,-11 -19,-14 -6,-3 -13,-6 -28,-5 -15,2 -40,7 -71,16 -31,9 -68,21 -108,34 -40,13 -82,27 -119,40 -37,12 -68,23 -106,40 -39,16 -84,39 -118,56 -34,16 -57,26 -69,31 -11,5 -11,5 0,-4 12,-9 35,-27 52,-45 18,-18 29,-36 39,-54 9,-18 16,-36 22,-54 5,-18 9,-35 11,-51 2,-16 1,-31 -2,-43 -4,-12 -10,-21 -17,-27 -6,-6 -14,-9 -20,-11 -6,-2 -10,-2 -17,1 -8,3 -17,9 -29,18 -12,9 -26,21 -42,34 -17,13 -36,29 -56,43 -19,14 -39,28 -59,40 -21,13 -42,25 -72,39 -29,15 -67,32 -97,45 -31,13 -54,22 -82,35 -28,13 -62,31 -90,46 -29,15 -52,28 -76,42 -24,14 -50,30 -75,45 -25,16 -50,32 -71,48 -21,15 -38,29 -57,46 -19,16 -40,34 -64,56 -24,22 -51,47 -80,67 -28,20 -58,35 -94,51 -37,15 -79,32 -102,40 -22,9 -25,10 -26,10 -1,0 -1,0 0,3 1,3 3,8 10,28 7,20 18,54 26,77 7,23 11,36 15,52 5,17 10,38 15,62 5,24 10,52 14,77 4,25 7,48 10,70 3,22 5,44 7,65 2,22 4,44 5,56 1,11 1,12 1,14 0,1 0,3 25,-6z"/>
   <path class="fil2 str1" d="M3545 7241c71,-26 141,-53 189,-79 48,-26 74,-53 114,-90 41,-38 97,-86 172,-136 75,-50 168,-100 225,-129 57,-28 76,-34 121,-52 45,-19 115,-51 173,-87 58,-36 103,-77 133,-102 30,-24 45,-34 62,-32 17,1 36,14 40,49 4,35 -8,93 -31,138 -22,45 -56,76 -104,108 -48,33 -111,66 -176,82 -64,16 -131,14 -199,13m-613 825c80,-30 169,-62 228,-84 59,-21 97,-34 125,-36 29,-1 49,8 88,17 40,9 100,19 156,13 56,-5 109,-25 150,-39 41,-14 70,-23 98,-28 28,-4 53,-4 75,-15 22,-11 41,-33 62,-63 21,-31 44,-69 61,-98 17,-30 27,-51 38,-72m224 -320c-7,16 -14,31 -31,51 -17,20 -45,45 -68,77 -23,31 -42,70 -58,98 -15,29 -26,48 -53,79 -27,31 -69,74 -112,117m413 -599c18,4 35,8 48,17 12,8 19,21 18,36 -1,14 -10,30 -42,53 -33,24 -87,55 -134,82 -47,26 -85,47 -129,85 -45,38 -95,93 -131,135 -37,41 -59,69 -86,88 -27,20 -58,32 -90,43m82 -523c88,-45 177,-90 228,-115 51,-24 64,-29 109,-44 44,-14 120,-39 177,-59 57,-19 97,-32 125,-36 29,-5 47,0 61,9 13,10 22,26 13,46 -9,20 -35,46 -91,84 -56,39 -142,92 -235,142 -93,51 -194,99 -270,143 -76,45 -126,85 -176,125"/>
   <path class="fil2 str1" d="M2036 6057c35,235 70,469 79,688 9,219 -9,422 -26,625 174,92 672,1 867,-32 219,-38 397,-85 575,-131 102,242 110,415 128,673 -175,76 -351,152 -574,238 -223,87 -494,184 -736,244 -241,61 -454,85 -615,90 -161,6 -270,-6 -347,-45 -77,-39 -121,-104 -181,-275 -60,-171 -136,-447 -212,-723"/>
  </g>
  <g id="_1871568100480">
   <path class="fil0" d="M13651 3974c0,-18 1,-43 6,-65 6,-22 16,-41 43,-70 28,-28 72,-66 136,-87 64,-22 149,-27 355,8 206,35 533,111 770,264 237,153 383,383 475,539 91,156 127,238 151,296 25,59 37,93 46,118 9,25 14,39 20,54 6,15 13,29 21,44 7,16 16,31 27,48 11,16 24,34 42,55 19,21 42,46 69,72 27,26 58,53 84,76 26,23 48,42 70,60 23,19 47,37 69,59 22,21 42,46 -59,144 -101,98 -322,270 -468,415 -146,146 -217,266 -286,400 -69,135 -137,284 -191,359 -54,76 -94,77 -128,45 -34,-33 -63,-100 -52,-263 11,-162 64,-421 74,-589 11,-169 -20,-247 -54,-305 -33,-58 -69,-96 -191,-153 -123,-57 -332,-135 -446,-176 -113,-42 -130,-48 -150,-61 -19,-14 -41,-35 -66,-62 -24,-27 -51,-61 -69,-85 -18,-24 -28,-39 -37,-51 -9,-12 -17,-22 -28,-38 -11,-15 -25,-35 -41,-65 -17,-29 -37,-67 -52,-103 -16,-36 -27,-71 -36,-100 -9,-28 -15,-52 -22,-82 -7,-30 -15,-67 -22,-106 -6,-39 -12,-79 -16,-116 -4,-37 -7,-72 -10,-106 -4,-34 -8,-68 -11,-96 -3,-28 -6,-49 -9,-75 -3,-26 -6,-57 -8,-84 -2,-27 -4,-50 -5,-68 -1,-18 -1,-31 -1,-50z"/>
   <path class="fil4" d="M10960 8136c261,-22 523,-43 784,-65 432,134 1172,389 1603,523 -756,32 -1619,68 -2393,101 -337,-140 -581,-240 -919,-380 -141,-687 -282,-1374 -423,-2060 324,43 648,86 972,129 124,584 251,1168 376,1752z"/>
   <path class="fil0" d="M12722 8252c-15,-1 -46,-7 -85,-16 -39,-10 -86,-22 -122,-31 -35,-10 -59,-15 -79,-18 -20,-3 -35,-4 -48,-4 -14,0 -26,1 -40,4 -14,3 -29,8 -48,14 -18,6 -38,14 -57,19 -19,6 -35,8 -59,10 -24,2 -54,4 -79,3 -25,0 -45,-2 -67,-6 -21,-4 -46,-11 -62,-16 -17,-4 -25,-6 -36,-6 -11,0 -24,2 -44,7 -20,5 -47,13 -83,24 -36,11 -82,24 -116,34 -33,10 -55,15 -72,17 -18,3 -32,2 -44,-1 -13,-2 -24,-5 -33,-10 -9,-5 -15,-12 -19,-21 -4,-8 -5,-17 -3,-29 3,-13 10,-28 18,-43 9,-15 20,-29 39,-44 19,-15 47,-30 78,-44 30,-13 64,-25 99,-37 35,-13 70,-27 88,-34 18,-8 17,-9 15,-20 -2,-10 -6,-29 -10,-45 -5,-17 -10,-31 -17,-42 -7,-12 -16,-20 -24,-26 -8,-5 -14,-6 -23,-7 -9,-1 -20,0 -36,3 -15,3 -34,8 -60,18 -26,10 -59,25 -78,33 -19,9 -23,11 -26,13 -3,3 -6,6 -17,30 -11,25 -30,70 -46,107 -16,36 -29,64 -42,91 -13,26 -28,52 -41,74 -14,22 -26,41 -38,57 -13,16 -26,29 -36,38 -11,9 -20,15 -28,18 -9,2 -17,2 -24,-1 -8,-3 -14,-8 -16,-17 -2,-8 -1,-20 2,-36 3,-16 8,-38 16,-72 9,-34 22,-82 32,-119 11,-38 20,-66 27,-90 8,-25 14,-46 16,-57 2,-10 0,-9 -5,-5 -6,3 -14,9 -23,20 -10,10 -19,25 -30,44 -10,19 -22,41 -33,69 -12,28 -23,62 -34,93 -10,32 -19,62 -29,85 -10,22 -22,38 -37,51 -15,13 -33,22 -46,28 -13,6 -21,8 -26,6 -5,-2 -8,-6 -11,-9 -2,-3 -4,-3 -8,-4 -5,-2 -14,-4 -20,-7 -7,-4 -13,-10 -17,-15 -4,-6 -6,-12 -9,-14 -3,-3 -6,-2 -13,0 -6,2 -16,5 -25,6 -8,0 -17,-2 -24,-8 -6,-5 -11,-14 -13,-23 -2,-10 -1,-20 1,-31 2,-12 5,-25 12,-44 7,-18 17,-44 27,-66 10,-22 19,-41 27,-55 7,-13 13,-22 16,-27 2,-5 3,-7 4,-18 1,-12 3,-32 7,-59 5,-26 12,-60 18,-88 7,-28 14,-51 21,-69 6,-19 12,-34 21,-46 9,-11 20,-21 32,-28 11,-7 22,-12 44,-18 21,-7 53,-15 91,-23 39,-8 83,-16 108,-22 25,-5 30,-7 49,-17 19,-9 53,-25 91,-41 38,-17 79,-35 107,-44 29,-10 44,-11 54,-12 11,0 16,1 24,5 8,4 18,10 26,16 8,6 13,11 16,13 3,3 3,3 8,2 5,-1 15,-3 25,-3 11,-1 23,1 39,6 16,5 37,14 71,32 34,18 81,45 123,69 43,23 82,43 107,55 24,13 35,17 47,21 13,4 27,7 43,9 16,2 34,3 60,2 26,-1 61,-4 101,-8 41,-4 87,-9 123,-13 37,-4 63,-7 78,-9 14,-1 17,-2 40,8 23,9 67,29 97,50 30,22 46,46 57,69 10,23 15,46 17,71 2,24 1,50 -6,76 -7,26 -21,52 -35,78 -15,27 -30,54 -38,74 -7,20 -6,32 -6,39 0,7 0,9 -16,7z"/>
   <path class="fil0" d="M13940 6743c-31,47 -53,82 -67,104 -14,22 -19,31 28,49 47,19 148,47 239,60 92,14 174,12 227,0 53,-11 78,-31 92,-46 15,-16 20,-25 33,-53 14,-29 35,-76 53,-114 17,-39 31,-69 44,-100 14,-31 28,-62 41,-92 13,-29 25,-57 36,-84 11,-27 22,-54 32,-82 10,-27 20,-55 26,-78 7,-24 11,-43 12,-62 2,-19 2,-38 1,-62 -1,-24 -3,-54 -4,-84 -1,-29 0,-58 1,-88 1,-31 2,-63 4,-98 1,-35 2,-72 5,-106 2,-34 5,-65 7,-96 3,-31 5,-63 7,-96 3,-32 6,-66 9,-97 3,-31 6,-59 8,-95 3,-35 5,-78 6,-117 1,-38 1,-73 1,-109 -1,-37 -2,-76 -4,-118 -2,-42 -4,-87 -6,-128 -2,-41 -5,-77 -7,-104 -2,-28 -4,-46 -6,-71 -3,-25 -6,-57 -12,-93 -6,-35 -15,-75 -22,-107 -8,-31 -14,-54 -20,-74 -7,-20 -13,-36 -18,-50 -6,-14 -12,-25 -18,-33 -7,-9 -14,-15 -22,-19 -7,-4 -13,-6 -21,-4 -8,1 -16,6 -23,14 -7,9 -13,21 -18,33 -4,13 -9,26 -11,48 -3,22 -3,53 -3,82 0,29 0,55 1,98 2,43 3,102 3,152 1,50 0,91 -1,123 -2,33 -3,55 -7,80 -3,25 -8,51 -13,72 -4,21 -9,37 -13,48 -4,12 -7,20 -9,23 -2,3 -4,2 -17,-9 -14,-12 -41,-33 -68,-52 -27,-19 -55,-36 -78,-46 -22,-11 -40,-17 -53,-20 -14,-4 -24,-6 -37,-4 -13,2 -29,9 -42,20 -13,11 -23,25 -32,38 -9,13 -16,24 -26,44 -10,19 -23,47 -30,63 -8,16 -9,21 -11,25 -2,3 -4,4 -9,7 -4,4 -11,8 -18,15 -7,7 -12,15 -18,26 -6,11 -12,24 -18,40 -5,16 -11,35 -14,47 -3,13 -4,20 -5,25 -2,4 -4,7 -9,11 -4,4 -12,11 -17,21 -6,9 -11,22 -15,37 -4,16 -9,34 -12,53 -3,18 -5,37 -5,53 -1,16 -1,30 2,43 2,13 5,26 9,34 4,9 8,14 14,18 6,4 14,7 23,8 9,1 20,0 29,-5 10,-6 18,-15 25,-25 7,-10 12,-21 15,-26 2,-5 3,-3 6,14 3,17 9,51 16,85 6,34 14,69 21,103 8,35 16,70 24,105 8,36 17,73 23,106 7,33 13,61 17,84 4,23 6,40 7,58 1,17 1,35 -1,49 -1,15 -3,27 -8,44 -5,17 -13,38 -27,67 -14,30 -34,67 -59,109 -25,43 -54,90 -88,145 -35,54 -74,116 -105,164z"/>
   <path class="fil3" d="M13643 3438c-81,120 -106,298 -30,428 76,130 252,212 441,261 188,49 388,65 517,168 129,104 186,294 261,412 76,118 169,163 287,212 117,49 258,101 391,107 133,5 257,-37 385,-126 129,-89 261,-224 296,-338 35,-114 -28,-207 -26,-274 2,-67 69,-106 92,-196 22,-90 0,-231 -56,-329 -56,-99 -147,-156 -255,-260 -108,-103 -232,-252 -351,-377 -118,-125 -231,-225 -334,-275 -104,-51 -197,-51 -302,-37 -104,14 -220,41 -295,82 -76,42 -112,97 -147,124 -34,27 -67,26 -153,50 -86,25 -225,76 -364,132 -138,56 -276,117 -357,236z"/>
   <path class="fil5" d="M13890 6820c-38,-17 -71,-21 -137,10 -99,45 -273,170 -389,409 -40,81 -72,175 -98,273 -33,5 -66,8 -99,10 -113,4 -225,-12 -326,20 -101,31 -191,110 -232,159 -41,49 -33,70 -1,87 32,18 88,33 132,68 44,35 75,89 59,162 -15,72 -77,162 -104,214 -28,53 -21,68 35,81 56,13 161,23 296,21 76,-1 161,-6 248,-19 45,75 112,127 201,172 165,84 407,141 611,131 204,-9 371,-86 515,-156 144,-69 264,-132 330,-162 65,-30 75,-27 112,62 38,90 103,266 140,385 38,118 48,179 93,215 45,35 127,45 394,42 267,-3 721,-18 1027,-55 307,-37 466,-96 525,-185 59,-89 16,-208 -21,-412 -37,-204 -69,-492 -91,-761 -23,-268 -36,-517 -99,-772 -64,-254 -178,-514 -281,-709 -103,-195 -196,-325 -292,-435 -97,-109 -197,-199 -270,-270 -73,-71 -118,-123 -238,-162 -45,-14 -100,-26 -162,-35 60,64 150,138 240,213 -68,155 -361,328 -498,450 -140,126 -270,276 -361,430 -92,154 -145,312 -176,398 -32,87 -43,102 -44,43 -2,-58 5,-189 26,-338 18,-131 109,-468 83,-567 -9,-34 -28,-77 -74,-140 -32,-44 -137,-158 -193,-227l0 1c-2,16 -3,31 -5,47 -3,31 -6,65 -9,97 -2,33 -4,65 -7,96 -2,31 -5,62 -7,96 -3,34 -4,71 -5,106 -2,35 -3,67 -4,98 -1,30 -2,59 -1,88 1,30 3,60 4,84 1,24 1,43 -1,62 -1,19 -5,38 -12,62 -6,23 -16,51 -26,78 -10,28 -21,55 -32,82 -11,27 -23,55 -36,84 -13,30 -27,61 -41,92 -13,31 -27,61 -44,100 -16,35 -36,77 -49,106 3,15 0,26 -21,41 -4,7 -9,13 -16,20 -14,15 -39,35 -92,46 -53,12 -135,14 -227,0 -91,-13 -192,-41 -239,-60 -47,-18 -42,-27 -28,-49l17 -27z"/>
   <path class="fil2 str1" d="M13893 6815c110,-170 220,-338 279,-447 59,-109 66,-157 51,-253 -16,-96 -54,-241 -76,-345 -22,-104 -28,-167 -40,-202 -12,-34 -31,-39 -50,-45m257 -110c-14,-19 -28,-38 -66,-46 -38,-8 -101,-4 -143,6 -43,9 -66,25 -82,58 -15,33 -24,83 -27,123 -3,40 1,69 11,88 10,19 27,28 44,27 36,-2 54,-34 66,-63m349 -255c-56,-37 -113,-75 -163,-98 -50,-24 -94,-34 -127,-32 -33,2 -54,15 -69,33 -28,34 -42,96 -52,138m593 -103c-45,-46 -90,-93 -140,-134 -50,-41 -105,-77 -148,-98 -44,-20 -75,-24 -99,-15 -25,9 -44,31 -64,66 -20,33 -40,77 -60,121m345 1651c87,-191 174,-382 217,-494 43,-114 42,-147 39,-190 -2,-43 -5,-97 -5,-163 0,-66 4,-144 8,-215 4,-70 9,-133 17,-211 7,-78 18,-172 22,-260 4,-89 1,-173 -3,-280 -5,-107 -11,-238 -26,-350 -16,-112 -40,-206 -62,-260 -45,-109 -103,-63 -116,30 -8,62 -2,161 1,260 3,98 3,196 -5,267 -8,71 -23,116 -38,161"/>
   <path class="fil2 str1" d="M14527 6904c2,97 4,194 -47,329 -51,134 -154,305 -257,476m-958 -192c-49,190 -70,394 -60,546 7,102 28,181 64,244m1183 -1007c213,-176 426,-352 556,-507 130,-154 178,-287 240,-393 62,-106 139,-184 216,-263m1061 931c-184,202 -367,403 -606,594 -238,192 -532,373 -826,555"/>
   <path class="fil2 str1" d="M12041 7923c-63,38 -126,75 -201,106 -75,30 -161,53 -220,86 -59,33 -89,75 -95,109 -5,34 14,60 59,64 45,3 115,-16 181,-37 65,-20 125,-42 166,-45 40,-3 60,14 107,23 48,9 124,10 183,-3 59,-13 101,-39 152,-44 51,-4 112,13 165,28 54,15 101,28 148,40m-1610 -185c-20,35 -40,70 -57,107 -16,37 -28,76 -29,103 0,27 11,41 26,45 15,5 33,-2 50,-8m381 -621c-78,15 -156,30 -209,44 -53,14 -81,26 -104,71 -22,45 -40,123 -52,207 -11,84 -16,174 -18,230 -1,56 1,76 11,89 10,13 27,17 45,22m278 -391c-15,8 -30,17 -50,48 -19,30 -44,84 -61,137 -18,54 -29,108 -52,146 -24,38 -59,60 -84,69 -24,9 -36,6 -35,-48 0,-54 14,-158 39,-252 24,-93 59,-176 86,-225 27,-49 46,-65 116,-102 71,-37 194,-96 268,-126 74,-30 99,-31 118,-25 19,7 33,21 47,35m76 398c-7,-36 -13,-71 -24,-95 -11,-24 -27,-37 -50,-40 -23,-3 -55,4 -91,17 -37,13 -80,31 -100,42 -20,10 -18,12 -42,71 -25,58 -77,174 -117,244 -41,70 -71,96 -94,106 -22,10 -37,4 -44,-8 -8,-12 -7,-31 13,-107 20,-76 60,-211 81,-285 21,-74 25,-89 65,-122 40,-33 117,-85 178,-129 62,-45 107,-81 149,-92 42,-11 80,2 143,36 64,34 152,88 212,118 61,31 93,39 164,36 71,-3 179,-16 288,-29"/>
   <path class="fil2 str1" d="M13655 3873c-15,159 13,318 31,477 12,105 22,235 54,357 31,122 84,235 164,350 56,78 124,157 189,218m688 45c84,-58 164,-123 230,-196m-240 346c74,82 147,164 193,227 46,63 65,106 74,140 9,34 8,58 8,83m600 -906c22,53 43,107 104,174 60,68 159,151 258,233"/>
   <path class="fil2 str2" d="M10864 8206c33,154 66,307 98,461"/>
  </g>
  <path class="fil6" d="M4172 3588c79,-91 232,-233 232,-356 0,-126 -103,-228 -231,-228 -128,0 -232,102 -232,228 0,125 155,268 231,356zm6 -465c62,0 113,50 113,113 0,62 -51,113 -113,113 -63,0 -114,-51 -114,-113 0,-63 51,-113 114,-113z"/>
  <path class="fil6" d="M12767 3597c79,-91 233,-233 233,-356 0,-126 -104,-229 -232,-229 -128,0 -232,103 -232,229 0,125 155,268 231,356zm6 -466c62,0 113,51 113,113 0,63 -51,114 -113,114 -63,0 -113,-51 -113,-114 0,-62 50,-113 113,-113z"/>
  <path class="fil2 str3" d="M4183 3628c218,261 436,523 865,610 429,86 1070,-3 1506,107 435,109 666,416 1021,724 356,307 835,614 1389,522 554,-91 1182,-582 1729,-783 547,-201 1013,-113 1344,-260 332,-148 529,-531 727,-914"/>
 </g>
</svg>
