<?xml version="1.0" encoding="UTF-8"?>
<!DOCTYPE svg PUBLIC "-//W3C//DTD SVG 1.0//EN" "http://www.w3.org/TR/2001/REC-SVG-20010904/DTD/svg10.dtd">
<!-- Creator: CorelDRAW X8 -->
<svg xmlns="http://www.w3.org/2000/svg" xml:space="preserve" width="176.191mm" height="91.44mm" version="1.0" style="shape-rendering:geometricPrecision; text-rendering:geometricPrecision; image-rendering:optimizeQuality; fill-rule:evenodd; clip-rule:evenodd"
viewBox="0 0 17621 9145"
 xmlns:xlink="http://www.w3.org/1999/xlink">
 <defs>
  <style type="text/css">
   <![CDATA[
    .str1 {stroke:#2B2A29;stroke-width:8.47112;stroke-linecap:round;stroke-linejoin:round}
    .str0 {stroke:black;stroke-width:8.47112;stroke-linecap:round;stroke-linejoin:round}
    .str3 {stroke:#B2B3B3;stroke-width:8.47112;stroke-linecap:round;stroke-linejoin:round}
    .str2 {stroke:black;stroke-width:16.9322;stroke-linecap:round;stroke-linejoin:round}
    .fil3 {fill:none}
    .fil5 {fill:none;fill-rule:nonzero}
    .fil0 {fill:#FEFEFE}
    .fil2 {fill:black}
    .fil4 {fill:#898989}
    .fil1 {fill:#D03730}
   ]]>
  </style>
 </defs>
 <g id="Слой_x0020_1">
  <metadata id="CorelCorpID_0Corel-Layer"/>
  <rect class="fil0" width="17621" height="9145"/>
  <path class="fil1" d="M6628 4142c-235,76 -491,190 -651,322 -189,155 -246,335 -350,833 -104,497 -256,1312 -340,1845 -85,533 -103,783 -9,988 93,205 298,363 467,381 170,18 304,-106 422,-212 118,-106 221,-194 270,-227 49,-34 46,-13 3,144 -42,157 -123,450 -157,613 -33,162 -19,194 186,199 204,5 600,-16 1122,-25 522,-9 1171,-5 1609,-12 437,-7 663,-25 756,-143 94,-118 55,-337 36,-446 -20,-110 -20,-110 30,-50 49,60 148,180 307,201 158,22 377,-56 490,-190 113,-134 120,-325 2,-877 -118,-552 -362,-1466 -521,-2066 -158,-600 -232,-885 -308,-1058 -76,-173 -154,-233 -341,-297 -84,-28 -190,-57 -317,-82 -34,79 -75,155 -131,236 -129,187 -333,397 -469,591 -136,194 -203,372 -241,455 -38,83 -47,71 -170,-56 -124,-127 -362,-369 -726,-593 -301,-185 -687,-358 -969,-474z"/>
  <path class="fil2" d="M7360 3462c32,229 94,685 99,1078 6,393 -45,723 -130,1020 -85,297 -203,562 -265,693 -61,132 -67,130 -210,-32 -144,-161 -426,-482 -523,-850 -96,-368 -6,-782 83,-1080 89,-299 178,-480 212,-710 34,-229 15,-506 5,-798 -9,-292 -9,-599 60,-879 70,-281 209,-535 369,-721 160,-186 340,-304 502,-353 162,-48 307,-27 385,-10 77,18 88,32 145,29 57,-4 161,-25 288,33 128,58 277,196 425,418 147,223 292,530 353,920 62,391 41,866 102,1215 61,349 204,573 317,878 114,306 199,692 196,1014 -2,322 -92,579 -174,668 -82,88 -157,7 -278,-209 -122,-216 -291,-568 -402,-887 -112,-319 -165,-606 -237,-809 -72,-203 -164,-321 -209,-460 -46,-139 -45,-299 -45,-379 1,-80 1,-80 7,-92 7,-13 20,-38 36,-72 15,-34 33,-77 49,-120 15,-44 29,-87 40,-128 11,-40 21,-77 28,-111 8,-33 14,-64 18,-79 4,-16 5,-16 14,-19 9,-4 26,-10 49,-23 23,-12 52,-31 74,-48 21,-16 35,-32 48,-49 14,-17 28,-36 37,-54 9,-19 15,-36 18,-52 4,-17 7,-32 8,-48 1,-15 0,-30 -2,-44 -1,-14 -4,-28 -11,-42 -7,-15 -17,-30 -31,-43 -14,-12 -31,-22 -48,-29 -16,-7 -32,-11 -42,-13 -10,-2 -14,-3 -14,-20 -1,-17 2,-51 -20,-161 -22,-110 -69,-295 -148,-429 -80,-133 -193,-214 -309,-270 -116,-56 -235,-86 -373,-78 -138,9 -294,56 -418,124 -125,67 -217,153 -281,258 -64,106 -99,230 -118,329 -19,99 -21,173 -22,213 -1,40 0,45 -21,30 -21,-16 -64,-52 -103,-46 -39,6 -74,55 -79,114 -6,58 18,126 43,174 25,48 51,76 75,98 23,22 44,38 66,54 22,15 46,28 64,37 19,10 34,14 41,17 7,3 7,5 11,21 4,16 11,48 19,80 7,33 14,66 27,109 12,43 28,97 45,144 17,47 33,88 51,124 18,36 37,68 48,88 12,20 16,28 19,32 3,5 5,6 37,235z"/>
  <path class="fil0" d="M6082 6840c5,102 10,205 53,335 42,131 123,288 207,397 85,108 175,167 220,196 44,29 44,29 45,27 1,-3 3,-9 10,-28 7,-19 20,-52 30,-77 10,-26 17,-45 24,-65 8,-19 15,-40 24,-64 9,-23 20,-49 29,-73 9,-24 18,-47 25,-68 8,-21 15,-40 24,-62 8,-22 18,-47 29,-76 11,-29 23,-62 35,-93 12,-32 24,-62 33,-85 8,-23 14,-38 20,-55 7,-18 15,-38 23,-57 7,-19 14,-37 22,-58 8,-20 18,-43 26,-65 9,-23 17,-45 25,-65 8,-21 16,-40 23,-58 7,-18 13,-34 21,-53 7,-19 15,-40 23,-60 8,-19 16,-37 23,-55 8,-17 15,-34 22,-52 8,-18 16,-36 23,-54 7,-18 14,-34 23,-53 8,-18 18,-37 26,-55 9,-17 16,-32 25,-50 9,-18 20,-39 32,-59 13,-19 27,-37 37,-49 10,-12 16,-18 24,-24 8,-6 18,-12 30,-17 13,-5 28,-9 46,-13 17,-4 37,-7 61,-9 24,-3 51,-4 82,-5 30,-1 63,-1 97,-1 34,-1 68,-1 103,-1 35,-1 72,-1 110,-3 38,-2 79,-5 115,-10 35,-4 67,-10 96,-18 28,-8 54,-18 77,-29 22,-11 41,-23 66,-37 25,-14 54,-31 81,-45 26,-15 49,-26 81,-41 32,-15 74,-34 113,-50 39,-17 74,-31 105,-45 32,-13 60,-25 87,-36 27,-11 54,-22 79,-30 26,-9 51,-15 71,-22 19,-6 34,-13 42,-18 8,-6 11,-9 12,-13 1,-4 1,-8 0,-11 -1,-3 -2,-4 -2,-6 1,-1 4,-2 20,-7 16,-4 46,-11 75,-21 29,-10 58,-23 75,-32 17,-10 24,-17 27,-24 4,-7 5,-14 2,-22 -2,-8 -9,-18 -19,-27 -10,-8 -24,-16 -42,-22 -18,-6 -39,-10 -62,-12 -22,-1 -45,0 -66,1 -22,1 -41,2 -59,5 -18,2 -34,5 -56,9 -21,4 -48,8 -75,13 -27,5 -55,10 -87,17 -31,6 -65,13 -94,20 -30,6 -54,11 -82,17 -28,6 -59,13 -79,18 -20,4 -28,7 -48,8 -19,2 -51,3 -81,3 -30,0 -59,1 -82,0 -24,-1 -41,-3 -71,-6 -30,-3 -72,-8 -115,-13 -43,-5 -87,-10 -126,-14 -40,-5 -74,-9 -107,-13 -33,-4 -65,-7 -83,-9 -18,-2 -20,-2 -26,-3 0,0 0,0 20,-6 20,-6 59,-18 102,-31 43,-13 89,-27 120,-39 31,-11 48,-19 64,-29 16,-9 30,-20 41,-29 11,-8 17,-16 21,-25 5,-9 7,-20 6,-30 -1,-10 -5,-19 -13,-28 -8,-10 -22,-18 -36,-24 -15,-5 -30,-7 -47,-8 -17,0 -35,0 -58,2 -22,2 -50,6 -81,9 -31,2 -67,5 -93,6 -27,1 -46,0 -80,-4 -34,-3 -85,-10 -124,-15 -39,-6 -66,-10 -92,-13 -25,-2 -47,-2 -69,-2 -21,0 -42,0 -65,2 -22,2 -47,6 -69,11 -22,5 -41,12 -62,21 -22,9 -46,19 -65,29 -19,10 -33,20 -50,34 -17,13 -37,30 -54,46 -16,16 -29,31 -40,46 -12,16 -23,30 -35,49 -13,19 -27,41 -41,67 -15,26 -29,57 -41,83 -13,26 -23,48 -38,83 -16,35 -37,82 -53,118 -16,36 -28,61 -43,90 -14,28 -31,61 -47,91 -17,30 -32,58 -54,94 -22,37 -50,82 -74,119 -23,37 -41,65 -63,98 -22,34 -49,73 -78,117 -30,44 -63,92 -90,131 -27,40 -49,72 -68,99 -18,26 -33,48 -48,70z"/>
  <path class="fil3 str0" d="M8657 2427c26,-45 45,-72 87,-103m-111 187c-69,363 -133,667 -424,930 -245,222 -454,222 -699,0 -290,-262 -354,-562 -423,-930m-31 -88c-25,-42 -36,-53 -78,-78"/>
  <path class="fil3 str0" d="M6082 6840c150,-217 300,-434 400,-598 100,-163 149,-272 203,-395 54,-122 112,-258 200,-352 88,-93 206,-144 329,-152 123,-8 250,27 359,33 109,6 201,-17 265,-18 63,-2 98,17 111,47 12,30 2,71 -87,111 -88,39 -254,78 -358,111 -104,32 -146,59 -189,85m-709 2085c189,-499 378,-998 493,-1273 115,-275 157,-325 207,-352 50,-28 109,-32 238,-34 128,-2 325,-1 445,-23 119,-22 160,-68 269,-126 109,-58 287,-129 464,-200m-1152 -182c184,21 368,42 460,52 93,11 93,11 200,5 107,-6 321,-17 442,-6 120,11 147,45 162,65 16,21 22,29 -90,60 -111,31 -338,84 -452,111 -114,27 -114,27 -182,26 -69,0 -205,-2 -342,-4m512 -254c176,-38 353,-75 470,-94 117,-19 175,-19 220,-4 46,15 80,45 71,69 -9,25 -60,45 -102,59 -41,14 -73,23 -105,31"/>
  <path class="fil3 str1" d="M6526 6168c8,-120 6,-247 -9,-348"/>
  <path class="fil4" d="M6915 7947c697,-141 1393,-283 2090,-424 207,-924 413,-1849 619,-2773 1068,-116 2135,-233 3202,-349 -252,921 -504,1842 -756,2762 -1039,237 -2077,474 -3115,711 -692,25 -1348,48 -2040,73z"/>
  <path class="fil3 str2" d="M8944 7810c17,-79 33,-158 49,-238"/>
  <path class="fil0" d="M10298 8181c-23,-46 -66,-137 -83,-244 -16,-107 -6,-229 -1,-290 5,-61 5,-61 24,-66 19,-4 56,-13 144,-33 89,-20 228,-52 301,-68 73,-17 80,-18 84,-19 3,-1 5,-1 16,-32 11,-31 32,-92 50,-145 18,-54 32,-98 46,-126 13,-28 26,-39 37,-45 11,-6 19,-8 28,-6 9,2 18,7 27,19 9,11 18,28 24,42 6,14 8,24 10,21 2,-3 4,-19 7,-52 2,-33 7,-84 13,-136 5,-52 12,-106 22,-149 11,-42 25,-72 42,-95 18,-22 38,-38 57,-45 18,-8 36,-9 48,-4 13,5 20,15 27,29 6,15 12,34 16,54 4,20 8,42 10,45 3,4 5,-11 9,-47 5,-36 13,-94 24,-137 11,-43 26,-72 39,-93 13,-21 25,-35 38,-45 14,-10 30,-17 44,-19 14,-2 27,0 37,5 10,5 17,11 23,20 7,9 12,20 16,32 5,11 8,24 10,29 3,6 4,5 9,-1 4,-6 12,-17 21,-22 10,-5 23,-3 34,-1 11,1 21,3 28,9 7,6 11,15 15,37 5,21 10,54 14,100 4,46 7,105 8,207 2,102 3,246 3,322 0,76 0,85 0,89 0,4 0,2 11,-5 10,-7 31,-21 54,-35 22,-15 47,-30 71,-40 25,-10 49,-13 71,-11 21,2 40,11 53,18 14,8 22,16 27,25 6,10 10,21 10,33 0,11 -3,23 -17,44 -15,21 -42,52 -80,95 -38,43 -87,99 -125,137 -38,39 -65,61 -93,80 -27,19 -55,36 -84,50 -29,15 -58,28 -97,43 -40,16 -90,34 -122,47 -31,13 -45,21 -61,33 -17,12 -37,28 -69,51 -32,22 -76,51 -135,80 -59,29 -131,58 -207,87 -75,28 -153,55 -227,80 -75,26 -146,49 -191,64 -44,14 -62,20 -73,24 -11,3 -14,5 -37,-40z"/>
  <path class="fil3 str2" d="M10745 7529c26,-64 51,-127 75,-201 24,-74 46,-159 76,-199 30,-40 68,-34 88,12 20,46 23,134 22,203 -1,68 -5,119 -14,167 -10,48 -24,94 -53,135 -30,42 -75,79 -120,116m-505 465c251,-81 502,-162 660,-232 158,-69 223,-128 257,-157 35,-29 41,-29 103,-50 63,-21 183,-63 273,-126 91,-64 152,-147 207,-212 56,-64 106,-109 105,-149 -1,-63 -74,-76 -133,-65 -57,10 -120,53 -167,85m-131 -733c28,-57 98,-49 113,36 6,30 10,73 13,135 8,167 6,472 4,778m-372 -669c14,-106 28,-212 56,-281 29,-68 72,-99 111,-97 39,1 73,36 81,146 9,109 -9,295 -33,450 -24,154 -55,279 -86,403m-371 -248c10,-157 21,-314 53,-410 31,-96 83,-131 121,-129 38,1 62,38 68,166 6,127 -5,345 -12,459 -6,114 -8,123 -31,160 -22,37 -65,102 -109,166"/>
  <path class="fil5 str3" d="M11662 2099l0 -150 241 -1 1 152m-874 -3l-2 -911c0,-7 5,-11 11,-12l989 -1c7,0 12,5 12,11l2 1255c0,6 -5,11 -11,11l-30 0m-972 -571c-16,-23 -42,-38 -71,-38l-83 0m1040 1287l83 0c47,0 86,-39 86,-87l0 -855c0,-31 -16,-58 -41,-74m-1082 -99l0 -85c0,-31 -16,-58 -40,-74 -13,-8 -29,-13 -46,-13l-19 0 -406 0c-48,0 -86,39 -86,87l0 1113c0,48 38,87 86,87l93 0 1372 0c48,0 86,-39 86,-87l0 -591 0 -264c0,-14 -3,-27 -9,-39 -14,-28 -44,-47 -77,-47l-11 0 0 0 -24 0 -749 0 -83 0 0 0c-48,0 -87,-39 -87,-87zm972 -487l-805 2 0 -253 805 -1 0 252zm-799 497l0 -17 489 0 0 16 -489 1zm-1 -108l0 -16 778 -2 0 16 -778 2zm0 -107l0 -17 778 -1 0 16 -778 2zm0 -98l0 -17 777 -1 0 16 -777 2zm116 -87l0 -19 661 -2 0 20 -661 1z"/>
  <path class="fil5 str3" d="M5619 2082l83 0c48,0 86,-39 86,-87l0 -855c0,-47 -38,-86 -86,-86l-83 0m-784 0c-48,0 -87,-39 -87,-87l0 -85c0,-48 -38,-87 -86,-87l-83 0m87 172l0 -85c0,-48 -39,-87 -87,-87l-342 0 -83 0c-47,0 -86,39 -86,87l0 1113c0,48 39,87 86,87l1463 0 2 0c48,0 87,-39 87,-87l0 -855c0,-47 -39,-86 -87,-86l-784 0 -83 0c-48,0 -86,-39 -86,-87z"/>
  <path class="fil5 str3" d="M15960 2519l82 0c48,0 87,-39 87,-87l0 -855c0,-47 -39,-86 -87,-86l-82 0m-784 0c-48,0 -87,-39 -87,-87l0 -85c0,-48 -39,-87 -87,-87l-82 0m86 172l0 -85c0,-48 -38,-87 -86,-87l-342 0 -83 0c-48,0 -86,39 -86,87l0 1113c0,48 38,87 86,87l1463 0 2 0c48,0 86,-39 86,-87l0 -855c0,-47 -38,-86 -86,-86l-784 0 -83 0c-48,0 -87,-39 -87,-87z"/>
  <path class="fil5 str3" d="M2321 3301l-11 0m289 692l91 27c18,5 38,-5 43,-24l438 -1471c5,-19 -5,-38 -24,-44l-490 -145m-165 -182c80,89 160,176 241,265l-21 1309c0,19 -16,35 -35,35l-145 -3m-981 -460l17 -1125c0,-19 16,-35 35,-34l889 13m-582 188c149,4 299,4 448,7m-36 908c85,3 171,2 255,4m-507 -237c169,3 338,5 507,7m-220 -227c76,2 151,3 227,4m-875 -13c158,3 312,4 470,7m-462 -238c287,7 578,6 865,13m151 -158l-210 -3c-19,-1 -34,-17 -34,-36l3 -226m-938 880l-365 0c-33,0 -61,17 -77,44m1506 1285l85 0c49,0 89,-40 89,-89l0 -476m-1506 -631c-14,-49 -66,-89 -115,-89l-58 0 -1 0 -380 0c-49,0 -78,40 -64,89l321 1107c14,49 66,89 115,89l96 0 1418 0c49,0 77,-40 63,-89l-114 -396 -142 -488c-14,-49 -65,-89 -115,-89l-503 0 -393 0c-84,0 -110,-72 -128,-134z"/>
  <path class="fil5 str3" d="M4090 5778l-1 -135 217 0 0 136m-783 -3l-2 -817c0,-5 5,-10 10,-10l887 -1c6,0 10,4 10,10l2 1125c0,6 -4,10 -10,10l-26 0m-872 -512c-14,-21 -37,-34 -64,-34l-74 0m933 1154l74 0c42,0 77,-35 77,-78l0 -766c0,-28 -15,-53 -37,-67m-969 -89l0 -76c0,-28 -15,-52 -37,-66 -12,-8 -26,-12 -41,-12l-17 0 -364 0c-43,0 -77,35 -77,78l0 998c0,43 34,78 77,78l83 0 1231 0c42,0 77,-35 77,-78l0 -530 0 -236c0,-13 -3,-25 -8,-36 -13,-25 -39,-42 -69,-42l-10 0 -1 0 -21 0 -672 0 -74 0 0 0c-43,0 -77,-35 -77,-78zm871 -436l-722 1 -1 -227 722 -1 1 227zm-717 445l0 -15 439 -1 0 15 -439 1zm0 -97l0 -14 697 -2 0 15 -697 1zm-1 -96l0 -14 698 -2 0 15 -698 1zm0 -88l0 -14 697 -2 0 15 -697 1zm104 -77l0 -18 593 -1 0 18 -593 1z"/>
  <path class="fil5 str3" d="M15612 6287l83 0c48,0 86,-39 86,-87l0 -855c0,-47 -38,-86 -86,-86l-326 0m-541 0c-48,0 -87,-39 -87,-87l0 -85c0,-48 -38,-87 -86,-87l-425 0c-27,0 -52,13 -67,33m220 86c-12,-48 -59,-86 -107,-86l-113 0 -312 0c-48,0 -77,38 -66,86l255 1081c12,48 60,87 107,87l93 0 1372 0c48,0 78,-39 66,-87l-202 -855c-11,-47 -59,-86 -107,-86l-541 0 -326 0c-87,0 -105,-78 -119,-140z"/>
 </g>
</svg>
