<?xml version="1.0" encoding="UTF-8"?>
<!DOCTYPE svg PUBLIC "-//W3C//DTD SVG 1.0//EN" "http://www.w3.org/TR/2001/REC-SVG-20010904/DTD/svg10.dtd">
<!-- Creator: CorelDRAW X8 -->
<svg xmlns="http://www.w3.org/2000/svg" xml:space="preserve" width="176.191mm" height="91.44mm" version="1.0" style="shape-rendering:geometricPrecision; text-rendering:geometricPrecision; image-rendering:optimizeQuality; fill-rule:evenodd; clip-rule:evenodd"
viewBox="0 0 17621 9145"
 xmlns:xlink="http://www.w3.org/1999/xlink">
 <defs>
  <style type="text/css">
   <![CDATA[
    .str5 {stroke:#B2B3B3;stroke-width:8.47112;stroke-linejoin:round}
    .str6 {stroke:#B2B3B3;stroke-width:8.47112;stroke-linecap:round}
    .str7 {stroke:#FEFEFE;stroke-width:8.47112;stroke-linecap:round;stroke-linejoin:round}
    .str2 {stroke:#2B2A29;stroke-width:8.47112;stroke-linecap:round;stroke-linejoin:round}
    .str1 {stroke:black;stroke-width:8.47112;stroke-linecap:round;stroke-linejoin:round}
    .str4 {stroke:#B2B3B3;stroke-width:8.47112;stroke-linecap:round;stroke-linejoin:round}
    .str0 {stroke:white;stroke-width:8.47112;stroke-linecap:round;stroke-linejoin:round}
    .str3 {stroke:#FEFEFE;stroke-width:7.62101;stroke-linecap:round;stroke-linejoin:round}
    .str8 {stroke:#B2B3B3;stroke-width:8.47112;stroke-linecap:round;stroke-linejoin:round;stroke-dasharray:16.942240 25.413361}
    .fil4 {fill:none}
    .fil0 {fill:#FEFEFE}
    .fil1 {fill:black}
    .fil6 {fill:#B2B3B3}
    .fil5 {fill:#D03730}
    .fil3 {fill:black;fill-rule:nonzero}
    .fil2 {fill:#FEFEFE;fill-rule:nonzero}
   ]]>
  </style>
 </defs>
 <g id="Слой_x0020_1">
  <metadata id="CorelCorpID_0Corel-Layer"/>
  <rect class="fil0" width="17621" height="9145"/>
  <path class="fil1" d="M10674 1549c74,-59 32,-179 -64,-179 -102,-1 -140,130 -57,185 -94,233 -91,348 -100,595 63,0 126,0 190,-1 4,-49 9,-98 13,-147 12,37 24,74 36,111 54,-13 108,-26 162,-38 -37,-225 -54,-332 -180,-526z"/>
  <g id="_1871568072032">
   <path class="fil2" d="M13593 6616l-689 -35c-3,-2 -8,-5 -17,-11 -19,-12 -56,-35 -96,-60 -41,-25 -85,-51 -124,-70 -38,-20 -69,-33 -92,-39 -23,-7 -37,-8 -48,-7 -10,0 -18,2 -24,6 -5,4 -8,10 -8,18 0,8 2,18 7,30 5,12 13,26 24,43 11,16 26,36 38,50 8,10 15,17 22,24l-37 -2c-3,-3 -6,-6 -9,-10 -11,-10 -27,-24 -41,-34 -14,-10 -26,-17 -37,-21 -10,-5 -19,-8 -29,-10 -9,-1 -18,0 -26,3 -8,3 -15,8 -21,15 -5,7 -9,16 -10,26 -1,8 0,16 1,22l-542 -27c-47,-3 -83,-42 -80,-89 2,-46 42,-82 89,-80l809 41c12,7 28,15 47,25 25,14 57,29 86,42 30,12 57,23 84,30 26,7 52,11 74,14 23,2 43,1 58,-1 15,-2 26,-7 33,-13 7,-6 10,-13 9,-23 -1,-10 -4,-23 -11,-37 -3,-6 -6,-12 -10,-18l586 29c427,22 418,190 -16,169z"/>
   <path class="fil3" d="M13593 6616l-689 -35c-3,-2 -8,-5 -17,-11 -19,-12 -56,-35 -96,-60 -41,-25 -85,-51 -124,-70 -38,-20 -69,-33 -92,-39 -23,-7 -37,-8 -48,-7 -10,0 -18,2 -24,6 -5,4 -8,10 -8,18 0,8 2,18 7,30 5,12 13,26 24,43 11,16 26,36 38,50 8,10 15,17 22,24l-37 -2c-3,-3 -6,-6 -9,-10 -11,-10 -27,-24 -41,-34 -14,-10 -26,-17 -37,-21 -10,-5 -19,-8 -29,-10 -9,-1 -18,0 -26,3 -8,3 -15,8 -21,15 -5,7 -9,16 -10,26 -1,8 0,16 1,22l-542 -27c-47,-3 -83,-42 -80,-89 2,-46 42,-82 89,-80l809 41c12,7 28,15 47,25 25,14 57,29 86,42 30,12 57,23 84,30 26,7 52,11 74,14 23,2 43,1 58,-1 15,-2 26,-7 33,-13 7,-6 10,-13 9,-23 -1,-10 -4,-23 -11,-37 -3,-6 -6,-12 -10,-18l586 29c427,22 418,190 -16,169z"/>
   <path class="fil4 str0" d="M13756 6483l-12 108"/>
   <path class="fil4 str0" d="M12175 6390l-7 124"/>
   <path class="fil4 str0" d="M12082 6389l-7 129"/>
   <path class="fil4 str0" d="M11860 6400c23,25 20,64 -6,88"/>
  </g>
  <path class="fil5" d="M7783 4794c-58,-6 -174,-5 -308,-19 -133,-14 -285,-44 -393,-140 -109,-95 -174,-256 -184,-424 -10,-167 35,-342 206,-489 172,-147 471,-267 682,-342 211,-75 335,-105 447,-120 112,-15 211,-15 316,-26 105,-10 216,-30 278,-38 63,-9 78,-4 112,26 33,29 85,85 165,154 79,68 187,148 250,195 62,46 80,58 131,46 51,-12 136,-49 220,-94 84,-44 167,-96 218,-148 51,-53 70,-106 91,-136 21,-31 44,-39 77,-10 33,29 75,96 112,146 37,50 68,82 149,112 80,30 210,58 347,105 138,47 284,113 379,178 96,65 141,128 170,244 29,115 43,284 48,441 4,156 0,299 11,453 10,154 34,319 46,457 11,138 10,249 -28,339 -38,89 -113,157 -140,218 -27,60 -6,113 13,183 19,71 36,159 43,212 7,53 4,70 -14,79 -19,8 -51,8 -100,19 -49,12 -115,34 -180,71 -64,38 -128,90 -202,131 -74,41 -157,69 -201,86 -45,16 -51,20 -51,64 0,45 7,129 24,224 16,95 42,201 104,353 61,153 159,352 245,571 86,220 161,461 171,615 11,155 -44,223 -176,281 -131,59 -340,108 -593,120 -252,11 -550,-15 -835,-4 -286,10 -560,56 -867,75 -308,18 -648,9 -848,-11 -200,-19 -259,-47 -295,-154 -37,-107 -52,-293 -38,-532 14,-239 58,-532 117,-897 58,-365 132,-801 189,-1140 56,-339 96,-581 118,-792 23,-211 28,-391 31,-494 3,-104 4,-130 4,-150 -1,-20 -2,-33 -61,-38z"/>
  <path class="fil0" d="M6985 3834c-2,14 -5,38 -8,70 -4,32 -7,71 -10,105 -2,34 -2,62 -3,84 0,22 0,38 1,57 1,20 4,44 6,64 3,21 6,39 10,57 5,18 10,35 17,53 6,17 14,35 21,48 8,14 14,24 21,35 7,10 14,21 23,33 8,11 19,23 32,36 13,13 28,27 48,41 19,14 42,28 62,38 19,11 36,18 50,23 15,6 27,10 42,13 16,3 33,5 53,6 20,1 43,-1 63,-3 20,-2 38,-5 59,-12 20,-7 44,-18 63,-29 20,-12 36,-24 53,-41 17,-17 35,-39 48,-58 12,-20 20,-37 27,-54 7,-17 14,-35 19,-55 5,-21 8,-44 11,-65 3,-22 5,-43 7,-70 2,-26 4,-59 5,-86 1,-26 0,-47 0,-76 -1,-28 -1,-64 -2,-93 0,-28 -1,-49 -1,-83 -1,-34 -2,-81 -2,-123 -1,-41 0,-77 1,-118 1,-42 2,-89 5,-133 2,-43 5,-84 8,-123 4,-40 8,-78 13,-120 5,-42 12,-88 19,-128 6,-40 14,-73 21,-104 8,-31 17,-58 29,-85 12,-27 27,-53 43,-83 16,-30 33,-63 47,-95 15,-32 28,-63 39,-96 12,-32 22,-66 31,-101 9,-34 17,-69 21,-102 4,-32 5,-62 4,-95 -1,-33 -3,-69 -7,-98 -4,-30 -10,-54 -17,-79 -8,-26 -17,-54 -29,-83 -12,-29 -27,-59 -41,-87 -15,-27 -29,-51 -44,-73 -16,-22 -31,-42 -46,-59 -14,-16 -28,-30 -40,-42 -13,-12 -24,-22 -30,-29 -6,-7 -8,-10 -18,-33 -10,-23 -28,-66 -45,-109 -16,-42 -31,-84 -44,-116 -13,-33 -23,-56 -33,-79 -9,-24 -16,-46 -22,-63 -6,-16 -10,-27 -16,-43 -7,-16 -16,-38 -27,-65 -12,-27 -26,-59 -42,-92 -16,-33 -33,-67 -52,-101 -18,-33 -38,-66 -57,-95 -18,-29 -36,-54 -54,-77 -18,-22 -37,-41 -51,-55 -14,-13 -23,-21 -34,-28 -10,-7 -21,-13 -31,-16 -10,-2 -19,-2 -26,1 -8,2 -13,5 -18,10 -4,5 -8,10 -10,20 -1,9 0,22 2,35 2,13 5,27 12,48 7,21 18,49 30,79 12,29 25,59 39,95 14,36 30,77 45,116 14,40 27,77 38,108 10,31 18,55 27,86 8,31 16,69 21,97 5,29 8,49 10,71 2,21 4,44 4,63 0,20 -2,36 -4,45 -1,8 -2,9 -6,7 -5,-1 -13,-4 -24,-7 -11,-2 -24,-3 -40,-2 -15,1 -34,5 -49,12 -16,7 -29,17 -38,26 -10,9 -15,16 -21,26 -6,10 -12,22 -16,34 -5,12 -8,23 -11,34 -3,11 -7,22 -11,30 -5,8 -10,13 -17,18 -7,4 -16,8 -26,12 -10,4 -21,8 -31,14 -10,7 -19,15 -27,24 -8,9 -15,19 -21,29 -7,11 -12,23 -16,36 -4,13 -5,26 -7,39 -1,12 -1,24 -2,34 0,10 -1,18 -2,23 -1,6 -3,8 -9,12 -7,3 -17,7 -26,12 -9,4 -16,9 -24,14 -7,6 -15,12 -24,21 -8,9 -17,21 -24,32 -7,12 -12,23 -16,35 -4,11 -7,23 -9,37 -1,14 0,30 3,46 3,15 7,30 17,49 10,19 25,43 44,71 20,28 44,59 73,97 30,37 66,81 96,118 30,37 55,67 70,86 16,20 23,29 26,39 4,10 4,21 -2,51 -6,30 -18,79 -31,132 -12,53 -26,110 -37,160 -12,50 -22,93 -32,138 -11,46 -22,93 -31,135 -9,42 -17,79 -25,118 -9,40 -17,81 -24,119 -8,39 -14,73 -19,103 -5,29 -9,54 -12,68 -2,15 -3,19 -5,34z"/>
  <path class="fil1" d="M8884 3331c-64,-31 -86,-71 -105,-81 -21,-12 -39,10 -66,19 -27,9 -63,6 -103,-16 -180,-95 -393,-303 -333,-527 27,-101 99,-220 158,-365 58,-145 102,-316 164,-514 61,-198 140,-424 251,-566 121,-154 405,-303 598,-200 50,27 74,62 112,75 37,12 87,1 151,3 226,9 315,150 373,352 46,160 84,402 137,597 53,195 120,344 173,457 125,267 157,469 -122,654 -47,32 -84,50 -114,64 -29,14 -51,25 -76,18 -24,-8 -52,-34 -74,-37 -22,-3 -39,17 -63,35 -18,14 -40,26 -73,38 -65,-101 -51,-349 -31,-468 2,-3 2,-3 10,-19 46,-98 73,-186 99,-291 7,-27 10,-40 12,-48 1,-9 1,-12 4,-14 2,-3 6,-5 14,-8 51,-23 71,-36 110,-77 8,-8 9,-10 8,-11 -1,-2 -4,-4 -12,-9 -7,-5 -19,-13 -32,-22 -13,-10 -26,-20 -41,-34 -15,-14 -32,-32 -51,-55 -19,-24 -40,-53 -57,-79 -16,-27 -28,-51 -42,-82 -13,-30 -30,-66 -46,-100 -15,-34 -31,-68 -44,-94 -13,-27 -24,-46 -37,-67 -13,-21 -28,-42 -41,-57 -13,-14 -24,-22 -36,-29 -12,-8 -25,-14 -42,-21 -16,-7 -36,-13 -59,-18 -23,-5 -49,-8 -65,-14 -17,-7 -22,-18 -29,-30 -8,-12 -17,-26 -27,-39 -59,-76 -126,-87 -200,-16 -14,14 -28,32 -41,50 -13,18 -26,39 -39,62 -13,22 -26,49 -39,74 -13,25 -25,48 -36,68 -10,20 -19,36 -31,57 -43,77 -93,145 -154,209 -55,58 -113,108 -172,161 -9,9 -9,10 -7,14 24,79 89,134 162,161 9,3 10,4 13,15 20,87 39,162 69,248 10,26 16,41 21,52 50,116 9,438 -99,525zm1151 -1157c5,0 15,2 27,5 57,15 81,67 75,123 -1,15 -5,33 -9,45 -3,12 -6,18 -8,21 -2,3 -3,2 -9,-5 -6,-7 -17,-21 -28,-42 -11,-21 -22,-49 -31,-74 -9,-25 -15,-46 -18,-58 -4,-12 -4,-14 1,-15z"/>
  <path class="fil4 str1" d="M10033 2173c26,5 51,10 71,27 48,43 43,119 15,172m-19 29c-34,47 -80,74 -136,95m17 -88c-49,260 -95,477 -303,666 -176,158 -325,158 -500,0 -208,-188 -253,-403 -303,-666m-21 -62c-18,-30 -26,-38 -56,-56m-82 35c20,87 92,138 172,169m1110 -146c3,-6 7,-11 9,-15"/>
  <path class="fil4 str2" d="M8579 3316c49,86 98,172 187,280 90,107 220,237 351,366"/>
  <path class="fil4 str2" d="M9396 3643c-43,55 -86,109 -133,163 -46,53 -96,105 -146,156"/>
  <path class="fil4 str2" d="M9521 3659c34,59 69,119 113,178 44,60 99,119 154,179"/>
  <path class="fil4 str2" d="M10265 3519c-47,65 -94,130 -173,213 -80,82 -192,183 -304,284"/>
  <path class="fil4 str2" d="M9462 3786c-8,27 -16,54 -12,83 4,29 20,59 37,115 18,57 36,140 47,230 11,91 16,188 13,356 -2,168 -11,406 -25,683 -15,277 -35,595 -70,940 -35,345 -84,719 -113,1155 -28,436 -36,935 -45,1434"/>
  <path class="fil4 str2" d="M10489 6639c1,-80 2,-161 19,-261 17,-100 50,-220 115,-412 65,-191 161,-454 258,-717"/>
  <path class="fil4 str2" d="M8059 3605c44,158 87,316 87,466 0,151 -43,294 -94,398 -51,103 -110,167 -169,232"/>
  <path class="fil4 str1" d="M7720 1808c-16,-35 -30,-70 -43,-100 -50,-118 -73,-191 -111,-289 -40,-106 -115,-283 -203,-415 -139,-210 -287,-244 -180,54 69,193 207,414 190,657 -1,14 -3,13 -11,10 -43,-17 -104,-8 -140,20 -34,25 -45,65 -60,118 -7,25 -15,31 -41,42 -68,21 -113,72 -113,181 0,28 0,27 -13,33 -309,138 69,478 164,594 50,61 50,66 46,89 -5,23 -13,64 -55,246 -43,181 -121,503 -159,745 -38,243 -37,407 6,527 43,119 128,196 211,239 83,43 164,52 253,26 89,-27 186,-90 223,-248 37,-159 14,-414 15,-655 2,-240 28,-467 53,-596 20,-105 40,-146 65,-189 87,-151 159,-326 166,-502 9,-233 -138,-553 -359,-642 -126,-51 -108,112 -27,251 65,110 176,240 262,335"/>
  <path class="fil4 str2" d="M7090 2228c33,52 67,104 90,133 23,30 36,36 74,60 37,23 99,64 127,91 53,53 -19,82 -65,85 -39,2 -94,-5 -141,-18 -48,-13 -86,-32 -124,-50m358 -704c40,65 80,130 107,169 27,39 40,53 88,104 48,52 132,141 173,208 74,121 8,256 -118,185 -30,-17 -62,-45 -94,-73m-332 -425c54,73 108,146 136,185 28,38 31,42 70,85 38,44 112,126 145,186 98,180 -77,149 -184,90"/>
  <path class="fil4 str1" d="M11239 6397c169,28 319,14 488,-33 216,-60 409,-170 635,-209 98,-17 192,-17 267,-1 139,32 353,163 410,295 17,41 -3,57 -42,61 -39,4 -98,-4 -155,-22 -57,-18 -113,-46 -169,-77 -41,-23 -82,-48 -124,-73m153 656c-99,223 -292,73 -423,-23 -72,-52 -158,-112 -204,-143 -46,-31 -53,-33 -101,-12 -48,20 -137,63 -231,106 -282,132 -924,356 -1189,196m1842 -509c-136,66 45,382 112,449m531 -609c360,175 392,437 132,296 -44,-23 -115,-59 -168,-90m-162 141c-56,-43 -151,-127 -220,-194 -190,-185 -169,-285 86,-142 77,43 175,104 234,146 59,41 78,63 88,84 39,83 -66,198 -188,106zm-401 -109c-54,-84 -70,-133 -63,-163 8,-31 39,-44 76,-31 37,13 81,54 147,117 65,64 153,151 199,205 105,122 5,202 -88,182 -84,-19 -225,-239 -271,-310z"/>
  <path class="fil1" d="M10055 1148c255,-43 510,-87 765,-130 3,-21 6,-42 10,-63 -393,-130 -786,-260 -1178,-390 -508,71 -1015,143 -1523,214 2,11 3,22 4,33 197,94 395,189 592,284 -15,179 -30,358 -45,538 403,275 1011,196 1432,8 -19,-165 -38,-329 -57,-494z"/>
  <path class="fil4 str1" d="M9624 735c440,123 493,141 971,265 3,123 6,246 9,369m-34 189c25,4 61,3 81,-1m23 -8c74,-59 32,-179 -64,-179 -102,-1 -140,130 -57,185 -94,233 -91,348 -100,595 63,0 126,0 190,-1 4,-49 9,-98 13,-147 12,37 24,74 36,111 54,-13 108,-26 162,-38 -37,-225 -54,-332 -180,-526z"/>
  <path class="fil4 str3" d="M8714 1656c118,72 251,117 390,139m585 -19c140,-28 275,-71 396,-123"/>
  <path class="fil4 str4" d="M6055 1842c-513,79 -1137,289 -1558,617m-660 -822c-13,763 -9,1430 -21,2193 96,134 375,387 536,493 4,-696 9,-1392 13,-2087 -192,-136 -542,-339 -528,-605 39,-768 1748,-1091 2598,-1074 4,521 9,1118 14,1639 -662,139 -1518,479 -2090,1047m1696 -1752c-492,58 -1300,293 -1680,601m1677 -865c-470,53 -1414,244 -1899,693m1922 -973c-702,70 -1485,250 -2031,748"/>
  <path class="fil4 str4" d="M3233 6076c115,-139 459,-308 648,-368m-269 595c184,-99 380,-183 584,-227 -4,-256 -8,-511 -12,-766 -168,47 -868,253 -980,561 -34,95 -9,187 91,270 227,188 749,311 1035,369 582,116 1226,169 1548,170 2,267 0,534 2,796 -345,-29 -676,-56 -993,-93 -558,-66 -1258,-166 -1665,-587 -11,-284 -21,-567 -32,-850m177 245c134,-97 391,-219 596,-283"/>
  <g id="_1871568083680">
   <rect class="fil0" transform="matrix(0.945193 -0.268349 -0.262637 -0.925073 4274.82 6425.15)" width="2035" height="1553" rx="55" ry="55"/>
   <rect class="fil4 str5" transform="matrix(0.945193 -0.268349 -0.262637 -0.925073 4274.82 6425.15)" width="2035" height="1553" rx="55" ry="55"/>
   <rect class="fil4 str5" transform="matrix(0.800972 -0.227403 -0.227548 -0.801483 4450.2 6270.31)" width="2035" height="1553" rx="55" ry="55"/>
   <path class="fil4 str6" d="M4125 5124c543,-155 1086,-309 1629,-464"/>
   <path class="fil6" d="M4217 5063c8,-2 13,-11 11,-20 -3,-8 -12,-13 -20,-11 -8,3 -13,12 -11,20 2,8 11,13 20,11zm245 -70c8,-2 13,-11 11,-19 -2,-9 -11,-14 -20,-11 -8,2 -13,11 -11,19 3,9 11,14 20,11zm-123 35c9,-2 14,-11 11,-19 -2,-9 -11,-14 -19,-11 -9,2 -14,11 -11,19 2,9 11,14 19,11z"/>
   <path class="fil6" d="M5260 5379l-272 250 -90 -318 362 68z"/>
  </g>
  <path class="fil4 str4" d="M12882 5267c513,79 1138,289 1558,617m661 -822c12,763 8,1430 21,2193 -97,134 -375,387 -536,493 -5,-696 -9,-1392 -13,-2087 198,-140 562,-351 526,-629 -98,-738 -2023,-973 -2598,-1035 -2,522 5,1107 0,1627 779,186 1323,391 2078,1044m-1697 -1752c493,59 1300,293 1681,601m-1677 -865c470,53 1414,244 1898,693m-1921 -973c702,70 1485,250 2030,748"/>
  <path class="fil4 str4" d="M14385 1859c-115,-139 -459,-308 -649,-368m270 596c-184,-99 -380,-184 -584,-228 3,-256 7,-511 11,-766 169,47 869,253 980,561 35,96 10,187 -90,270 -227,189 -749,312 -1035,369 -582,116 -1227,169 -1548,170 -3,267 0,534 -2,796 345,-28 676,-55 993,-93 558,-66 1258,-165 1665,-587 11,-283 21,-567 32,-850m-177 246c-134,-97 -391,-220 -597,-284"/>
  <g id="_1871568085440">
   <path class="fil4 str4" d="M12776 404c40,-26 64,-42 97,-65 141,338 282,677 423,1016 -548,228 -1098,453 -1646,681 -139,-340 -278,-680 -417,-1019 44,-11 89,-19 132,-30m408 539c142,-39 285,-77 428,-115m317 -126c90,-62 180,-124 270,-185m-337 17c81,-57 162,-115 244,-172m-312 3c119,-84 238,-169 356,-254m-417 102c116,-83 233,-167 350,-250m-1357 317c137,338 270,669 406,1007 251,-58 509,-119 760,-178 225,-136 441,-270 666,-407 -141,-334 -282,-669 -423,-1004 -214,146 -429,293 -644,440 -256,45 -509,97 -765,142zm1166 829c-131,-325 -270,-646 -401,-971"/>
   <path class="fil6" d="M11688 1274c139,-24 276,-52 414,-77 -41,-100 -82,-200 -124,-299 -138,24 -275,52 -414,77 42,100 83,199 124,299z"/>
  </g>
  <g id="_1871568087936">
   <path class="fil0" d="M13426 5135c386,24 718,-268 742,-652 24,-385 -270,-716 -656,-740 -385,-23 -718,269 -741,653 -24,385 270,715 655,739zm9 -134c311,19 579,-217 598,-527 19,-310 -218,-577 -529,-596 -311,-19 -579,217 -598,527 -19,310 218,576 529,596z"/>
   <circle class="fil4 str4" transform="matrix(0.834901 0.0515672 0.0513723 -0.831746 13469.3 4439.35)" r="675"/>
   <path class="fil4 str4" d="M14083 4098c4,-3 10,-8 26,-22 16,-13 41,-36 64,-55 22,-19 40,-36 61,-53 20,-18 43,-37 67,-57 24,-21 49,-43 67,-58 18,-15 28,-24 42,-36 14,-12 32,-28 47,-40 14,-12 24,-21 37,-33 14,-11 31,-26 55,-46 24,-21 56,-48 80,-69 25,-21 42,-36 55,-48 14,-12 24,-21 32,-28 9,-8 16,-14 22,-23 5,-9 10,-19 13,-27 3,-8 4,-14 4,-23 0,-8 0,-20 -2,-31 -3,-11 -7,-22 -13,-32 -7,-11 -16,-21 -27,-30 -11,-8 -23,-13 -36,-16 -13,-4 -26,-5 -37,-5 -12,1 -22,4 -34,10 -12,6 -26,16 -46,32 -20,17 -46,40 -71,62 -25,22 -48,42 -70,61 -22,20 -43,37 -68,59 -25,21 -54,46 -80,69 -25,22 -48,41 -72,61 -23,20 -47,40 -69,60 -23,20 -44,38 -64,56 -20,17 -40,33 -59,48 -18,16 -36,31 -44,39 -9,8 -9,8 -10,9m-527 1203c386,24 718,-268 742,-652 9,-146 -28,-290 -106,-414 -28,-45 -62,-87 -100,-125 -116,-115 -273,-190 -450,-201 -385,-23 -718,269 -741,653 -24,385 270,715 655,739z"/>
  </g>
  <path class="fil4 str7" d="M10570 1558c25,4 61,3 81,-1"/>
  <circle class="fil6" cx="7164" cy="849" r="114"/>
  <circle class="fil4 str8" cx="7164" cy="849" r="184"/>
 </g>
</svg>
