<svg width="90" height="91" viewBox="0 0 90 91" fill="none" xmlns="http://www.w3.org/2000/svg">
<g clip-path="url(#clip0_744_406)">
<path d="M32.1305 39.6246L4.23047 23.5146V68.0646L15.6155 74.6346V43.3146L23.3105 47.7696C28.3055 50.6496 31.4105 56.0046 31.4105 61.8096V83.8596L42.8405 90.3847V58.1646C42.8405 50.5596 38.7455 43.4496 32.1305 39.6246Z" fill="white"/>
<path d="M56.3855 35.1699L74.9705 24.4149C78.7505 22.2549 78.7505 16.8099 74.9705 14.6049L67.4105 10.1949L56.0705 16.7199L58.7255 18.2499C59.5805 18.7449 59.5805 20.0049 58.7255 20.4999L46.8005 27.4299C45.6305 28.1049 44.1455 28.1049 42.9755 27.4299L29.2505 19.4649L40.9505 12.7149C43.4705 11.2749 46.5755 11.2749 49.0955 12.7149L60.4355 6.14487L55.3505 3.17487C48.9605 -0.515131 41.0855 -0.560131 34.6955 3.12987L6.43555 19.4649L37.0355 37.1499C41.9405 39.9849 48.0155 39.9849 52.9205 37.1499L56.3855 35.1699Z" fill="white"/>
<path d="M57.8702 39.6246C51.2552 43.4496 47.1602 50.5146 47.1602 58.1646V90.3846L58.5452 83.8146V61.7646C58.5452 55.9596 61.6502 50.6046 66.6452 47.7246L74.3402 43.2696L85.7252 36.6996V23.5596L57.8702 39.6246Z" fill="white"/>
</g>
<defs>
<clipPath id="clip0_744_406">
<rect width="90" height="90" fill="white" transform="translate(0 0.384766)"/>
</clipPath>
</defs>
</svg>
