<?xml version="1.0" encoding="UTF-8"?>
<!DOCTYPE svg PUBLIC "-//W3C//DTD SVG 1.0//EN" "http://www.w3.org/TR/2001/REC-SVG-20010904/DTD/svg10.dtd">
<!-- Creator: CorelDRAW X8 -->
<svg xmlns="http://www.w3.org/2000/svg" xml:space="preserve" width="91.7223mm" height="91.7222mm" version="1.0" style="shape-rendering:geometricPrecision; text-rendering:geometricPrecision; image-rendering:optimizeQuality; fill-rule:evenodd; clip-rule:evenodd"
viewBox="0 0 9202 9202"
 xmlns:xlink="http://www.w3.org/1999/xlink">
 <defs>
  <style type="text/css">
   <![CDATA[
    .str2 {stroke:black;stroke-width:8.49704;stroke-linecap:round}
    .str3 {stroke:white;stroke-width:8.49704;stroke-linecap:round}
    .str1 {stroke:#2B2A29;stroke-width:8.49704;stroke-linecap:round;stroke-linejoin:round}
    .str0 {stroke:black;stroke-width:8.49704;stroke-linecap:round;stroke-linejoin:round}
    .str4 {stroke:white;stroke-width:8.49704;stroke-linecap:round;stroke-linejoin:round}
    .fil3 {fill:none}
    .fil0 {fill:#FEFEFE}
    .fil4 {fill:black}
    .fil2 {fill:#898989}
    .fil1 {fill:#D03730}
    .fil5 {fill:white}
   ]]>
  </style>
 </defs>
 <g id="Слой_x0020_1">
  <metadata id="CorelCorpID_0Corel-Layer"/>
  <rect class="fil0" width="9202" height="9202"/>
  <path class="fil1" d="M8242 5635c-41,45 -113,123 -213,177 -100,55 -228,85 -347,177 -118,91 -228,245 -282,315 -53,70 -51,58 -33,-28 17,-87 49,-248 62,-334 13,-87 7,-99 -34,-134 -42,-36 -118,-94 -163,-169 -46,-76 -61,-168 -63,-241 -2,-73 10,-127 7,-142 -4,-14 -21,10 -46,36 -26,26 -59,52 -86,55 -27,2 -48,-21 -103,-116 -56,-95 -147,-263 -249,-423 -102,-159 -215,-311 -325,-433 -110,-122 -216,-215 -355,-288 -138,-73 -308,-125 -451,-157 -142,-32 -258,-42 -316,-47 -59,-5 -62,-4 -65,-9 -4,-5 -8,-15 -25,-64 -17,-50 -46,-139 -60,-184 -15,-45 -15,-45 -36,20 -21,65 -63,194 -109,350 -46,156 -95,338 -120,429 -25,92 -25,94 -46,34 -21,-60 -62,-182 -83,-245 -21,-62 -22,-64 -61,-94 -40,-29 -118,-86 -204,-165 -87,-79 -182,-181 -245,-252 -63,-72 -93,-113 -109,-135 -15,-21 -15,-21 -18,-58 -2,-36 -7,-109 -9,-145 -2,-37 -2,-37 -28,-19 -26,18 -77,53 -105,77 -29,24 -35,36 -65,110 -31,73 -84,207 -112,276 -28,68 -29,72 -64,76 -35,4 -104,7 -255,29 -152,22 -386,61 -577,130 -191,68 -339,164 -481,305 -142,141 -278,326 -413,485 -134,160 -266,295 -415,395 -149,101 -314,167 -412,234 -97,66 -126,133 -142,213 -17,79 -21,171 -55,236 -34,66 -100,106 -132,127 -33,22 -33,25 -63,13 -30,-12 -90,-38 -127,-43 -36,-4 -49,14 -63,46 -13,33 -28,80 -55,115 -27,35 -66,58 -113,97 -46,38 -100,92 -133,204 -34,113 -48,284 -34,427 15,143 59,258 107,334 48,76 101,113 175,139 75,26 172,41 233,77 61,36 85,93 124,123 39,31 92,34 263,6 172,-27 461,-87 603,-122 141,-35 134,-45 199,-44 64,1 201,14 269,22 68,7 68,10 70,170 3,161 7,481 28,700 21,219 58,338 248,369 190,31 532,-26 906,-54 375,-29 782,-29 1195,4 413,32 832,96 1146,129 313,32 522,32 616,0 94,-33 74,-97 -9,-433 -83,-336 -229,-944 -321,-1312 -92,-369 -129,-498 -134,-544 -5,-45 22,-8 133,98 110,107 304,283 456,372 153,90 264,92 361,64 97,-29 179,-88 253,-81 74,8 141,82 222,130 81,49 175,71 311,-7 137,-78 315,-257 398,-399 83,-143 71,-250 113,-343 42,-93 139,-172 176,-271 38,-100 15,-219 -2,-298 -18,-79 -30,-119 -42,-133 -12,-15 -24,-3 -66,41z"/>
  <path class="fil2" d="M3897 6256c-17,-28 -51,-82 -87,-141 -36,-60 -76,-126 -108,-180 -32,-54 -57,-97 -78,-136 -21,-39 -39,-74 -50,-99 -12,-24 -17,-39 -20,-50 -4,-11 -5,-19 -5,-25 0,-6 1,-10 5,-14 4,-4 10,-8 23,-15 14,-8 35,-19 80,-39 44,-19 112,-46 198,-80 86,-35 191,-77 273,-110 81,-33 139,-56 208,-84 69,-28 149,-60 220,-89 71,-28 132,-53 199,-80 66,-27 137,-56 220,-90 83,-34 177,-73 248,-101 70,-28 116,-46 149,-58 33,-13 53,-19 72,-23 18,-5 34,-7 47,-7 13,0 23,2 33,6 10,4 21,10 37,23 15,12 36,30 70,62 35,33 83,80 134,130 51,50 105,104 149,149 45,45 81,82 105,108 24,26 35,40 48,61 14,21 29,48 40,68 10,19 15,31 24,54 9,23 21,56 37,101 16,46 34,103 54,165 20,61 41,127 63,194 21,68 43,137 59,188 17,51 27,84 41,129 14,45 32,102 48,152 15,51 29,94 43,142 15,47 31,99 47,152 15,53 30,106 42,146 11,40 17,68 22,89 4,21 7,37 8,49 1,13 1,23 0,30 -1,7 -3,11 -9,17 -6,6 -16,14 -34,25 -19,10 -46,23 -85,40 -39,16 -90,37 -146,59 -57,22 -119,45 -192,72 -72,28 -154,59 -232,89 -77,29 -150,57 -232,88 -83,31 -175,66 -261,98 -85,33 -165,62 -255,96 -91,34 -192,71 -277,102 -86,31 -156,56 -209,74 -53,18 -89,29 -113,36 -24,7 -35,9 -45,10 -10,1 -19,0 -25,-1 -6,-2 -10,-5 -15,-10 -4,-5 -10,-13 -16,-25 -6,-11 -13,-27 -33,-80 -20,-52 -52,-141 -79,-217 -28,-76 -50,-139 -73,-204 -23,-65 -47,-130 -104,-299 -57,-169 -148,-440 -194,-577 -47,-137 -48,-138 -50,-139 -1,-2 -2,-4 -19,-31z"/>
  <path class="fil3 str0" d="M5188 3929c71,268 146,534 192,808 -64,-78 -127,-155 -178,-221 -52,-66 -92,-120 -131,-174 -85,71 -169,142 -253,212 -85,-70 -170,-141 -255,-212 -64,83 -128,167 -176,252 -49,86 -81,175 -114,264 -115,-154 -230,-308 -320,-462 -91,-154 -157,-308 -223,-463"/>
  <path class="fil3 str0" d="M1211 6338c-54,-51 -108,-103 -167,-145 -59,-42 -123,-75 -187,-108"/>
  <path class="fil3 str0" d="M2282 6539c-37,-155 -74,-310 -147,-442 -72,-133 -180,-244 -267,-288 -87,-44 -154,-23 -169,28 -16,50 20,129 59,193 39,65 81,116 127,155 46,39 94,67 135,110 41,44 74,104 108,164"/>
  <path class="fil3 str0" d="M3002 4370c94,200 189,400 195,646 6,247 -76,541 -212,761 -135,220 -325,367 -451,481 -127,115 -189,198 -252,281"/>
  <path class="fil3 str0" d="M3186 5912c-93,58 -186,116 -279,160 -93,44 -187,74 -281,104"/>
  <path class="fil3 str0" d="M6275 5887c146,-210 185,-512 189,-762"/>
  <path class="fil3 str0" d="M6174 4678c43,328 78,595 4,918"/>
  <path class="fil3 str0" d="M6654 6036c-31,363 -57,704 383,778 -281,-347 -355,-611 -298,-1053"/>
  <path class="fil3 str0" d="M8004 6587c-672,421 -1138,-153 -1071,-866 7,-79 7,-83 -46,-77 -53,6 -160,22 -212,21 -51,-2 -47,-22 12,-62 60,-41 175,-101 290,-162"/>
  <path class="fil3 str0" d="M8112 5739c-33,-407 -118,-769 -195,-1166 -39,-204 -54,-334 -61,-410 -7,-75 -6,-97 9,-124 15,-28 45,-60 62,-112 18,-51 23,-121 7,-192 -15,-71 -52,-144 -71,-184 -19,-40 -19,-46 1,-68 20,-22 59,-59 84,-85 25,-25 36,-39 30,-77 -6,-38 -29,-99 -47,-134 -19,-34 -33,-43 -54,-46 -22,-4 -50,-2 -61,-1 -11,1 -4,-1 14,-38 126,-264 -27,-374 -203,-162 -8,10 -8,4 -25,-15 -17,-20 -51,-54 -83,-71 -32,-16 -63,-16 -104,20 -41,37 -94,110 -121,146 -28,36 -32,34 -40,7 -8,-27 -21,-80 -45,-133 -25,-52 -61,-103 -74,-132 -12,-29 -1,-36 -1,-77 1,-41 -9,-118 -51,-188 -43,-70 -118,-135 -153,-129 -36,5 -32,80 -24,174 8,94 19,206 25,272 7,66 9,86 22,131 14,46 39,118 52,199 12,82 12,172 14,220 3,48 7,53 66,169 59,115 172,341 230,463 58,122 60,141 46,293 -15,152 -45,437 -77,671 -29,215 -60,387 -91,554m-53 -2180c117,-28 170,-19 286,3m-93 -266c65,52 90,71 173,86m0 0c-43,-57 -51,-84 -67,-154m388 211c11,39 21,77 9,112 -12,35 -46,67 -68,96 -23,29 -34,54 -37,79 -3,25 2,50 23,51 21,1 58,-21 95,-43m-119 458c26,-69 52,-138 51,-212 -2,-74 -30,-153 -52,-216 -21,-62 -36,-108 -25,-167 10,-59 45,-132 80,-204m-190 -195c-37,76 -75,153 -103,217 -28,65 -46,118 -71,158 -42,64 -92,94 -167,94"/>
  <path class="fil3 str1" d="M4300 6279c-85,54 -169,108 -254,162"/>
  <path class="fil4" d="M5490 2325c19,-16 60,-60 86,-115 25,-55 35,-121 31,-181 -5,-60 -23,-114 -39,-178 -17,-63 -33,-137 -70,-216 -37,-79 -95,-164 -165,-240 -71,-75 -152,-141 -330,-187 -178,-46 -453,-72 -623,-51 -170,21 -237,89 -301,129 -64,39 -126,49 -201,111 -75,62 -163,175 -224,283 -60,107 -93,209 -97,293 -5,85 19,152 47,215 28,64 60,124 88,192 28,69 52,146 64,183 13,37 14,35 25,26 11,-9 32,-25 54,-34 22,-9 46,-11 74,-5 27,5 58,16 91,43 32,26 67,66 100,93 34,27 65,42 78,-2 13,-44 7,-146 25,-230 19,-83 61,-148 123,-193 62,-46 144,-73 206,-105 62,-31 103,-67 151,-116 49,-50 104,-112 147,-161 44,-50 75,-88 100,-110 25,-22 43,-30 64,-22 21,7 46,30 74,48 28,19 60,33 93,43 33,10 67,15 97,31 30,15 54,41 82,77 27,36 57,82 78,126 20,45 32,86 39,126 8,41 11,80 13,106 1,26 0,37 20,21z"/>
  <path class="fil3 str2" d="M5242 1839c72,69 145,137 185,236 41,99 49,229 45,323 -4,93 -21,150 -27,230 -5,80 0,181 -10,278 -11,98 -37,190 -92,300 -55,110 -139,239 -210,320 -70,82 -127,117 -214,114 -86,-3 -202,-43 -311,-95 -109,-51 -211,-114 -288,-175 -77,-61 -128,-119 -180,-178"/>
  <path class="fil3 str2" d="M3998 2578c-46,-21 -91,-43 -135,-38 -44,6 -87,38 -106,82 -20,44 -16,101 -1,150 15,49 41,91 72,125 30,35 64,61 94,81 30,20 55,33 80,46"/>
  <path class="fil3 str2" d="M3844 2693c29,10 58,21 85,43 28,21 54,54 80,86"/>
  <path class="fil3 str3" d="M5099 1643c-38,-51 -77,-102 -127,-123 -51,-21 -114,-11 -168,25 -55,36 -101,100 -144,148 -44,49 -85,82 -143,106 -58,24 -133,39 -184,46 -51,8 -79,8 -107,8"/>
  <path class="fil3 str3" d="M3711 1920c-63,106 -74,180 -79,304"/>
  <path class="fil3 str4" d="M4573 1913c-157,183 -238,229 -479,225 435,51 509,28 771,-300 53,-66 85,-97 119,-93 33,4 69,42 105,80"/>
  <path class="fil3 str0" d="M4002 3024c17,79 34,158 45,248 11,91 16,193 21,296"/>
  <path class="fil5" d="M1768 7382c12,8 31,19 47,24 15,6 26,5 92,7 65,1 185,6 284,9 100,3 179,5 251,6 73,2 138,2 212,3 73,0 153,-1 236,-3 83,-3 168,-8 239,-14 72,-6 129,-12 178,-19 49,-7 88,-15 121,-22 32,-8 58,-15 86,-24 29,-9 61,-21 88,-32 27,-10 49,-20 74,-32 25,-12 53,-26 90,-45 37,-20 82,-45 122,-68 39,-23 73,-43 93,-55 21,-12 28,-15 35,-17 7,-2 13,-2 30,-1 17,0 45,2 73,5 27,3 54,9 91,19 36,9 83,24 130,40 48,16 98,33 136,45 39,12 67,19 94,24 26,6 51,9 75,11 24,1 47,1 67,0 19,-1 34,-4 45,-8 10,-4 16,-10 19,-15 4,-6 4,-9 3,-15 -1,-5 -4,-11 -10,-18 -5,-7 -12,-15 -24,-26 -12,-10 -29,-23 -51,-38 -21,-14 -48,-30 -84,-48 -35,-19 -79,-40 -130,-62 -51,-23 -108,-47 -146,-63 -37,-16 -56,-24 -71,-31 -15,-7 -26,-14 -34,-18 -8,-5 -11,-8 -12,-11 -1,-3 1,-6 9,-11 8,-5 22,-12 48,-25 27,-12 65,-29 96,-41 32,-13 57,-21 82,-27 26,-6 51,-9 78,-12 26,-2 54,-2 88,1 34,3 74,10 110,16 36,7 68,14 94,18 27,4 50,6 70,6 20,0 39,-2 58,-5 18,-3 38,-7 59,-14 21,-7 44,-17 61,-25 16,-8 26,-14 31,-19 6,-5 7,-9 6,-12 -1,-3 -3,-6 -6,-8 -3,-3 -7,-5 -24,-13 -18,-8 -49,-23 -88,-38 -39,-15 -87,-31 -130,-46 -44,-15 -84,-29 -117,-40 -33,-11 -59,-19 -80,-26 -20,-6 -34,-11 -51,-12 -17,-2 -38,-2 -72,0 -34,2 -81,5 -127,9 -46,5 -91,11 -121,14 -30,4 -46,6 -54,6 -7,0 -6,-1 2,-6 8,-4 23,-13 44,-24 22,-12 50,-26 88,-45 39,-19 87,-43 131,-65 43,-22 81,-42 117,-59 36,-17 70,-31 96,-41 26,-10 45,-15 63,-19 19,-4 38,-6 61,-9 22,-4 49,-8 76,-12 27,-4 54,-9 77,-16 23,-7 42,-16 60,-26 18,-9 35,-21 49,-31 13,-10 23,-19 31,-28 7,-8 13,-16 16,-22 3,-6 4,-10 3,-14 -1,-3 -3,-5 -5,-7 -3,-3 -7,-5 -17,-7 -10,-2 -26,-4 -66,-5 -40,-1 -104,-2 -157,-1 -53,0 -95,0 -136,1 -41,2 -80,3 -107,5 -26,1 -39,4 -57,8 -17,4 -39,9 -74,22 -35,12 -83,31 -116,44 -33,12 -50,18 -60,21 -9,3 -12,2 -9,-2 3,-4 11,-11 29,-26 18,-15 46,-37 74,-58 29,-21 57,-41 88,-57 31,-17 64,-31 98,-44 35,-14 72,-28 102,-39 29,-12 52,-20 71,-29 19,-9 34,-19 47,-28 12,-10 23,-20 30,-30 8,-10 12,-19 14,-28 2,-9 2,-16 1,-21 -1,-6 -4,-9 -8,-12 -4,-3 -11,-6 -17,-8 -6,-2 -12,-3 -24,-3 -12,1 -29,2 -58,6 -28,4 -69,11 -133,25 -65,13 -154,33 -210,47 -57,13 -80,19 -97,25 -17,7 -29,12 -41,20 -11,7 -23,16 -33,25 -10,9 -19,16 -32,29 -14,12 -33,28 -57,47 -23,18 -52,39 -92,66 -40,28 -91,62 -137,93 -45,31 -86,59 -107,72 -21,14 -21,13 -25,8 -3,-5 -9,-15 -18,-30 -10,-14 -22,-33 -30,-46 -8,-13 -12,-19 -15,-22 -2,-3 -3,-4 -7,-1 -3,3 -9,8 -22,24 -13,16 -33,43 -53,72 -21,29 -42,59 -61,84 -19,25 -37,45 -55,65 -18,19 -37,38 -59,58 -21,20 -45,41 -73,64 -27,23 -58,47 -86,69 -28,22 -52,40 -72,55 -19,15 -33,27 -44,34 -11,7 -18,10 -28,11 -11,2 -24,2 -42,-1 -18,-3 -41,-10 -95,-24 -53,-14 -137,-37 -207,-55 -70,-19 -127,-33 -223,-57 -96,-23 -232,-56 -336,-79 -103,-23 -175,-36 -247,-49 -71,-13 -143,-26 -230,-40 -87,-15 -190,-31 -259,-43 -68,-11 -101,-17 -120,-20 -18,-3 -22,-3 -24,-2 -2,1 -2,2 -3,10 0,7 0,22 0,46 -1,24 -1,58 0,88 0,30 1,55 3,81 1,26 3,53 6,83 3,30 8,65 12,93 4,29 8,53 14,78 5,25 12,52 19,77 6,24 14,48 20,67 7,20 13,36 22,55 8,20 19,43 32,67 13,24 28,49 42,69 13,20 25,36 40,53 14,17 31,35 47,50 16,15 31,28 42,37 12,9 20,15 26,19 6,5 11,7 22,14z"/>
  <path class="fil3 str0" d="M3219 6859c-20,31 -39,62 -49,91 -11,30 -12,58 -14,86"/>
  <path class="fil3 str0" d="M1429 6269c-29,388 -7,943 385,1140"/>
  <path class="fil3 str0" d="M1445 6399c270,41 540,82 814,140 273,57 551,131 709,174 159,42 199,54 227,53 27,-1 42,-13 104,-61 62,-48 172,-130 246,-204 74,-74 113,-138 143,-182 31,-45 53,-69 75,-93"/>
  <path class="fil5" d="M4001 7106c1,-1 5,-4 9,-6 3,-2 6,-3 25,-3 18,1 51,3 81,7 30,3 55,8 69,11 14,3 15,4 17,9 2,4 5,13 12,33 7,21 19,55 29,84 11,30 19,55 28,79 8,23 15,44 22,63 7,19 13,36 20,58 8,23 18,50 27,75 8,24 16,46 21,59 4,12 5,14 5,15 1,1 1,1 -3,3 -4,1 -12,4 -30,10 -17,6 -45,16 -67,23 -23,8 -40,12 -52,15 -11,3 -17,3 -21,3 -5,-1 -8,-2 -12,-6 -4,-3 -9,-10 -18,-31 -9,-21 -21,-57 -35,-98 -13,-40 -27,-85 -40,-123 -12,-38 -23,-70 -32,-101 -10,-30 -19,-59 -28,-88 -8,-28 -17,-56 -22,-70 -4,-15 -5,-16 -5,-17 -1,-1 -2,-2 0,-4z"/>
  <path class="fil5" d="M3845 6327c10,-6 31,-20 44,-29 13,-9 18,-12 21,-15 2,-2 2,-2 -2,-9 -5,-7 -13,-20 -27,-44 -15,-25 -37,-60 -58,-94 -20,-33 -40,-65 -58,-94 -17,-29 -33,-55 -46,-77 -13,-22 -23,-39 -35,-59 -12,-20 -25,-43 -41,-71 -15,-27 -32,-58 -44,-80 -11,-22 -17,-34 -20,-41 -4,-6 -4,-7 -10,-5 -6,2 -19,6 -37,13 -18,7 -43,17 -55,23 -12,5 -13,7 -12,10 0,4 2,8 15,30 13,21 39,59 61,92 22,34 40,63 58,91 18,27 36,54 51,78 16,25 30,46 45,70 15,24 32,49 44,68 12,19 21,32 34,51 12,20 29,47 39,64 11,17 16,24 19,29 2,4 3,5 14,-1z"/>
  <path class="fil3 str0" d="M3763 6226l72 108"/>
  <path class="fil3 str0" d="M3738 6399c115,-77 231,-155 316,-213 86,-58 142,-96 179,-130 38,-33 57,-61 102,-81 45,-21 116,-33 220,-56 104,-23 240,-58 303,-54 62,3 51,44 26,76 -26,32 -66,55 -126,78 -59,22 -138,44 -213,83 -74,40 -145,98 -180,128 -34,29 -32,30 14,13 47,-18 139,-54 195,-72 56,-18 77,-18 167,-20 90,-2 250,-6 334,-2 83,4 88,17 69,44 -20,27 -66,67 -134,91 -69,24 -161,31 -219,40 -58,9 -82,21 -172,65 -89,43 -244,119 -321,159 -78,39 -79,43 -56,40 23,-3 69,-12 132,-19 64,-7 145,-13 193,-14 47,-1 62,2 148,31 86,28 243,83 324,115 80,32 84,42 49,62 -34,20 -106,51 -185,53 -78,3 -164,-23 -242,-36 -77,-13 -147,-12 -219,7 -72,19 -147,56 -186,76 -40,19 -45,21 -41,27 3,6 15,15 64,37 50,21 138,55 226,96 89,41 177,90 227,128 51,38 63,65 33,81 -30,15 -102,20 -186,4 -84,-16 -181,-53 -256,-79 -75,-27 -128,-43 -178,-51 -49,-8 -95,-8 -116,-8 -21,0 -17,0 -75,35 -58,36 -177,106 -293,160 -116,53 -229,89 -407,111 -179,22 -422,28 -673,27 -250,-2 -509,-12 -767,-22"/>
 </g>
</svg>
