<?xml version="1.0" encoding="UTF-8"?>
<!DOCTYPE svg PUBLIC "-//W3C//DTD SVG 1.0//EN" "http://www.w3.org/TR/2001/REC-SVG-20010904/DTD/svg10.dtd">
<!-- Creator: CorelDRAW X8 -->
<svg xmlns="http://www.w3.org/2000/svg" xml:space="preserve" width="91.7223mm" height="91.7222mm" version="1.0" style="shape-rendering:geometricPrecision; text-rendering:geometricPrecision; image-rendering:optimizeQuality; fill-rule:evenodd; clip-rule:evenodd"
viewBox="0 0 9202 9202"
 xmlns:xlink="http://www.w3.org/1999/xlink">
 <defs>
  <style type="text/css">
   <![CDATA[
    .str0 {stroke:black;stroke-width:8.49704;stroke-linecap:round}
    .str2 {stroke:white;stroke-width:8.49704;stroke-linecap:round}
    .str1 {stroke:black;stroke-width:8.49704;stroke-linecap:round;stroke-linejoin:round}
    .str3 {stroke:white;stroke-width:8.49704;stroke-linecap:round;stroke-linejoin:round}
    .fil1 {fill:none}
    .fil0 {fill:#FEFEFE}
    .fil4 {fill:black}
    .fil5 {fill:#898989}
    .fil2 {fill:#D03730}
    .fil3 {fill:white}
   ]]>
  </style>
 </defs>
 <g id="Слой_x0020_1">
  <metadata id="CorelCorpID_0Corel-Layer"/>
  <rect class="fil0" width="9202" height="9202"/>
  <path class="fil1 str0" d="M1000 4892c-16,-103 -32,-205 -45,-258 -13,-54 -24,-58 -60,-122 -36,-64 -98,-188 -141,-287 -44,-99 -69,-173 -81,-209 -13,-37 -13,-37 -57,-68 -44,-31 -133,-93 -187,-140 -55,-46 -76,-77 -93,-138 -18,-61 -33,-153 -25,-197 7,-44 37,-41 65,-3 29,38 57,112 71,151 14,39 14,44 60,72 46,29 137,82 185,109 48,26 52,26 9,-92 -42,-119 -132,-357 -174,-491 -42,-134 -36,-165 -22,-174 14,-10 36,2 101,114 64,112 172,324 233,433 62,109 76,115 82,77 6,-38 3,-121 -18,-241 -20,-120 -59,-278 -70,-364 -11,-85 6,-98 27,-86 21,13 48,51 94,165 45,115 110,305 147,407 37,101 46,115 69,73 23,-42 59,-140 86,-190 26,-50 43,-53 97,-19 55,34 148,105 184,147 36,43 15,58 -24,55 -39,-3 -96,-24 -129,-34 -32,-10 -40,-10 -51,30 -12,41 -28,122 -36,167 -7,45 -6,54 19,93 25,39 73,108 100,145 26,37 32,41 60,30 27,-11 76,-37 100,-54 24,-16 24,-22 14,-75 -10,-53 -30,-153 -27,-201 3,-48 28,-44 64,15 36,59 83,173 104,236 22,62 17,74 -5,123 -23,48 -65,134 -115,200 -50,65 -109,111 -139,145 -30,34 -32,56 -21,105 11,49 35,124 59,200"/>
  <path class="fil1 str1" d="M4082 3261c17,-19 33,-39 50,-67 69,-114 95,-272 96,-409"/>
  <path class="fil1 str1" d="M5351 3255c-17,-19 -34,-39 -51,-67 -17,-28 -34,-65 -48,-106 -15,-42 -26,-88 -35,-137 -8,-49 -12,-102 -14,-145 -1,-43 1,-77 3,-111"/>
  <path class="fil2" d="M2905 6593c-110,108 -331,390 -530,574 -198,183 -375,269 -533,221 -158,-47 -296,-227 -473,-580 -176,-353 -390,-879 -463,-1175 -73,-296 -6,-362 3,-403 8,-40 -41,-56 -73,-99 -31,-44 -45,-115 -59,-176 -14,-60 -28,-109 44,-131 73,-22 232,-16 395,-52 162,-36 328,-113 421,-153 94,-40 114,-43 157,119 42,163 106,491 138,655 32,164 32,164 65,20 32,-145 97,-434 153,-657 56,-222 103,-378 172,-557 69,-178 161,-379 429,-518 268,-140 713,-218 956,-286 242,-68 283,-125 330,-180 47,-55 102,-107 152,-114 50,-8 97,30 174,68 77,38 185,75 308,82 122,8 260,-14 365,-52 105,-37 178,-90 209,-102 31,-13 21,14 140,81 118,68 365,177 627,247 262,69 539,98 855,311 315,212 669,607 1022,1064 352,457 703,976 878,1270 176,293 176,361 126,495 -50,135 -151,335 -369,602 -218,267 -554,600 -755,770 -200,169 -265,175 -313,172 -47,-3 -76,-14 -166,31 -90,46 -241,149 -314,188 -74,38 -71,11 -106,-108 -36,-120 -110,-332 -152,-473 -43,-142 -55,-213 -15,-279 40,-67 131,-128 200,-156 70,-29 117,-23 203,-127 85,-105 209,-320 266,-434 58,-113 49,-125 -118,-280 -166,-155 -491,-453 -653,-602 -162,-149 -162,-149 -152,328 11,476 31,1429 42,1918 10,490 10,516 -225,559 -234,43 -703,102 -1069,96 -365,-6 -628,-77 -963,-55 -334,22 -741,137 -964,135 -223,-3 -261,-124 -273,-517 -12,-392 3,-1055 11,-1420 7,-364 7,-429 -103,-320z"/>
  <path class="fil3" d="M5248 4065c1182,0 2141,959 2141,2142 0,271 -50,530 -142,768 -48,80 -99,158 -141,210 -86,104 -133,98 -203,127 -69,28 -160,89 -200,156 -40,66 -28,137 15,279l4 13c-384,365 -903,588 -1474,588 -1183,0 -2142,-958 -2142,-2141 0,-1183 959,-2142 2142,-2142z"/>
  <path class="fil4" d="M5597 1912c-2,-6 -5,-15 -12,-25 -7,-10 -17,-22 -29,-30 -11,-8 -24,-12 -37,-16 -13,-4 -25,-6 -32,-8 -7,-1 -7,-1 -8,9 -1,10 -2,31 -14,51 -12,20 -34,40 -52,46 -18,6 -32,-1 -45,-30 -13,-29 -26,-80 -52,-123 -25,-43 -64,-77 -133,-93 -70,-15 -170,-11 -248,-32 -79,-21 -135,-66 -164,-139 -28,-73 -30,-175 -51,-224 -21,-49 -63,-46 -92,-26 -29,20 -46,56 -72,115 -27,59 -63,140 -102,197 -38,57 -80,89 -138,127 -58,39 -133,83 -162,129 -29,46 -12,93 -11,116 0,23 -17,21 -43,6 -27,-14 -64,-42 -87,-68 -23,-26 -33,-50 -44,-61 -10,-11 -22,-8 -34,-2 -12,6 -23,16 -30,31 -8,16 -12,37 -14,52 -2,15 -2,23 -27,15 -24,-8 -74,-33 -113,-84 -40,-51 -69,-129 -79,-195 -10,-67 -1,-122 -10,-175 -9,-52 -37,-102 -39,-152 -2,-50 23,-99 52,-137 29,-38 63,-63 67,-82 5,-19 -20,-31 -20,-48 0,-17 26,-39 52,-68 26,-30 52,-67 84,-125 32,-57 70,-136 119,-195 48,-59 107,-98 181,-119 74,-20 162,-21 232,-20 69,1 119,5 176,-14 57,-18 120,-59 188,-84 68,-25 140,-35 218,-13 78,22 162,75 240,122 79,47 151,87 236,139 85,51 183,114 239,189 56,75 70,163 88,238 18,75 41,137 69,178 29,42 64,64 78,77 14,14 6,20 -21,24 -27,5 -73,8 -94,12 -21,4 -17,9 -14,49 3,39 6,114 -2,174 -8,61 -27,107 -53,153 -26,45 -60,89 -83,115 -24,25 -38,32 -46,33 -8,1 -9,-3 -12,-9zm-144 305c-8,34 -26,102 -53,154 -27,52 -63,88 -81,106 -17,18 -17,18 -14,9 3,-10 10,-29 16,-50 7,-21 14,-44 22,-74 8,-31 18,-68 24,-94 6,-25 8,-39 9,-46 2,-6 2,-5 6,-6 3,-1 10,-2 22,-7 11,-4 27,-11 37,-16 10,-5 14,-8 16,-9 3,-1 5,-2 -4,33z"/>
  <path class="fil1 str1" d="M5474 1833c109,12 152,88 127,185 -12,44 -32,76 -64,109 -43,43 -95,70 -159,92m22 -105c-63,312 -122,573 -393,799 -228,190 -422,190 -650,0 -175,-147 -261,-307 -318,-488 -22,-71 -46,-158 -66,-245 -24,-108 -49,-248 -47,-361m1497 222c20,-31 43,-50 81,-61"/>
  <path class="fil1 str2" d="M4512 1025c-4,-168 64,-345 257,-398m682 1067c23,33 36,72 29,119m-440 -524c26,119 133,238 296,225"/>
  <path class="fil1 str0" d="M1326 4072c-24,21 -49,42 -64,79 -16,37 -22,89 -29,142"/>
  <path class="fil1 str1" d="M4747 4124c161,-38 328,-59 501,-59 510,0 979,179 1346,477m640 863c100,247 155,518 155,802 0,265 -48,519 -136,753m-1701 1367c-99,14 -201,21 -304,21 -1183,0 -2142,-958 -2142,-2141 0,-622 265,-1182 689,-1573"/>
  <path class="fil1 str1" d="M3992 3342c112,113 266,353 378,467 66,-109 222,-384 295,-513 59,165 149,419 200,546 196,-127 485,-400 681,-527"/>
  <path class="fil1 str0" d="M1975 5578c18,90 36,180 36,273 1,93 -15,189 -31,285"/>
  <path class="fil1 str0" d="M2168 6021c-41,-55 -83,-109 -110,-158 -28,-48 -42,-91 -56,-133"/>
  <path class="fil5" d="M3845 4596c-16,37 1,69 -15,109 -15,40 -61,89 -88,135 -26,45 -32,88 -51,126 -19,39 -51,74 -66,114 -14,40 -11,86 -13,145 -3,59 -11,130 -3,184 9,53 34,87 85,118 51,31 128,58 187,114 60,56 102,141 166,191 64,49 150,64 218,119 68,55 118,150 151,218 34,68 50,109 104,151 55,43 148,87 192,96 44,10 40,-15 26,-36 -14,-21 -39,-38 -56,-73 -18,-35 -29,-88 -43,-127 -14,-39 -30,-63 -26,-93 4,-29 29,-62 58,-82 29,-20 62,-27 83,-44 20,-17 27,-44 8,-63 -19,-19 -65,-31 -111,-55 -46,-25 -92,-62 -154,-85 -62,-22 -139,-30 -165,-83 -26,-53 -1,-150 47,-168 47,-18 117,45 185,44 67,-1 134,-65 167,-96 34,-32 34,-32 66,-38 32,-6 96,-18 151,-51 54,-33 98,-87 126,-149 28,-61 41,-131 96,-173 54,-43 150,-58 221,-83 70,-25 115,-60 144,-97 29,-37 42,-76 18,-95 -25,-19 -88,-18 -151,-49 -63,-30 -125,-92 -194,-117 -70,-25 -146,-14 -212,24 -65,37 -120,100 -186,120 -67,21 -145,-1 -197,-29 -52,-27 -76,-61 -70,-103 6,-43 42,-96 69,-150 27,-55 43,-113 43,-154 1,-42 -15,-67 -57,-70 -43,-3 -112,16 -224,59 -111,42 -265,109 -365,163 -101,54 -148,96 -164,133z"/>
  <path class="fil5" d="M5127 6011c0,-39 1,-74 25,-106 24,-33 70,-63 98,-95 28,-32 37,-65 58,-73 21,-8 54,7 90,16 36,9 75,11 96,42 21,32 24,93 -4,159 -28,65 -88,136 -129,178 -42,42 -66,57 -102,53 -36,-4 -83,-26 -107,-58 -24,-33 -25,-77 -25,-116z"/>
  <path class="fil5" d="M5723 6052c5,16 -5,48 -37,69 -32,20 -84,29 -130,28 -46,-1 -85,-13 -100,-27 -16,-15 -9,-32 14,-49 23,-17 62,-33 87,-56 25,-23 36,-53 50,-63 15,-11 33,-2 44,14 12,17 17,42 30,55 14,12 36,12 42,29z"/>
  <path class="fil5" d="M6634 4597c-51,8 -101,55 -123,113 -22,58 -17,126 8,176 24,50 67,83 77,138 10,56 -13,135 -8,193 5,59 39,98 84,114 45,16 101,9 155,31 54,22 105,73 148,73 42,0 74,-50 118,-65 43,-16 98,3 99,-43 1,-45 -51,-156 -128,-279 -77,-123 -178,-259 -254,-343 -76,-84 -126,-116 -176,-108z"/>
  <path class="fil5" d="M5425 7487c15,35 30,74 21,126 -10,53 -45,120 -76,184 -32,65 -60,127 -62,185 -3,58 21,112 67,127 47,15 117,-8 164,-60 47,-52 71,-133 139,-187 67,-55 177,-83 264,-111 87,-27 150,-53 187,-89 38,-36 50,-82 78,-118 29,-36 74,-63 97,-93 23,-31 23,-65 13,-105 -10,-39 -30,-83 -14,-135 15,-52 66,-113 101,-165 35,-52 53,-94 19,-127 -34,-32 -120,-55 -195,-111 -75,-56 -138,-145 -180,-205 -42,-60 -63,-90 -123,-97 -61,-7 -160,10 -259,-12 -100,-22 -201,-84 -288,-114 -86,-30 -159,-29 -202,-14 -42,15 -54,42 -53,85 1,43 15,102 -2,162 -16,61 -64,122 -98,193 -35,71 -57,151 -42,233 15,83 66,168 139,227 73,60 167,94 222,125 54,32 68,62 83,96z"/>
  <path class="fil4" d="M5274 3736c-38,-66 -97,-179 -102,-310 -5,-132 44,-281 85,-419 40,-138 71,-264 134,-269 62,-5 158,112 206,252 48,139 49,302 0,447 -50,146 -150,274 -208,328 -59,55 -76,37 -115,-29z"/>
  <path class="fil4" d="M5500 3927c71,27 192,68 323,51 130,-16 269,-90 399,-152 129,-62 249,-113 244,-176 -5,-62 -136,-137 -282,-162 -146,-25 -307,0 -442,73 -135,72 -245,191 -290,258 -44,67 -24,81 48,108z"/>
  <path class="fil1 str3" d="M5411 3229c-33,300 -60,567 -178,849 -34,82 -59,125 -84,169m1154 -590c-472,63 -787,81 -1099,485"/>
  <path class="fil3" d="M6897 8312c-8,8 -24,21 -46,40 -24,20 -57,46 -88,67 -31,21 -60,38 -89,53 -30,15 -61,28 -92,41 -31,12 -62,24 -94,35 -31,11 -63,22 -98,34 -35,11 -73,24 -117,40 -43,15 -90,32 -134,48 -44,16 -85,30 -121,43 -36,13 -67,23 -96,32 -30,10 -57,17 -77,22 -20,5 -33,7 -44,7 -11,1 -20,-1 -25,-4 -6,-2 -8,-7 -7,-12 1,-6 4,-14 14,-26 10,-11 26,-28 61,-55 35,-28 87,-67 118,-91 31,-24 40,-32 45,-38 4,-5 4,-7 3,-7 -1,-1 -4,-1 -18,4 -13,4 -36,12 -68,24 -32,13 -73,30 -109,45 -36,15 -68,28 -103,42 -36,15 -76,30 -111,43 -36,13 -69,24 -95,32 -27,7 -48,11 -62,13 -15,2 -23,2 -29,0 -5,-2 -8,-6 -8,-12 0,-5 3,-12 11,-22 9,-10 24,-23 44,-39 21,-15 47,-34 81,-56 35,-21 76,-46 120,-72 43,-25 88,-51 124,-72 36,-20 63,-35 81,-46 17,-10 25,-15 28,-19 3,-3 1,-5 -6,-5 -8,0 -22,2 -66,13 -44,10 -118,28 -187,45 -69,17 -132,32 -184,44 -51,11 -90,19 -120,24 -31,4 -53,7 -69,6 -16,0 -26,-4 -31,-7 -6,-2 -7,-4 -6,-8 1,-4 3,-9 9,-16 6,-7 14,-16 42,-33 28,-18 74,-44 126,-70 51,-26 107,-52 160,-77 53,-24 103,-47 140,-64 37,-17 62,-28 74,-35 13,-6 13,-8 2,-7 -12,1 -35,5 -70,10 -35,6 -81,14 -129,22 -49,7 -101,16 -153,22 -52,6 -104,11 -136,13 -33,2 -46,2 -55,-1 -10,-3 -16,-9 -17,-16 -1,-8 3,-17 12,-27 10,-10 24,-22 51,-37 26,-14 63,-31 111,-49 48,-18 106,-38 156,-55 50,-17 92,-31 136,-47 44,-15 91,-32 135,-49 45,-18 87,-35 130,-54 43,-19 87,-41 121,-58 34,-17 58,-30 81,-43 23,-13 44,-25 55,-34 11,-9 12,-13 11,-17 0,-3 -2,-5 -24,-9 -21,-4 -61,-10 -96,-16 -35,-6 -65,-13 -91,-21 -27,-9 -50,-19 -83,-38 -33,-18 -76,-45 -108,-70 -33,-24 -54,-47 -70,-65 -16,-17 -27,-30 -34,-42 -7,-12 -11,-24 -11,-33 -1,-9 2,-15 8,-19 6,-5 14,-8 30,-9 16,-2 38,-1 71,4 34,4 79,13 131,23 53,10 114,22 166,32 51,10 93,18 136,26 44,9 88,18 129,26 42,9 82,17 118,26 36,9 68,20 95,30 27,10 49,20 64,26 15,6 24,7 32,8 5,0 10,0 15,-1 6,22 13,46 21,73 42,141 116,353 152,473 12,41 20,71 27,92z"/>
  <path class="fil1 str1" d="M6692 7676c-7,0 -13,0 -19,-2 -31,-6 -56,-30 -156,-57 -99,-26 -273,-56 -427,-86 -153,-30 -286,-61 -347,-57 -61,3 -51,42 -5,95 46,53 127,121 214,160 88,39 183,49 232,57 49,7 54,11 -4,46 -57,35 -177,100 -337,162 -160,63 -360,123 -475,169 -115,46 -145,77 -149,97 -5,21 16,31 120,21 104,-10 291,-41 385,-57 94,-15 94,-15 -11,31 -105,47 -314,140 -416,201 -102,61 -96,90 24,73 121,-16 355,-80 477,-110 121,-30 130,-27 46,21 -84,49 -261,143 -356,210 -95,68 -108,107 -31,93 77,-14 246,-82 351,-125 105,-44 148,-63 177,-72 29,-10 43,-10 -1,25 -44,35 -147,104 -191,150 -44,46 -30,68 65,44 95,-24 271,-93 423,-146 151,-53 280,-90 379,-139 96,-47 165,-105 233,-163"/>
  <path class="fil1 str0" d="M7434 6620c73,-67 145,-134 245,-189 100,-54 227,-96 355,-138"/>
  <path class="fil1 str0" d="M7673 6139c-56,68 -112,136 -152,217 -40,80 -63,172 -87,264"/>
  <path class="fil1 str0" d="M7340 8093c-17,-101 -33,-202 -75,-315 -42,-113 -108,-239 -175,-364"/>
  <path class="fil1 str0" d="M948 5196c112,-15 224,-30 336,-61 112,-31 224,-78 336,-125"/>
 </g>
</svg>
