<?xml version="1.0" encoding="UTF-8"?>
<!DOCTYPE svg PUBLIC "-//W3C//DTD SVG 1.0//EN" "http://www.w3.org/TR/2001/REC-SVG-20010904/DTD/svg10.dtd">
<!-- Creator: CorelDRAW X8 -->
<svg xmlns="http://www.w3.org/2000/svg" xml:space="preserve" width="91.7223mm" height="91.7222mm" version="1.0" style="shape-rendering:geometricPrecision; text-rendering:geometricPrecision; image-rendering:optimizeQuality; fill-rule:evenodd; clip-rule:evenodd"
viewBox="0 0 9202 9202"
 xmlns:xlink="http://www.w3.org/1999/xlink">
 <defs>
  <style type="text/css">
   <![CDATA[
    .str3 {stroke:black;stroke-width:8.49704;stroke-linejoin:round}
    .str1 {stroke:black;stroke-width:8.49704;stroke-linecap:round}
    .str2 {stroke:white;stroke-width:8.49704;stroke-linecap:round}
    .str0 {stroke:black;stroke-width:8.49704;stroke-linecap:round;stroke-linejoin:round}
    .fil3 {fill:none}
    .fil0 {fill:#FEFEFE}
    .fil4 {fill:black}
    .fil2 {fill:#898989}
    .fil1 {fill:#D03730}
    .fil6 {fill:white}
    .fil7 {fill:black;fill-rule:nonzero}
    .fil8 {fill:#D03730;fill-rule:nonzero}
    .fil5 {fill:#FEFEFE}
   ]]>
  </style>
 </defs>
 <g id="Слой_x0020_1">
  <metadata id="CorelCorpID_0Corel-Layer"/>
  <rect class="fil0" width="9202" height="9202"/>
  <path class="fil1" d="M1470 2105c19,33 55,62 168,101 22,7 47,15 74,23l-1 -7c-15,-75 -19,-181 -1,-281 6,-35 14,-70 27,-103 -97,43 -171,94 -216,133 -71,64 -70,101 -51,134zm1547 144c11,-2 26,-6 44,-11 7,-7 15,-17 22,-27 8,-12 15,-24 22,-34 7,-9 15,-15 21,-16 7,-2 12,0 19,3 6,3 13,7 19,11 6,4 11,8 15,13 3,2 5,5 7,7 22,-9 39,-20 49,-30 10,-11 19,-25 22,-51 2,-27 -3,-66 -28,-107 -24,-40 -67,-82 -171,-129 -21,-9 -43,-18 -68,-27 45,75 53,151 52,218 0,71 -10,130 -25,180z"/>
  <path class="fil2" d="M4078 6375c-18,451 -15,1392 -15,1871 0,479 -3,497 -74,525 -71,28 -209,66 -523,47 -384,-23 -1174,-102 -1523,-82 -218,12 -445,97 -625,134 -181,37 -315,27 -430,-36 -115,-63 -211,-178 -244,-501 -67,-639 15,-1716 -46,-2478 -28,-349 -45,-602 -72,-886 -26,-284 -62,-599 -20,-833 42,-234 163,-387 386,-474 223,-87 547,-108 716,-123 169,-15 182,-25 221,27 39,51 102,163 216,237 113,74 275,109 416,93 142,-16 263,-84 342,-134 80,-50 118,-81 138,-97 19,-16 19,-16 137,6 118,22 354,65 516,102 162,36 251,66 391,262 140,196 331,559 519,877 187,319 370,593 464,730 95,137 100,137 283,-53 183,-190 543,-571 735,-764 191,-193 215,-199 262,-152 47,47 118,148 217,205 99,58 226,72 286,112 60,40 55,105 -150,395 -205,291 -609,807 -841,1100 -231,294 -290,365 -370,404 -80,40 -180,49 -310,-33 -130,-83 -289,-257 -445,-415 -156,-158 -310,-299 -406,-389 -95,-90 -134,-128 -151,323z"/>
  <path class="fil1" d="M1234 3575c16,50 69,139 113,222 45,83 80,161 102,224 23,62 32,110 48,197 16,87 38,214 71,397 32,184 75,425 113,647 38,221 72,422 92,548 17,105 25,156 33,223 137,51 346,126 514,185 192,67 332,114 453,153 121,40 224,71 330,102 106,31 215,62 300,86 86,24 146,41 217,61 71,19 152,42 197,56 46,13 56,16 64,20 8,4 14,8 18,14 3,7 5,14 6,27 0,12 0,30 -1,56 -2,26 -4,60 -8,93 -3,33 -7,65 -14,102 -7,37 -16,79 -25,113 -8,33 -16,58 -26,84 -10,26 -22,52 -32,74 -11,21 -20,37 -31,54 -11,17 -24,35 -38,53 -14,17 -29,34 -40,44 -10,10 -16,15 -22,18 -6,4 -12,6 -28,7 -15,1 -41,-1 -73,-4 -31,-3 -69,-8 -124,-17 -55,-9 -128,-22 -199,-35 -71,-13 -142,-27 -215,-41 -74,-15 -150,-30 -242,-49 -91,-19 -198,-42 -334,-71 -135,-30 -300,-67 -430,-97 -130,-31 -224,-55 -286,-72 -63,-17 -93,-27 -131,-39 -39,-13 -85,-27 -128,-44 -43,-16 -84,-35 -120,-56 -37,-20 -69,-42 -101,-67 -31,-25 -62,-53 -84,-75 -118,-4 -238,-19 -335,-23 -120,-5 -224,-7 -239,126 -39,358 -2,1765 72,1921 156,329 951,81 1213,40 201,-31 375,-31 606,-16 299,18 1515,225 1652,-93 26,-60 26,-113 23,-539 -2,-427 -8,-1226 -28,-1846 -20,-619 -56,-1058 -113,-1460 -56,-401 -134,-766 -180,-952 -46,-185 -60,-192 -188,-222 -127,-29 -368,-80 -493,-105 -126,-25 -137,-23 -143,-9 -7,15 -9,41 -81,395 -72,354 -212,1035 -286,1376 -74,340 -81,340 -150,148 -69,-192 -200,-576 -323,-932 -123,-356 -237,-683 -307,-866 -70,-182 -95,-219 -118,-237 -24,-18 -45,-18 -122,-12 -77,6 -210,19 -281,26 -72,7 -83,8 -98,16 -16,7 -36,20 -20,71z"/>
  <path class="fil3 str0" d="M3087 2148c30,5 61,11 85,32 40,35 49,89 40,140 -9,55 -41,107 -82,144 -36,32 -77,53 -127,72m-1369 -388c-31,5 -62,11 -85,32 -40,35 -50,89 -41,140 10,55 42,107 83,144 35,31 75,52 124,71m-39 -177c-21,-35 -36,-56 -78,-64m1447 64c20,-35 36,-56 78,-64m-99 136c-59,312 -114,573 -364,799 -210,190 -389,190 -600,0 -249,-225 -304,-483 -364,-799"/>
  <path class="fil3 str1" d="M1887 3024c4,105 7,210 0,287 -8,77 -28,151 -92,200"/>
  <path class="fil3 str1" d="M2855 2986c-6,149 -13,298 -12,396 2,98 11,146 31,182 21,36 53,61 86,85"/>
  <path class="fil4" d="M1707 2323c-52,-29 -158,-108 -203,-260 -44,-152 -26,-377 50,-562 77,-186 213,-332 376,-412 163,-81 353,-96 480,-80 127,17 190,65 260,95 69,30 145,41 233,88 87,46 186,128 244,251 59,124 78,289 72,417 -5,128 -34,218 -73,289 -40,70 -90,120 -129,155 -39,35 -68,54 -75,21 -6,-33 10,-119 9,-189 -2,-70 -21,-125 -67,-158 -47,-34 -120,-46 -180,-63 -60,-16 -105,-37 -140,-81 -34,-44 -57,-112 -86,-167 -29,-55 -65,-97 -117,-113 -52,-17 -120,-7 -183,19 -63,26 -121,69 -161,125 -41,56 -64,125 -105,172 -40,47 -98,71 -123,104 -25,32 -18,73 -17,130 0,58 -7,132 -10,180 -3,47 -2,68 -55,39z"/>
  <path class="fil3 str2" d="M2245 1427c46,-47 91,-95 135,-116 44,-20 86,-14 127,20 42,33 82,95 130,144 47,50 101,88 167,104 67,16 145,11 223,6"/>
  <path class="fil1" d="M1475 1793c0,-1 0,-1 9,-68 50,-352 256,-725 654,-865 47,-17 47,-17 47,-17 13,-42 8,-59 74,-60 55,0 166,-1 222,-2 76,-1 77,31 78,54 400,119 667,608 664,965 0,10 -1,15 4,21 138,97 113,261 6,346 -218,-509 -1488,-399 -1761,-58 -38,-26 -179,-188 3,-316z"/>
  <path class="fil3 str1" d="M2183 873c36,84 44,180 43,258m-682 653c540,-191 1236,-176 1623,17m-610 -956c-26,57 -53,204 -52,284"/>
  <path class="fil3 str0" d="M3559 3934c-21,868 -80,1678 -167,2525m-1723 -2774c226,866 384,1586 489,2418m966 -2222c-79,827 -167,1625 -286,2438"/>
  <path class="fil5" d="M4031 7163l4075 1007c63,15 127,-24 143,-87l737 -2986c16,-63 -23,-128 -86,-143l-4075 -1007c-63,-15 -128,24 -143,87l-738 2986c-15,63 24,128 87,143z"/>
  <rect class="fil3 str3" transform="matrix(2.10893 0.520817 0.509731 -2.06404 3915.81 7134.83)" width="2041" height="1558" rx="56" ry="56"/>
  <rect class="fil3 str3" transform="matrix(1.78714 0.441349 0.44163 -1.78828 4423.83 7029.45)" width="2041" height="1558" rx="56" ry="56"/>
  <path class="fil3 str1" d="M5057 4464c1217,299 2433,598 3649,898"/>
  <path class="fil1" d="M5302 4448c18,4 38,-7 42,-26 5,-19 -7,-38 -26,-43 -18,-5 -38,7 -42,26 -5,19 7,38 26,43zm548 135c19,5 38,-7 43,-26 5,-19 -7,-38 -26,-42 -19,-5 -38,6 -42,25 -5,19 7,38 25,43zm-274 -68c19,5 38,-7 43,-25 4,-19 -7,-38 -26,-43 -19,-5 -38,7 -43,26 -4,19 7,38 26,42z"/>
  <path class="fil6" d="M8485 6842c-4,5 -13,14 -22,27 -8,12 -16,28 -20,41 -4,13 -6,24 -5,34 0,9 2,17 6,24 5,7 11,13 19,17 7,5 16,7 27,8 11,1 25,0 37,-2 12,-2 23,-5 35,-10 13,-4 27,-10 41,-18 14,-9 28,-20 40,-31 11,-11 20,-21 27,-32 8,-10 13,-21 18,-32 5,-12 10,-24 13,-37 3,-13 4,-27 4,-39 0,-13 -1,-25 -1,-32 -1,-7 -1,-10 1,-13 2,-4 6,-7 11,-13 6,-6 13,-13 20,-23 7,-10 14,-23 19,-34 6,-12 9,-24 10,-37 2,-13 3,-28 2,-43 0,-14 -2,-28 -3,-35 -1,-8 -1,-9 1,-13 3,-4 9,-12 14,-21 5,-10 10,-21 14,-34 3,-14 5,-30 5,-48 -1,-18 -3,-38 -7,-58 -4,-20 -10,-40 -12,-52 -2,-11 -1,-14 1,-20 3,-7 8,-16 11,-27 4,-11 6,-23 6,-37 0,-14 -4,-30 -8,-43 -4,-14 -9,-25 -15,-36 -6,-10 -13,-20 -20,-26 -6,-6 -13,-8 -18,-8 -4,-1 -8,0 -11,6 -3,7 -7,19 -11,32 -4,12 -9,25 -15,38 -7,12 -14,23 -21,33 -7,9 -14,18 -24,28 -11,10 -24,22 -37,34 -14,12 -26,25 -36,38 -9,12 -16,24 -20,36 -5,13 -7,27 -6,38 1,12 6,22 11,29 5,6 10,9 17,10 6,0 14,-2 18,-3 5,-1 8,-2 6,1 -2,4 -8,12 -16,22 -8,11 -19,24 -28,37 -9,13 -17,25 -24,38 -7,14 -13,29 -15,40 -3,11 -3,19 -2,26 2,6 5,11 9,15 3,3 8,6 12,7 4,2 7,3 8,5 1,1 -1,3 -9,11 -8,8 -22,23 -34,36 -11,13 -20,25 -27,36 -6,11 -10,20 -14,30 -3,9 -6,19 -6,28 0,9 3,18 6,25 4,7 8,12 12,15 3,3 5,5 7,5 2,1 3,2 -1,7z"/>
  <path class="fil3 str0" d="M8717 6167c-5,20 -14,52 -42,86 -29,34 -79,69 -102,102 -23,33 -21,63 -14,83 7,20 19,30 52,17 33,-13 87,-50 124,-85 37,-34 57,-66 62,-101 4,-35 -8,-73 -22,-97 -14,-24 -31,-34 -40,-35 -9,0 -12,9 -18,30z"/>
  <path class="fil3 str0" d="M8611 6455c-24,30 -48,60 -66,91 -17,30 -29,61 -23,80 5,19 28,27 77,14 49,-13 126,-46 164,-88 37,-42 37,-93 33,-132 -5,-39 -13,-67 -21,-95"/>
  <path class="fil3 str0" d="M8556 6646c-26,25 -52,49 -70,77 -18,27 -28,57 -23,82 4,24 24,43 72,32 47,-11 123,-52 168,-90 44,-38 59,-73 64,-105 5,-32 0,-61 -4,-90"/>
  <path class="fil3 str0" d="M8490 6837c-12,12 -24,24 -35,45 -12,21 -22,52 -15,76 7,24 33,42 75,37 41,-5 99,-33 135,-68 35,-35 48,-77 53,-109 5,-31 2,-51 0,-71"/>
  <path class="fil6" d="M3815 7230c3,-10 12,-30 23,-62 10,-32 23,-77 31,-112 8,-35 13,-60 17,-86 4,-25 7,-51 10,-74 2,-23 4,-43 5,-52 1,-9 1,-9 3,-8 3,0 7,0 19,0 11,0 29,0 50,-1 20,0 42,-2 65,-5 24,-3 49,-8 69,-13 20,-5 35,-10 48,-15 12,-4 23,-8 37,-16 15,-8 34,-20 52,-32 18,-12 36,-24 52,-36 17,-11 31,-21 48,-32 17,-12 35,-23 55,-33 21,-10 42,-19 67,-26 24,-7 51,-12 78,-16 27,-4 55,-7 84,-9 28,-3 57,-6 84,-8 26,-2 51,-4 75,-6 24,-2 48,-4 72,-7 23,-3 45,-5 66,-9 22,-3 42,-7 57,-9 15,-1 24,0 31,2 7,3 10,7 10,15 -1,8 -5,18 -17,31 -13,12 -34,26 -52,37 -18,12 -33,20 -52,28 -18,8 -40,16 -60,24 -21,8 -42,16 -61,23 -19,7 -36,13 -54,19 -18,6 -37,13 -47,17 -9,4 -10,5 -2,7 7,1 23,2 54,3 32,1 78,2 118,3 41,1 75,1 106,2 31,1 60,1 82,2 23,1 39,2 56,5 18,4 37,11 60,22 24,11 52,27 76,41 24,14 43,26 61,38 19,11 36,22 55,35 20,12 42,27 63,42 22,16 42,33 54,45 12,12 15,19 16,24 0,4 -3,7 -8,9 -6,2 -15,3 -27,3 -11,0 -26,-2 -45,-5 -18,-3 -41,-6 -70,-12 -29,-5 -63,-14 -93,-21 -30,-8 -57,-15 -80,-21 -24,-7 -44,-12 -64,-17 -20,-4 -40,-8 -59,-11 -18,-3 -35,-5 -50,-7 -16,-2 -29,-3 -45,-5 -17,-1 -38,-3 -57,-3 -19,-1 -38,-1 -52,-1 -15,0 -27,0 -33,0 -7,0 -9,1 -6,3 4,2 14,5 34,10 20,4 51,10 86,17 35,8 75,17 99,24 25,8 34,14 45,24 11,10 23,24 33,36 10,12 18,23 27,35 9,11 20,25 46,59 26,33 68,88 96,126 28,39 43,61 52,77 10,16 15,26 17,33 1,8 0,13 -3,15 -2,2 -7,2 -16,1 -8,-2 -21,-4 -37,-10 -17,-7 -38,-17 -58,-29 -20,-11 -39,-24 -62,-41 -23,-18 -49,-40 -76,-66 -27,-25 -54,-52 -71,-69 -17,-16 -23,-20 -32,-24 -9,-4 -20,-6 -56,-9 -35,-2 -95,-3 -128,-4 -33,-1 -40,-1 -43,-1 -4,1 -5,2 4,8 8,5 26,16 73,43 48,26 125,69 186,104 61,34 105,60 146,84 41,25 79,49 109,69 30,20 54,37 70,50 17,13 26,23 32,31 6,7 8,12 8,16 0,5 -3,9 -10,11 -7,3 -17,3 -33,2 -15,-2 -36,-6 -62,-14 -27,-8 -60,-21 -94,-37 -35,-17 -71,-38 -108,-58 -36,-20 -73,-40 -102,-54 -29,-13 -51,-21 -72,-28 -22,-7 -45,-14 -73,-19 -28,-5 -62,-9 -83,-11 -21,-2 -29,-2 -33,-1 -4,2 -5,5 -3,10 2,5 7,12 19,26 12,14 33,36 60,65 27,28 61,63 91,96 30,32 57,61 80,85 22,24 39,43 55,63 15,19 28,38 35,52 7,14 9,22 7,27 -1,6 -6,10 -12,12 -5,2 -13,3 -23,2 -11,-1 -25,-4 -42,-10 -18,-6 -39,-16 -65,-31 -26,-16 -57,-37 -89,-63 -33,-27 -67,-58 -97,-87 -30,-29 -57,-55 -81,-76 -23,-22 -45,-39 -60,-50 -14,-12 -23,-18 -32,-22 -9,-5 -20,-9 -40,-13 -21,-5 -50,-11 -71,-14 -21,-4 -33,-5 -66,-10 -33,-4 -86,-11 -130,-17 -43,-6 -76,-11 -106,-18 -30,-7 -57,-15 -84,-23 -27,-8 -53,-17 -76,-26 -23,-8 -43,-16 -64,-25 -21,-10 -42,-21 -58,-30 -15,-8 -25,-15 -30,-18 -5,-3 -5,-3 -6,-4 -1,0 -2,-1 2,-11z"/>
  <path class="fil3 str0" d="M3904 6836c87,-1 172,-3 247,-31 78,-29 145,-87 202,-126 58,-38 106,-56 195,-69 89,-12 218,-18 306,-28 88,-10 136,-25 157,-18 21,8 17,37 -29,69 -46,32 -134,65 -195,88 -61,22 -95,32 -111,38 -17,7 -17,9 49,11 66,1 198,3 275,4 78,0 102,0 181,43 80,43 216,128 270,175 54,46 27,54 -36,46 -63,-8 -161,-31 -228,-49 -68,-18 -104,-31 -170,-39 -66,-9 -162,-13 -208,-13 -46,-1 -44,1 1,11 45,10 132,28 179,38 47,10 53,12 105,76 53,64 151,190 199,259 47,69 42,81 12,76 -31,-5 -88,-28 -147,-71 -59,-44 -121,-108 -153,-141 -32,-32 -33,-32 -75,-34 -42,-1 -125,-4 -167,-7 -42,-2 -43,-5 70,58 113,63 341,190 450,264 109,74 100,94 67,97 -33,4 -89,-8 -165,-45 -75,-37 -170,-98 -257,-133 -86,-35 -163,-43 -203,-45 -41,-3 -44,0 13,60 57,61 173,179 239,256 66,76 82,112 58,122 -24,9 -87,-6 -164,-59 -77,-53 -167,-144 -228,-201 -60,-58 -92,-82 -147,-96 -56,-14 -135,-18 -227,-31 -93,-13 -199,-36 -282,-66 -70,-24 -123,-54 -174,-84"/>
  <path class="fil3 str0" d="M1631 5971l166 61m-637 725c-184,-211 -283,-431 -401,-684"/>
  <path class="fil7" d="M2414 1127l-16 197 86 18 -139 271 32 -216 -87 -7 124 -263z"/>
  <path class="fil8" d="M5703 4854l-731 698c-80,76 -43,210 65,235l1094 245c107,25 199,-81 159,-184l-362 -943c-36,-92 -154,-119 -225,-51z"/>
  <path class="fil7" d="M5802 5113l-83 268 113 53 -277 334 111 -292 -118 -36 254 -327z"/>
  <path class="fil3 str1" d="M5127 6603l2989 736m-1732 -1868l2051 505m-2119 -744l2171 534m-2080 -54l1982 488m-1926 -216l1868 460m-3198 -459l3113 766m-3168 -450l3096 762"/>
  <path class="fil3 str1" d="M1694 2387c95,63 249,154 363,164 42,3 63,-9 95,-46 32,-37 75,-99 100,-134 24,-34 30,-42 39,-46 18,-9 114,-7 130,2 10,5 15,13 38,49 23,35 64,98 95,137 30,38 51,51 93,49 111,-4 262,-85 361,-144"/>
 </g>
</svg>
