<?xml version="1.0" encoding="UTF-8"?>
<!DOCTYPE svg PUBLIC "-//W3C//DTD SVG 1.0//EN" "http://www.w3.org/TR/2001/REC-SVG-20010904/DTD/svg10.dtd">
<!-- Creator: CorelDRAW X8 -->
<svg xmlns="http://www.w3.org/2000/svg" xml:space="preserve" width="91.7223mm" height="91.7222mm" version="1.0" style="shape-rendering:geometricPrecision; text-rendering:geometricPrecision; image-rendering:optimizeQuality; fill-rule:evenodd; clip-rule:evenodd"
viewBox="0 0 9202 9202"
 xmlns:xlink="http://www.w3.org/1999/xlink">
 <defs>
  <style type="text/css">
   <![CDATA[
    .str2 {stroke:black;stroke-width:8.49704;stroke-linejoin:round}
    .str1 {stroke:black;stroke-width:8.49704;stroke-linecap:round}
    .str0 {stroke:black;stroke-width:8.49704;stroke-linecap:round;stroke-linejoin:round}
    .fil3 {fill:none}
    .fil0 {fill:#FEFEFE}
    .fil4 {fill:black}
    .fil1 {fill:#898989}
    .fil2 {fill:#D03730}
    .fil5 {fill:white}
   ]]>
  </style>
 </defs>
 <g id="Слой_x0020_1">
  <metadata id="CorelCorpID_0Corel-Layer"/>
  <rect class="fil0" width="9202" height="9202"/>
  <path class="fil1" d="M3556 3306c-32,15 -53,22 -170,66 -135,52 -398,156 -578,256 -180,99 -278,195 -488,477 -210,282 -533,750 -762,1097 -229,346 -364,569 -416,753 -62,218 10,600 248,663 16,-4 -97,-332 -65,-452 37,-140 168,-255 298,-288 131,-32 261,19 362,104 101,86 171,205 207,269 35,64 35,73 156,-73 120,-146 361,-447 487,-604 127,-157 138,-170 192,90 54,260 151,793 199,1092 47,298 45,362 9,621 -37,259 -108,712 -143,941 -35,229 -35,234 63,266 99,32 295,91 600,136 304,44 715,73 1097,52 381,-21 733,-92 961,-145 228,-53 331,-89 375,-122 43,-33 25,-64 -31,-359 -57,-296 -152,-855 -206,-1398 -54,-543 -68,-1070 -68,-1330 0,-259 14,-253 61,-146 48,108 130,316 249,478 120,163 277,280 444,314 594,122 811,-333 743,-828 -21,-153 -59,-261 -170,-381 -112,-119 -298,-249 -535,-435 -236,-186 -524,-427 -711,-599 -187,-171 -273,-273 -408,-324 -135,-50 -318,-50 -438,-48 -119,2 -175,6 -231,-32 -56,-39 -114,-121 -185,-173 -51,-38 -110,-60 -198,-71 222,1469 -956,587 -951,146 0,-4 2,-8 3,-13z"/>
  <path class="fil0" d="M6513 4834c47,-19 141,-57 211,-86 71,-29 117,-48 160,-66 43,-18 82,-34 122,-51 41,-16 83,-32 105,-41 22,-9 24,-9 25,-10 1,-1 1,-2 12,-23 10,-22 31,-65 51,-105 19,-41 38,-79 49,-102 11,-23 15,-31 17,-35 2,-4 2,-4 7,-4 4,1 14,1 24,1 10,1 22,1 27,1 6,1 6,1 4,14 -2,14 -6,41 -15,102 -9,60 -23,153 -32,218 -10,65 -16,103 -21,142 -6,40 -12,81 -18,117 -5,36 -9,66 -15,102 -5,36 -11,77 -17,122 -7,45 -14,95 -20,136 -6,42 -11,75 -15,101 -4,25 -7,42 -10,54 -4,13 -7,21 -11,27 -3,6 -7,10 -14,16 -7,5 -18,12 -34,22 -16,9 -39,21 -61,31 -22,10 -45,19 -68,26 -22,7 -46,14 -67,19 -22,5 -41,8 -65,12 -24,4 -52,7 -82,8 -30,0 -62,-4 -89,-9 -28,-4 -51,-10 -75,-19 -24,-8 -50,-19 -70,-29 -20,-9 -36,-17 -58,-34 -23,-16 -53,-42 -73,-62 -21,-20 -32,-35 -39,-48 -7,-14 -9,-27 -10,-42 -1,-15 -1,-31 1,-53 2,-22 6,-50 12,-79 6,-29 14,-59 31,-118 17,-59 43,-146 56,-190 13,-44 13,-44 14,-44 1,-1 3,-1 51,-21z"/>
  <path class="fil2" d="M2411 3974c-20,1 -18,-84 102,-200 120,-116 360,-263 500,-324 141,-61 182,-36 418,195 237,231 668,666 909,901 241,234 292,267 316,277 24,10 22,-3 70,-181 47,-178 144,-521 174,-757 30,-236 -7,-365 -9,-427 -1,-62 32,-56 168,-46 136,10 374,26 508,53 133,28 162,68 208,246 47,178 111,494 149,918 39,423 52,954 55,1345 2,390 -7,640 -3,774 5,134 23,152 79,314 56,162 151,470 203,663 52,194 61,274 -12,379 -73,105 -228,235 -387,301 -159,65 -323,65 -447,29 -123,-35 -208,-106 -264,-152 -56,-47 -85,-69 -96,-70 -11,-1 -5,19 -50,91 -45,72 -143,196 -282,265 -139,70 -321,85 -552,60 -231,-25 -512,-90 -702,-148 -190,-59 -289,-109 -335,-155 -47,-46 -40,-87 -5,-283 35,-196 98,-547 113,-830 14,-284 -22,-501 -70,-715 -49,-214 -110,-425 -135,-583 -24,-158 -10,-264 -15,-444 -4,-179 -26,-431 -85,-687 -58,-257 -153,-518 -229,-682 -76,-165 -133,-233 -183,-223 -49,9 -91,96 -111,96z"/>
  <path class="fil3 str0" d="M2801 3833c308,476 599,1322 761,2111"/>
  <path class="fil3 str0" d="M3679 4966c110,306 230,673 275,996"/>
  <path class="fil3 str0" d="M5118 3449c56,280 112,560 156,863 43,302 74,628 86,883 13,256 6,441 -1,627"/>
  <path class="fil3 str0" d="M5499 3533c55,296 110,593 145,917l0 6m45 745c2,53 2,101 2,144 0,221 -13,309 -26,397"/>
  <path class="fil3 str0" d="M3285 6485c584,26 2284,-217 2585,-311"/>
  <path class="fil3 str0" d="M3133 6081c147,-14 294,-28 441,-43m428 -33c249,-24 498,-47 722,-72 224,-25 423,-51 622,-78m347 -60c82,-8 159,-17 240,-32"/>
  <path class="fil3 str1" d="M4332 1231c86,50 172,101 233,188 62,88 99,213 115,305 17,92 14,152 26,230 12,79 40,177 51,274 12,97 6,193 -23,313 -29,120 -82,263 -133,359 -51,95 -99,142 -184,158 -85,17 -207,3 -324,-23 -118,-26 -231,-65 -320,-107 -88,-42 -151,-88 -215,-134"/>
  <path class="fil3 str1" d="M3179 2355c31,4 61,8 93,23 32,15 64,41 97,67"/>
  <path class="fil4" d="M4779 2417c19,42 55,132 70,237 14,105 7,225 -36,320 -42,95 -119,165 -175,203 -57,39 -93,46 -110,49 -18,4 -18,5 -27,-25 -9,-30 -28,-91 -36,-122 -8,-32 -5,-33 4,-38 10,-5 25,-14 39,-24 15,-11 27,-23 41,-40 13,-17 28,-38 42,-62 13,-23 26,-49 40,-78 13,-30 27,-63 42,-104 15,-41 31,-90 44,-136 13,-46 23,-89 30,-124 7,-35 10,-61 12,-77 2,-16 2,-21 20,21z"/>
  <path class="fil4" d="M3454 2696c50,55 147,162 232,278 84,116 156,241 194,375 38,133 43,274 21,386 -23,111 -71,191 -87,237 -15,46 3,57 27,136 25,79 57,227 36,367 -22,140 -97,274 -158,352 -62,77 -109,98 -122,90 -12,-9 11,-47 11,-129 0,-83 -23,-209 -84,-320 -61,-111 -161,-206 -231,-298 -69,-92 -109,-180 -128,-283 -20,-102 -19,-218 -19,-280 0,-63 -1,-71 -60,-48 -58,23 -173,77 -268,130 -94,53 -168,105 -200,111 -32,6 -21,-34 13,-106 35,-72 95,-174 183,-273 88,-99 204,-195 258,-278 54,-82 47,-153 43,-266 -4,-114 -4,-269 -4,-347 0,-77 1,-77 6,-68 6,8 17,23 29,37 11,14 24,26 38,38 14,12 30,24 47,34 16,11 34,20 55,30 21,9 46,19 66,25 20,6 34,10 43,12 8,2 10,4 59,58z"/>
  <path class="fil4" d="M3351 2178c49,-31 145,-93 241,-181 96,-88 191,-203 257,-293 66,-90 102,-156 123,-196 21,-41 28,-55 32,-74 5,-19 7,-42 -48,-28 -54,13 -166,63 -280,127 -115,63 -231,141 -316,213 -84,72 -136,139 -186,202 -49,64 -97,123 -123,175 -25,51 -29,94 -22,125 7,30 25,47 35,57 10,9 11,10 13,5 2,-6 6,-18 11,-31 6,-14 14,-29 24,-41 10,-12 22,-21 34,-28 13,-7 26,-12 40,-14 15,-1 31,-1 48,1 18,3 37,6 49,8 11,2 14,3 16,3 2,1 3,1 52,-30z"/>
  <path class="fil3 str1" d="M3304 2209c-49,-11 -98,-22 -140,-7 -42,15 -76,56 -86,103 -9,48 7,102 33,147 25,45 61,80 98,106 37,27 76,45 110,58 33,13 60,20 88,27"/>
  <path class="fil2" d="M3048 2327c-24,-12 -71,-51 -97,-100 -26,-49 -31,-106 -45,-168 -15,-62 -39,-129 -66,-204 -26,-76 -53,-161 -60,-264 -6,-103 10,-224 51,-333 42,-109 109,-206 175,-272 66,-65 130,-100 160,-132 31,-32 28,-62 41,-82 13,-20 43,-30 128,-59 84,-30 224,-80 306,-100 83,-20 110,-10 141,5 31,15 66,35 130,51 63,17 155,30 243,75 87,44 170,119 234,199 63,79 107,163 142,205 34,42 58,42 135,61 77,18 206,54 268,114 62,59 57,141 5,213 -51,72 -148,135 -202,168 -54,32 -64,33 -74,1 -10,-32 -20,-98 -34,-140 -14,-42 -33,-61 -75,-80 -42,-19 -107,-39 -215,-49 -107,-9 -256,-8 -418,59 -162,66 -337,197 -466,310 -128,113 -211,207 -271,277 -60,70 -98,115 -113,148 -15,33 -7,54 -3,73 4,19 4,36 -20,24z"/>
  <path class="fil3 str0" d="M6461 4855c-48,156 -96,313 -111,409 -14,97 5,133 59,181 55,48 146,108 251,128 105,20 224,0 311,-27 87,-27 141,-61 168,-81 26,-20 25,-26 52,-215 27,-190 83,-563 138,-936"/>
  <path class="fil3 str0" d="M6532 5851c209,94 786,46 766,-553m-927 -134c-127,118 -178,337 -113,476"/>
  <path class="fil3 str0" d="M1789 5428c110,30 219,60 309,105 90,46 161,108 212,168 52,60 83,117 100,161 17,44 19,73 21,103"/>
  <path class="fil3 str0" d="M4682 4868c296,930 380,2559 364,3254"/>
  <path class="fil5" d="M1280 6026c6,-10 17,-27 34,-45 17,-18 41,-38 65,-54 24,-16 49,-27 72,-36 23,-9 46,-15 72,-21 26,-5 56,-9 86,-10 30,0 59,2 88,6 30,3 59,8 88,16 30,9 58,21 84,31 25,11 47,21 71,35 23,13 48,31 70,48 22,16 42,32 64,53 22,21 46,48 65,71 20,24 35,44 55,72 19,29 42,65 64,98 21,34 40,66 57,95 17,30 34,58 47,82 14,24 25,44 38,66 12,21 25,43 39,67 14,24 29,49 48,77 19,28 41,60 62,88 22,29 44,55 66,78 21,23 41,42 69,66 28,23 63,50 100,76 37,26 75,51 97,64 21,14 25,16 27,17 2,2 2,2 28,2 27,-1 80,-1 111,-1 32,0 43,0 48,0 6,0 6,0 13,-5 7,-5 20,-15 36,-27 16,-13 35,-29 51,-43 16,-14 30,-26 38,-34l5 -5c2,37 3,75 4,114l11 0c2,0 4,0 7,1 10,0 30,0 54,1 25,1 54,3 76,4 21,2 35,4 52,8 18,5 40,11 66,21 26,10 57,22 101,40 43,18 99,42 157,66 58,24 118,50 162,68 45,19 74,31 91,40 18,9 24,15 27,20 2,4 1,8 -1,12 -1,3 -4,7 -13,15 -9,9 -24,22 -37,32 -13,9 -24,15 -34,19 -11,3 -22,6 -35,7 -13,1 -27,1 -45,-4 -18,-5 -38,-13 -57,-23 -18,-9 -35,-19 -50,-27 -15,-9 -28,-16 -36,-20 -9,-4 -14,-5 -28,-7 -15,-2 -39,-5 -62,-6 -22,-2 -42,-3 -52,-3 -11,-1 -12,0 -9,1 2,2 8,6 41,25 33,19 92,54 127,75 34,21 44,28 51,34 7,6 12,12 19,26 8,14 19,36 33,66 15,30 31,68 43,95 11,27 17,44 20,57 3,12 4,20 3,27 0,6 -1,12 -4,18 -3,6 -7,12 -15,16 -8,5 -20,7 -31,7 -12,-1 -23,-5 -35,-11 -11,-5 -22,-11 -33,-17 -11,-7 -22,-15 -35,-25 -12,-10 -27,-22 -43,-39 -17,-17 -35,-38 -47,-51 -12,-13 -17,-18 -25,-26 -9,-7 -22,-17 -44,-33 -22,-16 -53,-38 -80,-56 -27,-18 -49,-33 -61,-41 -11,-7 -12,-8 -6,-1 6,7 18,21 42,49 25,29 62,71 82,94 20,24 24,29 30,41 7,13 16,33 28,69 12,36 26,87 34,121 8,33 10,49 10,60 0,11 -2,18 -5,23 -4,5 -9,9 -18,12 -9,2 -21,4 -34,2 -13,-3 -26,-8 -39,-16 -12,-7 -23,-17 -34,-28 -11,-11 -21,-25 -33,-45 -12,-19 -26,-44 -37,-64 -10,-20 -18,-35 -22,-43 -5,-9 -7,-12 -12,-17 -5,-6 -13,-14 -31,-29 -18,-14 -45,-35 -72,-55 -27,-20 -52,-38 -69,-49 -16,-11 -23,-15 -25,-16 -3,-1 -1,1 19,23 19,23 57,66 82,95 25,30 38,46 46,56 9,11 12,15 16,23 3,8 6,19 11,43 5,24 12,62 18,95 6,33 11,62 13,84 3,22 4,36 4,46 0,10 -1,16 -4,22 -2,5 -5,9 -8,12 -3,3 -7,5 -11,6 -5,1 -11,1 -17,0 -6,-1 -12,-2 -20,-6 -8,-4 -19,-11 -27,-17 -7,-5 -13,-11 -19,-20 -7,-10 -15,-23 -21,-36 -6,-14 -10,-29 -16,-45 -6,-17 -13,-35 -18,-46 -6,-12 -8,-16 -15,-22 -7,-7 -19,-15 -42,-31 -23,-15 -57,-38 -84,-54 -26,-17 -45,-27 -59,-34 -13,-6 -21,-9 -28,-10 -7,-2 -13,-2 -26,-2 -12,0 -30,0 -53,-2 -23,-3 -51,-9 -78,-18 -26,-9 -51,-21 -72,-32 -21,-12 -40,-23 -59,-36 -18,-12 -38,-26 -61,-46 -23,-19 -49,-45 -71,-67 -22,-23 -40,-42 -51,-54 -11,-12 -14,-16 -17,-18 -2,-2 -4,-3 -28,-10 -24,-8 -70,-22 -106,-34 -35,-12 -61,-22 -87,-33 -26,-10 -53,-22 -84,-37 -31,-15 -65,-34 -97,-51 -31,-17 -59,-34 -88,-52 -28,-18 -57,-37 -97,-65 -40,-28 -90,-65 -132,-97 -41,-32 -74,-59 -108,-90 -34,-30 -71,-64 -110,-103 -39,-39 -80,-83 -110,-116 -30,-33 -49,-55 -68,-80 -20,-25 -41,-52 -63,-84 -21,-31 -44,-66 -63,-99 -20,-33 -36,-65 -49,-93 -13,-29 -24,-55 -32,-80 -9,-26 -17,-51 -22,-73 -4,-22 -6,-40 -8,-60 -1,-20 -1,-41 -1,-61 1,-21 2,-40 8,-62 6,-23 16,-48 21,-63 6,-14 7,-18 12,-27z"/>
  <path class="fil3 str0" d="M2591 7494c-117,-34 -234,-69 -398,-160 -164,-92 -374,-241 -550,-419 -979,-989 65,-1369 520,-767 110,146 216,357 304,499 88,142 157,215 228,274 71,58 143,102 215,147 171,-1 343,-3 440,2 97,4 120,14 225,58 104,44 290,121 384,162 95,40 98,44 86,60 -12,15 -38,42 -68,58 -29,15 -63,19 -101,9 -37,-11 -79,-36 -104,-52 -25,-15 -33,-22 -62,-26 -29,-5 -79,-7 -129,-9 80,45 159,90 199,116 40,26 41,32 60,72 19,41 56,115 74,164 17,49 15,71 -2,84 -18,13 -50,16 -89,-5 -40,-21 -88,-66 -115,-96 -27,-29 -34,-43 -73,-73 -39,-30 -110,-77 -181,-124 55,60 109,121 138,155 29,34 32,41 48,88 16,46 45,131 51,178 7,47 -10,57 -35,59 -25,2 -58,-3 -90,-35 -32,-32 -63,-91 -80,-126 -16,-35 -18,-46 -55,-77 -38,-31 -109,-82 -181,-133 51,60 101,121 131,154 30,34 39,41 49,79 10,38 22,107 31,162 9,55 15,97 -1,113 -16,17 -53,7 -80,-16 -27,-23 -43,-60 -53,-91 -10,-30 -15,-54 -25,-70 -11,-16 -27,-24 -64,-48 -36,-23 -93,-62 -126,-79 -33,-17 -43,-12 -74,-12 -32,0 -84,-6 -141,-29 -58,-24 -120,-65 -171,-109 -52,-44 -93,-91 -135,-137zm511 -427c28,-21 55,-41 83,-65 15,-13 31,-27 46,-42"/>
  <path class="fil0" d="M3893 996c-20,-15 -40,-30 -60,-44 24,1 48,3 72,4 -19,-52 -37,-103 -56,-155 31,46 62,91 93,136 13,-20 26,-40 39,-60 0,25 0,50 1,75 39,-12 78,-24 117,-35 -32,25 -65,49 -98,74 20,15 40,30 60,44 -24,-1 -48,-3 -72,-4 18,53 37,104 56,157 -31,-46 -62,-92 -92,-138 -13,20 -27,40 -40,60 0,-25 0,-50 0,-75 -39,12 -79,24 -118,35 33,-24 65,-49 98,-74z"/>
  <path class="fil3 str2" d="M3893 996c-20,-15 -40,-30 -60,-44 24,1 48,3 72,4 -19,-52 -37,-103 -56,-155 31,46 62,91 93,136 13,-20 26,-40 39,-60 0,25 0,50 1,75 39,-12 78,-24 117,-35 -32,25 -65,49 -98,74 20,15 40,30 60,44 -24,-1 -48,-3 -72,-4 18,53 37,104 56,157 -31,-46 -62,-92 -92,-138 -13,20 -27,40 -40,60 0,-25 0,-50 0,-75 -39,12 -79,24 -118,35 33,-24 65,-49 98,-74z"/>
  <ellipse class="fil2" transform="matrix(0.0364756 -0.0184487 0.0191433 0.037849 3947.13 993.465)" rx="1311" ry="1337"/>
  <ellipse class="fil3 str1" transform="matrix(0.0364756 -0.0184487 0.0191433 0.037849 3947.13 993.465)" rx="1311" ry="1337"/>
  <path class="fil5" d="M3924 1031c23,-11 45,-22 67,-34 -22,-15 -43,-29 -64,-44 -1,26 -2,52 -3,78z"/>
  <path class="fil1 str1" d="M3924 1031c23,-11 45,-22 67,-34 -22,-15 -43,-29 -64,-44 -1,26 -2,52 -3,78z"/>
  <path class="fil3 str0" d="M3277 1671c137,-115 274,-230 427,-317 153,-86 323,-145 459,-170 136,-25 238,-16 341,-7"/>
  <path class="fil5" d="M7258 4318c-13,6 -43,20 -82,37 -39,18 -89,41 -127,59 -38,17 -65,30 -98,45 -33,15 -72,34 -107,50 -34,16 -64,30 -99,46 -35,16 -75,34 -109,49 -34,16 -60,29 -101,48 -40,19 -94,44 -150,69 -56,26 -113,52 -165,76 -52,24 -98,46 -130,61 -33,14 -51,23 -61,27 -10,5 -12,6 -13,6 -2,0 -2,-1 2,-11 3,-9 11,-28 23,-57 12,-29 28,-69 80,-194 52,-125 139,-335 203,-490 64,-155 105,-253 157,-379 52,-125 115,-277 159,-384 44,-107 69,-168 90,-218 20,-50 36,-87 49,-118 12,-30 22,-53 27,-66 4,-13 4,-15 2,-20 -2,-4 -6,-11 -10,-15 -4,-5 -9,-7 -16,-9 -8,-2 -18,-4 -25,-4 -7,0 -11,1 -13,1 -2,0 -2,0 -11,18 -8,17 -26,52 -46,93 -20,41 -44,87 -102,203 -57,116 -150,302 -229,461 -79,159 -145,291 -226,452 -80,162 -176,353 -234,470 -58,117 -79,159 -90,181 -11,21 -11,23 -14,23 -3,1 -8,1 -25,-1 -16,-2 -44,-8 -69,-13 -24,-6 -45,-12 -75,-23 -30,-11 -69,-28 -103,-46 -35,-17 -64,-37 -80,-48 -17,-12 -20,-16 -22,-17 -1,-2 -1,-2 7,-7 8,-6 24,-17 44,-30 20,-14 43,-30 73,-56 30,-25 67,-60 99,-93 33,-33 61,-65 86,-95 26,-30 49,-59 73,-90 24,-32 49,-66 76,-104 27,-38 57,-80 87,-125 31,-45 63,-92 94,-140 31,-48 62,-96 117,-182 54,-85 132,-209 196,-312 65,-104 117,-188 169,-273 51,-84 102,-169 130,-214 27,-44 30,-48 32,-50 2,-2 3,-2 36,-12 33,-10 99,-30 182,-55 83,-26 184,-56 259,-79 76,-23 127,-39 176,-54 50,-15 98,-29 147,-44 49,-15 99,-30 164,-50 64,-20 144,-44 216,-66 71,-22 134,-42 183,-57 50,-15 86,-25 104,-30 19,-5 19,-6 18,-3 -1,3 -4,10 -19,40 -14,30 -41,84 -95,196 -55,112 -137,281 -198,406 -61,125 -101,206 -127,261 -27,55 -41,84 -51,103 -9,20 -14,30 -16,35 -3,6 -5,7 -18,15 -13,9 -39,25 -60,37 -22,12 -40,20 -55,25 -15,6 -27,9 -43,10 -15,2 -34,3 -55,4 -20,0 -42,-1 -63,1 -20,1 -39,5 -57,9 -17,4 -33,9 -49,16 -16,8 -31,19 -43,29 -12,10 -20,20 -27,29 -6,10 -11,19 -12,26 -2,8 -1,14 2,19 3,6 9,10 9,13 1,2 -4,1 -14,0 -10,-1 -25,-3 -39,-4 -15,0 -28,1 -40,3 -11,1 -20,3 -31,6 -11,3 -23,8 -34,13 -11,6 -20,12 -27,19 -8,6 -13,13 -19,20 -6,7 -13,15 -18,26 -6,10 -10,23 -12,34 -2,12 -1,20 1,26 2,6 4,9 5,11 1,2 0,3 -5,7 -5,4 -13,11 -20,17 -7,7 -13,13 -16,21 -4,7 -6,16 -6,24 0,7 1,15 4,23 4,8 9,17 16,25 7,7 14,14 25,21 10,8 24,17 46,27 23,11 55,23 71,29 16,6 16,7 14,8 -1,2 -5,4 -12,9 -8,5 -19,13 -27,22 -8,9 -13,19 -16,27 -3,9 -5,16 -2,26 2,10 9,22 18,34 9,13 21,26 33,37 13,11 26,21 41,29 15,9 31,16 49,23 17,6 37,10 50,13 13,2 19,2 23,2 3,0 5,0 -9,7z"/>
  <path class="fil0" d="M7107 4089c-5,3 -12,9 -19,16 -8,6 -14,12 -20,18 -5,6 -8,13 -12,20 -3,8 -5,16 -4,25 1,10 6,20 11,29 5,8 10,15 21,26 11,10 28,25 44,36 16,12 31,21 48,28 16,8 34,14 54,19 20,4 43,5 65,6 22,1 44,1 70,0 27,-1 58,-3 85,-5 27,-3 49,-6 70,-10 21,-5 41,-12 56,-18 16,-7 27,-14 37,-21 10,-7 19,-14 26,-22 7,-8 14,-17 19,-28 6,-10 11,-22 14,-34 3,-12 5,-24 5,-35 1,-10 0,-20 0,-27 -1,-7 -1,-11 1,-15 2,-4 6,-9 15,-16 9,-6 22,-15 34,-25 11,-9 20,-18 28,-29 9,-10 16,-22 21,-36 5,-15 8,-33 10,-49 3,-16 4,-30 7,-44 3,-14 7,-28 12,-46 6,-18 13,-40 19,-63 7,-23 12,-47 15,-69 2,-22 3,-42 1,-62 -2,-20 -6,-39 -12,-60 -5,-20 -13,-41 -23,-64 -10,-24 -22,-50 -34,-75 -13,-24 -25,-48 -31,-60 -5,-13 -5,-14 -10,-4 -4,9 -15,31 -24,50 -9,19 -17,35 -23,45 -5,10 -7,14 -8,16 -2,2 -2,2 -16,11 -14,8 -42,25 -65,38 -23,13 -42,23 -60,28 -19,6 -38,7 -64,8 -27,1 -61,2 -87,4 -27,2 -46,5 -66,10 -20,5 -40,13 -58,23 -17,11 -31,26 -41,37 -9,12 -14,21 -17,29 -3,8 -3,15 -2,20 1,5 3,9 5,12 3,3 5,5 4,6 -2,2 -8,3 -17,2 -9,-1 -22,-3 -35,-4 -14,0 -29,0 -41,1 -11,1 -20,2 -32,6 -11,4 -25,10 -37,17 -12,6 -22,13 -30,21 -8,7 -14,15 -20,24 -5,8 -9,16 -13,25 -3,9 -7,19 -9,27 -2,8 -2,15 0,20 1,6 4,10 6,13 2,3 3,3 2,5 -1,2 -5,4 -10,8 -6,4 -13,10 -20,17 -7,8 -13,18 -16,25 -3,7 -3,11 -3,17 0,6 0,13 3,21 3,8 8,17 14,25 7,7 15,14 30,24 14,9 34,20 58,31 23,11 49,21 62,25 13,5 11,5 7,7z"/>
  <path class="fil3" d="M7137 4580c42,-87 91,-181 133,-268 -417,191 -841,390 -1258,581 267,-644 533,-1288 800,-1932 -7,-35 -47,-41 -70,-34 -378,759 -757,1518 -1135,2276 510,-207 1020,-415 1530,-623z"/>
  <path class="fil3 str0" d="M7676 3506c171,-350 341,-700 512,-1050 -495,151 -991,301 -1486,451 -316,517 -633,1033 -847,1329 -215,295 -327,369 -440,443 98,81 267,145 378,152"/>
  <path class="fil3 str0" d="M7725 3681c-58,29 -115,58 -189,72 -73,14 -163,12 -229,5 -65,-7 -107,-20 -110,-48 -3,-27 34,-70 81,-93 47,-22 105,-25 150,-26 45,0 77,2 116,-12 40,-14 86,-44 132,-73m-21 400c-96,23 -192,45 -246,55 -54,9 -65,4 -125,-7 -60,-12 -169,-31 -232,-44 -62,-14 -79,-21 -79,-45 0,-24 17,-64 44,-91 27,-27 64,-39 98,-43 35,-5 67,0 100,4m399 370c-84,16 -168,31 -217,39 -49,8 -62,8 -131,-11 -69,-18 -193,-54 -261,-90 -67,-36 -78,-72 -71,-98 6,-24 27,-41 49,-57m751 -500c32,61 65,122 85,177 20,55 29,104 22,157 -7,53 -29,108 -40,142 -11,33 -10,44 -13,69 -3,25 -9,64 -30,93 -22,30 -58,50 -73,64 -14,13 -7,19 -7,41 1,22 -5,59 -25,89 -19,30 -53,51 -86,65 -34,13 -68,19 -119,23 -51,5 -118,8 -171,4 -52,-4 -90,-15 -127,-36 -37,-21 -74,-53 -89,-81 -15,-27 -9,-51 3,-68 13,-18 31,-29 50,-39"/>
  <path class="fil4" d="M7246 4357c-21,45 -65,134 -88,178 -22,45 -24,46 -25,46 -2,1 -4,2 -62,25 -58,24 -172,71 -292,120 -120,49 -246,100 -404,164 -158,65 -348,142 -478,195 -130,53 -202,83 -239,98 -38,15 -42,17 -44,17 -3,1 -4,0 -2,-5 2,-5 7,-14 32,-66 26,-51 72,-144 108,-215 35,-71 59,-120 82,-165 22,-44 42,-85 59,-119 17,-34 31,-62 125,-251 95,-189 269,-539 379,-759 109,-220 154,-310 190,-382 36,-72 63,-127 86,-173 24,-47 43,-85 54,-106 11,-22 14,-27 16,-30 2,-2 2,-2 7,-3 4,0 12,0 19,0 7,1 13,3 18,5 6,3 10,6 14,10 4,4 6,9 8,13 2,3 2,5 2,7 0,2 -1,4 -19,46 -17,43 -52,126 -107,260 -56,134 -132,319 -203,489 -70,170 -134,324 -203,492 -69,168 -144,349 -190,458 -45,110 -61,149 -69,168 -8,19 -8,19 -5,18 3,-1 9,-4 74,-34 66,-31 192,-89 373,-173 182,-83 418,-193 556,-257 137,-63 177,-81 202,-93 25,-11 35,-16 40,-19 6,-2 6,-2 6,-2 1,-1 2,-1 -20,43z"/>
 </g>
</svg>
