<?xml version="1.0" encoding="UTF-8"?>
<!DOCTYPE svg PUBLIC "-//W3C//DTD SVG 1.0//EN" "http://www.w3.org/TR/2001/REC-SVG-20010904/DTD/svg10.dtd">
<!-- Creator: CorelDRAW X8 -->
<svg xmlns="http://www.w3.org/2000/svg" xml:space="preserve" width="91.7223mm" height="91.7222mm" version="1.0" style="shape-rendering:geometricPrecision; text-rendering:geometricPrecision; image-rendering:optimizeQuality; fill-rule:evenodd; clip-rule:evenodd"
viewBox="0 0 9200 9200"
 xmlns:xlink="http://www.w3.org/1999/xlink">
 <defs>
  <style type="text/css">
   <![CDATA[
    .str2 {stroke:black;stroke-width:8.49581;stroke-linejoin:round}
    .str5 {stroke:#FEFEFE;stroke-width:8.49581;stroke-linecap:round}
    .str3 {stroke:black;stroke-width:8.49581;stroke-linecap:round}
    .str4 {stroke:#FEFEFE;stroke-width:8.49581;stroke-linecap:round;stroke-linejoin:round}
    .str0 {stroke:black;stroke-width:8.49581;stroke-linecap:round;stroke-linejoin:round}
    .str1 {stroke:#D03730;stroke-width:8.49581;stroke-linecap:round;stroke-linejoin:round}
    .fil2 {fill:none}
    .fil0 {fill:#FEFEFE}
    .fil4 {fill:black}
    .fil3 {fill:#898989}
    .fil1 {fill:#D03730}
   ]]>
  </style>
 </defs>
 <g id="Слой_x0020_1">
  <metadata id="CorelCorpID_0Corel-Layer"/>
  <rect class="fil0" width="9200" height="9200"/>
  <g id="_1971526462544">
   <path class="fil1" d="M3524 6358c37,-10 111,-28 195,-49 84,-20 178,-44 255,-63 77,-19 136,-35 190,-48 54,-13 101,-24 152,-36 50,-12 103,-25 146,-36 42,-11 74,-19 90,-23 16,-4 17,-4 29,-4 13,0 38,0 70,0 32,0 70,1 112,1 41,1 86,1 129,1 43,0 85,0 112,0 27,0 38,0 44,0 6,0 6,0 36,8 29,7 89,21 148,36 59,14 118,29 175,42 57,14 111,27 238,57 128,30 329,78 430,101 101,24 102,24 94,25 -8,0 -24,1 -122,2 -99,0 -279,0 -452,0 -173,0 -338,0 -620,-1 -281,0 -678,0 -922,0 -243,0 -332,0 -402,0 -69,0 -119,0 -144,-1 -25,0 -24,-1 -23,-2 1,0 2,-1 40,-10z"/>
   <path class="fil1" d="M2065 5415c1,0 1,0 240,0 239,0 715,-1 1053,-2 337,0 535,0 712,-1 177,0 334,0 499,0 165,-1 340,-1 522,-1 182,0 371,-1 533,-1 162,0 295,0 465,-1 170,0 377,0 564,0 188,-1 357,-1 490,-1 133,0 231,0 280,0 49,-1 49,-1 50,-11 0,-11 2,-33 5,-86 3,-54 7,-141 12,-221 4,-80 9,-154 13,-235 5,-82 10,-172 15,-257 4,-84 9,-164 14,-248 4,-84 9,-173 14,-261 5,-88 10,-176 13,-231 3,-55 4,-76 6,-103 2,-27 3,-61 5,-89 2,-27 3,-50 5,-95 3,-45 7,-112 10,-169 3,-57 6,-105 8,-151 3,-45 5,-89 9,-151 3,-61 8,-141 11,-203 4,-62 6,-107 7,-134 1,-26 1,-34 -1,-44 -1,-9 -3,-20 -10,-34 -6,-14 -17,-31 -30,-45 -12,-14 -26,-24 -40,-32 -13,-8 -25,-14 -44,-18 -19,-5 -45,-7 -108,-7 -62,-1 -161,0 -235,0 -73,1 -122,1 -233,1 -111,0 -285,0 -458,0 -173,1 -345,1 -647,1 -301,0 -733,1 -1052,1 -319,0 -525,1 -717,0 -192,0 -370,-1 -498,-1 -129,0 -207,1 -351,2 -143,1 -352,1 -527,1 -175,1 -316,1 -398,1 -83,0 -107,0 -126,1 -19,1 -33,3 -47,7 -14,4 -28,10 -40,17 -13,8 -24,16 -34,27 -10,10 -19,22 -27,33 -7,12 -13,23 -16,35 -3,12 -5,25 -5,47 0,22 1,54 7,237 7,184 18,519 28,830 11,310 20,595 28,807 7,213 12,353 15,467 4,114 7,202 9,251 2,48 2,57 2,61 0,5 0,6 0,6zm59 -2722c1789,-12 3578,-23 5367,-34 -50,890 -100,1779 -150,2669 -1717,6 -3434,11 -5152,17 -21,-884 -43,-1768 -65,-2652z"/>
   <path class="fil2 str0" d="M2143 2589l5311 -6c92,0 173,76 167,168l-155 2761c-5,92 -75,168 -168,168l-5062 0c-92,0 -164,-76 -168,-168l-93 -2755c-3,-92 76,-168 168,-168z"/>
   <path class="fil2 str0" d="M2065 5415c1803,-2 3605,-5 5407,-8"/>
   <path class="fil2 str0" d="M2124 2693c1789,-12 3578,-23 5367,-34 -50,890 -100,1779 -150,2669 -1717,6 -3434,11 -5152,17 -21,-884 -43,-1768 -65,-2652z"/>
   <path class="fil3" d="M1616 4645c-48,-220 -96,-440 -144,-660 237,-78 369,-108 617,-118 6,216 13,432 19,648 -205,17 -304,48 -492,130z"/>
   <path class="fil2 str0" d="M4500 5680c23,140 46,280 69,420m539 -420c-18,140 -36,281 -54,421m1138 269c-18,60 -39,122 -58,182 -726,0 -1880,0 -2606,-1 -19,-60 -39,-122 -58,-182 727,1 1996,0 2722,1z"/>
   <path class="fil2 str0" d="M5856 5558c478,2 957,3 1435,4 0,-30 0,-60 0,-90 -478,-1 -957,-3 -1435,-4 0,30 0,60 0,90zm1084 -87c0,30 0,60 0,89m-361 -90c0,30 0,60 0,90m-362 -91c0,30 0,60 0,89"/>
   <g>
    <path class="fil4" d="M7780 2773c281,83 563,166 844,249 14,-20 27,-40 41,-60 -334,-327 -669,-655 -1004,-983 -552,-180 -1103,-360 -1655,-541 -4,12 -9,24 -13,35 154,195 307,390 461,584 -105,175 -209,350 -314,525 273,481 931,704 1453,722 62,-177 125,-354 187,-531z"/>
    <path class="fil2 str1" d="M7290 2135c322,233 644,466 966,698 1,140 1,279 2,418m-42 214c29,5 70,5 92,0m26 -8c85,-66 40,-202 -69,-204 -115,-3 -161,145 -67,208 -112,263 -111,393 -126,673 72,0 144,1 215,2 6,-55 12,-111 18,-167 14,43 27,85 40,127 61,-14 122,-27 184,-40 -38,-255 -55,-377 -195,-599z"/>
   </g>
   <g>
    <path class="fil0" d="M1393 3494c222,-10 444,-20 666,-30 5,102 11,205 16,307 -224,12 -448,23 -672,35 -3,-104 -6,-208 -10,-312z"/>
    <path class="fil0 str2" d="M1393 3494c222,-10 444,-20 666,-30 5,102 11,205 16,307 -224,12 -448,23 -672,35 -3,-104 -6,-208 -10,-312z"/>
   </g>
   <path class="fil0" d="M2413 5341c-56,-1061 -112,-2122 -169,-3183 1272,-19 2543,-38 3815,-56 -62,1081 -123,2149 -185,3231 -672,2 -1344,4 -1921,6 -576,1 -1058,1 -1540,2z"/>
   <path class="fil2 str0" d="M2413 5344c-57,-1061 -112,-2125 -169,-3186 1272,-19 2543,-38 3815,-56 -62,1081 -123,2149 -185,3231 -672,2 -1344,4 -1921,6 -576,1 -1059,5 -1540,5zm449 -220c661,0 1322,0 1984,0m-1984 -158c915,0 1830,0 2746,0m-2743 -757c918,0 1836,0 2754,0m-677 -290c205,2 410,4 615,5m-2339 -2c196,0 393,0 589,0m-942 -198c659,-3 1319,-6 1978,-8m-1978 -88c659,0 1319,0 1978,0m-1984 -65c918,1 1836,2 2754,3m-2748 -82c916,-5 1832,-11 2748,-17m-652 -248c120,0 239,0 359,0m-364 -99c209,-1 417,-2 626,-3m-2362 51c201,0 401,0 601,0m-956 -197c575,-5 1149,-10 1724,-14m-1727 -77c574,-1 1148,-3 1721,-5m-1715 -65c818,-1 1636,-2 2455,-3m-2461 -90c820,1 1640,2 2461,3"/>
   <path class="fil2 str3" d="M5635 6811c21,110 24,181 -38,278m-31 37c396,158 792,316 1188,473"/>
   <path class="fil3" d="M5573 6750c597,-257 1194,-514 1791,-770 424,159 848,319 1272,479 32,155 29,224 4,380 -613,261 -1225,522 -1838,783 47,-170 10,-306 -36,-382 -398,-163 -796,-327 -1193,-490z"/>
   <path class="fil2 str3" d="M3117 6843c-18,94 -20,155 32,237m27 33c-338,134 -676,269 -1014,403"/>
   <path class="fil1" d="M3170 6791l-235 -101 -125 50c-74,30 -181,73 -262,106 -80,32 -134,54 -187,75 -53,21 -105,42 -133,53 -29,11 -33,13 -36,14 -2,1 -2,1 -4,-1 -80,-70 -90,-272 46,-343 87,-45 216,-87 312,-122l-905 -389c-362,137 -724,273 -1086,410 -28,132 -25,191 -3,324 523,223 1046,446 1569,669 -40,-146 -8,-262 31,-326 339,-140 679,-279 1018,-419z"/>
   <path class="fil2 str3" d="M3186 6297c-18,93 -20,154 32,237m27 32c-338,134 -707,285 -1045,419"/>
   <path class="fil4" d="M3239 6244c-509,-219 -1019,-438 -1529,-657 -362,136 -724,272 -1086,409 -28,133 -25,191 -3,324 523,223 1046,446 1569,669 -40,-146 -8,-261 31,-326 339,-140 679,-279 1018,-419z"/>
   <path class="fil1" d="M4717 7762c140,-99 281,-199 421,-298 1098,-482 1385,-608 2482,-1094 15,11 29,21 43,32 17,35 34,69 50,104 -2,22 -5,44 -8,67 -1095,480 -1379,604 -2474,1084 -171,35 -343,70 -514,105z"/>
   <path class="fil2 str4" d="M4831 7689c14,13 18,22 20,37m319 -67l35 -45 -89 -27 46 -76 -61 -11"/>
   <path class="fil2 str5" d="M5205 7614l2501 -1105m-2544 1002l2493 -1106"/>
  </g>
 </g>
</svg>
