<?xml version="1.0" encoding="UTF-8"?>
<!DOCTYPE svg PUBLIC "-//W3C//DTD SVG 1.0//EN" "http://www.w3.org/TR/2001/REC-SVG-20010904/DTD/svg10.dtd">
<!-- Creator: CorelDRAW X8 -->
<svg xmlns="http://www.w3.org/2000/svg" xml:space="preserve" width="91.7223mm" height="91.7222mm" version="1.0" style="shape-rendering:geometricPrecision; text-rendering:geometricPrecision; image-rendering:optimizeQuality; fill-rule:evenodd; clip-rule:evenodd"
viewBox="0 0 9200 9200"
 xmlns:xlink="http://www.w3.org/1999/xlink">
 <defs>
  <style type="text/css">
   <![CDATA[
    .str1 {stroke:#2B2A29;stroke-width:8.49581;stroke-linecap:round}
    .str2 {stroke:black;stroke-width:8.49581;stroke-linecap:round}
    .str0 {stroke:black;stroke-width:8.49581;stroke-linecap:round;stroke-linejoin:round}
    .fil3 {fill:none}
    .fil0 {fill:#FEFEFE}
    .fil1 {fill:black}
    .fil4 {fill:#898989}
    .fil2 {fill:#D03730}
   ]]>
  </style>
 </defs>
 <g id="Слой_x0020_1">
  <metadata id="CorelCorpID_0Corel-Layer"/>
  <rect class="fil0" width="9200" height="9200"/>
  <path class="fil1" d="M1864 2065c-8,94 -27,250 -60,414 -32,164 -78,336 -112,477 -34,140 -55,249 -87,373 -31,124 -72,263 -122,377 -51,114 -110,204 -104,276 5,72 75,125 197,115 121,-11 293,-86 407,-230 113,-143 167,-356 205,-509 38,-154 60,-247 75,-365 14,-118 21,-260 23,-332 3,-72 1,-73 -11,-75 -12,-2 -33,-5 -59,-15 -27,-9 -58,-25 -83,-42 -26,-18 -46,-38 -63,-57 -18,-20 -32,-40 -45,-66 -13,-26 -24,-58 -28,-88 -4,-29 -2,-56 2,-80 4,-24 10,-45 21,-63 10,-17 24,-31 41,-41 17,-10 37,-17 61,-19 25,-3 54,0 81,4 26,5 50,12 71,20 22,8 41,17 63,31 21,13 46,31 67,34 22,4 41,-6 62,-32 21,-26 45,-68 72,-121 27,-52 57,-116 102,-158 44,-42 103,-63 142,-96 39,-34 60,-81 90,-129 30,-49 70,-99 122,-130 52,-30 116,-40 162,-53 45,-13 71,-28 107,-39 35,-11 78,-18 109,-25 30,-6 47,-13 56,-17 8,-3 8,-3 24,4 16,6 47,20 99,64 52,45 124,120 142,114 17,-6 -20,-93 -75,-162 -56,-68 -130,-117 -252,-143 -123,-26 -293,-30 -458,-6 -164,25 -323,77 -485,166 -162,90 -328,217 -421,301 -94,83 -115,124 -124,160 -9,37 -6,69 -14,163z"/>
  <path class="fil2" d="M1771 2633c-159,-250 -134,-536 -174,-814 -174,-1217 1503,-1617 1920,-643 5,14 6,18 20,18 306,4 680,306 170,604 -2,-15 -4,-31 -6,-48 -5,-26 -10,-55 -18,-82 -9,-27 -20,-51 -32,-75 -13,-23 -28,-46 -42,-65 -11,-14 -22,-26 -30,-36 -79,-126 -197,-166 -339,-178 -442,-37 -1014,300 -1296,600 -37,39 -53,61 -61,76 -7,15 -7,23 -7,48 2,218 -53,384 -105,595z"/>
  <path class="fil3 str0" d="M3436 1401c42,18 84,37 127,75 43,39 88,97 115,176 26,79 36,178 38,266 2,88 -3,165 -5,265 -1,100 0,223 -19,340 -19,118 -58,229 -124,344 -65,114 -157,232 -230,295 -73,62 -127,69 -212,50 -85,-19 -201,-63 -304,-114 -102,-50 -191,-107 -262,-165 -70,-58 -122,-117 -174,-175m710 448c-3,93 -6,186 -9,279"/>
  <path class="fil3 str0" d="M2291 2591c-195,-25 -333,-204 -290,-376 22,-86 96,-112 176,-100 93,13 144,42 219,93m-257 63c93,3 164,50 201,113"/>
  <path class="fil3 str1" d="M2096 1589c404,-280 898,-410 1261,-373"/>
  <path class="fil4" d="M1233 5990c142,227 318,507 419,713 101,207 128,339 129,528 4,693 -86,922 -190,1523 -15,83 22,122 226,118 205,-4 577,-50 927,-32 351,19 680,102 987,133 308,30 594,6 781,-26 187,-32 274,-73 288,-274 14,-202 -47,-564 -109,-866 -62,-301 -127,-543 -199,-806l-2 -9c171,-25 349,-58 516,-101 108,-27 119,-41 103,-139 -17,-98 -91,-289 -148,-455 -145,-420 -477,-1935 -961,-2192 -194,-213 -766,-484 -912,-631 30,394 143,508 349,793 78,109 114,270 117,382 -329,-470 -611,-550 -825,-666 -136,-73 -306,-214 -400,-309 -94,-95 -126,-140 -169,-215 -215,110 -440,163 -695,257 -739,272 -841,996 -571,1657 88,217 197,390 339,617z"/>
  <path class="fil2" d="M1302 3694c56,-24 190,-57 326,-105 137,-47 275,-110 349,-139 74,-29 84,-25 136,67 53,93 148,274 318,425 171,151 416,271 600,385 184,114 307,221 413,406 106,185 196,448 248,568 53,119 68,96 56,-78 -13,-174 -54,-500 -121,-722 -67,-221 -161,-340 -234,-436 -73,-95 -125,-167 -161,-244 -36,-77 -56,-159 -77,-217 -21,-59 -44,-94 -27,-115 16,-20 72,-26 177,31 105,57 259,175 394,257 135,82 252,127 315,176 64,50 73,105 81,198 8,93 14,226 69,382 56,155 161,335 232,519 71,183 108,372 94,583 -13,210 -77,442 -86,632 -9,190 38,338 107,605 69,268 160,655 222,951 61,296 92,500 98,627 7,126 -12,174 -200,218 -188,44 -545,83 -871,73 -327,-11 -623,-71 -966,-109 -343,-38 -733,-54 -941,-78 -208,-24 -233,-57 -220,-203 13,-145 64,-403 87,-626 23,-223 17,-411 5,-554 -12,-142 -30,-240 -39,-296 -7,-48 -6,-67 58,-88 10,20 27,50 61,105 71,116 213,343 302,478 89,135 124,178 284,262 160,84 446,207 627,245 182,38 260,-9 339,-177 80,-168 162,-456 199,-617 36,-161 27,-194 -73,-239 -99,-46 -290,-105 -437,-187 -146,-82 -248,-188 -415,-465 -133,-219 -307,-547 -436,-785 -31,-70 -68,-140 -109,-217 -104,-196 -235,-441 -361,-673 -126,-232 -247,-450 -318,-575 -71,-126 -92,-159 -114,-183 -23,-25 -46,-40 9,-65z"/>
  <path class="fil3 str0" d="M2937 6502c525,43 808,76 1335,-22m-2673 -2785c313,602 522,763 951,1249 166,189 277,376 352,618 75,242 114,540 153,838m-1067 -2835c254,495 603,664 966,1044 434,454 723,1222 714,1844m106 -923c31,247 62,494 63,740 1,200 -19,399 -23,626m1 231c10,279 46,594 85,850 43,278 90,487 136,695m-769 -5106c104,284 267,383 414,642 220,387 311,842 315,1283 2,247 -8,578 -18,909m-232 -2493c67,173 152,317 228,490 88,200 215,535 260,782 55,300 -35,925 -40,1279"/>
  <path class="fil1" d="M5412 6544c-188,6 -376,11 -564,17 -515,185 -1030,370 -1545,555 680,-45 1361,-89 2041,-134 674,-216 1348,-432 2021,-649 324,-724 647,-1448 970,-2172 -709,132 -1417,264 -2126,397 -266,662 -532,1324 -797,1986z"/>
  <path class="fil0" d="M5017 6669c-34,24 -88,58 -180,90 -91,32 -219,61 -326,55 -108,-6 -193,-47 -234,-104 -41,-57 -37,-131 1,-192 38,-61 110,-111 172,-165 62,-55 114,-116 159,-156 45,-40 82,-60 140,-77 59,-17 140,-32 191,-22 50,9 70,43 87,61 17,18 31,20 48,14 17,-6 37,-21 60,-38 24,-18 51,-38 88,-48 36,-11 83,-11 119,8 36,20 63,58 79,94 17,36 24,69 24,103 1,35 -4,70 -11,96 -6,25 -13,40 -28,40 -15,1 -38,-13 -51,-39 -13,-25 -16,-61 -23,-82 -6,-20 -16,-24 -29,-14 -13,9 -28,32 -29,57 0,24 13,50 25,86 12,37 22,85 27,117 5,31 5,47 -11,48 -15,2 -45,-11 -74,-36 -28,-24 -55,-61 -69,-75 -15,-13 -17,-5 -30,20 -13,25 -38,65 -58,92 -19,28 -33,43 -67,67z"/>
  <path class="fil3 str0" d="M5017 6669c-34,24 -88,58 -180,90 -91,32 -219,61 -326,55 -108,-6 -193,-47 -234,-104 -41,-57 -37,-131 1,-192 38,-61 110,-111 172,-165 62,-55 114,-116 159,-156 45,-40 82,-60 140,-77 59,-17 140,-32 191,-22 50,9 70,43 87,61 17,18 31,20 48,14 17,-6 37,-21 60,-38 24,-18 51,-38 88,-48 36,-11 83,-11 119,8 36,20 63,58 79,94 17,36 24,69 24,103 1,35 -4,70 -11,96 -6,25 -13,40 -28,40 -15,1 -38,-13 -51,-39 -13,-25 -16,-61 -23,-82 -6,-20 -16,-24 -29,-14 -13,9 -28,32 -29,57 0,24 13,50 25,86 12,37 22,85 27,117 5,31 5,47 -11,48 -15,2 -45,-11 -74,-36 -28,-24 -55,-61 -69,-75 -15,-13 -17,-5 -30,20 -13,25 -38,65 -58,92 -19,28 -33,43 -67,67z"/>
  <path class="fil3 str0" d="M4463 6434c49,-47 87,-92 121,-144 56,-87 98,43 100,93 4,107 -91,202 -155,293m715 -344c-26,-48 -57,-107 -123,-99 34,-17 68,-35 88,-44 21,-9 29,-8 40,-1 26,16 42,39 52,67m-574 60c50,-12 99,-24 137,-16 37,9 63,37 98,67 35,29 81,60 119,73 51,18 126,13 80,-60 -21,-34 -63,-86 -105,-139"/>
  <path class="fil3 str2" d="M2431 2238c127,61 421,170 539,168 213,-3 292,-97 383,-257 24,-41 29,-49 39,-56 18,-11 124,-18 143,-10 11,4 17,12 46,49 29,36 80,102 118,140"/>
  <path class="fil0" d="M5940 6649c19,-27 39,-54 58,-80 49,-63 96,-114 119,-146 22,-33 20,-48 3,-58 -16,-9 -47,-13 -102,18 -55,30 -135,95 -220,163 -86,68 -178,141 -239,186 -92,70 -151,97 -266,117 24,-61 48,-121 73,-182 -99,43 -175,109 -231,202 -28,46 -49,100 -71,138 -23,39 -47,62 -75,82 -29,20 -62,36 -134,39 -73,2 -184,-9 -454,-50 -269,-42 -697,-112 -1125,-183 -113,276 -226,551 -338,827 478,-19 955,-38 1321,-72 366,-34 619,-83 779,-122 160,-38 227,-66 302,-105 76,-39 161,-90 232,-126 71,-37 128,-59 174,-81 47,-21 82,-42 140,-86 58,-44 139,-111 199,-158 60,-46 100,-72 103,-86 2,-15 -32,-19 -64,-16 -32,3 -69,14 -99,23 64,-69 108,-123 141,-172 36,-52 58,-96 70,-126 9,-22 12,-36 13,-47 19,-26 24,-42 27,-58 5,-23 1,-41 -18,-42 -20,-1 -56,16 -101,44 -45,28 -101,68 -145,101 -26,20 -51,40 -72,56z"/>
  <path class="fil3 str0" d="M3955 6984l1156 -117m182 -18l73 -182"/>
  <path class="fil3 str0" d="M2938 7722c478,-19 955,-38 1321,-72 366,-34 619,-83 779,-122 160,-38 227,-66 302,-105 76,-39 161,-90 232,-126 71,-37 128,-59 174,-81 47,-21 82,-42 140,-86 58,-44 139,-111 199,-158 60,-46 100,-72 103,-86 2,-15 -32,-19 -64,-16 -32,3 -69,14 -99,23m-2749 2c428,71 856,141 1125,183 270,41 381,52 454,50 72,-3 105,-19 134,-39 28,-20 52,-43 75,-82 22,-38 43,-92 71,-138 56,-93 132,-159 231,-202m136 431c68,-63 136,-126 195,-178 58,-52 106,-93 155,-152 48,-59 98,-135 146,-199 49,-63 96,-114 119,-146 22,-33 20,-48 3,-58 -16,-9 -47,-13 -102,18 -55,30 -135,95 -220,163 -86,68 -178,141 -239,186 -92,70 -151,97 -266,117m256 349c56,-35 111,-70 156,-108 45,-37 79,-78 128,-128 49,-50 113,-111 184,-178 71,-68 150,-143 196,-193 45,-51 58,-78 63,-101 5,-23 1,-41 -18,-42 -20,-1 -56,16 -101,44 -45,28 -101,68 -145,101 -26,20 -49,38 -70,55m-423 677c80,-52 160,-104 246,-177 85,-72 177,-165 247,-241 70,-75 119,-134 154,-186 36,-52 58,-96 70,-126 9,-22 12,-36 13,-47"/>
  <path class="fil4" d="M1791 6876c88,131 229,358 317,493 88,136 123,179 283,263 160,84 446,207 627,245 182,38 260,-9 339,-177 80,-168 162,-456 199,-617 36,-161 27,-194 -73,-239 -99,-46 -290,-105 -437,-187 -146,-82 -248,-188 -417,-465 -168,-276 -402,-723 -601,-1099 -199,-375 -363,-679 -469,-875 -107,-196 -156,-283 -188,-337 -31,-55 -45,-76 -52,-87 -7,-11 -7,-11 -31,-1 -23,11 -71,32 -127,68 -55,37 -118,88 -191,183 -73,95 -156,233 -196,414 -40,181 -37,403 5,602 43,198 125,371 274,636 150,265 367,622 493,818 125,196 158,231 245,362z"/>
 </g>
</svg>
