<?xml version="1.0" encoding="UTF-8"?>
<!DOCTYPE svg PUBLIC "-//W3C//DTD SVG 1.0//EN" "http://www.w3.org/TR/2001/REC-SVG-20010904/DTD/svg10.dtd">
<!-- Creator: CorelDRAW X8 -->
<svg xmlns="http://www.w3.org/2000/svg" xml:space="preserve" width="91.7223mm" height="91.7222mm" version="1.0" style="shape-rendering:geometricPrecision; text-rendering:geometricPrecision; image-rendering:optimizeQuality; fill-rule:evenodd; clip-rule:evenodd"
viewBox="0 0 9202 9202"
 xmlns:xlink="http://www.w3.org/1999/xlink">
 <defs>
  <style type="text/css">
   <![CDATA[
    .str2 {stroke:black;stroke-width:8.49704;stroke-linecap:round}
    .str0 {stroke:black;stroke-width:8.49704;stroke-linecap:round;stroke-linejoin:round}
    .str1 {stroke:white;stroke-width:8.49704;stroke-linecap:round;stroke-linejoin:round}
    .fil3 {fill:none}
    .fil0 {fill:#FEFEFE}
    .fil1 {fill:black}
    .fil4 {fill:#898989}
    .fil2 {fill:#D03730}
    .fil5 {fill:white}
   ]]>
  </style>
 </defs>
 <g id="Слой_x0020_1">
  <metadata id="CorelCorpID_0Corel-Layer"/>
  <rect class="fil0" width="9202" height="9202"/>
  <path class="fil1" d="M4099 3902c-77,-39 -102,-86 -126,-99 -25,-14 -47,13 -79,24 -33,11 -76,7 -124,-19 -216,-115 -471,-365 -400,-633 33,-122 120,-265 190,-439 70,-174 123,-379 197,-617 73,-238 168,-509 302,-680 145,-184 486,-364 718,-239 59,32 88,74 133,89 45,15 106,2 183,5 270,10 377,180 447,422 55,192 101,482 164,717 64,234 145,413 208,548 150,320 189,563 -146,786 -57,38 -101,59 -137,76 -35,17 -62,30 -91,21 -30,-8 -62,-39 -89,-43 -26,-4 -47,20 -76,42 -22,16 -48,31 -87,45 -79,-121 -61,-419 -37,-561 2,-4 2,-4 11,-23 56,-118 88,-224 119,-350 8,-32 12,-48 14,-58 2,-10 2,-13 5,-17 3,-3 7,-5 17,-9 62,-28 85,-43 133,-92 9,-10 11,-12 9,-14 -1,-2 -5,-5 -14,-11 -9,-6 -24,-15 -39,-26 -15,-11 -31,-24 -49,-41 -18,-17 -38,-38 -61,-66 -23,-28 -49,-63 -68,-95 -20,-32 -34,-61 -51,-98 -16,-36 -36,-79 -55,-120 -19,-41 -37,-81 -53,-113 -16,-32 -29,-56 -44,-80 -16,-25 -34,-51 -50,-68 -16,-18 -29,-27 -43,-36 -15,-9 -31,-17 -50,-25 -20,-8 -44,-16 -71,-21 -28,-6 -59,-10 -79,-18 -19,-7 -26,-21 -35,-35 -9,-15 -20,-31 -32,-47 -70,-92 -151,-105 -240,-19 -17,16 -34,38 -49,60 -16,22 -32,46 -47,74 -15,27 -31,59 -47,89 -15,30 -30,58 -43,82 -13,24 -23,43 -37,68 -52,92 -112,174 -185,251 -66,69 -136,130 -206,194 -11,10 -11,11 -10,16 30,95 108,161 196,194 10,3 12,4 16,17 23,105 46,195 82,298 12,32 20,50 25,63 61,139 11,525 -119,631zm1382 -1390c6,0 19,2 32,6 70,17 99,80 91,147 -2,19 -7,40 -11,54 -4,15 -8,23 -10,26 -2,4 -4,3 -11,-6 -7,-9 -19,-26 -33,-51 -13,-25 -27,-59 -37,-88 -11,-30 -18,-56 -22,-71 -4,-14 -5,-16 1,-17z"/>
  <path class="fil2" d="M3847 3915c-173,58 -479,201 -804,445 -325,245 -669,591 -938,1045 -269,454 -464,1015 -573,1386 -109,370 -132,550 -45,692 87,141 284,244 464,262 180,18 342,-50 501,-248 160,-197 316,-525 387,-581 71,-56 56,160 25,484 -31,324 -78,758 -93,1003 -15,245 3,301 178,309 176,9 509,-29 931,-5 422,23 932,109 1358,78 426,-31 768,-179 960,-251 192,-72 233,-69 242,-277 9,-208 -15,-627 -37,-907 -22,-280 -43,-422 -12,-400 31,22 114,208 208,395 94,188 201,377 355,478 155,102 359,117 493,24 134,-93 199,-294 215,-541 16,-248 -16,-543 -126,-930 -110,-387 -297,-865 -490,-1219 -194,-354 -394,-583 -663,-777 -269,-194 -608,-353 -794,-436 -186,-82 -219,-89 -304,-36 -85,54 -222,166 -368,220 -145,54 -299,50 -437,3 -138,-46 -260,-135 -340,-192 -81,-57 -120,-83 -293,-24z"/>
  <path class="fil3 str0" d="M5479 2511c31,6 61,11 85,32 58,52 52,143 18,207m-22 35c-42,56 -97,88 -164,114m20 -106c-59,313 -113,573 -363,799 -211,191 -390,191 -601,0 -249,-225 -304,-483 -363,-799m-26 -75c-22,-36 -31,-45 -67,-67m-99 42c25,105 111,166 207,203m1333 -175c4,-7 8,-13 11,-18"/>
  <path class="fil3 str1" d="M3641 3164c9,-79 19,-158 40,-218 20,-60 52,-101 120,-166 69,-64 174,-152 261,-236 87,-84 156,-163 219,-271 64,-109 122,-246 179,-332 57,-86 113,-122 158,-132 45,-10 78,6 105,31 28,25 50,60 72,94"/>
  <path class="fil3 str1" d="M4904 1983c68,15 135,30 199,118 64,88 124,249 182,368 59,119 116,195 182,250 75,63 188,122 286,138 -138,-62 -196,-98 -248,-248 -32,-90 -62,-225 -109,-336 -46,-112 -109,-199 -172,-286"/>
  <path class="fil3 str1" d="M4545 1437c66,-1 132,-2 189,17 57,18 104,57 132,106 27,48 35,107 42,166"/>
  <path class="fil3 str1" d="M5668 3260c37,66 74,132 93,197 19,66 20,131 12,182 -7,51 -24,88 -39,115 -15,26 -29,42 -43,59"/>
  <path class="fil3 str1" d="M5482 3563c-5,69 -10,139 -27,191 -15,49 -40,84 -70,111"/>
  <path class="fil3 str1" d="M5623 3589c-15,52 -31,105 -34,148 -4,43 5,78 18,104 14,25 33,43 52,60"/>
  <path class="fil3 str1" d="M3954 3595c10,43 20,86 18,125 -3,40 -19,76 -37,99 -19,23 -40,34 -61,45"/>
  <path class="fil3 str1" d="M3738 3346c-1,62 -1,124 6,176 7,52 21,94 40,131 19,36 42,66 65,96"/>
  <path class="fil0" d="M2625 5568c10,136 29,400 45,551 16,151 28,189 64,210 35,21 95,23 724,10 628,-13 1827,-42 2443,-64 615,-23 647,-39 664,-96 18,-57 22,-155 27,-298 5,-142 10,-331 13,-425 3,-94 3,-94 13,-96 9,-2 28,-5 39,-14 10,-9 11,-23 12,-53 0,-31 1,-79 -2,-112 -3,-34 -9,-53 -21,-63 -12,-10 -29,-11 -38,-13 -8,-2 -8,-4 -14,-86 -6,-81 -17,-242 -30,-340 -13,-98 -27,-133 -49,-160 -22,-27 -52,-47 -102,-55 -50,-9 -120,-7 -332,-4 -212,3 -566,6 -829,9 -263,2 -435,3 -831,10 -395,7 -1014,20 -1336,32 -322,11 -347,21 -369,44 -23,23 -44,59 -56,163 -12,104 -15,276 -20,365 -4,89 -10,95 -19,98 -9,3 -21,4 -30,12 -9,8 -15,24 -17,55 -2,31 -1,76 0,106 2,29 4,43 11,50 6,8 18,10 24,15 6,5 6,13 16,149z"/>
  <path class="fil3 str0" d="M2625 5568c10,136 29,400 45,551 16,151 28,189 64,210 35,21 95,23 724,10 628,-13 1827,-42 2443,-64 615,-23 647,-39 664,-96 18,-57 22,-155 27,-298 5,-142 10,-331 13,-425 3,-94 3,-94 13,-96 9,-2 28,-5 39,-14 10,-9 11,-23 12,-53 0,-31 1,-79 -2,-112 -3,-34 -9,-53 -21,-63 -12,-10 -29,-11 -38,-13 -8,-2 -8,-4 -14,-86 -6,-81 -17,-242 -30,-340 -13,-98 -27,-133 -49,-160 -22,-27 -52,-47 -102,-55 -50,-9 -120,-7 -332,-4 -212,3 -566,6 -829,9 -263,2 -435,3 -831,10 -395,7 -1014,20 -1336,32 -322,11 -347,21 -369,44 -23,23 -44,59 -56,163 -12,104 -15,276 -20,365 -4,89 -10,95 -19,98 -9,3 -21,4 -30,12 -9,8 -15,24 -17,55 -2,31 -1,76 0,106 2,29 4,43 11,50 6,8 18,10 24,15 6,5 6,13 16,149z"/>
  <path class="fil3 str0" d="M2805 5418c352,0 705,1 1058,-5 138,-2 259,-5 380,-8"/>
  <path class="fil3 str0" d="M5013 5399c458,-10 917,-20 1375,-34 94,-2 133,-4 155,-5"/>
  <path class="fil4" d="M4289 5232c-10,77 -9,225 -8,319 0,93 -1,132 4,153 6,21 17,24 131,25 115,0 333,-2 445,-5 112,-3 118,-7 119,-81 2,-74 0,-217 -1,-308 0,-91 0,-130 -2,-151 -3,-22 -9,-27 -71,-40 -62,-14 -179,-37 -282,-39 -103,-2 -192,17 -247,29 -55,13 -77,20 -88,98z"/>
  <path class="fil2" d="M4584 5515c4,16 5,50 4,77 -1,26 -4,44 3,53 7,9 24,8 40,6 17,-1 33,-4 50,-4 18,0 36,3 43,-21 7,-24 3,-73 1,-98 -2,-26 -2,-27 22,-27 25,0 73,2 97,-5 23,-6 22,-19 18,-34 -3,-15 -8,-31 -8,-48 0,-16 6,-34 5,-41 -1,-8 -9,-5 -33,-3 -25,3 -66,4 -87,4 -21,0 -21,-1 -21,-26 1,-24 3,-72 2,-96 0,-24 -3,-24 -14,-23 -11,1 -30,4 -50,5 -20,0 -42,-2 -53,-3 -11,0 -13,1 -13,25 -1,23 0,69 0,92 -1,23 -2,24 -25,23 -22,-1 -65,-3 -88,-3 -22,1 -24,5 -25,17 0,13 0,34 -1,55 -1,20 -2,40 -2,52 0,11 1,15 21,15 20,1 59,-1 81,-3 23,-3 30,-5 33,11z"/>
  <path class="fil3 str0" d="M4576 5511c3,15 4,45 3,69 -1,23 -3,39 3,47 6,8 21,7 36,6 14,-2 29,-4 44,-4 15,0 31,2 38,-19 6,-21 3,-65 1,-87 -2,-23 -2,-24 20,-24 21,0 64,1 85,-4 21,-5 20,-17 17,-30 -3,-14 -8,-28 -7,-43 0,-15 5,-30 4,-37 -1,-6 -8,-4 -30,-2 -22,2 -58,3 -76,3 -19,0 -20,-1 -19,-23 0,-21 2,-64 2,-85 -1,-21 -3,-22 -13,-21 -9,1 -26,4 -44,4 -18,1 -38,-1 -48,-2 -10,0 -11,1 -11,22 -1,21 0,61 -1,82 0,20 -1,21 -21,20 -20,0 -58,-2 -78,-2 -20,1 -22,4 -22,15 -1,11 -1,30 -2,49 0,18 -1,36 -1,46 0,10 1,13 18,14 18,0 52,-1 73,-3 20,-3 25,-5 29,9z"/>
  <path class="fil3 str2" d="M2727 5200c320,8 795,1 1134,-3 141,-2 159,-5 168,1 8,7 7,24 7,44 0,20 1,43 2,55 1,11 1,12 24,11 23,0 70,-2 94,-3 25,-2 27,-2 28,-21 2,-20 2,-60 4,-80 1,-13 2,-18 6,-19 5,-2 55,-1 63,-1"/>
  <path class="fil3 str2" d="M5054 5171c430,13 967,-3 1429,-34"/>
  <g id="_1971526484752">
   <path class="fil5" d="M6935 5741c7,18 18,46 24,61 6,15 7,16 7,17 0,1 -1,2 -8,15 -8,12 -23,37 -38,60 -15,23 -32,45 -48,66 -15,21 -31,40 -46,58 -15,18 -30,34 -44,49 -15,16 -30,30 -40,39 -9,9 -14,13 -17,16 -3,3 -4,4 -7,2 -4,-2 -10,-6 -20,-14 -10,-8 -24,-19 -39,-32 -15,-13 -30,-27 -46,-43 -15,-16 -32,-35 -51,-59 -19,-25 -40,-56 -56,-85 -15,-28 -24,-54 -31,-78 -7,-23 -12,-45 -16,-67 -4,-22 -8,-44 -9,-71 -2,-28 -1,-59 -1,-89 1,-30 3,-59 4,-86 2,-28 4,-56 6,-83 3,-26 6,-50 9,-77 2,-26 5,-54 7,-84 3,-30 6,-60 8,-89 1,-29 1,-55 0,-81 -2,-26 -5,-50 -10,-77 -4,-27 -10,-56 -16,-84 -6,-28 -12,-56 -16,-77 -3,-20 -4,-33 -3,-43 1,-11 4,-20 7,-26 4,-6 7,-9 11,-10 4,-1 9,-1 13,1 4,2 8,5 14,13 6,8 14,21 30,52 16,32 41,82 54,110 14,27 16,32 14,25 -2,-8 -9,-28 -21,-60 -12,-33 -28,-78 -39,-111 -11,-34 -18,-57 -25,-83 -8,-26 -17,-55 -23,-81 -7,-27 -12,-51 -16,-74 -4,-23 -8,-45 -10,-60 -2,-16 -2,-25 -1,-32 1,-7 4,-12 5,-15 1,-3 1,-4 -1,-10 -2,-7 -6,-20 -6,-32 -1,-12 1,-23 4,-30 3,-7 7,-11 11,-14 4,-3 8,-5 11,-6 3,0 5,0 4,-8 0,-8 -2,-25 -1,-39 0,-14 3,-24 9,-32 5,-8 15,-12 23,-14 8,-2 14,0 20,3 7,3 12,8 17,13 5,5 8,11 14,30 7,18 15,49 23,79 7,31 15,60 20,84 6,24 11,43 16,61 4,18 9,34 12,44 3,10 5,13 10,21 4,7 11,19 18,32 7,13 15,28 24,46 9,18 20,38 31,59 12,21 23,43 33,62 11,18 19,34 25,47 7,14 10,25 13,34 2,9 3,15 4,38 1,22 2,60 3,88 1,27 2,43 3,69 1,26 3,61 6,90 2,29 5,53 9,80 4,27 10,59 19,101 8,43 21,97 32,144 12,46 23,85 34,119 10,34 20,63 27,81 6,19 10,28 17,47z"/>
   <path class="fil3 str0" d="M6720 6127c-40,-26 -163,-120 -229,-266 -64,-143 -41,-335 -26,-487 11,-121 24,-201 19,-282 -4,-80 -26,-161 -37,-214 -11,-53 -11,-77 -4,-94 7,-16 21,-25 39,-4 17,20 38,69 63,124 25,55 55,116 70,150 15,34 15,41 19,96 5,55 14,157 24,259m-32 -824c-19,-76 -38,-153 -51,-206 -14,-54 -22,-85 -37,-100 -14,-15 -35,-14 -48,-6 -13,8 -18,23 -19,38 -1,16 1,32 4,48m482 1436c-89,-202 -158,-504 -165,-684 -3,-78 -6,-156 -8,-195 -1,-39 -1,-39 -42,-115 -40,-76 -122,-229 -172,-317 -51,-88 -71,-113 -88,-119 -16,-7 -29,4 -35,18 -6,13 -4,29 -2,41 2,12 5,21 8,29m290 853c-18,-123 -36,-247 -47,-314 -10,-66 -12,-76 -41,-155 -29,-79 -85,-228 -119,-307 -34,-79 -47,-89 -59,-89 -12,-1 -23,7 -28,18 -5,11 -5,24 1,63 6,38 18,101 44,189 26,87 66,199 106,311"/>
   <path class="fil3 str2" d="M6512 6283c85,-60 170,-120 242,-188 72,-67 131,-141 175,-208 44,-66 72,-124 101,-182"/>
  </g>
  <g id="_1971526490064">
   <path class="fil5" d="M2251 5738c-7,18 -18,46 -24,61 -6,14 -6,16 -6,17 0,1 0,2 8,15 7,12 22,36 37,60 16,23 32,45 48,66 16,21 31,40 46,58 15,17 30,34 45,49 14,15 29,30 39,39 10,9 14,13 17,16 3,2 4,3 8,2 3,-2 9,-6 19,-14 10,-8 25,-20 39,-33 15,-12 30,-26 46,-42 16,-16 32,-35 51,-60 19,-25 41,-56 56,-84 15,-29 24,-55 31,-78 7,-24 12,-45 17,-67 4,-22 7,-44 9,-72 1,-27 1,-59 0,-89 -1,-30 -3,-58 -4,-86 -2,-28 -3,-56 -6,-82 -2,-26 -5,-51 -8,-77 -3,-26 -5,-55 -8,-84 -3,-30 -6,-61 -8,-89 -1,-29 -1,-56 1,-81 1,-26 4,-51 9,-78 5,-26 10,-55 16,-83 7,-29 13,-57 16,-77 4,-20 4,-33 3,-44 -1,-10 -4,-19 -7,-25 -3,-6 -7,-9 -11,-10 -4,-2 -8,-1 -12,1 -5,2 -9,5 -14,13 -6,8 -14,20 -31,52 -16,32 -40,82 -54,109 -14,28 -16,33 -14,25 2,-7 10,-27 21,-60 12,-32 28,-77 39,-111 12,-34 18,-56 26,-82 7,-26 16,-55 23,-82 6,-26 11,-51 15,-74 5,-23 9,-44 11,-60 2,-15 2,-24 0,-31 -1,-7 -3,-12 -4,-15 -2,-3 -1,-4 1,-11 1,-7 5,-19 6,-31 0,-12 -2,-23 -5,-30 -3,-8 -7,-11 -11,-14 -4,-3 -8,-5 -11,-6 -3,-1 -4,0 -4,-8 0,-9 2,-26 1,-40 0,-13 -2,-24 -8,-31 -6,-8 -15,-13 -23,-14 -8,-2 -15,0 -21,3 -6,3 -12,7 -17,12 -4,6 -8,12 -14,30 -6,19 -14,50 -22,80 -8,30 -15,60 -21,84 -6,24 -11,43 -15,60 -5,18 -10,35 -13,45 -3,10 -5,13 -9,20 -5,8 -12,19 -19,32 -7,14 -14,29 -24,47 -9,18 -20,38 -31,59 -11,21 -23,43 -33,61 -10,19 -19,34 -25,48 -6,13 -10,25 -12,33 -3,9 -4,16 -5,38 -1,23 -2,61 -3,88 -1,27 -1,44 -3,70 -1,25 -3,61 -6,90 -2,29 -5,52 -9,80 -4,27 -9,58 -18,101 -9,43 -21,97 -33,143 -12,47 -23,86 -33,119 -11,34 -21,63 -27,82 -7,19 -10,28 -18,47z"/>
   <path class="fil3 str0" d="M2466 6123c40,-25 163,-119 229,-265 65,-144 41,-335 26,-488 -11,-121 -24,-201 -19,-281 5,-80 27,-161 38,-214 11,-53 11,-78 4,-94 -8,-17 -22,-25 -40,-5 -17,21 -38,70 -63,125 -25,55 -55,115 -69,149 -15,34 -15,42 -20,97 -5,55 -14,157 -23,259m31 -825c19,-76 38,-152 51,-206 14,-53 22,-84 37,-99 15,-15 36,-14 49,-6 13,8 18,23 19,38 1,15 -2,31 -5,47m-482 1437c90,-202 158,-504 165,-684 4,-79 7,-157 8,-195 1,-39 1,-39 42,-116 41,-76 122,-228 173,-316 50,-89 70,-113 87,-120 17,-6 30,5 35,18 6,14 5,29 2,42 -2,12 -5,20 -7,29m-291 853c18,-124 37,-247 47,-314 10,-66 12,-76 41,-155 29,-80 85,-228 119,-307 34,-79 47,-89 59,-90 12,0 23,8 28,19 6,11 5,24 -1,62 -6,39 -18,102 -44,190 -26,87 -66,199 -106,310"/>
   <path class="fil3 str2" d="M2675 6280c-86,-60 -171,-121 -243,-188 -72,-67 -131,-142 -175,-208 -43,-66 -72,-125 -101,-183"/>
  </g>
 </g>
</svg>
