<?xml version="1.0" encoding="UTF-8"?>
<!DOCTYPE svg PUBLIC "-//W3C//DTD SVG 1.0//EN" "http://www.w3.org/TR/2001/REC-SVG-20010904/DTD/svg10.dtd">
<!-- Creator: CorelDRAW X8 -->
<svg xmlns="http://www.w3.org/2000/svg" xml:space="preserve" width="91.7223mm" height="91.7222mm" version="1.0" style="shape-rendering:geometricPrecision; text-rendering:geometricPrecision; image-rendering:optimizeQuality; fill-rule:evenodd; clip-rule:evenodd"
viewBox="0 0 9202 9202"
 xmlns:xlink="http://www.w3.org/1999/xlink">
 <defs>
  <style type="text/css">
   <![CDATA[
    .str2 {stroke:black;stroke-width:8.49704;stroke-linecap:round}
    .str1 {stroke:#2B2A29;stroke-width:8.49704;stroke-linecap:round;stroke-linejoin:round}
    .str0 {stroke:black;stroke-width:8.49704;stroke-linecap:round;stroke-linejoin:round}
    .str3 {stroke:white;stroke-width:8.49704;stroke-linecap:round;stroke-linejoin:round}
    .fil2 {fill:none}
    .fil0 {fill:#FEFEFE}
    .fil1 {fill:black}
    .fil5 {fill:#898989}
    .fil3 {fill:#D03730}
    .fil4 {fill:white}
   ]]>
  </style>
 </defs>
 <g id="Слой_x0020_1">
  <metadata id="CorelCorpID_0Corel-Layer"/>
  <rect class="fil0" width="9202" height="9202"/>
  <path class="fil1" d="M2677 3283c-78,91 -151,140 -215,167 -65,28 -121,35 -138,-25 -17,-59 7,-184 28,-320 21,-137 39,-285 52,-405 12,-119 17,-210 43,-242 0,0 184,20 546,-205 20,-13 28,-14 33,-13 5,2 6,6 11,15 5,9 13,22 22,35 9,13 19,25 27,35 8,9 15,15 19,18 4,3 5,4 6,11 1,6 1,18 2,51 1,34 3,89 2,134 0,44 -2,79 -5,115 -4,36 -9,73 -14,108 -5,35 -11,66 -16,91 -4,25 -8,43 -13,53 -5,11 -360,342 -390,377z"/>
  <path class="fil2 str0" d="M3111 2348c5,96 10,191 1,296 -9,105 -33,220 -57,334"/>
  <path class="fil3" d="M4333 8700c-380,-17 -676,7 -938,59 -263,52 -490,132 -732,159 -241,26 -496,1 -622,-69 -126,-69 -124,-182 -102,-373 6,-52 14,-110 22,-169 106,-178 195,-356 321,-524 7,-10 9,-12 1,-14 -74,-16 -152,-27 -228,-43 -87,-19 -171,-46 -259,-62 -105,-18 -242,-41 -364,-94 -201,-87 -520,-327 -530,-568 -5,-109 29,-250 25,-394 -3,-144 -43,-290 -45,-576 -2,-287 33,-714 84,-982 51,-269 117,-380 237,-520 119,-141 292,-311 511,-500 219,-189 484,-397 644,-527 161,-129 216,-180 274,-293 57,-112 117,-287 203,-344 86,-56 199,6 325,52 126,47 266,78 392,135 126,58 239,142 302,235 162,240 236,524 503,33 10,-18 20,-38 31,-58 -3,-96 1,-187 15,-282 3,-20 6,-33 9,-41 2,-8 5,-11 12,-20 87,-100 159,-231 194,-360 274,177 505,436 577,764 18,85 10,151 -65,207 -4,3 -5,3 -5,4 -1,0 -1,1 101,56 373,201 696,430 962,702 -4,7 -10,20 -13,35 -4,15 -6,33 -6,48 0,136 75,298 159,402 88,107 206,182 346,188 120,236 211,498 268,792 78,394 82,706 2,905 -81,199 -247,285 -469,332 -223,46 -501,53 -653,52 -42,-4 -66,36 -81,100 -56,247 -13,904 -14,1189 0,221 -1,358 -234,398 -232,40 -780,-18 -1160,-34z"/>
  <path class="fil0" d="M2839 6516c5,-3 15,-11 38,-26 23,-15 59,-37 98,-62 39,-25 82,-53 120,-78 38,-24 72,-46 100,-65 29,-19 53,-35 80,-53 26,-17 56,-35 87,-55 31,-20 64,-42 106,-68 42,-27 92,-58 135,-85 42,-26 77,-47 110,-68 34,-20 67,-41 96,-59 30,-18 56,-34 73,-44 17,-10 24,-14 55,-32 30,-17 83,-47 124,-71 42,-24 72,-42 109,-61 37,-19 81,-41 113,-56 32,-15 52,-24 68,-31 17,-8 30,-13 36,-14 5,0 3,5 1,16 -1,11 -3,27 -4,43 -1,16 -1,31 0,45 1,14 3,27 5,42 3,15 6,32 11,48 4,16 10,32 18,51 7,18 17,39 27,57 9,18 18,32 30,48 11,16 25,34 39,50 13,16 26,31 40,45 14,15 28,29 43,43 16,14 34,27 51,39 16,12 32,24 50,35 18,11 39,21 51,27 12,7 16,8 17,9 1,2 -1,2 -8,4 -8,2 -20,6 -44,16 -23,11 -58,29 -87,44 -28,15 -50,28 -79,45 -29,18 -65,40 -102,63 -38,24 -76,49 -197,106 -121,57 -325,147 -450,197 -126,50 -174,61 -202,67 -28,6 -36,6 -53,2 -18,-3 -46,-11 -74,-20 -27,-9 -54,-19 -83,-31 -29,-12 -61,-25 -100,-39 -39,-14 -85,-29 -124,-41 -38,-12 -69,-20 -98,-28 -29,-8 -58,-16 -88,-23 -30,-7 -62,-12 -86,-16 -25,-4 -42,-8 -50,-9 -9,-2 -9,-2 -9,-2 1,0 1,-1 7,-5z"/>
  <path class="fil1" d="M4383 5695c-2,-19 -2,-41 1,-62 3,-21 8,-40 13,-56 5,-16 10,-28 21,-41 10,-13 24,-28 43,-44 19,-16 42,-34 71,-56 30,-22 67,-47 109,-76 43,-29 91,-61 125,-83 34,-22 54,-35 63,-42 9,-7 8,-7 -3,-11 -10,-4 -28,-10 -53,-20 -24,-10 -55,-23 -86,-37 -30,-15 -59,-31 -86,-48 -26,-16 -49,-34 -67,-49 -18,-16 -31,-30 -43,-44 -12,-14 -22,-28 -30,-43 -7,-15 -11,-30 -14,-44 -3,-14 -5,-28 -5,-41 0,-13 2,-26 6,-40 5,-14 13,-31 25,-47 12,-16 27,-33 44,-46 17,-14 35,-24 58,-36 23,-12 50,-25 83,-36 32,-11 69,-19 101,-26 32,-6 59,-11 95,-16 36,-6 82,-11 127,-15 46,-4 91,-6 131,-5 40,1 75,5 107,11 31,7 60,16 88,27 28,12 55,27 83,46 27,18 54,40 73,56 19,15 30,25 36,30 6,5 7,5 12,2 5,-3 14,-10 37,-24 23,-15 59,-38 99,-62 39,-25 84,-51 135,-83 51,-32 110,-69 168,-105 57,-35 113,-70 150,-93 36,-23 53,-33 61,-39 9,-5 9,-5 10,4 1,8 3,26 7,47 3,22 8,48 15,74 7,26 17,52 28,78 11,26 24,51 37,74 13,24 28,47 44,68 15,22 33,43 49,61 16,18 31,33 52,50 20,18 47,37 70,52 23,15 43,26 65,34 23,8 49,14 63,18 15,4 18,5 18,6 1,1 -2,2 -25,19 -23,17 -67,50 -109,80 -41,31 -81,60 -121,89 -41,29 -82,59 -101,74 -19,14 -16,13 -17,11 0,-2 -4,-4 -13,-10 -10,-6 -26,-17 -43,-25 -16,-9 -34,-16 -50,-20 -15,-5 -29,-7 -43,-8 -15,0 -31,1 -47,6 -17,4 -34,12 -49,21 -15,10 -27,21 -38,34 -11,14 -22,29 -28,45 -7,17 -10,34 -11,46 -1,13 -1,20 1,30 1,9 5,20 10,30 5,10 12,21 22,30 10,10 22,19 34,26 11,7 21,11 32,15 12,4 26,8 41,11 15,3 32,5 40,7 9,2 9,4 34,149 24,146 72,436 102,614 30,179 42,246 49,290 7,44 11,66 14,89 3,23 7,48 8,71 2,22 1,43 0,58 -1,14 -2,24 -5,33 -4,8 -9,17 -16,23 -6,7 -13,13 -25,19 -13,7 -31,14 -47,21 -17,6 -32,11 -47,14 -15,3 -29,4 -42,4 -12,1 -23,0 -35,-3 -12,-3 -25,-9 -37,-17 -11,-8 -21,-18 -29,-27 -8,-9 -16,-17 -26,-33 -9,-17 -22,-42 -35,-74 -13,-31 -27,-69 -41,-112 -14,-43 -28,-90 -42,-140 -13,-50 -26,-101 -40,-158 -14,-57 -29,-120 -42,-174 -12,-54 -23,-99 -31,-133 -8,-34 -13,-56 -18,-71 -5,-14 -10,-20 -18,-35 -9,-15 -21,-38 -39,-74 -17,-36 -40,-84 -55,-113 -15,-30 -22,-41 -60,-20 -38,21 -107,75 -160,118 -53,43 -91,75 -136,113 -45,37 -96,78 -146,117 -49,39 -96,74 -127,98 -31,23 -45,34 -52,39 -7,5 -7,5 -10,4 -2,-2 -6,-5 -11,-8 -5,-2 -10,-3 -20,-3 -9,0 -22,2 -37,4 -14,3 -30,6 -49,11 -19,5 -40,12 -53,14 -12,2 -16,1 -29,-6 -13,-6 -35,-18 -60,-33 -25,-15 -52,-33 -80,-56 -27,-22 -54,-50 -78,-79 -25,-29 -47,-59 -68,-91 -20,-32 -38,-67 -50,-96 -12,-30 -19,-54 -23,-73 -5,-20 -8,-34 -9,-53zm791 -688c-15,1 -44,1 -84,-2 -40,-2 -91,-7 -135,-12 -43,-6 -79,-12 -113,-19 -34,-7 -66,-15 -91,-23 -25,-8 -42,-16 -61,-26 -20,-10 -42,-23 -55,-31 -14,-8 -19,-13 -22,-15 -2,-3 -2,-3 11,-10 13,-6 38,-19 64,-30 27,-12 56,-22 87,-32 32,-9 66,-18 106,-25 39,-6 83,-10 120,-11 37,-1 66,3 90,6 23,4 42,8 61,15 19,6 39,14 60,26 20,13 42,31 58,45 15,15 25,26 32,35 7,9 13,17 15,21 2,4 1,5 -7,11 -7,5 -23,15 -43,27 -20,13 -45,29 -59,37 -13,9 -15,10 -16,11 -2,1 -3,2 -18,2z"/>
  <path class="fil4" d="M6064 6842c12,5 27,11 39,14 12,4 21,4 32,4 11,0 24,0 44,-5 21,-6 48,-17 66,-25 18,-8 28,-14 33,-16 4,-1 3,1 -7,13 -11,13 -31,36 -53,57 -22,21 -46,40 -69,54 -22,15 -42,26 -64,35 -22,9 -47,16 -68,21 -22,5 -42,8 -66,10 -24,2 -52,3 -80,0 -28,-4 -55,-12 -81,-22 -27,-10 -53,-23 -77,-37 -25,-14 -47,-28 -78,-51 -30,-24 -70,-57 -97,-82 -28,-25 -43,-42 -57,-60 -14,-18 -25,-36 -34,-50 -8,-15 -13,-26 -18,-40 -5,-13 -9,-29 -12,-42 -3,-14 -4,-24 -4,-40 0,-16 1,-38 4,-62 3,-25 9,-52 14,-81 5,-29 11,-59 14,-79 3,-20 3,-30 2,-43 -1,-12 -4,-28 -8,-43 -5,-16 -10,-32 -17,-49 -7,-16 -16,-33 -21,-47 -6,-14 -9,-26 -11,-43 -3,-18 -5,-41 -6,-59 -1,-18 0,-31 1,-48 1,-18 4,-41 7,-62 3,-22 6,-42 10,-61 3,-20 6,-38 9,-60 4,-22 7,-49 7,-73 1,-24 -2,-46 -4,-67 -2,-21 -5,-41 -7,-59 -2,-18 -4,-35 -4,-52 0,-17 0,-35 2,-52 2,-17 5,-32 11,-49 6,-16 15,-33 24,-47 9,-14 17,-25 28,-35 11,-10 24,-19 36,-26 12,-6 23,-10 34,-13 12,-2 25,-4 40,-1 15,2 31,8 45,15 14,7 25,15 35,24 11,9 20,20 30,34 10,13 20,29 30,48 9,18 19,38 24,49 6,11 6,13 10,11 4,-1 10,-6 21,-11 12,-6 28,-12 49,-17 21,-6 47,-11 78,-16 31,-6 66,-12 99,-17 33,-5 63,-10 79,-12 15,-3 17,-4 11,-5 -6,-1 -19,-3 -37,-7 -18,-5 -40,-12 -57,-20 -17,-8 -28,-16 -38,-26 -10,-10 -19,-22 -24,-34 -6,-12 -8,-24 -9,-36 -1,-13 0,-27 3,-41 2,-14 7,-29 14,-44 8,-14 19,-29 30,-41 11,-12 23,-22 36,-30 14,-7 29,-14 44,-18 15,-3 30,-5 47,-3 17,1 36,5 52,10 16,4 30,10 47,20 16,10 37,24 53,37 17,12 29,24 40,36 11,12 22,25 33,39 11,15 23,31 33,46 10,15 18,28 25,40 7,12 13,23 18,33 4,9 8,16 10,20 2,4 3,4 8,5 4,2 13,4 21,10 8,5 16,14 21,22 5,8 8,16 11,26 4,11 9,25 12,38 3,13 3,25 4,38 1,14 1,27 1,41 -1,13 -2,27 -5,41 -4,14 -8,28 -12,40 -5,12 -8,22 -10,27 -2,6 -2,7 0,10 3,4 7,9 11,21 4,11 8,28 11,40 3,13 5,20 7,35 3,16 7,39 11,71 4,32 7,73 10,98 2,25 3,35 4,43 1,7 2,13 4,24 2,12 4,29 5,50 1,21 1,45 -1,67 -2,22 -6,41 -10,58 -5,17 -11,32 -18,47 -6,16 -13,33 -24,53 -10,20 -23,44 -35,63 -12,19 -22,33 -38,51 -17,17 -40,38 -58,54 -18,15 -31,26 -37,30 -7,4 -7,3 -10,-12 -2,-15 -7,-44 -15,-88 -7,-44 -18,-104 -24,-134 -6,-30 -7,-30 -14,-32 -6,-3 -19,-8 -43,-17 -23,-9 -56,-23 -86,-36 -29,-13 -55,-26 -79,-40 -24,-13 -45,-27 -64,-40 -18,-14 -33,-27 -43,-39 -11,-13 -17,-25 -21,-37 -3,-11 -3,-22 -1,-32 3,-9 10,-17 18,-24 8,-8 17,-15 29,-21 11,-5 23,-9 28,-10 5,-2 2,-2 -3,-3 -5,-1 -12,-2 -28,-5 -15,-3 -39,-9 -57,-13 -19,-4 -32,-8 -47,-13 -15,-5 -31,-12 -44,-18 -12,-6 -19,-10 -26,-15 -6,-4 -12,-8 -14,-9 -3,-2 -3,0 0,12 3,13 8,36 19,81 10,45 26,112 43,185 17,72 35,151 50,209 15,58 26,95 35,123 8,27 13,46 21,70 8,24 19,54 28,79 10,24 18,43 27,62 10,18 20,36 30,50 9,14 19,25 27,33 8,9 15,14 26,20z"/>
  <path class="fil2 str0" d="M3040 2125c-23,39 -22,88 3,140 20,41 46,68 84,94 49,35 106,51 173,62m-42 -100c121,295 228,539 537,710 259,145 450,108 638,-122 144,-177 199,-350 221,-538 8,-75 15,-164 18,-253 8,-219 -17,-407 -78,-613m-1395 688c-26,-27 -52,-41 -91,-46"/>
  <path class="fil2 str0" d="M1919 6365c-174,95 -349,190 -479,320 -129,131 -213,297 -256,322 -43,24 -46,-92 -10,-185 68,-173 276,-278 433,-358m561 -373c-27,268 43,385 319,415m-774 1111c-135,-492 -94,-1003 402,-1251m411 -167c-520,-1734 68,-804 24,-199m-594 116c-857,-203 -1051,123 -133,43"/>
  <path class="fil2 str0" d="M3914 3520c56,49 112,98 143,134 31,36 37,60 51,91 14,32 38,71 71,96 33,24 76,33 121,49 46,16 93,39 156,166 63,126 142,356 220,587m358 1568c47,866 -8,1587 -93,2448"/>
  <path class="fil2 str0" d="M3035 2490c154,75 309,150 500,205 191,54 419,88 622,77 203,-11 381,-67 488,-117 108,-50 144,-93 167,-188 23,-96 32,-244 30,-400 -2,-155 -15,-316 -29,-478"/>
  <path class="fil2 str0" d="M1086 8981c150,-436 454,-1040 710,-1313"/>
  <path class="fil2 str0" d="M1659 8959c190,-455 366,-812 628,-1185"/>
  <path class="fil2 str0" d="M2832 6521c267,-171 1211,-805 1560,-936"/>
  <path class="fil2 str0" d="M6170 4392c-354,221 -702,438 -985,617m-345 220c-22,14 -44,28 -64,41 -319,207 -365,253 -381,310 -67,238 158,517 377,606"/>
  <path class="fil2 str1" d="M4953 6165c85,-63 170,-127 248,-189 77,-62 146,-122 216,-183"/>
  <path class="fil2 str0" d="M5754 5911c46,204 93,408 139,575 46,167 92,296 155,347 63,50 143,21 195,-1 51,-22 73,-37 68,-131 -4,-89 -33,-246 -63,-408"/>
  <path class="fil2 str0" d="M6420 6001c-62,-14 -164,-33 -267,-31 -103,1 -206,22 -240,60 -35,38 0,93 75,144 76,50 193,95 280,126 86,30 141,46 180,36 39,-10 61,-46 71,-100 10,-55 8,-129 -4,-171 -12,-41 -33,-50 -95,-64z"/>
  <path class="fil2 str0" d="M6515 6065c-10,-95 -20,-190 -33,-254 -13,-64 -28,-97 -125,-107 -97,-10 -275,3 -396,14 -121,10 -185,18 -216,55 -31,37 -29,104 16,145 45,42 133,58 220,75"/>
  <path class="fil2 str0" d="M6538 5455c112,17 300,74 381,229m-391 83c353,295 426,695 222,1001m-163 -732c223,267 156,689 -162,902m73 -641c-22,53 -43,106 -77,150 -34,44 -80,79 -126,115"/>
  <path class="fil2 str0" d="M6458 5746c13,-31 27,-61 29,-104 3,-43 -5,-98 -21,-136 -16,-37 -40,-57 -129,-56 -88,1 -241,23 -355,41 -115,19 -191,33 -233,62 -42,30 -50,74 -40,109 10,35 38,62 65,88m-25 -197c-27,-59 -54,-118 -97,-153 -43,-34 -103,-44 -152,-17 -50,27 -88,91 -97,160 -8,69 14,143 15,216 1,72 -18,143 -28,214 -10,71 -10,141 7,196 17,55 51,94 52,156 0,63 -33,149 -37,226 -5,78 20,146 80,217 60,71 156,144 235,187 78,43 139,56 211,51 171,-12 258,-81 359,-210"/>
  <path class="fil2 str0" d="M6413 5457c-44,-76 -87,-151 -145,-204 -57,-53 -127,-83 -185,-82 -57,1 -102,33 -129,71 -27,39 -37,83 -30,119 8,36 32,63 64,81 32,17 72,24 111,31"/>
  <path class="fil2 str0" d="M6248 5235l373 -270"/>
  <path class="fil2 str0" d="M4558 4737c-4,17 -7,34 -3,57 18,99 177,155 260,175 101,25 237,38 343,41 105,3 180,-5 235,0 56,6 92,26 123,71 31,46 56,117 50,164 -6,48 -42,71 -111,82 -69,11 -170,10 -323,-20 -153,-30 -357,-90 -491,-162 -133,-72 -196,-157 -200,-234 -4,-78 51,-148 160,-195 108,-48 271,-74 401,-83 236,-15 339,28 504,174"/>
  <path class="fil2 str0" d="M4610 4877c50,-27 101,-55 183,-76 82,-22 196,-37 284,-27 106,12 187,61 243,148"/>
  <path class="fil2 str0" d="M4387 3889c220,-96 440,-192 590,-267 53,-27 98,-51 133,-75"/>
  <path class="fil2 str0" d="M2299 7773c122,20 243,36 365,53"/>
  <path class="fil4" d="M2694 7826c12,12 28,28 39,39 11,11 15,16 17,18 3,2 3,2 22,1 19,-1 56,-4 96,-8 40,-3 82,-7 115,-10 32,-4 55,-6 84,-8 30,-3 66,-7 98,-10 32,-3 61,-5 92,-8 31,-3 64,-7 98,-10 35,-3 70,-5 105,-8 35,-3 69,-6 104,-9 35,-3 69,-6 105,-10 36,-4 73,-9 113,-14 41,-5 84,-10 126,-15 42,-6 82,-12 115,-17 32,-6 55,-10 88,-17 32,-7 73,-17 110,-27 37,-11 70,-22 98,-34 27,-11 50,-22 73,-35 22,-14 44,-28 64,-44 21,-15 38,-30 54,-46 16,-16 29,-32 41,-48 12,-16 22,-33 32,-50 10,-17 20,-34 29,-54 9,-19 17,-39 25,-58 7,-18 14,-34 20,-52 6,-19 12,-39 18,-55 5,-17 10,-29 14,-45 4,-16 8,-35 12,-51 4,-16 8,-29 13,-46 5,-18 11,-41 16,-62 6,-20 10,-38 14,-56 4,-18 8,-37 13,-63 5,-26 11,-58 14,-75 4,-18 4,-21 8,-30 3,-10 10,-27 16,-46 6,-19 11,-41 15,-60 4,-20 7,-37 9,-52 2,-14 4,-26 6,-35 1,-9 2,-16 3,-27 1,-11 3,-26 4,-40 0,-15 0,-29 -2,-40 -1,-12 -3,-21 -1,-31 2,-9 9,-19 15,-28 5,-9 10,-18 15,-29 6,-10 13,-24 20,-36 7,-13 13,-25 23,-47 11,-21 26,-52 36,-79 11,-26 18,-49 20,-64 1,-15 -2,-22 -5,-28 -3,-5 -6,-8 -10,-11 -4,-2 -9,-4 -20,-4 -10,0 -27,3 -55,9 -28,7 -67,18 -105,31 -37,13 -73,28 -106,44 -33,16 -63,33 -94,51 -31,18 -62,37 -91,55 -29,17 -55,34 -87,53 -32,19 -70,40 -100,54 -30,15 -53,22 -68,26 -16,4 -25,6 -34,5 -9,0 -19,-1 -27,-5 -9,-4 -17,-11 -23,-19 -7,-8 -11,-19 -14,-34 -2,-15 -3,-35 -3,-54 1,-18 3,-36 6,-54 2,-18 4,-36 9,-67 5,-31 12,-75 16,-112 5,-37 8,-67 8,-97 1,-30 -1,-61 -4,-85 -4,-25 -8,-42 -14,-58 -6,-15 -12,-29 -23,-45 -11,-16 -27,-35 -44,-50 -16,-15 -32,-26 -45,-34 -14,-8 -26,-13 -35,-17 -10,-3 -16,-4 -23,-4 -7,1 -13,3 -19,8 -6,4 -11,11 -16,23 -5,12 -8,30 -17,55 -8,26 -21,61 -50,143 -30,82 -76,210 -114,310 -38,99 -68,168 -94,226 -26,58 -48,105 -62,135 -14,30 -20,44 -25,54 -5,9 -10,16 -14,20 -5,5 -10,7 -17,8 -7,1 -16,0 -30,-4 -14,-3 -33,-9 -82,-28 -49,-18 -129,-49 -193,-71 -65,-23 -114,-37 -187,-54 -73,-18 -169,-38 -255,-55 -86,-17 -163,-31 -209,-39 -47,-9 -63,-12 -72,-13 -8,-2 -8,-2 -10,2 -2,5 -6,13 -13,37 -8,24 -19,64 -28,97 -9,32 -16,58 -22,86 -6,28 -12,59 -17,85 -5,27 -8,49 -11,77 -4,27 -7,59 -9,97 -2,37 -3,81 -2,117 0,36 1,65 4,96 3,31 7,63 12,94 5,31 11,60 19,92 8,31 18,64 28,94 10,29 20,55 33,84 13,28 30,60 42,85 13,24 22,41 36,63 14,22 33,49 49,71 17,22 31,40 42,52 10,13 18,21 30,34z"/>
  <path class="fil5" d="M3210 1972c11,74 29,211 55,317 25,106 57,180 88,243 31,63 60,116 81,152 21,36 34,55 54,80 19,25 45,56 69,82 24,26 46,47 73,70 26,22 57,45 80,62 23,16 39,26 65,41 27,14 65,34 99,49 34,15 65,25 93,32 27,8 51,12 79,13 27,1 58,0 86,-4 28,-5 54,-13 78,-22 24,-10 46,-21 55,-26 9,-5 6,-3 -6,9 -12,13 -33,35 -76,54 -43,20 -108,36 -190,30 -82,-7 -180,-37 -271,-83 -91,-45 -174,-106 -259,-203 -85,-98 -173,-233 -227,-360 -55,-127 -75,-245 -87,-317 -11,-72 -13,-96 -15,-122 -2,-25 -4,-51 -1,-74 2,-24 9,-46 20,-65 11,-19 27,-35 36,-38 9,-3 11,6 21,80z"/>
  <path class="fil3" d="M4594 1541c-112,-10 -270,5 -464,41 -194,37 -422,95 -589,151 -166,56 -270,109 -347,182 -76,73 -125,166 -142,268 -17,103 -3,214 -12,284 -10,69 -45,95 -152,104 -108,9 -289,-1 -404,-34 -115,-33 -164,-90 -176,-137 -12,-47 14,-83 34,-135 21,-51 36,-118 45,-186 9,-68 11,-137 13,-251 1,-113 2,-270 32,-439 29,-168 87,-349 184,-492 98,-144 237,-251 315,-321 79,-69 97,-100 162,-144 65,-44 175,-102 319,-124 143,-23 319,-11 505,45 186,56 383,155 547,312 164,156 294,370 358,526 64,156 62,254 54,316 -8,62 -23,88 -63,83 -40,-4 -107,-39 -219,-49z"/>
  <path class="fil5" d="M4594 1541c-112,-10 -270,5 -464,41 -194,37 -422,95 -589,151 -166,56 -270,109 -347,182 -33,32 -61,67 -83,106 0,-3 1,-6 1,-9 12,-86 55,-243 171,-374 116,-131 305,-235 464,-311 158,-77 287,-127 347,-191 60,-64 53,-143 -35,-225 -87,-83 -254,-169 -323,-235 -69,-66 -41,-111 58,-118 98,-7 266,24 398,102 133,79 229,205 298,292 69,88 111,136 170,195 59,59 134,129 209,209l4 4c10,64 8,112 3,147 -8,62 -23,88 -63,83 -40,-4 -107,-39 -219,-49z"/>
  <path class="fil2 str0" d="M2753 7885c258,-22 517,-45 801,-72 284,-26 594,-57 784,-141 191,-84 263,-222 318,-381 56,-159 94,-340 114,-445 2,-11 4,-21 6,-30 22,-41 76,-286 51,-335 125,-228 177,-338 82,-328 -50,5 -153,30 -268,89 -114,58 -240,150 -335,199 -95,49 -159,56 -181,6 -22,-49 -1,-156 16,-262 17,-106 29,-212 -3,-292 -32,-79 -109,-132 -151,-146 -42,-13 -49,14 -57,40 -73,212 -146,425 -208,576 -61,152 -111,243 -136,299 -25,56 -25,78 -83,61 -59,-17 -176,-73 -312,-116 -136,-44 -291,-73 -409,-95 -117,-23 -198,-36 -279,-51"/>
  <path class="fil2 str2" d="M4827 6481c-92,246 -282,376 -426,462m288 245c-48,60 -190,159 -294,200m381 -572c-84,164 -200,257 -305,325"/>
  <path class="fil2 str0" d="M6739 4004c-17,8 -96,39 -130,74 -179,181 159,728 392,615 65,-41 94,-101 106,-121m-606 -476c-14,41 -22,84 -22,129m5 78c31,216 202,433 427,478m-302 -703c-66,-36 -116,-30 -181,5 -48,25 -115,70 -164,117 -60,57 -98,107 -93,190 16,285 259,611 556,575 88,-10 164,-64 245,-154 39,-42 37,-60 30,-116m-11 -113c40,13 93,19 122,-16 87,-104 -191,-591 -359,-566 -10,1 -20,5 -29,11 -157,106 20,428 201,541"/>
  <path class="fil2 str3" d="M4558 4737c-4,17 -7,34 -3,57 5,28 22,53 45,74m558 142c19,0 38,1 55,0 77,0 135,-4 180,0 56,6 92,26 123,71 31,46 56,117 50,164 -6,48 -42,71 -111,82 -69,11 -170,10 -323,-20 -85,-17 -186,-43 -282,-75"/>
  <path class="fil4" d="M4151 865c-49,-19 -119,-54 -168,-88 -50,-34 -79,-68 -72,-94 7,-26 50,-46 106,-36 57,10 127,48 173,83 46,35 69,65 75,92 7,26 -3,48 -21,57 -18,9 -45,5 -93,-14z"/>
  <path class="fil2 str0" d="M4412 2934c-17,73 -28,189 -24,315"/>
 </g>
</svg>
