<?xml version="1.0" encoding="UTF-8"?>
<!DOCTYPE svg PUBLIC "-//W3C//DTD SVG 1.0//EN" "http://www.w3.org/TR/2001/REC-SVG-20010904/DTD/svg10.dtd">
<!-- Creator: CorelDRAW X8 -->
<svg xmlns="http://www.w3.org/2000/svg" xml:space="preserve" width="91.7223mm" height="91.7222mm" version="1.0" style="shape-rendering:geometricPrecision; text-rendering:geometricPrecision; image-rendering:optimizeQuality; fill-rule:evenodd; clip-rule:evenodd"
viewBox="0 0 9159 9159"
 xmlns:xlink="http://www.w3.org/1999/xlink">
 <defs>
  <style type="text/css">
   <![CDATA[
    .str2 {stroke:black;stroke-width:8.45787;stroke-linejoin:round}
    .str3 {stroke:black;stroke-width:8.45787;stroke-linecap:round}
    .str0 {stroke:black;stroke-width:8.45787;stroke-linecap:round;stroke-linejoin:round}
    .str1 {stroke:white;stroke-width:8.45787;stroke-linecap:round;stroke-linejoin:round}
    .fil2 {fill:none}
    .fil0 {fill:#FEFEFE}
    .fil1 {fill:black}
    .fil3 {fill:#898989}
    .fil4 {fill:#D03730}
    .fil5 {fill:white}
   ]]>
  </style>
 </defs>
 <g id="Слой_x0020_1">
  <metadata id="CorelCorpID_0Corel-Layer"/>
  <rect class="fil0" width="9159" height="9159"/>
  <path class="fil1" d="M3546 2926c-7,-9 -9,-13 -9,-14 0,0 3,3 5,75 1,45 2,117 -1,187 -78,-32 -149,-64 -215,-73 -91,-13 -173,16 -260,-10 -87,-26 -178,-107 -234,-246 -231,-570 150,-672 173,-814 10,-66 -56,-271 -10,-482 22,-98 22,-241 59,-363 38,-121 112,-220 221,-274 109,-54 252,-63 384,-96 132,-34 254,-90 352,-73 99,18 174,110 242,154 69,44 129,39 204,63 74,24 162,76 237,151 74,74 136,171 166,282 31,111 32,235 53,327 10,42 59,262 66,292 201,237 275,321 145,630 -42,102 -87,198 -179,260 -92,62 -232,90 -331,138 -52,25 -92,55 -133,85 0,-92 3,-191 5,-248 2,-34 3,-53 3,-65 5,-10 11,-21 18,-35 58,-120 93,-247 121,-377 3,-16 5,-26 6,-31 1,-5 1,-5 7,-8 44,-18 88,-41 123,-74 13,-11 24,-24 31,-31 6,-6 8,-7 7,-9 0,-1 -3,-4 -10,-8 -6,-4 -18,-11 -32,-20 -15,-9 -32,-22 -49,-36 -16,-15 -33,-30 -50,-49 -17,-18 -34,-39 -52,-63 -17,-25 -35,-53 -50,-79 -15,-25 -27,-48 -38,-70 -11,-22 -21,-43 -33,-70 -12,-27 -26,-59 -43,-94 -16,-36 -35,-76 -53,-111 -18,-34 -36,-64 -50,-86 -15,-22 -26,-36 -41,-50 -16,-14 -35,-28 -57,-39 -21,-12 -45,-22 -71,-30 -27,-8 -57,-14 -78,-18 -20,-4 -33,-5 -44,0 -11,5 -22,15 -39,29 -16,13 -39,30 -58,41 -19,11 -35,17 -61,25 -26,8 -62,18 -92,31 -31,12 -55,27 -87,49 -32,22 -71,52 -104,80 -34,27 -62,52 -94,84 -33,32 -70,71 -104,108 -35,37 -69,72 -99,102 -30,30 -57,54 -89,84 -33,29 -71,63 -90,81 -20,17 -20,19 -19,21 0,2 1,5 4,14 4,8 10,22 19,38 9,17 21,36 35,52 14,16 29,28 42,38 14,11 27,19 43,28 16,9 35,18 47,23 12,6 17,7 20,7 2,1 3,0 4,2 0,3 2,10 5,23 2,13 7,33 11,53 4,19 9,39 13,55 4,17 8,32 12,48 5,17 10,36 17,58 6,22 14,47 22,69 9,23 17,43 26,63 9,20 18,41 28,62 11,21 22,41 33,58 10,17 19,30 28,42 7,10 15,20 22,34z"/>
  <path class="fil2 str0" d="M4802 2248c-43,57 -98,89 -167,116m21 -108c-60,317 -115,582 -369,811 -214,193 -396,193 -610,0 -252,-229 -308,-490 -368,-811m-27 -76c-22,-36 -31,-46 -68,-68m-99 42c24,107 112,169 209,207m1353 -178c4,-7 8,-13 12,-18"/>
  <path class="fil2 str1" d="M2854 2633c10,-80 20,-160 41,-221 20,-61 53,-103 122,-169 69,-65 176,-155 264,-240 88,-85 159,-165 236,-241 78,-76 162,-147 226,-185 64,-38 107,-44 150,-57 43,-14 87,-35 132,-77 45,-41 91,-103 137,-165m235 -154c104,67 208,129 230,262 17,99 -12,199 26,296 12,30 27,56 43,81m-1310 -73c39,-46 77,-92 130,-119 53,-28 121,-36 174,-38 52,-1 89,4 126,10m-566 -91c46,-84 92,-168 165,-226 72,-57 172,-87 242,-120 71,-33 112,-69 144,-101 32,-32 53,-60 97,-78 43,-18 107,-26 158,-13 52,12 89,45 127,78m-842 1548c-9,56 -18,113 -50,173 -32,61 -87,126 -111,186 -23,59 -17,117 6,175"/>
  <path class="fil2 str1" d="M4045 1427c18,-6 25,-8 44,-6 68,15 185,43 249,133 65,89 126,253 185,373 60,121 118,198 185,254 76,64 190,124 290,140m-340 201c3,78 6,157 27,217 21,60 60,100 89,141 14,20 27,41 37,63"/>
  <path class="fil3" d="M2072 5955c7,16 13,32 19,48 105,281 184,653 147,1016 -37,362 -190,715 -186,893 3,179 163,183 409,230 245,47 577,137 853,131 276,-7 496,-110 775,-116 280,-6 618,86 803,116 186,29 218,-5 247,-85 29,-79 55,-205 61,-414 5,-209 -9,-500 -19,-720 -10,-220 -17,-368 -21,-435 -1,-19 -2,-31 0,-38l0 0 0 -1c1,-1 1,-3 2,-6 2,-7 7,-20 33,-30 26,-9 74,-16 142,-20 67,-5 154,-6 212,-10 59,-5 89,-11 106,-17 16,-6 18,-11 25,-24 6,-13 17,-34 30,-59 14,-25 30,-55 47,-83 17,-28 34,-55 56,-88 23,-34 51,-75 85,-122 34,-47 75,-100 119,-156 44,-55 91,-113 135,-166 19,-23 38,-45 56,-67 -43,-249 -93,-530 -134,-755 -70,-382 -114,-602 -195,-761 -82,-160 -201,-258 -305,-335 -105,-77 -195,-131 -324,-193 -128,-61 -295,-129 -408,-176 -175,-71 -248,-115 -330,-310 -23,-54 -27,-107 -32,-133 -519,575 -937,21 -937,27 0,15 -1,47 -10,87 -44,144 -496,351 -764,462 -781,325 -1843,870 -2022,1356 -205,558 213,1028 786,1040 175,3 354,-28 539,-86z"/>
  <path class="fil4" d="M5157 8369c-60,10 -604,-119 -896,-90 -821,82 -1012,197 -1929,12 -166,-34 -171,-46 -138,-233 32,-188 103,-551 120,-871 16,-319 -21,-596 -42,-875 -21,-279 -26,-561 -39,-860 -12,-300 -31,-617 -89,-871 -57,-253 -152,-443 -199,-539 -21,-41 9,-46 44,-66 229,-132 1128,-577 1144,-579 60,-5 90,-45 187,142 123,238 354,706 479,1051 125,345 145,567 158,678 13,111 20,111 47,-41 28,-152 75,-457 144,-724 69,-267 159,-496 243,-700 60,-144 155,-310 232,-451 20,-36 32,-33 67,-7 50,35 145,113 297,197 153,85 362,176 481,233 273,129 18,495 -47,765 -52,223 -74,404 -79,518 -24,493 158,659 -45,1217 -155,426 103,2052 -140,2094z"/>
  <rect class="fil5" x="1844" y="4798" width="6552" height="4010"/>
  <rect class="fil2 str2" x="1844" y="4798" width="6552" height="4010"/>
  <path class="fil4" d="M6993 5838l6 222 85 0 0 -222 -91 0zm376 222l19 0c12,-55 32,-125 49,-222l-68 0 0 222zm0 -271l76 0c5,-27 10,-62 14,-104l-90 0 0 104zm294 -104c5,42 10,77 15,104l163 0 0 -104 -178 0zm178 153l-156 0c18,97 37,167 50,222l72 0 0 56 34 0 0 -278zm-1437 278l146 0 0 -549 41 0 0 549 42 0 0 -56 75 0 11 -396 -16 0 0 -83 18 0 4 -167 -22 0 0 -62 24 0 1 -49 82 0 1 49 17 0 0 62 -15 0 4 167 18 0 0 83 -16 0 11 396 46 0 11 -396 -11 0 0 -83 13 0 5 -167 -18 0 0 -62 20 0 1 -49 82 0 1 49 21 0 0 62 -20 0 5 167 22 0 0 83 -20 0 4 125 92 0 0 -17c0,-38 29,-68 66,-68 16,0 32,5 39,14l0 -63c0,-48 40,-87 88,-87 44,0 82,34 88,76l99 0c5,-63 9,-125 9,-202l177 0c0,77 3,139 9,202l238 0 0 472 140 0c-102,361 -429,615 -817,615 -388,0 -715,-254 -816,-615z"/>
  <path class="fil2 str0" d="M5981 8533l2146 0m-5818 -2791l3688 0m-3688 254l3688 0m-3688 254l3688 0m-3688 253l4021 0m-4021 254l4157 0m-4157 254l5818 0m-5818 253l5818 0m-5818 254l5818 0m-5818 254l5818 0m-2927 253l2927 0m-2484 254l2484 0"/>
  <path class="fil0" d="M3547 6743c-2,5 -6,14 -8,25 -2,11 -2,24 -1,38 1,15 3,31 8,45 4,15 11,27 17,37 7,10 13,17 21,24 9,7 20,15 33,23 13,8 28,16 36,21 8,5 9,6 12,14 2,8 7,24 12,37 5,13 11,24 19,34 7,11 16,20 27,28 12,8 27,14 44,19 17,5 35,9 61,12 25,3 57,4 101,5 45,0 102,-1 149,-3 46,-3 82,-7 104,-11 22,-4 30,-7 36,-12 7,-4 13,-9 17,-16 5,-7 9,-17 17,-43 8,-26 21,-69 32,-109 11,-40 21,-78 26,-97 5,-19 6,-19 8,-18 2,1 6,4 23,17 18,13 48,37 85,66 37,28 80,62 107,82 27,21 37,28 52,37 15,9 36,21 54,32 19,10 35,18 54,27 18,8 39,17 56,23 16,6 30,10 40,10 10,1 17,-2 22,-6 5,-4 7,-8 8,-15 0,-8 -1,-17 -3,-26 -2,-9 -6,-17 -13,-29 -8,-13 -19,-29 -35,-50 -16,-21 -37,-45 -61,-74 -24,-28 -51,-60 -71,-83 -20,-23 -32,-37 -42,-47 -10,-11 -19,-18 -33,-29 -13,-12 -32,-27 -54,-47 -21,-20 -47,-44 -71,-69 -24,-24 -47,-49 -62,-65 -15,-16 -21,-23 -25,-29 -4,-5 -5,-8 -8,-13 -2,-6 -6,-14 -12,-21 -6,-8 -14,-14 -26,-23 -12,-9 -28,-20 -41,-29 -14,-9 -24,-16 -35,-25 -11,-8 -23,-18 -34,-29 -11,-12 -22,-25 -32,-36 -10,-10 -21,-19 -33,-27 -12,-8 -25,-15 -40,-21 -14,-6 -28,-11 -49,-16 -20,-6 -46,-12 -78,-18 -33,-6 -72,-13 -110,-20 -37,-6 -73,-12 -106,-19 -34,-6 -67,-13 -91,-19 -24,-5 -40,-10 -54,-16 -15,-6 -29,-13 -45,-22 -16,-10 -34,-22 -56,-39 -22,-17 -48,-39 -74,-62 -27,-23 -55,-49 -89,-80 -34,-32 -74,-70 -121,-114 -47,-43 -100,-94 -149,-140 -49,-46 -95,-89 -141,-132 -46,-43 -92,-85 -135,-125 -43,-39 -82,-74 -121,-109 -39,-34 -78,-68 -112,-99 -35,-30 -66,-57 -110,-94 -44,-37 -102,-83 -153,-122 -51,-39 -96,-72 -135,-97 -38,-25 -71,-44 -110,-65 -39,-21 -84,-44 -119,-61 -34,-16 -58,-26 -82,-35 -23,-8 -46,-17 -69,-24 -22,-7 -43,-13 -68,-19 -24,-5 -51,-10 -76,-15 -25,-4 -47,-8 -74,-10 -26,-3 -57,-5 -86,-5 -29,0 -57,1 -82,3 -25,3 -45,7 -70,13 -24,7 -51,16 -75,25 -24,9 -44,18 -64,28 -19,9 -38,18 -58,31 -20,12 -42,29 -61,45 -19,15 -35,30 -48,45 -14,15 -25,30 -40,50 -14,20 -31,45 -43,67 -12,23 -19,43 -26,66 -8,22 -17,47 -23,71 -5,23 -8,46 -10,67 -2,20 -3,39 -3,57 0,17 1,35 3,50 2,16 5,30 9,47 3,17 8,35 14,55 6,19 13,39 21,57 7,18 14,34 21,47 8,13 15,23 24,36 10,12 21,28 33,42 12,15 23,28 34,40 11,12 21,22 36,36 15,13 37,30 54,43 16,13 29,21 50,34 20,12 49,29 85,45 36,17 79,33 120,48 41,14 81,27 117,39 35,11 66,21 107,33 41,12 91,26 134,38 43,13 78,22 116,33 39,11 82,22 129,35 47,13 98,27 151,42 53,15 107,30 170,49 63,18 135,39 199,58 63,20 119,37 182,58 63,20 133,43 189,63 56,19 98,34 132,48 35,15 61,29 81,41 20,12 32,22 41,31 10,9 18,18 27,29 10,12 21,27 32,42 12,15 23,29 36,43 13,14 27,28 41,39 14,12 29,22 47,32 18,11 39,23 69,37 30,14 69,31 98,44 29,13 48,21 59,26 11,5 13,7 15,8 1,1 1,2 -1,7z"/>
  <path class="fil1" d="M6052 7810c-469,-230 -1179,-601 -1770,-891 4,-15 9,-33 13,-49l6 -22c581,311 1281,703 1751,962zm-2292 -1139c-38,-17 -75,-33 -109,-48 14,-30 29,-61 43,-91 16,8 32,16 49,24 1,12 3,28 5,47 3,22 8,48 11,63l1 5z"/>
  <path class="fil2 str0" d="M4346 6519c39,43 77,85 112,119 45,45 85,78 108,97 23,19 28,24 65,67 38,43 109,123 147,174 38,51 44,71 43,89 -1,17 -9,32 -44,24 -36,-7 -99,-37 -149,-65 -50,-28 -87,-54 -141,-97 -53,-42 -122,-99 -171,-132m-153 -230c3,104 7,209 8,264 0,55 -2,62 -49,82 -47,21 -139,55 -187,73 -48,17 -51,18 -82,15 -31,-3 -89,-9 -148,-16m244 -520c21,113 42,227 53,284 10,57 10,57 -14,75 -24,18 -72,55 -126,78 -54,23 -114,33 -174,42m141 -166c-33,-14 -65,-29 -92,-34 -26,-4 -47,1 -67,7m-80 -52c16,-1 32,-1 45,7 13,9 24,27 35,45m159 27c-24,-17 -48,-35 -63,-80 -15,-45 -22,-116 -28,-188m-513 -46c72,30 143,61 199,74 57,14 99,10 139,6 40,-4 78,-9 107,-14 29,-6 49,-13 68,-20m-1569 -409c-298,-84 -612,-163 -842,-248 -958,-354 -291,-1762 963,-802 326,249 758,667 994,889 236,221 276,247 374,269 98,23 253,43 346,64 92,20 121,41 144,64 23,22 41,47 69,69 28,22 66,42 95,66 22,19 38,39 40,90 0,17 -1,36 -4,60 -5,42 -16,97 -28,153 -17,74 -38,150 -53,202 -26,91 -36,107 -73,116 -36,9 -99,11 -173,13 -74,2 -159,4 -217,-5 -58,-10 -90,-32 -109,-57 -20,-25 -26,-55 -30,-69 -3,-15 -3,-15 -23,-24 -19,-9 -59,-28 -81,-61 -21,-33 -26,-81 -24,-109 3,-27 11,-35 12,-40 1,-5 -6,-8 -41,-23 -36,-14 -101,-41 -154,-68 -53,-26 -95,-53 -127,-86 -32,-34 -55,-75 -86,-110 -32,-36 -73,-65 -233,-124 -161,-58 -442,-146 -739,-229z"/>
  <path class="fil5" d="M8142 4904c6,3 17,10 31,16 13,6 30,11 44,12 14,2 25,2 34,-1 9,-2 16,-5 22,-10 6,-6 11,-13 14,-22 3,-8 4,-17 3,-28 -2,-11 -5,-24 -9,-35 -4,-12 -9,-22 -16,-33 -7,-12 -15,-25 -26,-37 -10,-12 -24,-24 -37,-33 -12,-9 -24,-16 -36,-21 -11,-5 -23,-9 -35,-12 -12,-3 -25,-5 -38,-6 -13,0 -27,2 -39,4 -13,2 -24,5 -31,6 -7,2 -10,3 -13,2 -4,-1 -8,-5 -15,-9 -6,-4 -15,-10 -26,-15 -11,-5 -25,-10 -37,-13 -13,-3 -25,-4 -38,-3 -13,1 -28,3 -42,6 -14,3 -27,8 -34,10 -7,2 -8,2 -13,1 -5,-2 -13,-6 -23,-10 -11,-3 -22,-6 -36,-7 -14,-1 -30,0 -48,4 -17,3 -36,9 -55,17 -19,8 -38,17 -49,21 -11,4 -13,4 -20,2 -7,-1 -17,-4 -28,-5 -12,-2 -24,-2 -37,1 -14,3 -29,9 -41,16 -13,6 -23,13 -32,21 -10,7 -18,16 -22,24 -5,7 -6,14 -5,19 0,4 1,8 8,10 7,2 20,3 33,5 13,1 27,4 40,8 13,4 25,9 36,14 11,5 20,10 32,19 12,8 26,19 40,30 15,10 30,20 44,28 13,7 26,11 39,13 13,2 27,2 38,-2 12,-3 21,-9 26,-15 6,-6 7,-12 7,-18 -1,-7 -4,-14 -6,-18 -2,-5 -3,-7 0,-6 4,1 13,6 24,12 12,6 28,13 42,20 14,7 27,12 41,17 15,4 30,7 42,8 12,0 19,-1 25,-4 6,-2 11,-6 14,-11 3,-4 4,-9 5,-13 1,-4 1,-8 3,-9 1,-1 3,1 13,7 9,7 26,18 41,27 15,8 28,15 40,19 12,5 22,7 32,9 9,1 19,2 28,0 9,-1 17,-5 23,-10 6,-5 11,-10 13,-14 3,-4 4,-6 4,-8 1,-2 1,-3 6,0z"/>
  <path class="fil2 str0" d="M7440 4799c21,2 54,4 92,26 38,23 82,64 118,81 36,17 65,9 84,-1 18,-11 26,-24 7,-54 -19,-30 -65,-76 -105,-106 -41,-30 -75,-44 -110,-42 -35,2 -70,21 -91,39 -21,18 -29,36 -27,45 1,10 10,10 32,12z"/>
  <path class="fil2 str0" d="M7741 4851c34,18 68,36 101,48 33,11 65,17 83,8 17,-9 21,-32 -1,-78 -21,-46 -67,-115 -115,-144 -48,-30 -98,-20 -136,-9 -37,12 -63,25 -89,38"/>
  <path class="fil2 str0" d="M7938 4869c29,22 58,43 88,56 30,13 61,17 84,8 23,-10 38,-32 18,-77 -19,-44 -72,-111 -118,-148 -45,-37 -82,-45 -115,-44 -32,1 -59,11 -86,21"/>
  <path class="fil2 str0" d="M8137 4900c14,9 28,19 50,26 23,7 55,12 77,1 23,-12 35,-40 23,-80 -13,-40 -50,-91 -91,-120 -40,-28 -84,-33 -116,-32 -32,0 -51,7 -70,13"/>
  <path class="fil4" d="M2903 1766c0,-1 0,-1 4,-81 18,-419 213,-881 658,-1090 52,-24 52,-24 52,-24 11,-52 3,-71 79,-79 64,-7 193,-20 257,-27 88,-9 92,28 96,54 476,97 840,643 876,1062 1,12 2,19 7,25 172,99 160,294 47,406 -310,-575 -1766,-305 -2043,126 -48,-26 -229,-201 -33,-372z"/>
  <path class="fil2 str3" d="M3619 606c51,94 71,207 78,298m-715 843c603,-283 1410,-343 1879,-158m-813 -1057c-23,69 -38,246 -28,340"/>
  <path class="fil2 str3" d="M3317 2166c96,60 251,149 365,155 42,3 62,-10 93,-47 32,-38 73,-100 97,-135 24,-35 29,-42 39,-47 17,-9 113,-9 129,0 10,5 15,12 38,47 24,35 66,97 97,135 31,37 52,50 94,47 111,-6 265,-93 359,-152 10,-6 17,-11 24,-15"/>
  <path class="fil4" d="M2598 6295c31,-32 108,-85 176,-150 67,-65 124,-141 171,-205 47,-65 83,-119 116,-180 34,-62 65,-132 79,-164 15,-33 13,-29 83,53 70,82 212,242 291,332 80,90 98,111 196,134 98,23 277,48 381,77 105,28 135,61 156,90 22,29 35,54 46,71 10,16 18,23 41,32 24,9 62,19 161,126 99,107 257,311 339,429 82,118 87,150 79,181 -7,31 -29,60 -56,74 -28,15 -62,15 -136,-30 -73,-45 -184,-135 -255,-192 -71,-57 -100,-82 -114,-96 -13,-14 -10,-18 -12,10 -3,27 -10,85 -19,135 -8,51 -17,93 -43,115 -25,22 -67,24 -149,27 -81,4 -202,9 -292,7 -90,-2 -150,-12 -184,-45 -33,-32 -40,-88 -46,-116 -5,-28 -8,-29 -36,-39 -27,-9 -78,-28 -101,-65 -23,-37 -18,-93 -15,-121 3,-28 3,-28 -34,-38 -37,-10 -111,-30 -167,-56 -55,-26 -92,-59 -120,-94 -28,-34 -46,-71 -87,-99 -40,-28 -103,-46 -182,-70 -78,-23 -174,-51 -229,-70 -55,-20 -70,-30 -38,-63z"/>
  <path class="fil2 str0" d="M4163 6565c3,104 7,209 8,264 0,55 -2,62 -49,82 -47,21 -139,55 -187,73 -48,17 -51,18 -82,15 -31,-3 -89,-9 -148,-16m244 -520c21,113 42,227 53,284 10,57 10,57 -14,75 -24,18 -72,55 -126,78 -54,23 -114,33 -174,42m-98 -245c49,-2 56,12 80,52 67,-18 98,0 159,27 -24,-17 -48,-35 -63,-80 -15,-45 -22,-116 -28,-188 -198,70 -324,35 -513,-46"/>
  <path class="fil4" d="M7344 4761c12,-22 36,-54 67,-75 32,-22 70,-34 103,-35 32,-2 58,6 74,9 16,3 22,1 44,-10 21,-12 57,-32 89,-38 33,-5 62,5 79,12 18,7 24,10 44,5 21,-4 57,-18 85,-23 29,-5 51,-2 69,8 18,11 32,28 40,36 8,9 9,9 34,6 25,-3 73,-9 129,14 56,23 120,76 147,133 26,57 15,118 0,154 -15,36 -34,47 -65,45 -31,-2 -76,-17 -98,-22 -22,-5 -22,-1 -33,8 -12,9 -35,21 -69,13 -33,-9 -77,-40 -99,-54 -21,-15 -21,-13 -27,-3 -5,10 -15,29 -43,27 -27,-2 -71,-24 -94,-36 -23,-11 -25,-11 -28,-3 -3,9 -7,27 -19,39 -12,12 -32,19 -63,12 -31,-6 -73,-24 -116,-45 -44,-20 -88,-43 -128,-58 -41,-15 -76,-24 -98,-34 -22,-10 -32,-22 -35,-35 -4,-13 -2,-27 11,-50z"/>
  <path class="fil2 str0" d="M7775 4872c-17,-48 -77,-124 -137,-162"/>
  <path class="fil2 str0" d="M7948 4873c-1,-57 -66,-157 -106,-192"/>
  <path class="fil2 str0" d="M8160 4919c1,-58 -40,-152 -96,-211"/>
  <path class="fil2 str3" d="M2206 3984c159,268 276,520 395,796m2776 -920c-122,312 -225,592 -313,909m-377 -1287c-193,448 -329,831 -442,1294m-1198 -1151c217,395 366,744 522,1155"/>
 </g>
</svg>
