<?xml version="1.0" encoding="UTF-8"?>
<!DOCTYPE svg PUBLIC "-//W3C//DTD SVG 1.0//EN" "http://www.w3.org/TR/2001/REC-SVG-20010904/DTD/svg10.dtd">
<!-- Creator: CorelDRAW X8 -->
<svg xmlns="http://www.w3.org/2000/svg" xml:space="preserve" width="91.7223mm" height="91.7222mm" version="1.0" style="shape-rendering:geometricPrecision; text-rendering:geometricPrecision; image-rendering:optimizeQuality; fill-rule:evenodd; clip-rule:evenodd"
viewBox="0 0 9200 9200"
 xmlns:xlink="http://www.w3.org/1999/xlink">
 <defs>
  <style type="text/css">
   <![CDATA[
    .str2 {stroke:black;stroke-width:8.49581;stroke-linecap:round}
    .str1 {stroke:black;stroke-width:8.49581;stroke-linecap:round;stroke-linejoin:round}
    .str0 {stroke:white;stroke-width:8.49581;stroke-linecap:round;stroke-linejoin:round}
    .fil4 {fill:none}
    .fil0 {fill:#FEFEFE}
    .fil3 {fill:black}
    .fil1 {fill:#898989}
    .fil2 {fill:#D03730}
   ]]>
  </style>
 </defs>
 <g id="Слой_x0020_1">
  <metadata id="CorelCorpID_0Corel-Layer"/>
  <rect class="fil0" width="9200" height="9200"/>
  <path class="fil1" d="M1904 4573c-287,310 -440,611 -526,867 -85,256 -103,466 -80,620 23,154 87,252 195,298 108,46 260,40 438,-39 139,-62 294,-170 444,-300 -11,-97 -1,-202 -10,-295 -10,-104 -43,-193 -62,-300 -19,-107 -24,-232 -29,-357 12,-15 24,-30 52,-38 27,-8 71,-9 98,-2 28,6 40,21 51,36 5,125 9,250 28,357 19,107 52,196 62,300 4,36 5,74 5,113 156,-162 294,-334 386,-445 105,-127 150,-174 175,-181 26,-7 33,27 31,254 -2,228 -12,649 -24,1068 -11,419 -24,837 -33,1207 -8,369 -14,691 -7,878 7,187 27,238 137,258 111,19 313,7 517,-16 204,-23 411,-57 659,-57 248,0 536,34 818,38 281,4 555,-20 737,-42 183,-23 273,-42 269,-490 -3,-447 -101,-1323 -147,-1745 -46,-422 -40,-390 57,-265 97,124 287,342 472,454 186,113 368,120 500,59 132,-61 213,-191 236,-363 23,-173 -12,-388 -110,-762 -98,-373 -259,-904 -370,-1254 -111,-350 -171,-520 -222,-616 -51,-95 -94,-117 -234,-163 -139,-47 -376,-120 -665,-189 -288,-69 -628,-134 -942,-158 -314,-24 -602,-6 -893,54 -291,60 -585,162 -943,374 -359,211 -782,531 -1070,842z"/>
  <path class="fil2" d="M3985 3264c-154,69 -263,157 -288,468 -24,312 36,846 64,1116 29,270 25,275 -6,284 -31,9 -89,21 -118,27 -30,6 -30,6 -102,263 -73,256 -218,770 -307,1037 -89,267 -123,288 -143,308 -21,21 -28,40 -37,341 -9,301 -19,883 -17,1225 1,343 16,445 73,509 58,64 158,88 357,83 200,-5 497,-41 752,-53 256,-12 470,-2 722,11 252,12 543,26 760,21 218,-5 363,-30 453,-77 90,-47 126,-116 141,-272 15,-155 9,-398 -18,-789 -27,-391 -77,-931 -93,-1368 0,-22 -1,-43 -2,-64 -11,-14 -21,-27 -31,-39 -106,-137 -419,-524 -508,-570 -9,-5 -18,-8 -26,-6l0 -371 564 0c-8,-47 -29,-46 -68,-48 -58,-4 -159,-16 -208,-31 -50,-15 -48,-33 -61,-247 -14,-214 -42,-625 -54,-950 -13,-326 -9,-566 -31,-700 -22,-133 -70,-160 -277,-188 -207,-29 -573,-59 -856,-49 -283,10 -482,60 -635,129zm215 308c-19,107 -41,293 -38,572 3,280 29,653 58,844 30,192 62,200 175,217 113,17 308,42 468,50 160,8 286,-2 357,-9 71,-7 86,-12 114,-167 29,-156 69,-462 94,-740 25,-278 34,-527 37,-679 4,-152 3,-207 -176,-233 -179,-26 -535,-22 -737,-20 -201,1 -249,1 -282,16 -33,14 -50,42 -70,149z"/>
  <path class="fil3" d="M4918 4370c-165,11 -322,-6 -453,-99 -131,-93 -236,-261 -336,-485 -101,-224 -199,-503 -253,-853 -53,-349 -64,-769 -50,-1040 14,-272 53,-396 76,-459 23,-64 30,-67 108,-111 78,-43 227,-126 440,-177 213,-50 491,-68 703,-36 212,32 359,113 438,212 79,99 89,216 97,514 8,298 13,778 2,1133 -12,356 -40,588 -87,785 -47,197 -112,360 -231,462 -118,102 -290,142 -454,154zm470 -1324c7,-244 14,-487 22,-730 -239,50 -685,85 -1001,61 7,232 14,465 21,698 346,16 614,10 958,-29z"/>
  <path class="fil4 str0" d="M5136 2029c-10,-127 -19,-255 -12,-358 8,-103 33,-182 72,-232 39,-50 93,-72 150,-83 57,-10 117,-8 178,-6m-1497 87c108,-1 216,-1 298,15 83,17 141,52 182,102 42,50 67,115 90,199 23,84 44,187 64,289"/>
  <path class="fil4 str0" d="M4321 3635c141,-3 282,-5 433,-19 151,-13 312,-38 452,-75 141,-36 261,-84 381,-132"/>
  <path class="fil2" d="M5070 4962c105,136 210,272 287,425 77,152 126,321 175,490 113,-32 227,-63 338,-122 111,-59 219,-145 283,-238 63,-93 82,-193 100,-293 -70,-56 -141,-113 -224,-196 -83,-83 -179,-193 -245,-310 -66,-118 -102,-244 -142,-361 -40,-117 -85,-225 -140,-290 -56,-65 -123,-87 -220,-83 -97,5 -224,35 -325,66 -102,31 -179,64 -226,127 -48,63 -66,156 -54,212 11,57 50,77 90,76 40,0 80,-23 100,-34 20,-11 20,-11 17,12 -4,22 -10,67 -6,109 4,43 18,84 25,104 8,20 8,20 -3,41 -11,20 -32,60 -33,109 0,50 20,109 31,144 12,35 15,47 30,51 16,4 44,2 70,-6 26,-8 49,-20 72,-33z"/>
  <path class="fil4 str1" d="M5072 4932c29,-78 55,-101 116,-155m-246 -146c154,-118 226,-107 413,-86m-464 -155c121,-197 224,-208 445,-197"/>
  <path class="fil4 str1" d="M2202 5197c17,75 34,151 21,258 -13,107 -57,247 -100,386"/>
  <path class="fil4 str1" d="M6267 5407c159,74 318,148 461,231 144,82 271,172 399,262"/>
  <path class="fil4 str1" d="M6264 5126c-4,-90 -9,-179 14,-297 22,-117 72,-263 88,-376 17,-113 0,-193 -17,-272"/>
  <path class="fil4 str1" d="M4770 5447c-5,288 -11,576 -29,833 -19,257 -51,481 -57,720 -6,239 13,492 20,772 7,281 2,589 -3,897"/>
  <path class="fil4 str1" d="M3430 6084c-31,113 -62,226 -73,385 -11,159 -3,363 2,474 4,111 4,129 154,136 150,7 450,3 615,1 164,-3 193,-5 208,-8 15,-4 15,-9 26,-83 12,-75 36,-218 48,-372 12,-154 12,-318 12,-483"/>
  <path class="fil4 str1" d="M3431 6233c96,21 193,42 318,54 125,12 280,15 387,9 107,-7 167,-23 226,-38"/>
  <path class="fil4 str1" d="M3469 6125c134,5 268,11 396,17 127,5 248,11 334,12 86,2 136,0 187,-1"/>
  <path class="fil4 str1" d="M5912 6940c31,113 62,227 73,385 11,159 2,363 -2,474 -5,112 -5,129 -155,136 -150,7 -450,4 -614,1 -165,-2 -194,-4 -208,-8 -15,-3 -15,-9 -26,-93 -10,-85 -32,-249 -44,-403 -12,-153 -14,-297 -17,-442"/>
  <path class="fil4 str1" d="M5910 7090c-96,21 -192,42 -317,54 -126,12 -280,14 -387,8 -107,-6 -167,-22 -227,-38"/>
  <path class="fil4 str1" d="M5872 6981c-134,6 -268,12 -395,17 -128,6 -248,11 -334,13 -86,2 -137,0 -188,-2"/>
  <path class="fil4 str2" d="M5270 5235c133,206 194,408 262,642 69,-19 138,-39 207,-64m83 -1034c-14,-20 -26,-41 -38,-61 -106,-190 -155,-502 -282,-651"/>
  <path class="fil4 str2" d="M2274 5067c1,7 1,15 1,22 5,118 10,234 28,335 19,107 52,196 62,300 10,103 -3,222 15,327 87,515 -17,492 -156,980 -169,594 -127,1280 -92,1890m343 -3858c1,13 1,27 2,41 4,111 10,221 26,316 19,107 52,196 62,300 10,103 -3,222 15,327 88,515 -16,492 -155,980 -169,594 -127,1280 -92,1890"/>
  <path class="fil2" d="M1775 4537c-30,73 -48,135 -40,227 8,92 42,214 107,294 65,79 162,117 234,125 72,9 120,-10 148,-35 29,-25 39,-55 45,-70 5,-15 7,-15 37,-4 29,11 87,33 166,22 78,-12 178,-57 245,-113 68,-57 102,-125 127,-193 26,-68 42,-136 50,-170 7,-35 7,-35 20,-58 12,-24 37,-72 43,-116 6,-44 -8,-83 -14,-103 -7,-20 -7,-20 6,-50 13,-30 38,-91 25,-146 -14,-55 -67,-106 -94,-131 -26,-25 -26,-25 -73,-13 -47,12 -141,36 -213,42 -73,6 -124,-5 -150,-11 -26,-6 -26,-6 31,-51 56,-44 168,-134 229,-213 62,-79 72,-149 44,-192 -28,-43 -94,-60 -179,-15 -84,45 -186,152 -302,284 -117,132 -247,289 -333,410 -86,121 -129,206 -159,280z"/>
  <path class="fil4 str1" d="M2344 4405c221,64 363,68 563,-56m-747 474c21,101 33,137 97,219m142 -382c188,57 265,50 445,-25"/>
  <path class="fil4 str1" d="M3146 5127c-20,-138 -40,-276 -45,-403 -4,-127 7,-244 19,-361"/>
  <path class="fil3" d="M2440 3949c17,-75 52,-222 70,-299 19,-78 21,-87 73,-86 52,0 154,9 209,15 55,5 63,6 90,54 27,49 73,145 96,194 23,50 23,54 6,79 -16,25 -48,72 -71,107 -23,34 -36,56 -110,61 -73,5 -207,-7 -280,-17 -73,-11 -86,-19 -92,-24 -7,-6 -8,-9 9,-84z"/>
  <path class="fil3" d="M2634 3767c-14,-27 -33,-79 -36,-143 -3,-65 10,-141 39,-218 30,-76 76,-153 112,-201 36,-49 61,-70 74,-80 13,-11 13,-11 6,-19 -7,-9 -21,-26 -28,-34 -7,-9 -6,-10 60,-56 66,-46 197,-138 265,-184 69,-45 73,-45 120,-57 47,-12 136,-37 181,-49 44,-12 43,-12 50,-4 8,9 25,27 38,49 12,23 21,51 25,65 5,13 5,13 -40,54 -44,40 -132,120 -188,167 -56,47 -81,60 -93,67 -12,7 -12,7 -10,13 1,5 5,16 7,23 3,7 5,10 -28,36 -32,26 -99,76 -133,101 -33,24 -33,24 -41,13 -8,-11 -24,-34 -32,-45 -8,-11 -8,-11 -26,8 -19,19 -56,57 -85,98 -30,41 -53,83 -65,127 -12,43 -12,87 -10,124 1,37 4,67 6,83 2,15 2,15 -20,27 -23,13 -67,39 -95,51 -27,12 -38,11 -53,-16z"/>
 </g>
</svg>
